<svg width="11" height="11" viewBox="0 0 11 11" fill="none" xmlns="http://www.w3.org/2000/svg">
<g clip-path="url(#clip0_2_2659)">
<path d="M2.21997 1.11078C2.21983 1.40517 2.10274 1.68744 1.89447 1.8955C1.6862 2.10356 1.40382 2.22037 1.10943 2.22022C0.815045 2.22007 0.532773 2.10298 0.324715 1.89471C0.116656 1.68645 -0.000147054 1.40406 1.38949e-07 1.10967C0.000147332 0.815289 0.117233 0.533017 0.3255 0.32496C0.533765 0.1169 0.816153 9.70865e-05 1.11054 0.00024428C1.40493 0.000391473 1.6872 0.117477 1.89525 0.325745C2.10331 0.534009 2.22012 0.816397 2.21997 1.11078ZM2.25327 3.04216H0.0332996V9.99065H2.25327V3.04216ZM5.76082 3.04216H3.55195V9.99065H5.73863V6.34437C5.73863 4.31308 8.38594 4.12439 8.38594 6.34437V9.99065H10.5782V5.58957C10.5782 2.16528 6.6599 2.29291 5.73863 3.97454L5.76082 3.04216Z" fill="white"/>
</g>
<defs>
<clipPath id="clip0_2_2659">
<rect width="10.5782" height="10.155" fill="white" transform="translate(0 0.000244141)"/>
</clipPath>
</defs>
</svg>
