<svg width="21" height="14" viewBox="0 0 21 14" fill="none" xmlns="http://www.w3.org/2000/svg">
<g clip-path="url(#clip0_2_2537)">
<g clip-path="url(#clip1_2_2537)">
<path d="M19.5771 0.625488H0.52948V13.3239H19.5771V0.625488Z" fill="#FF9933"/>
<path d="M19.5771 4.8584H0.52948V9.09121H19.5771V4.8584Z" fill="white"/>
<path d="M19.5771 9.09131H0.52948V13.3241H19.5771V9.09131Z" fill="#128807"/>
<path d="M10.0535 8.66774C10.9885 8.66774 11.7466 7.9097 11.7466 6.97462C11.7466 6.03953 10.9885 5.28149 10.0535 5.28149C9.11839 5.28149 8.36035 6.03953 8.36035 6.97462C8.36035 7.9097 9.11839 8.66774 10.0535 8.66774Z" fill="#000088"/>
<path d="M10.0538 8.45637C10.872 8.45637 11.5352 7.79309 11.5352 6.97489C11.5352 6.15669 10.872 5.49341 10.0538 5.49341C9.23555 5.49341 8.57227 6.15669 8.57227 6.97489C8.57227 7.79309 9.23555 8.45637 10.0538 8.45637Z" fill="white"/>
<path d="M10.0533 7.27106C10.2169 7.27106 10.3495 7.1384 10.3495 6.97476C10.3495 6.81112 10.2169 6.67847 10.0533 6.67847C9.88963 6.67847 9.75696 6.81112 9.75696 6.97476C9.75696 7.1384 9.88963 7.27106 10.0533 7.27106Z" fill="#000088"/>
<path d="M11.5127 7.24152C11.5533 7.24686 11.5904 7.2183 11.5957 7.17775C11.6011 7.13719 11.5726 7.09998 11.532 7.09464C11.4915 7.08929 11.4542 7.11785 11.4489 7.15841C11.4435 7.19897 11.4721 7.23618 11.5127 7.24152Z" fill="#000088"/>
<path d="M10.0537 8.45597L10.1045 7.56708L10.0537 7.1438L10.0029 7.56708L10.0537 8.45597Z" fill="#000088"/>
<path d="M11.3934 7.61055C11.4312 7.62621 11.4745 7.60826 11.4902 7.57046C11.5059 7.53267 11.4879 7.48933 11.4501 7.47368C11.4123 7.45802 11.369 7.47597 11.3533 7.51377C11.3377 7.55156 11.3556 7.59489 11.3934 7.61055Z" fill="#000088"/>
<path d="M9.66992 8.40564L9.94902 7.56018L10.0095 7.13818L9.85092 7.53389L9.66992 8.40564Z" fill="#000088"/>
<path d="M11.1833 7.93583C11.2158 7.96073 11.2622 7.95461 11.2872 7.92215C11.3121 7.88969 11.306 7.84319 11.2735 7.81829C11.241 7.79339 11.1945 7.7995 11.1696 7.83196C11.1447 7.86442 11.1508 7.91092 11.1833 7.93583Z" fill="#000088"/>
<path d="M9.31256 8.25771L9.801 7.51331L9.96863 7.12134L9.71302 7.46251L9.31256 8.25771Z" fill="#000088"/>
<path d="M10.8961 8.1951C10.9211 8.22755 10.9676 8.23368 11 8.20877C11.0324 8.18387 11.0386 8.13737 11.0137 8.10491C10.9888 8.07246 10.9422 8.06633 10.9099 8.09124C10.8774 8.11614 10.8713 8.16265 10.8961 8.1951Z" fill="#000088"/>
<path d="M9.0058 8.02233L9.67026 7.4297L9.93362 7.09448L9.59842 7.35787L9.0058 8.02233Z" fill="#000088"/>
<path d="M10.5515 8.37173C10.5672 8.40952 10.6106 8.42747 10.6484 8.41181C10.6862 8.39616 10.7041 8.35282 10.6885 8.31503C10.6728 8.27723 10.6294 8.25929 10.5916 8.27495C10.5539 8.29059 10.5359 8.33393 10.5515 8.37173Z" fill="#000088"/>
<path d="M8.77032 7.7154L9.56552 7.31495L9.90672 7.05933L9.51472 7.22697L8.77032 7.7154Z" fill="#000088"/>
<path d="M10.1735 8.45314C10.1788 8.49369 10.2161 8.52224 10.2566 8.51691C10.2971 8.51157 10.3257 8.47436 10.3203 8.4338C10.315 8.39324 10.2778 8.36469 10.2372 8.37003C10.1967 8.37537 10.1682 8.41258 10.1735 8.45314Z" fill="#000088"/>
<path d="M8.62225 7.35816L9.494 7.17716L9.88971 7.01855L9.46771 7.07904L8.62225 7.35816Z" fill="#000088"/>
<path d="M9.78678 8.4338C9.78143 8.47436 9.80999 8.51157 9.85055 8.51691C9.89114 8.52224 9.92828 8.49369 9.93361 8.45314C9.93904 8.41258 9.91047 8.37537 9.86989 8.37003C9.82933 8.36469 9.79212 8.39323 9.78678 8.4338Z" fill="#000088"/>
<path d="M8.57129 6.97486L9.46017 7.02566L9.88347 6.97486L9.46017 6.92407L8.57129 6.97486Z" fill="#000088"/>
<path d="M9.41789 8.31503C9.40223 8.35283 9.42018 8.39615 9.45798 8.41181C9.49578 8.42747 9.53911 8.40952 9.55477 8.37173C9.57041 8.33393 9.55247 8.2906 9.51467 8.27495C9.47688 8.25929 9.43355 8.27724 9.41789 8.31503Z" fill="#000088"/>
<path d="M8.62207 6.59106L9.46753 6.87019L9.88953 6.93067L9.49382 6.77206L8.62207 6.59106Z" fill="#000088"/>
<path d="M9.09264 8.10491C9.06774 8.13737 9.07386 8.18387 9.10632 8.20877C9.13877 8.23368 9.18527 8.22755 9.21018 8.19509C9.23508 8.16265 9.22897 8.11614 9.19651 8.09124C9.16405 8.06633 9.11755 8.07246 9.09264 8.10491Z" fill="#000088"/>
<path d="M8.77051 6.23364L9.51491 6.72208L9.90692 6.88973L9.5657 6.6341L8.77051 6.23364Z" fill="#000088"/>
<path d="M8.83276 7.8178C8.8003 7.84271 8.79418 7.8892 8.81908 7.92166C8.84399 7.95412 8.89049 7.96024 8.92295 7.93534C8.9554 7.91043 8.96152 7.86393 8.93662 7.83147C8.91171 7.79901 8.86522 7.7929 8.83276 7.8178Z" fill="#000088"/>
<path d="M9.00568 5.92725L9.5983 6.5917L9.93351 6.85508L9.67013 6.51987L9.00568 5.92725Z" fill="#000088"/>
<path d="M8.65617 7.47343C8.61837 7.48909 8.60041 7.53241 8.61607 7.57021C8.63173 7.608 8.67506 7.62596 8.71285 7.6103C8.75065 7.59464 8.7686 7.55132 8.75295 7.51352C8.73729 7.47572 8.69396 7.45778 8.65617 7.47343Z" fill="#000088"/>
<path d="M9.3125 5.69189L9.71296 6.48709L9.96856 6.82827L9.80094 6.43629L9.3125 5.69189Z" fill="#000088"/>
<path d="M8.57516 7.09463C8.53459 7.09998 8.50604 7.13719 8.51138 7.17775C8.51672 7.21831 8.55393 7.24685 8.59449 7.24152C8.63505 7.23618 8.6636 7.19897 8.65826 7.15841C8.65293 7.11785 8.61572 7.0893 8.57516 7.09463Z" fill="#000088"/>
<path d="M9.6698 5.54395L9.8508 6.4157L10.0094 6.8114L9.94892 6.3894L9.6698 5.54395Z" fill="#000088"/>
<path d="M8.59351 6.70792C8.55295 6.70258 8.51574 6.73113 8.51041 6.77169C8.50507 6.81225 8.53362 6.84946 8.57418 6.8548C8.61473 6.86013 8.65194 6.83159 8.65728 6.79103C8.66263 6.75047 8.63408 6.71326 8.59351 6.70792Z" fill="#000088"/>
<path d="M10.0527 5.49341L10.002 6.38229L10.0527 6.80558L10.1036 6.38229L10.0527 5.49341Z" fill="#000088"/>
<path d="M8.71273 6.3394C8.67493 6.32374 8.63161 6.34169 8.61595 6.37948C8.60029 6.41728 8.61824 6.46062 8.65603 6.47627C8.69383 6.49192 8.73717 6.47398 8.75282 6.43618C8.76847 6.39839 8.75053 6.35506 8.71273 6.3394Z" fill="#000088"/>
<path d="M10.4365 5.54395L10.1573 6.3894L10.0969 6.8114L10.2555 6.4157L10.4365 5.54395Z" fill="#000088"/>
<path d="M8.92282 6.01409C8.89036 5.98918 8.84386 5.99531 8.81896 6.02777C8.79406 6.06022 8.80018 6.10672 8.83264 6.13162C8.86509 6.15653 8.91159 6.15041 8.93649 6.11796C8.9614 6.0855 8.95527 6.03899 8.92282 6.01409Z" fill="#000088"/>
<path d="M10.7938 5.69165L10.3054 6.43605L10.1377 6.82802L10.3934 6.48684L10.7938 5.69165Z" fill="#000088"/>
<path d="M9.20993 5.75457C9.18503 5.72212 9.13852 5.71599 9.10607 5.7409C9.07362 5.7658 9.06749 5.8123 9.0924 5.84475C9.1173 5.87721 9.1638 5.88333 9.19626 5.85843C9.22871 5.83352 9.23484 5.78702 9.20993 5.75457Z" fill="#000088"/>
<path d="M11.1006 5.92725L10.4362 6.51987L10.1727 6.85509L10.508 6.5917L11.1006 5.92725Z" fill="#000088"/>
<path d="M9.5547 5.57773C9.53904 5.53993 9.49572 5.52199 9.45792 5.53764C9.42012 5.55329 9.40217 5.59663 9.41783 5.63443C9.43349 5.67222 9.47681 5.69017 9.51461 5.67451C9.5524 5.65886 9.57035 5.61552 9.5547 5.57773Z" fill="#000088"/>
<path d="M11.3366 6.23364L10.5414 6.6341L10.2002 6.88973L10.5922 6.72208L11.3366 6.23364Z" fill="#000088"/>
<path d="M9.93366 5.4963C9.92833 5.45574 9.89109 5.42718 9.85055 5.43253C9.80998 5.43786 9.78143 5.47507 9.78678 5.51563C9.79212 5.55619 9.82933 5.58475 9.86989 5.5794C9.91042 5.57407 9.93899 5.53686 9.93366 5.4963Z" fill="#000088"/>
<path d="M11.4843 6.59106L10.6126 6.77206L10.2169 6.93068L10.6389 6.87019L11.4843 6.59106Z" fill="#000088"/>
<path d="M10.3204 5.51564C10.3258 5.47508 10.2972 5.43787 10.2566 5.43253C10.2161 5.42719 10.1788 5.45574 10.1735 5.4963C10.1682 5.53686 10.1967 5.57407 10.2373 5.57941C10.2779 5.58474 10.3151 5.55619 10.3204 5.51564Z" fill="#000088"/>
<path d="M11.5348 6.97487L10.6459 6.92407L10.2227 6.97487L10.6459 7.02566L11.5348 6.97487Z" fill="#000088"/>
<path d="M10.6887 5.63442C10.7043 5.59663 10.6864 5.5533 10.6486 5.53764C10.6108 5.52198 10.5674 5.53994 10.5518 5.57774C10.5361 5.61553 10.5541 5.65886 10.5919 5.67452C10.6296 5.69017 10.673 5.67222 10.6887 5.63442Z" fill="#000088"/>
<path d="M11.4843 7.35817L10.6389 7.07905L10.2169 7.01855L10.6126 7.17717L11.4843 7.35817Z" fill="#000088"/>
<path d="M11.0139 5.84475C11.0388 5.8123 11.0327 5.7658 11.0002 5.7409C10.9678 5.71599 10.9212 5.72212 10.8964 5.75456C10.8714 5.78702 10.8776 5.83353 10.91 5.85843C10.9425 5.88333 10.9889 5.87721 11.0139 5.84475Z" fill="#000088"/>
<path d="M11.3366 7.7159L10.5922 7.22746L10.2002 7.05981L10.5414 7.31544L11.3366 7.7159Z" fill="#000088"/>
<path d="M11.2736 6.13162C11.3061 6.10672 11.3123 6.06022 11.2873 6.02777C11.2625 5.99531 11.2159 5.98918 11.1834 6.01409C11.151 6.03899 11.1449 6.0855 11.1698 6.11796C11.1947 6.1504 11.2412 6.15653 11.2736 6.13162Z" fill="#000088"/>
<path d="M11.1008 8.02233L10.5081 7.35787L10.1729 7.09448L10.4363 7.42971L11.1008 8.02233Z" fill="#000088"/>
<path d="M11.4503 6.47602C11.4881 6.46037 11.506 6.41704 11.4904 6.37924C11.4747 6.34144 11.4313 6.3235 11.3935 6.33916C11.3558 6.35481 11.3378 6.39814 11.3535 6.43594C11.3691 6.47373 11.4125 6.49168 11.4503 6.47602Z" fill="#000088"/>
<path d="M10.7939 8.25771L10.3934 7.46251L10.1378 7.12134L10.3055 7.51331L10.7939 8.25771Z" fill="#000088"/>
<path d="M11.532 6.8548C11.5725 6.84946 11.6011 6.81225 11.5958 6.77169C11.5904 6.73113 11.5532 6.70258 11.5126 6.70792C11.472 6.71326 11.4435 6.75047 11.4489 6.79103C11.4542 6.83158 11.4914 6.86014 11.532 6.8548Z" fill="#000088"/>
<path d="M10.4363 8.4054L10.2553 7.53364L10.0967 7.13794L10.1573 7.55994L10.4363 8.4054Z" fill="#000088"/>
</g>
</g>
<defs>
<clipPath id="clip0_2_2537">
<rect width="20" height="13.33" fill="white" transform="translate(0.349609 0.189941)"/>
</clipPath>
<clipPath id="clip1_2_2537">
<rect width="20" height="13.3333" fill="white" transform="translate(0.349609 0.188232)"/>
</clipPath>
</defs>
</svg>
