<svg width="10" height="10" viewBox="0 0 10 10" fill="none" xmlns="http://www.w3.org/2000/svg">
<g clip-path="url(#clip0_2_2669)">
<path d="M4.53308 0.000244141C3.30291 0.000244141 3.14822 0.00591049 2.66489 0.0274426C2.18155 0.050108 1.85233 0.126037 1.56391 0.238231C1.26124 0.351743 0.987158 0.530274 0.760992 0.761236C0.53003 0.987402 0.351499 1.26149 0.237987 1.56416C0.125793 1.85201 0.0492973 2.18178 0.0271985 2.66343C0.00566635 3.14791 0 3.30203 0 4.53389C0 5.76462 0.00566635 5.91874 0.0271985 6.4021C0.0498639 6.88487 0.125793 7.21408 0.237987 7.50249C0.354146 7.80053 0.508838 8.05326 0.760992 8.30541C1.01258 8.55756 1.2653 8.71283 1.56335 8.82842C1.85233 8.9406 2.18097 9.0171 2.66375 9.03921C3.14766 9.06073 3.30179 9.06641 4.53308 9.06641C5.76437 9.06641 5.91794 9.06073 6.40185 9.03921C6.88405 9.01654 7.2144 8.9406 7.50281 8.82842C7.80528 8.71484 8.07917 8.53631 8.30517 8.30541C8.55731 8.05326 8.71202 7.80053 8.82818 7.50249C8.9398 7.21408 9.0163 6.88487 9.03896 6.4021C9.06049 5.91874 9.06616 5.76462 9.06616 4.53333C9.06616 3.30203 9.06049 3.14791 9.03896 2.66399C9.0163 2.1818 8.9398 1.85201 8.82818 1.56416C8.71467 1.26149 8.53614 0.987402 8.30517 0.761236C8.079 0.530274 7.80491 0.351743 7.50225 0.238231C7.21326 0.126037 6.88348 0.0495414 6.40127 0.0274426C5.91738 0.00591049 5.76381 0.000244141 4.53196 0.000244141H4.53308ZM4.12681 0.817332H4.53364C5.74398 0.817332 5.88733 0.821299 6.36501 0.843397C6.80698 0.86323 7.04724 0.937459 7.20704 0.999223C7.41839 1.08138 7.56968 1.17998 7.72834 1.33864C7.887 1.49729 7.98502 1.64802 8.06718 1.85995C8.12952 2.01917 8.20317 2.25942 8.22301 2.7014C8.24511 3.17908 8.24965 3.32243 8.24965 4.5322C8.24965 5.74195 8.24511 5.88589 8.22301 6.36355C8.20317 6.80552 8.12896 7.04521 8.06718 7.20501C7.994 7.40157 7.87806 7.57943 7.72776 7.72574C7.5691 7.8844 7.41839 7.98244 7.20647 8.0646C7.04782 8.12693 6.80755 8.20059 6.36501 8.22099C5.88733 8.24253 5.74398 8.24762 4.53364 8.24762C3.32331 8.24762 3.17939 8.24253 2.70172 8.22099C2.25974 8.20059 2.02005 8.12693 1.86027 8.0646C1.66355 7.99165 1.48549 7.87591 1.33896 7.72574C1.18839 7.57934 1.07226 7.40126 0.998979 7.20443C0.937214 7.04521 0.862986 6.80496 0.843153 6.36299C0.821621 5.88533 0.817088 5.74195 0.817088 4.53106C0.817088 3.32016 0.821621 3.17793 0.843153 2.70026C0.863552 2.25828 0.937214 2.01803 0.999544 1.85825C1.08171 1.64689 1.1803 1.49559 1.33896 1.33694C1.49762 1.17828 1.64834 1.08025 1.86027 0.99809C2.02005 0.93576 2.25974 0.862097 2.70172 0.841698C3.1199 0.822433 3.28195 0.816766 4.12681 0.816199V0.817332ZM6.95318 1.56982C6.88174 1.56982 6.81101 1.58389 6.74501 1.61123C6.67901 1.63857 6.61904 1.67864 6.56854 1.72915C6.51803 1.77966 6.47795 1.83962 6.45061 1.90562C6.42329 1.97163 6.40921 2.04236 6.40921 2.1138C6.40921 2.18523 6.42329 2.25596 6.45061 2.32196C6.47795 2.38796 6.51803 2.44793 6.56854 2.49844C6.61904 2.54894 6.67901 2.58901 6.74501 2.61636C6.81101 2.6437 6.88174 2.65777 6.95318 2.65777C7.09745 2.65777 7.23581 2.60046 7.33783 2.49844C7.43984 2.39643 7.49715 2.25806 7.49715 2.1138C7.49715 1.96952 7.43984 1.83116 7.33783 1.72915C7.23581 1.62713 7.09745 1.56982 6.95318 1.56982ZM4.53364 2.20559C4.22487 2.20076 3.91821 2.25743 3.63156 2.37226C3.34489 2.48709 3.08393 2.65781 2.86386 2.87445C2.6438 3.09112 2.46904 3.34938 2.34975 3.63422C2.23046 3.91907 2.16902 4.2248 2.16902 4.53362C2.16902 4.84243 2.23046 5.14816 2.34975 5.433C2.46904 5.71784 2.6438 5.9761 2.86386 6.19276C3.08393 6.40942 3.34489 6.58012 3.63156 6.69495C3.91821 6.80978 4.22487 6.86645 4.53364 6.86162C5.14479 6.85209 5.72767 6.60262 6.15649 6.16708C6.58528 5.73153 6.82562 5.14482 6.82562 4.53362C6.82562 3.92239 6.58528 3.33569 6.15649 2.90015C5.72767 2.46459 5.14479 2.21513 4.53364 2.20559ZM4.53364 3.0221C4.7321 3.0221 4.92862 3.0612 5.11197 3.13714C5.29531 3.21309 5.46191 3.32441 5.60224 3.46473C5.74256 3.60506 5.85388 3.77166 5.92983 3.95501C6.00577 4.13835 6.04486 4.33487 6.04486 4.53333C6.04486 4.73178 6.00577 4.9283 5.92983 5.11164C5.85388 5.29499 5.74256 5.46159 5.60224 5.60192C5.46191 5.74224 5.29531 5.85356 5.11197 5.92951C4.92862 6.00545 4.7321 6.04455 4.53364 6.04455C4.13285 6.04455 3.74846 5.88533 3.46505 5.60192C3.18164 5.31851 3.02244 4.93412 3.02244 4.53333C3.02244 4.13253 3.18164 3.74814 3.46505 3.46473C3.74846 3.18132 4.13285 3.0221 4.53364 3.0221Z" fill="white"/>
</g>
<defs>
<clipPath id="clip0_2_2669">
<rect width="9.06616" height="9.06616" fill="white" transform="translate(0 0.000244141)"/>
</clipPath>
</defs>
</svg>
