<svg width="13" height="13" viewBox="0 0 13 13" fill="none" xmlns="http://www.w3.org/2000/svg">
<g clip-path="url(#clip0_2_2654)">
<path d="M6.39517 0.186768C2.97198 0.186768 0.186218 2.97252 0.186218 6.39572C0.186218 9.81891 2.97198 12.6047 6.39517 12.6047C9.81836 12.6047 12.6041 9.81891 12.6041 6.39572C12.6041 2.97252 9.81836 0.186768 6.39517 0.186768ZM6.39517 1.22159C9.25904 1.22159 11.5693 3.53183 11.5693 6.39572C11.5702 7.6343 11.1259 8.83196 10.3175 9.77026C9.50898 10.7086 8.39018 11.3251 7.16508 11.5072V7.90449H8.63866L8.86996 6.40761H7.16508V5.59009C7.16508 4.9692 7.36945 4.41712 7.95051 4.41712H8.88444V3.11118C8.72042 3.08893 8.37324 3.04082 7.71715 3.04082C6.34704 3.04082 5.54402 3.76417 5.54402 5.41264V6.40761H4.13563V7.90449H5.54402V11.4943C4.33573 11.2954 3.23752 10.6734 2.4456 9.73941C1.65368 8.80541 1.21964 7.62027 1.22104 6.39572C1.22104 3.53183 3.53128 1.22159 6.39517 1.22159Z" fill="white"/>
</g>
<defs>
<clipPath id="clip0_2_2654">
<rect width="12.6663" height="12.6663" fill="white" transform="translate(-0.000244141 0.000244141)"/>
</clipPath>
</defs>
</svg>
