<svg width="10" height="11" viewBox="0 0 10 11" fill="none" xmlns="http://www.w3.org/2000/svg">
<g clip-path="url(#clip0_2_2674)">
<path fill-rule="evenodd" clip-rule="evenodd" d="M8.9569 2.40952C9.36976 2.5207 9.69526 2.84615 9.80633 3.25902C10.0128 4.01314 10.0049 5.58505 10.0049 5.58505C10.0049 5.58505 10.0049 7.14895 9.8064 7.90317C9.69526 8.31595 9.36983 8.64145 8.9569 8.7526C8.20276 8.9511 5.18603 8.9511 5.18603 8.9511C5.18603 8.9511 2.1772 8.9511 1.41513 8.74467C1.00226 8.63352 0.676822 8.30802 0.565645 7.89524C0.367188 7.14895 0.367188 5.57711 0.367188 5.57711C0.367188 5.57711 0.367188 4.01314 0.565645 3.25902C0.676748 2.84622 1.01021 2.51276 1.41506 2.40166C2.16926 2.20313 5.18596 2.20312 5.18596 2.20312C5.18596 2.20312 8.20276 2.20312 8.9569 2.40952ZM6.73417 5.5772L4.22555 7.02207V4.13234L6.73417 5.5772Z" fill="white"/>
</g>
<defs>
<clipPath id="clip0_2_2674">
<rect width="10" height="10.7143" fill="white"/>
</clipPath>
</defs>
</svg>
