<svg width="21" height="12" viewBox="0 0 21 12" fill="none" xmlns="http://www.w3.org/2000/svg">
<g clip-path="url(#clip0_2_2595)">
<g clip-path="url(#clip1_2_2595)">
<path d="M1.05066 0.84082H20.0416V10.8361H1.05066V0.84082Z" fill="#B22234"/>
<path d="M1.05066 1.9939H20.0416M20.0416 3.53162H1.05066M1.05066 5.06935H20.0416M20.0416 6.60707H1.05066M1.05066 8.1448H20.0416M20.0416 9.68253H1.05066" stroke="white" stroke-width="0.768863"/>
<path d="M1.05066 0.84082H8.64703V6.22286H1.05066V0.84082Z" fill="#3C3B6E"/>
<path d="M1.68409 1.07129L1.86486 1.62765L1.3916 1.2838H1.97659L1.50332 1.62765L1.68409 1.07129Z" fill="white"/>
<path d="M1.68409 2.14795L1.86486 2.7043L1.3916 2.36046H1.97659L1.50332 2.7043L1.68409 2.14795Z" fill="white"/>
<path d="M1.68409 3.22412L1.86486 3.78048L1.3916 3.43663H1.97659L1.50332 3.78048L1.68409 3.22412Z" fill="white"/>
<path d="M1.68409 4.30029L1.86486 4.85665L1.3916 4.5128H1.97659L1.50332 4.85665L1.68409 4.30029Z" fill="white"/>
<path d="M1.68409 5.37695L1.86486 5.93331L1.3916 5.58946H1.97659L1.50332 5.93331L1.68409 5.37695Z" fill="white"/>
<path d="M2.31666 1.60962L2.49743 2.16597L2.02417 1.82213H2.60916L2.1359 2.16597L2.31666 1.60962Z" fill="white"/>
<path d="M2.31666 2.68604L2.49743 3.24239L2.02417 2.89854H2.60916L2.1359 3.24239L2.31666 2.68604Z" fill="white"/>
<path d="M2.31666 3.76245L2.49743 4.31881L2.02417 3.97496H2.60916L2.1359 4.31881L2.31666 3.76245Z" fill="white"/>
<path d="M2.31666 4.83887L2.49743 5.39522L2.02417 5.05137H2.60916L2.1359 5.39522L2.31666 4.83887Z" fill="white"/>
<path d="M2.94984 1.07129L3.13061 1.62765L2.65735 1.2838H3.24234L2.76908 1.62765L2.94984 1.07129Z" fill="white"/>
<path d="M2.94984 2.14771L3.13061 2.70406L2.65735 2.36021H3.24234L2.76908 2.70406L2.94984 2.14771Z" fill="white"/>
<path d="M2.94984 3.22412L3.13061 3.78048L2.65735 3.43663H3.24234L2.76908 3.78048L2.94984 3.22412Z" fill="white"/>
<path d="M2.94984 4.30054L3.13061 4.85689L2.65735 4.51305H3.24234L2.76908 4.85689L2.94984 4.30054Z" fill="white"/>
<path d="M2.94984 5.37695L3.13061 5.93331L2.65735 5.58946H3.24234L2.76908 5.93331L2.94984 5.37695Z" fill="white"/>
<path d="M3.58277 1.60962L3.76355 2.16597L3.29028 1.82213H3.87527L3.40201 2.16597L3.58277 1.60962Z" fill="white"/>
<path d="M3.58277 2.68604L3.76355 3.24239L3.29028 2.89854H3.87527L3.40201 3.24239L3.58277 2.68604Z" fill="white"/>
<path d="M3.58277 3.76245L3.76355 4.31881L3.29028 3.97496H3.87527L3.40201 4.31881L3.58277 3.76245Z" fill="white"/>
<path d="M3.58277 4.83887L3.76355 5.39522L3.29028 5.05137H3.87527L3.40201 5.39522L3.58277 4.83887Z" fill="white"/>
<path d="M4.21632 1.07129L4.39709 1.62765L3.92383 1.2838H4.50882L4.03556 1.62765L4.21632 1.07129Z" fill="white"/>
<path d="M4.21632 2.14795L4.39709 2.7043L3.92383 2.36046H4.50882L4.03556 2.7043L4.21632 2.14795Z" fill="white"/>
<path d="M4.21632 3.22412L4.39709 3.78048L3.92383 3.43663H4.50882L4.03556 3.78048L4.21632 3.22412Z" fill="white"/>
<path d="M4.21632 4.30029L4.39709 4.85665L3.92383 4.5128H4.50882L4.03556 4.85665L4.21632 4.30029Z" fill="white"/>
<path d="M4.21632 5.37695L4.39709 5.93331L3.92383 5.58946H4.50882L4.03556 5.93331L4.21632 5.37695Z" fill="white"/>
<path d="M4.84913 1.60986L5.0299 2.16622L4.55664 1.82237H5.14163L4.66837 2.16622L4.84913 1.60986Z" fill="white"/>
<path d="M4.84913 2.68604L5.0299 3.24239L4.55664 2.89854H5.14163L4.66837 3.24239L4.84913 2.68604Z" fill="white"/>
<path d="M4.84913 3.76221L5.0299 4.31856L4.55664 3.97472H5.14163L4.66837 4.31856L4.84913 3.76221Z" fill="white"/>
<path d="M4.84913 4.83887L5.0299 5.39522L4.55664 5.05137H5.14163L4.66837 5.39522L4.84913 4.83887Z" fill="white"/>
<path d="M5.48194 1.07129L5.66272 1.62765L5.18945 1.2838H5.77444L5.30118 1.62765L5.48194 1.07129Z" fill="white"/>
<path d="M5.48194 2.14771L5.66272 2.70406L5.18945 2.36021H5.77444L5.30118 2.70406L5.48194 2.14771Z" fill="white"/>
<path d="M5.48194 3.22412L5.66272 3.78048L5.18945 3.43663H5.77444L5.30118 3.78048L5.48194 3.22412Z" fill="white"/>
<path d="M5.48194 4.30054L5.66272 4.85689L5.18945 4.51305H5.77444L5.30118 4.85689L5.48194 4.30054Z" fill="white"/>
<path d="M5.48194 5.37695L5.66272 5.93331L5.18945 5.58946H5.77444L5.30118 5.93331L5.48194 5.37695Z" fill="white"/>
<path d="M6.115 1.60962L6.29577 2.16597L5.82251 1.82213H6.4075L5.93424 2.16597L6.115 1.60962Z" fill="white"/>
<path d="M6.115 2.68604L6.29577 3.24239L5.82251 2.89854H6.4075L5.93424 3.24239L6.115 2.68604Z" fill="white"/>
<path d="M6.115 3.76245L6.29577 4.31881L5.82251 3.97496H6.4075L5.93424 4.31881L6.115 3.76245Z" fill="white"/>
<path d="M6.115 4.83887L6.29577 5.39522L5.82251 5.05137H6.4075L5.93424 5.39522L6.115 4.83887Z" fill="white"/>
<path d="M6.74757 1.07129L6.92834 1.62765L6.45508 1.2838H7.04007L6.56681 1.62765L6.74757 1.07129Z" fill="white"/>
<path d="M6.74757 2.14795L6.92834 2.7043L6.45508 2.36046H7.04007L6.56681 2.7043L6.74757 2.14795Z" fill="white"/>
<path d="M6.74757 3.22412L6.92834 3.78048L6.45508 3.43663H7.04007L6.56681 3.78048L6.74757 3.22412Z" fill="white"/>
<path d="M6.74757 4.30029L6.92834 4.85665L6.45508 4.5128H7.04007L6.56681 4.85665L6.74757 4.30029Z" fill="white"/>
<path d="M6.74757 5.37695L6.92834 5.93331L6.45508 5.58946H7.04007L6.56681 5.93331L6.74757 5.37695Z" fill="white"/>
<path d="M7.38136 1.60986L7.56213 2.16622L7.08887 1.82237H7.67385L7.20059 2.16622L7.38136 1.60986Z" fill="white"/>
<path d="M7.38136 2.68604L7.56213 3.24239L7.08887 2.89854H7.67385L7.20059 3.24239L7.38136 2.68604Z" fill="white"/>
<path d="M7.38136 3.76221L7.56213 4.31856L7.08887 3.97472H7.67385L7.20059 4.31856L7.38136 3.76221Z" fill="white"/>
<path d="M7.38136 4.83887L7.56213 5.39522L7.08887 5.05137H7.67385L7.20059 5.39522L7.38136 4.83887Z" fill="white"/>
<path d="M8.01405 1.07129L8.19482 1.62765L7.72156 1.2838H8.30655L7.83328 1.62765L8.01405 1.07129Z" fill="white"/>
<path d="M8.01405 2.14771L8.19482 2.70406L7.72156 2.36021H8.30655L7.83328 2.70406L8.01405 2.14771Z" fill="white"/>
<path d="M8.01405 3.22412L8.19482 3.78048L7.72156 3.43663H8.30655L7.83328 3.78048L8.01405 3.22412Z" fill="white"/>
<path d="M8.01405 4.30054L8.19482 4.85689L7.72156 4.51305H8.30655L7.83328 4.85689L8.01405 4.30054Z" fill="white"/>
<path d="M8.01405 5.37695L8.19482 5.93331L7.72156 5.58946H8.30655L7.83328 5.93331L8.01405 5.37695Z" fill="white"/>
</g>
</g>
<defs>
<clipPath id="clip0_2_2595">
<rect width="20" height="10.9" fill="white" transform="translate(0.75 0.400146)"/>
</clipPath>
<clipPath id="clip1_2_2595">
<rect width="20" height="10.9091" fill="white" transform="translate(0.75 0.395508)"/>
</clipPath>
</defs>
</svg>
