<svg width="142" height="171" viewBox="0 0 142 171" fill="none" xmlns="http://www.w3.org/2000/svg">
<g filter="url(#filter0_dddd_90_2543)">
<path d="M24.8312 49.7655C24.7065 46.3439 24.6442 44.6332 25.2983 42.811C25.8594 41.2482 26.8914 39.7358 28.142 38.6434C29.6001 37.3698 31.7175 36.6283 35.9524 35.1454C44.9631 31.99 53.6561 27.7582 61.8522 22.8412C65.5775 20.6063 67.4402 19.4888 69.0434 19.1368C70.6351 18.7873 71.7566 18.7873 73.3483 19.1368C74.9515 19.4888 76.8142 20.6063 80.5395 22.8412C88.7356 27.7582 97.4286 31.99 106.439 35.1454C110.674 36.6283 112.792 37.3698 114.25 38.6434C115.5 39.7358 116.532 41.2482 117.093 42.811C117.748 44.6332 117.685 46.3439 117.56 49.7655C117.206 59.5026 115.448 73.9736 109.024 87.035C100.554 104.259 86.4057 115.557 78.022 121.123C76.1815 122.344 75.2612 122.955 73.5271 123.369C72.3248 123.657 70.0669 123.657 68.8646 123.369C67.1305 122.955 66.2102 122.344 64.3697 121.123C55.986 115.557 41.8381 104.259 33.3672 87.035C26.9436 73.9736 25.1861 59.5026 24.8312 49.7655Z" fill="black"/>
</g>
<mask id="mask0_90_2543" style="mask-type:alpha" maskUnits="userSpaceOnUse" x="24" y="18" width="94" height="106">
<path d="M24.8312 49.7655C24.7065 46.3439 24.6442 44.6332 25.2983 42.811C25.8594 41.2482 26.8914 39.7358 28.142 38.6434C29.6001 37.3698 31.7175 36.6283 35.9524 35.1454C44.9631 31.99 53.6561 27.7582 61.8522 22.8412C65.5775 20.6063 67.4402 19.4888 69.0434 19.1368C70.6351 18.7873 71.7566 18.7873 73.3483 19.1368C74.9515 19.4888 76.8142 20.6063 80.5395 22.8412C88.7356 27.7582 97.4286 31.99 106.439 35.1454C110.674 36.6283 112.792 37.3698 114.25 38.6434C115.5 39.7358 116.532 41.2482 117.093 42.811C117.748 44.6332 117.685 46.3439 117.56 49.7655C117.206 59.5026 115.448 73.9736 109.024 87.035C100.554 104.259 86.4057 115.557 78.022 121.123C76.1815 122.344 75.2612 122.955 73.5271 123.369C72.3248 123.657 70.0669 123.657 68.8646 123.369C67.1305 122.955 66.2102 122.344 64.3697 121.123C55.986 115.557 41.8381 104.259 33.3672 87.035C26.9436 73.9736 25.1861 59.5026 24.8312 49.7655Z" fill="black"/>
</mask>
<g mask="url(#mask0_90_2543)">
<mask id="mask1_90_2543" style="mask-type:alpha" maskUnits="userSpaceOnUse" x="24" y="18" width="94" height="106">
<path d="M24.8318 49.7655C24.7071 46.3439 24.6448 44.6332 25.2989 42.811C25.86 41.2482 26.892 39.7358 28.1426 38.6434C29.6007 37.3698 31.7181 36.6283 35.953 35.1454C44.9637 31.99 53.6567 27.7582 61.8528 22.8412C65.5782 20.6063 67.4408 19.4888 69.044 19.1368C70.6357 18.7873 71.7572 18.7873 73.3489 19.1368C74.9521 19.4888 76.8148 20.6063 80.5401 22.8412C88.7362 27.7582 97.4292 31.99 106.44 35.1454C110.675 36.6283 112.792 37.3698 114.25 38.6434C115.501 39.7358 116.533 41.2482 117.094 42.811C117.748 44.6332 117.686 46.3439 117.561 49.7655C117.206 59.5026 115.449 73.9736 109.025 87.035C100.554 104.259 86.4063 115.557 78.0226 121.123C76.1821 122.344 75.2618 122.955 73.5277 123.369C72.3254 123.657 70.0675 123.657 68.8653 123.369C67.1311 122.955 66.2108 122.344 64.3703 121.123C55.9866 115.557 41.8387 104.259 33.3678 87.035C26.9442 73.9736 25.1867 59.5026 24.8318 49.7655Z" fill="black"/>
</mask>
<g mask="url(#mask1_90_2543)">
<rect x="0.88208" y="0.410156" width="140.509" height="140.509" fill="#4A38D9"/>
<rect x="0.88208" y="0.410156" width="140.509" height="140.509" fill="url(#paint0_linear_90_2543)" fill-opacity="0.6" style="mix-blend-mode:overlay"/>
<rect x="0.88208" y="0.410156" width="140.509" height="140.509" fill="url(#paint1_radial_90_2543)" fill-opacity="0.6" style="mix-blend-mode:overlay"/>
<rect x="0.88208" y="0.410156" width="140.509" height="140.509" fill="black" fill-opacity="0.12" style="mix-blend-mode:overlay"/>
<rect x="0.88208" y="0.410156" width="140.509" height="140.509" fill="black" fill-opacity="0.12" style="mix-blend-mode:darken"/>
</g>
<g filter="url(#filter1_d_90_2543)">
<mask id="mask2_90_2543" style="mask-type:alpha" maskUnits="userSpaceOnUse" x="24" y="18" width="94" height="106">
<path d="M69.0447 19.137C70.6361 18.7877 71.758 18.7877 73.3494 19.137C74.9524 19.4891 76.8159 20.6065 80.5408 22.8411C88.7368 27.7581 97.4305 31.9905 106.441 35.1458C110.675 36.6286 112.793 37.3704 114.251 38.6439C115.501 39.7361 116.533 41.2483 117.094 42.8109C117.749 44.633 117.687 46.3445 117.562 49.7659L117.524 50.6927C117.092 60.4063 115.249 74.3825 109.026 87.0355L108.625 87.8382C100.114 104.611 86.276 115.645 78.0232 121.123L77.3728 121.553C75.9401 122.494 75.0452 123.007 73.5281 123.369C72.3259 123.656 70.0682 123.656 68.866 123.369C67.3487 123.007 66.4541 122.494 65.0212 121.553L64.3708 121.123C56.1181 115.645 42.2807 104.611 33.7703 87.8382L33.3689 87.0355C27.1461 74.3825 25.3017 60.4063 24.8699 50.6927L24.8328 49.7659C24.7081 46.3444 24.6454 44.633 25.2996 42.8109C25.8256 41.3459 26.7661 39.9257 27.9119 38.8538L28.1433 38.6439C29.4192 37.5295 31.2003 36.8221 34.4626 35.6693L35.9538 35.1458C44.9644 31.9904 53.6573 27.758 61.8533 22.8411C65.5783 20.6064 67.4416 19.4891 69.0447 19.137ZM72.489 23.0579C71.4647 22.833 70.9301 22.8331 69.906 23.0579C69.6378 23.1168 69.1514 23.2839 68.1326 23.8265C67.1126 24.3697 65.8174 25.1454 63.9187 26.2845C55.5241 31.3206 46.5845 35.6769 37.281 38.9349C35.1132 39.694 33.6727 40.2004 32.5837 40.6654C31.5297 41.1155 31.0645 41.4223 30.7839 41.6673C30.0484 42.3099 29.4079 43.2491 29.0779 44.1683C28.7392 45.1119 28.7112 45.9627 28.8445 49.6195C29.19 59.0999 30.9044 72.9277 36.9714 85.264C44.9949 101.578 58.4812 112.395 66.5915 117.779C68.4519 119.014 68.837 119.236 69.7986 119.465C69.9668 119.505 70.4804 119.571 71.197 119.571C71.9141 119.571 72.4286 119.505 72.5964 119.465C73.5576 119.236 73.9431 119.014 75.8035 117.779C83.9139 112.395 97.4003 101.578 105.424 85.264C111.491 72.9278 113.205 59.0998 113.551 49.6195C113.684 45.9627 113.655 45.1119 113.316 44.1683C112.986 43.249 112.346 42.3099 111.61 41.6673C111.33 41.4222 110.865 41.1156 109.81 40.6654C108.721 40.2004 107.282 39.6939 105.114 38.9349C95.8103 35.6769 86.8702 31.3207 78.4753 26.2845C76.5767 25.1455 75.2824 24.3697 74.2624 23.8265C73.2438 23.284 72.7574 23.1169 72.489 23.0579ZM70.782 31.6527C71.0539 31.5952 71.3401 31.5952 71.6121 31.6527C71.9212 31.718 72.2089 31.8826 72.7839 32.2122C78.0462 35.2295 83.2526 38.2903 88.7566 40.8841C93.5409 43.1387 98.4855 44.9831 103.435 46.8255C104.207 47.1127 104.593 47.2561 104.878 47.513C105.125 47.7364 105.321 48.0328 105.43 48.348C105.556 48.7105 105.538 49.1126 105.502 49.9163C105.013 60.8215 103.059 71.877 98.2185 81.72C92.5778 93.1895 83.3996 102.728 72.9597 110C72.3469 110.427 72.04 110.641 71.6804 110.73C71.3748 110.806 71.0193 110.806 70.7136 110.73C70.354 110.641 70.0471 110.427 69.4343 110C58.9944 102.728 49.8162 93.1895 44.1755 81.72C39.3347 71.877 37.3815 60.8216 36.8923 49.9163C36.8563 49.1126 36.8384 48.7105 36.9636 48.348C37.0726 48.0328 37.2687 47.7364 37.5163 47.513C37.8012 47.2561 38.1874 47.1126 38.9587 46.8255C43.9107 44.9825 48.8399 43.1445 53.6365 40.8841C59.1406 38.2903 64.3477 35.2295 69.6101 32.2122C70.1851 31.8826 70.4728 31.718 70.782 31.6527Z" fill="url(#paint2_linear_90_2543)"/>
</mask>
<g mask="url(#mask2_90_2543)">
<rect x="0.88208" y="0.410156" width="140.509" height="140.509" fill="#4A38D9"/>
<rect x="0.380249" y="0.410156" width="140.509" height="140.509" fill="url(#paint3_linear_90_2543)" fill-opacity="0.6" style="mix-blend-mode:overlay"/>
<rect x="0.380249" y="0.410156" width="140.509" height="140.509" fill="url(#paint4_radial_90_2543)" fill-opacity="0.6" style="mix-blend-mode:overlay"/>
<g style="mix-blend-mode:soft-light">
<path fill-rule="evenodd" clip-rule="evenodd" d="M0.88208 0.410156H71.1366V140.919H0.88208V0.410156Z" fill="url(#paint5_linear_90_2543)" style="mix-blend-mode:lighten"/>
</g>
<g style="mix-blend-mode:soft-light">
<mask id="path-11-inside-1_90_2543" fill="white">
<path d="M69.0447 19.137C70.6361 18.7877 71.758 18.7877 73.3494 19.137C74.9524 19.4891 76.8159 20.6065 80.5408 22.8411C88.7368 27.7581 97.4305 31.9905 106.441 35.1458C110.675 36.6286 112.793 37.3704 114.251 38.6439C115.501 39.7361 116.533 41.2483 117.094 42.8109C117.749 44.633 117.687 46.3445 117.562 49.7659L117.524 50.6927C117.092 60.4063 115.249 74.3825 109.026 87.0355L108.625 87.8382C100.114 104.611 86.276 115.645 78.0232 121.123L77.3728 121.553C75.9401 122.494 75.0452 123.007 73.5281 123.369C72.3259 123.656 70.0682 123.656 68.866 123.369C67.3487 123.007 66.4541 122.494 65.0212 121.553L64.3708 121.123C56.1181 115.645 42.2807 104.611 33.7703 87.8382L33.3689 87.0355C27.1461 74.3825 25.3017 60.4063 24.8699 50.6927L24.8328 49.7659C24.7081 46.3444 24.6454 44.633 25.2996 42.8109C25.8256 41.3459 26.7661 39.9257 27.9119 38.8538L28.1433 38.6439C29.4192 37.5295 31.2003 36.8221 34.4626 35.6693L35.9538 35.1458C44.9644 31.9904 53.6573 27.758 61.8533 22.8411C65.5783 20.6064 67.4416 19.4891 69.0447 19.137ZM72.489 23.0579C71.4647 22.833 70.9301 22.8331 69.906 23.0579C69.6378 23.1168 69.1514 23.2839 68.1326 23.8265C67.1126 24.3697 65.8174 25.1454 63.9187 26.2845C55.5241 31.3206 46.5845 35.6769 37.281 38.9349C35.1132 39.694 33.6727 40.2004 32.5837 40.6654C31.5297 41.1155 31.0645 41.4223 30.7839 41.6673C30.0484 42.3099 29.4079 43.2491 29.0779 44.1683C28.7392 45.1119 28.7112 45.9627 28.8445 49.6195C29.19 59.0999 30.9044 72.9277 36.9714 85.264C44.9949 101.578 58.4812 112.395 66.5915 117.779C68.4519 119.014 68.837 119.236 69.7986 119.465C69.9668 119.505 70.4804 119.571 71.197 119.571C71.9141 119.571 72.4286 119.505 72.5964 119.465C73.5576 119.236 73.9431 119.014 75.8035 117.779C83.9139 112.395 97.4003 101.578 105.424 85.264C111.491 72.9278 113.205 59.0998 113.551 49.6195C113.684 45.9627 113.655 45.1119 113.316 44.1683C112.986 43.249 112.346 42.3099 111.61 41.6673C111.33 41.4222 110.865 41.1156 109.81 40.6654C108.721 40.2004 107.282 39.6939 105.114 38.9349C95.8103 35.6769 86.8702 31.3207 78.4753 26.2845C76.5767 25.1455 75.2824 24.3697 74.2624 23.8265C73.2438 23.284 72.7574 23.1169 72.489 23.0579ZM70.782 31.6527C71.0539 31.5952 71.3401 31.5952 71.6121 31.6527C71.9212 31.718 72.2089 31.8826 72.7839 32.2122C78.0462 35.2295 83.2526 38.2903 88.7566 40.8841C93.5409 43.1387 98.4855 44.9831 103.435 46.8255C104.207 47.1127 104.593 47.2561 104.878 47.513C105.125 47.7364 105.321 48.0328 105.43 48.348C105.556 48.7105 105.538 49.1126 105.502 49.9163C105.013 60.8215 103.059 71.877 98.2185 81.72C92.5778 93.1895 83.3996 102.728 72.9597 110C72.3469 110.427 72.04 110.641 71.6804 110.73C71.3748 110.806 71.0193 110.806 70.7136 110.73C70.354 110.641 70.0471 110.427 69.4343 110C58.9944 102.728 49.8162 93.1895 44.1755 81.72C39.3347 71.877 37.3815 60.8216 36.8923 49.9163C36.8563 49.1126 36.8384 48.7105 36.9636 48.348C37.0726 48.0328 37.2687 47.7364 37.5163 47.513C37.8012 47.2561 38.1874 47.1126 38.9587 46.8255C43.9107 44.9825 48.8399 43.1445 53.6365 40.8841C59.1406 38.2903 64.3477 35.2295 69.6101 32.2122C70.1851 31.8826 70.4728 31.718 70.782 31.6527Z"/>
</mask>
<path d="M69.0447 19.137L68.9909 18.892L68.9909 18.892L69.0447 19.137ZM73.3494 19.137L73.4032 18.892L73.4032 18.892L73.3494 19.137ZM80.5408 22.8411L80.4117 23.0563L80.5408 22.8411ZM106.441 35.1458L106.524 34.909L106.441 35.1458ZM114.251 38.6439L114.416 38.4549L114.416 38.4549L114.251 38.6439ZM117.094 42.8109L117.331 42.7261L117.331 42.7261L117.094 42.8109ZM117.562 49.7659L117.813 49.7762L117.813 49.7751L117.562 49.7659ZM117.524 50.6927L117.775 50.7038L117.775 50.703L117.524 50.6927ZM109.026 87.0355L109.251 87.1477L109.251 87.1462L109.026 87.0355ZM108.625 87.8382L108.849 87.9517L108.849 87.9504L108.625 87.8382ZM78.0232 121.123L78.1615 121.333L78.162 121.332L78.0232 121.123ZM77.3728 121.553L77.5105 121.763L77.5111 121.762L77.3728 121.553ZM73.5281 123.369L73.5863 123.614L73.5864 123.614L73.5281 123.369ZM68.866 123.369L68.8077 123.614H68.8077L68.866 123.369ZM65.0212 121.553L64.8829 121.762L64.8835 121.763L65.0212 121.553ZM64.3708 121.123L64.2321 121.332L64.2325 121.333L64.3708 121.123ZM33.7703 87.8382L33.5458 87.9504L33.5465 87.9517L33.7703 87.8382ZM33.3689 87.0355L33.1437 87.1462L33.1445 87.1477L33.3689 87.0355ZM24.8699 50.6927L24.6192 50.7027L24.6192 50.7038L24.8699 50.6927ZM24.8328 49.7659L24.582 49.7751L24.582 49.776L24.8328 49.7659ZM25.2996 42.8109L25.0634 42.7261L25.0634 42.7261L25.2996 42.8109ZM27.9119 38.8538L27.7433 38.668L27.7404 38.6706L27.9119 38.8538ZM28.1433 38.6439L27.9782 38.4549L27.9747 38.458L28.1433 38.6439ZM34.4626 35.6693L34.3795 35.4325L34.379 35.4327L34.4626 35.6693ZM35.9538 35.1458L35.8709 34.909L35.8707 34.9091L35.9538 35.1458ZM61.8533 22.8411L61.9823 23.0563L61.8533 22.8411ZM72.489 23.0579L72.5429 22.8129L72.5428 22.8129L72.489 23.0579ZM69.906 23.0579L69.8522 22.8129L69.8522 22.8129L69.906 23.0579ZM68.1326 23.8265L68.0146 23.605L68.0146 23.605L68.1326 23.8265ZM63.9187 26.2845L64.0478 26.4997L63.9187 26.2845ZM37.281 38.9349L37.3639 39.1717H37.3639L37.281 38.9349ZM32.5837 40.6654L32.4852 40.4346L32.4852 40.4346L32.5837 40.6654ZM30.7839 41.6673L30.6189 41.4783L30.6189 41.4784L30.7839 41.6673ZM29.0779 44.1683L28.8417 44.0835L28.8417 44.0835L29.0779 44.1683ZM28.8445 49.6195L28.5937 49.6286L28.8445 49.6195ZM36.9714 85.264L36.7463 85.3747H36.7463L36.9714 85.264ZM66.5915 117.779L66.4528 117.988L66.5915 117.779ZM69.7986 119.465L69.7403 119.709L69.7404 119.709L69.7986 119.465ZM71.197 119.571L71.197 119.822H71.197L71.197 119.571ZM72.5964 119.465L72.6547 119.709L72.6547 119.709L72.5964 119.465ZM75.8035 117.779L75.9422 117.988L75.8035 117.779ZM105.424 85.264L105.649 85.3747L105.424 85.264ZM113.551 49.6195L113.801 49.6286L113.551 49.6195ZM113.316 44.1683L113.552 44.0835L113.552 44.0835L113.316 44.1683ZM111.61 41.6673L111.775 41.4783L111.775 41.4783L111.61 41.6673ZM109.81 40.6654L109.909 40.4346L109.909 40.4346L109.81 40.6654ZM105.114 38.9349L105.197 38.6981L105.114 38.9349ZM78.4753 26.2845L78.3463 26.4997L78.4753 26.2845ZM74.2624 23.8265L74.3804 23.605L74.3804 23.605L74.2624 23.8265ZM70.782 31.6527L70.7301 31.4072L70.7301 31.4072L70.782 31.6527ZM71.6121 31.6527L71.664 31.4072L71.6639 31.4072L71.6121 31.6527ZM72.7839 32.2122L72.9087 31.9946L72.7839 32.2122ZM88.7566 40.8841L88.6496 41.1111L88.7566 40.8841ZM103.435 46.8255L103.348 47.0607L103.435 46.8255ZM104.878 47.513L105.046 47.3267L105.046 47.3267L104.878 47.513ZM105.43 48.348L105.668 48.2661L105.668 48.266L105.43 48.348ZM105.502 49.9163L105.752 49.9276L105.502 49.9163ZM98.2185 81.72L98.4436 81.8308L98.2185 81.72ZM72.9597 110L73.1031 110.206L72.9597 110ZM71.6804 110.73L71.7409 110.973L71.7409 110.973L71.6804 110.73ZM70.7136 110.73L70.6532 110.973L70.6532 110.973L70.7136 110.73ZM69.4343 110L69.2909 110.206L69.4343 110ZM44.1755 81.72L43.9504 81.8308L44.1755 81.72ZM36.8923 49.9163L36.6417 49.9276L36.8923 49.9163ZM36.9636 48.348L36.7265 48.266L36.7265 48.266L36.9636 48.348ZM37.5163 47.513L37.3483 47.3267L37.3483 47.3267L37.5163 47.513ZM38.9587 46.8255L39.0462 47.0607L38.9587 46.8255ZM53.6365 40.8841L53.7434 41.1111H53.7434L53.6365 40.8841ZM69.6101 32.2122L69.4853 31.9946L69.6101 32.2122ZM69.0447 19.137L69.0985 19.3821C70.6544 19.0405 71.7396 19.0405 73.2956 19.3821L73.3494 19.137L73.4032 18.892C71.7763 18.5348 70.6177 18.5348 68.9909 18.892L69.0447 19.137ZM73.3494 19.137L73.2955 19.3821C74.0638 19.5508 74.9066 19.9057 76.0315 20.5046C77.1563 21.1036 78.547 21.9376 80.4117 23.0563L80.5408 22.8411L80.6698 22.626C78.8097 21.51 77.4062 20.6681 76.2673 20.0617C75.1284 19.4552 74.238 19.0753 73.4032 18.892L73.3494 19.137ZM80.5408 22.8411L80.4117 23.0563C88.6201 27.9807 97.3293 32.2208 106.358 35.3826L106.441 35.1458L106.524 34.909C97.5317 31.7601 88.8534 27.5354 80.6698 22.626L80.5408 22.8411ZM106.441 35.1458L106.358 35.3826C108.478 36.1251 110.057 36.6782 111.288 37.2041C112.518 37.7291 113.385 38.2206 114.086 38.8329L114.251 38.6439L114.416 38.4549C113.659 37.7937 112.738 37.2776 111.486 36.7426C110.235 36.2086 108.638 35.6493 106.524 34.909L106.441 35.1458ZM114.251 38.6439L114.086 38.8328C115.304 39.897 116.312 41.3734 116.858 42.8957L117.094 42.8109L117.331 42.7261C116.755 41.1233 115.698 39.5752 114.416 38.4549L114.251 38.6439ZM117.094 42.8109L116.858 42.8956C117.493 44.6629 117.437 46.3207 117.312 49.7568L117.562 49.7659L117.813 49.7751C117.937 46.3683 118.004 44.603 117.331 42.7261L117.094 42.8109ZM117.562 49.7659L117.312 49.7556L117.273 50.6824L117.524 50.6927L117.775 50.703L117.813 49.7762L117.562 49.7659ZM117.524 50.6927L117.273 50.6816C116.842 60.3788 115.002 74.3159 108.801 86.9247L109.026 87.0355L109.251 87.1462C115.496 74.4491 117.342 60.4338 117.775 50.7038L117.524 50.6927ZM109.026 87.0355L108.802 86.9233L108.4 87.726L108.625 87.8382L108.849 87.9504L109.251 87.1477L109.026 87.0355ZM108.625 87.8382L108.401 87.7247C99.9186 104.442 86.1202 115.447 77.8844 120.914L78.0232 121.123L78.162 121.332C86.4317 115.843 100.31 104.779 108.849 87.9517L108.625 87.8382ZM78.0232 121.123L77.8849 120.914L77.2345 121.344L77.3728 121.553L77.5111 121.762L78.1615 121.333L78.0232 121.123ZM77.3728 121.553L77.2351 121.343C75.8108 122.279 74.9447 122.773 73.4698 123.125L73.5281 123.369L73.5864 123.614C75.1457 123.241 76.0694 122.709 77.5105 121.763L77.3728 121.553ZM73.5281 123.369L73.4698 123.125C72.8958 123.262 72.0528 123.334 71.197 123.334C70.3413 123.334 69.4983 123.262 68.9242 123.125L68.866 123.369L68.8077 123.614C69.4359 123.763 70.3228 123.836 71.197 123.836C72.0712 123.836 72.9582 123.763 73.5863 123.614L73.5281 123.369ZM68.866 123.369L68.9242 123.125C67.4491 122.773 66.5834 122.279 65.159 121.343L65.0212 121.553L64.8835 121.763C66.3248 122.709 67.2482 123.241 68.8077 123.614L68.866 123.369ZM65.0212 121.553L65.1595 121.344L64.5092 120.914L64.3708 121.123L64.2325 121.333L64.8829 121.762L65.0212 121.553ZM64.3708 121.123L64.5096 120.914C56.2739 115.447 42.4765 104.442 33.994 87.7247L33.7703 87.8382L33.5465 87.9517C42.0848 104.779 55.9624 115.843 64.2321 121.332L64.3708 121.123ZM33.7703 87.8382L33.9947 87.726L33.5933 86.9233L33.3689 87.0355L33.1445 87.1477L33.5458 87.9504L33.7703 87.8382ZM33.3689 87.0355L33.594 86.9247C27.393 74.3158 25.5516 60.3789 25.1205 50.6816L24.8699 50.6927L24.6192 50.7038C25.0518 60.4338 26.8993 74.4491 33.1437 87.1462L33.3689 87.0355ZM24.8699 50.6927L25.1206 50.6827L25.0835 49.7559L24.8328 49.7659L24.582 49.776L24.6192 50.7027L24.8699 50.6927ZM24.8328 49.7659L25.0835 49.7568C24.9583 46.3205 24.9012 44.6629 25.5357 42.8956L25.2996 42.8109L25.0634 42.7261C24.3895 44.6031 24.4578 46.3683 24.582 49.7751L24.8328 49.7659ZM25.2996 42.8109L25.5357 42.8957C26.048 41.4689 26.9661 40.0822 28.0833 39.0371L27.9119 38.8538L27.7404 38.6706C26.5662 39.7691 25.6032 41.223 25.0634 42.7261L25.2996 42.8109ZM27.9119 38.8538L28.0804 39.0397L28.3119 38.8297L28.1433 38.6439L27.9747 38.458L27.7433 38.668L27.9119 38.8538ZM28.1433 38.6439L28.3084 38.8329C29.5412 37.7561 31.2723 37.0628 34.5462 35.9058L34.4626 35.6693L34.379 35.4327C31.1283 36.5814 29.2972 37.3029 27.9783 38.4549L28.1433 38.6439ZM34.4626 35.6693L34.5457 35.906L36.037 35.3826L35.9538 35.1458L35.8707 34.9091L34.3795 35.4325L34.4626 35.6693ZM35.9538 35.1458L36.0368 35.3826C45.0657 32.2208 53.774 27.9806 61.9823 23.0563L61.8533 22.8411L61.7242 22.626C53.5406 27.5354 44.8632 31.7601 35.8709 34.909L35.9538 35.1458ZM61.8533 22.8411L61.9823 23.0563C63.8471 21.9376 65.2378 21.1035 66.3626 20.5046C67.4874 19.9056 68.3302 19.5508 69.0985 19.3821L69.0447 19.137L68.9909 18.892C68.156 19.0753 67.2656 19.4552 66.1268 20.0616C64.9879 20.668 63.5844 21.51 61.7242 22.626L61.8533 22.8411ZM72.489 23.0579L72.5428 22.8129C72.0221 22.6985 71.6126 22.6384 71.1974 22.6384C70.7822 22.6384 70.3728 22.6986 69.8522 22.8129L69.906 23.0579L69.9598 23.303C70.4633 23.1925 70.8332 23.1402 71.1974 23.1402C71.5616 23.1402 71.9316 23.1924 72.4352 23.303L72.489 23.0579ZM69.906 23.0579L69.8522 22.8129C69.5504 22.8791 69.0401 23.0589 68.0146 23.605L68.1326 23.8265L68.2505 24.048C69.2627 23.5089 69.7251 23.3545 69.9598 23.303L69.906 23.0579ZM68.1326 23.8265L68.0146 23.605C66.9876 24.152 65.686 24.9317 63.7896 26.0693L63.9187 26.2845L64.0478 26.4997C65.9488 25.3592 67.2375 24.5874 68.2505 24.048L68.1326 23.8265ZM63.9187 26.2845L63.7896 26.0693C55.4074 31.0979 46.4832 35.4465 37.1981 38.6981L37.281 38.9349L37.3639 39.1717C46.6857 35.9073 55.6407 31.5432 64.0478 26.4997L63.9187 26.2845ZM37.281 38.9349L37.1981 38.6981C35.0336 39.456 33.5837 39.9655 32.4852 40.4346L32.5837 40.6654L32.6823 40.8961C33.7617 40.4352 35.1928 39.932 37.3639 39.1717L37.281 38.9349ZM32.5837 40.6654L32.4852 40.4346C31.4197 40.8896 30.9276 41.2087 30.6189 41.4783L30.7839 41.6673L30.949 41.8563C31.2014 41.6358 31.6397 41.3414 32.6823 40.8961L32.5837 40.6654ZM30.7839 41.6673L30.6189 41.4784C29.8511 42.149 29.1862 43.1241 28.8417 44.0835L29.0779 44.1683L29.314 44.2531C29.6296 43.3741 30.2457 42.4707 30.949 41.8563L30.7839 41.6673ZM29.0779 44.1683L28.8417 44.0835C28.4831 45.0827 28.4611 45.9894 28.5937 49.6286L28.8445 49.6195L29.0952 49.6103C28.9613 45.9361 28.9953 45.1411 29.314 44.253L29.0779 44.1683ZM28.8445 49.6195L28.5937 49.6286C28.9398 59.125 30.657 72.9931 36.7463 85.3747L36.9714 85.264L37.1966 85.1533C31.1519 72.8623 29.4402 59.0747 29.0952 49.6103L28.8445 49.6195ZM36.9714 85.264L36.7463 85.3747C44.7977 101.746 58.3254 112.592 66.4528 117.988L66.5915 117.779L66.7303 117.57C58.6371 112.197 45.1921 101.41 37.1966 85.1533L36.9714 85.264ZM66.5915 117.779L66.4528 117.988C68.3108 119.221 68.7299 119.468 69.7403 119.709L69.7986 119.465L69.8569 119.221C68.944 119.003 68.5931 118.806 66.7303 117.57L66.5915 117.779ZM69.7986 119.465L69.7404 119.709C69.9357 119.756 70.4713 119.822 71.197 119.822L71.197 119.571L71.197 119.32C70.4895 119.32 69.9979 119.255 69.8567 119.221L69.7986 119.465ZM71.197 119.571L71.197 119.822C71.9231 119.822 72.4597 119.756 72.6547 119.709L72.5964 119.465L72.5381 119.221C72.3976 119.255 71.9051 119.32 71.197 119.32L71.197 119.571ZM72.5964 119.465L72.6547 119.709C73.6647 119.468 74.0842 119.221 75.9422 117.988L75.8035 117.779L75.6647 117.57C73.802 118.806 73.4505 119.003 72.5381 119.221L72.5964 119.465ZM75.8035 117.779L75.9422 117.988C84.0697 112.592 97.5974 101.746 105.649 85.3747L105.424 85.264L105.198 85.1533C97.2031 101.41 83.758 112.197 75.6647 117.57L75.8035 117.779ZM105.424 85.264L105.649 85.3747C111.738 72.9932 113.455 59.125 113.801 49.6286L113.551 49.6195L113.3 49.6103C112.955 59.0746 111.243 72.8624 105.198 85.1533L105.424 85.264ZM113.551 49.6195L113.801 49.6286C113.934 45.9892 113.911 45.0827 113.552 44.0835L113.316 44.1683L113.08 44.2531C113.399 45.1412 113.434 45.9362 113.3 49.6103L113.551 49.6195ZM113.316 44.1683L113.552 44.0835C113.208 43.1241 112.543 42.1491 111.775 41.4783L111.61 41.6673L111.445 41.8563C112.148 42.4707 112.764 43.374 113.08 44.2531L113.316 44.1683ZM111.61 41.6673L111.775 41.4783C111.466 41.2087 110.974 40.8897 109.909 40.4346L109.81 40.6654L109.712 40.8961C110.755 41.3414 111.193 41.6358 111.445 41.8563L111.61 41.6673ZM109.81 40.6654L109.909 40.4346C108.81 39.9656 107.361 39.456 105.197 38.6981L105.114 38.9349L105.031 39.1717C107.202 39.9319 108.632 40.4352 109.712 40.8961L109.81 40.6654ZM105.114 38.9349L105.197 38.6981C95.9115 35.4465 86.9868 31.0981 78.6044 26.0693L78.4753 26.2845L78.3463 26.4997C86.7535 31.5433 95.7091 35.9073 105.031 39.1717L105.114 38.9349ZM78.4753 26.2845L78.6044 26.0693C76.7082 24.9318 75.4074 24.152 74.3804 23.605L74.2624 23.8265L74.1445 24.048C75.1575 24.5874 76.4452 25.3592 78.3463 26.4997L78.4753 26.2845ZM74.2624 23.8265L74.3804 23.605C73.3551 23.059 72.8448 22.8793 72.5429 22.8129L72.489 23.0579L72.4351 23.303C72.67 23.3546 73.1325 23.509 74.1445 24.048L74.2624 23.8265ZM70.782 31.6527L70.8338 31.8982C71.0716 31.8479 71.3224 31.8479 71.5602 31.8982L71.6121 31.6527L71.6639 31.4072C71.3578 31.3425 71.0362 31.3425 70.7301 31.4072L70.782 31.6527ZM71.6121 31.6527L71.5601 31.8981C71.8216 31.9534 72.0701 32.0922 72.6591 32.4299L72.7839 32.2122L72.9087 31.9946C72.3478 31.6729 72.0208 31.4826 71.664 31.4072L71.6121 31.6527ZM72.7839 32.2122L72.6591 32.4299C77.9176 35.4449 83.1343 38.512 88.6496 41.1111L88.7566 40.8841L88.8635 40.6571C83.3709 38.0687 78.1749 35.014 72.9087 31.9946L72.7839 32.2122ZM88.7566 40.8841L88.6496 41.1111C93.4451 43.3709 98.3994 45.2188 103.348 47.0607L103.435 46.8255L103.523 46.5904C98.5715 44.7474 93.6368 42.9065 88.8635 40.6571L88.7566 40.8841ZM103.435 46.8255L103.348 47.0607C104.139 47.3552 104.469 47.4822 104.71 47.6993L104.878 47.513L105.046 47.3267C104.717 47.0299 104.274 46.8701 103.523 46.5904L103.435 46.8255ZM104.878 47.513L104.71 47.6993C104.926 47.8943 105.098 48.1548 105.193 48.43L105.43 48.348L105.668 48.266C105.545 47.9108 105.325 47.5786 105.046 47.3267L104.878 47.513ZM105.43 48.348L105.193 48.4299C105.299 48.7364 105.288 49.0812 105.251 49.9051L105.502 49.9163L105.752 49.9276C105.788 49.144 105.812 48.6845 105.668 48.2661L105.43 48.348ZM105.502 49.9163L105.251 49.9051C104.763 60.7902 102.814 71.8081 97.9933 81.6093L98.2185 81.72L98.4436 81.8308C103.305 71.946 105.262 60.8529 105.752 49.9276L105.502 49.9163ZM98.2185 81.72L97.9933 81.6093C92.3756 93.0322 83.23 102.54 72.8163 109.794L72.9597 110L73.1031 110.206C83.5692 102.916 92.78 93.3468 98.4436 81.8308L98.2185 81.72ZM72.9597 110L72.8163 109.794C72.1887 110.232 71.9243 110.411 71.6199 110.486L71.6804 110.73L71.7409 110.973C72.1557 110.87 72.5052 110.623 73.1031 110.206L72.9597 110ZM71.6804 110.73L71.62 110.486C71.3541 110.552 71.04 110.552 70.774 110.486L70.7136 110.73L70.6532 110.973C70.9985 111.059 71.3955 111.059 71.7409 110.973L71.6804 110.73ZM70.7136 110.73L70.7741 110.486C70.4697 110.411 70.2054 110.232 69.5777 109.794L69.4343 110L69.2909 110.206C69.8889 110.623 70.2384 110.87 70.6532 110.973L70.7136 110.73ZM69.4343 110L69.5777 109.794C59.164 102.54 50.0185 93.0322 44.4007 81.6093L44.1755 81.72L43.9504 81.8308C49.614 93.3468 58.8247 102.916 69.2909 110.206L69.4343 110ZM44.1755 81.72L44.4007 81.6093C39.5805 71.8081 37.6312 60.7902 37.143 49.9051L36.8923 49.9163L36.6417 49.9276C37.1317 60.853 39.089 71.9459 43.9504 81.8308L44.1755 81.72ZM36.8923 49.9163L37.143 49.9051C37.106 49.0812 37.0949 48.7365 37.2008 48.4299L36.9636 48.348L36.7265 48.266C36.5819 48.6845 36.6065 49.144 36.6417 49.9276L36.8923 49.9163ZM36.9636 48.348L37.2007 48.43C37.2959 48.1548 37.4683 47.8943 37.6844 47.6993L37.5163 47.513L37.3483 47.3267C37.0692 47.5785 36.8493 47.9108 36.7265 48.266L36.9636 48.348ZM37.5163 47.513L37.6844 47.6994C37.9251 47.4822 38.2552 47.3551 39.0462 47.0607L38.9587 46.8255L38.8712 46.5904C38.1197 46.8701 37.6773 47.03 37.3483 47.3267L37.5163 47.513ZM38.9587 46.8255L39.0462 47.0607C43.9968 45.2182 48.9358 43.3767 53.7434 41.1111L53.6365 40.8841L53.5295 40.6571C48.744 42.9123 43.8246 44.7468 38.8712 46.5904L38.9587 46.8255ZM53.6365 40.8841L53.7434 41.1111C59.2589 38.5119 64.4764 35.445 69.7349 32.4299L69.6101 32.2122L69.4853 31.9946C64.219 35.0141 59.0223 38.0687 53.5295 40.6571L53.6365 40.8841ZM69.6101 32.2122L69.7349 32.4299C70.324 32.0921 70.5724 31.9534 70.8338 31.8982L70.782 31.6527L70.7301 31.4072C70.3732 31.4826 70.0462 31.673 69.4853 31.9946L69.6101 32.2122Z" fill="url(#paint6_linear_90_2543)" mask="url(#path-11-inside-1_90_2543)"/>
</g>
</g>
</g>
<g filter="url(#filter2_d_90_2543)">
<path d="M89.6964 59.2145L71.934 68.9094C71.3942 69.204 70.7418 69.204 70.202 68.9094L55.2682 60.7583V68.484C55.2682 69.4835 54.4818 70.2937 53.5118 70.2937C52.5418 70.2937 51.7554 69.4835 51.7554 68.484V58.5639C51.2542 57.7318 51.4823 56.5595 52.4396 56.037L70.202 46.3421C70.7418 46.0474 71.3942 46.0474 71.934 46.3421L89.6964 56.037C90.9531 56.7229 90.9531 58.5286 89.6964 59.2145Z" fill="white"/>
<path d="M84.1798 75.455C84.1798 76.3893 83.6165 77.3083 82.7778 77.7279L72.2791 82.9807C71.5475 83.3467 70.5906 83.3478 69.8569 82.9807L59.3581 77.7279C58.522 77.3096 57.9561 76.3908 57.9561 75.455V67.3119C57.9561 66.5509 58.7701 66.0667 59.4388 66.43L69.1512 71.7059C70.1492 72.248 71.9862 72.2483 72.9847 71.7059L82.6971 66.43C83.3659 66.0667 84.1798 66.5509 84.1798 67.3119V75.455Z" fill="white"/>
<path d="M82.6377 66.3193C83.3898 65.9112 84.3054 66.4558 84.3057 67.3115V75.4551C84.3056 76.4365 83.7153 77.3988 82.834 77.8398L72.335 83.0928C71.5681 83.4764 70.5698 83.4775 69.8008 83.0928L59.3018 77.8398C58.4231 77.4001 57.8311 76.4381 57.8311 75.4551V67.3115C57.8313 66.4556 58.7468 65.9107 59.499 66.3193L69.2109 71.5957C69.6852 71.8533 70.3711 71.9872 71.0674 71.9873C71.7637 71.9873 72.4502 71.8535 72.9248 71.5957L82.6377 66.3193ZM70.1416 46.2324C70.7189 45.9173 71.4169 45.9173 71.9941 46.2324L89.7568 55.9268C91.1003 56.6602 91.1001 58.5906 89.7568 59.3242L71.9941 69.0195C71.4169 69.3346 70.7189 69.3346 70.1416 69.0195L55.3936 60.9688V68.4844C55.3934 69.5494 54.5544 70.4189 53.5117 70.4189C52.4691 70.4189 51.6301 69.5494 51.6299 68.4844V58.5938C51.1209 57.7075 51.3681 56.479 52.3799 55.9268L70.1416 46.2324Z" stroke="url(#paint7_linear_90_2543)" stroke-width="0.250909" stroke-linecap="round" style="mix-blend-mode:color-burn"/>
</g>
</g>
<g filter="url(#filter3_dd_90_2543)">
<mask id="path-15-inside-2_90_2543" fill="white">
<path d="M31.1749 91.7422C33.423 91.7422 34.5476 91.7422 35.4063 92.1797C36.1617 92.5646 36.7763 93.1792 37.1612 93.9346C37.5985 94.7932 37.5987 95.9173 37.5987 98.165V108.402C37.5987 110.651 37.5987 111.775 37.1612 112.634C36.7763 113.389 36.1617 114.004 35.4063 114.389C34.5476 114.826 33.4229 114.826 31.1749 114.826H22.7833C21.1445 114.826 20.3252 114.826 19.8155 114.48C19.37 114.179 19.0643 113.711 18.9668 113.182C18.8555 112.576 19.1841 111.826 19.8418 110.325L22.9278 103.284L19.8418 96.2432C19.1839 94.7421 18.8554 93.9912 18.9668 93.3857C19.0643 92.8567 19.37 92.3885 19.8155 92.0869C20.3252 91.742 21.1448 91.7422 22.7833 91.7422H31.1749ZM119.341 91.7422C120.979 91.7422 121.799 91.7419 122.309 92.0869C122.754 92.3885 123.06 92.8567 123.157 93.3857C123.269 93.9912 122.94 94.7421 122.282 96.2432L119.196 103.284L122.282 110.325C122.94 111.826 123.269 112.576 123.157 113.182C123.06 113.711 122.754 114.179 122.309 114.48C121.799 114.826 120.98 114.826 119.341 114.826H110.948C108.701 114.826 107.576 114.826 106.718 114.389C105.962 114.004 105.348 113.389 104.963 112.634C104.525 111.775 104.525 110.651 104.525 108.402V98.165C104.525 95.9173 104.526 94.7932 104.963 93.9346C105.348 93.1792 105.962 92.5646 106.718 92.1797C107.576 91.7423 108.701 91.7422 110.948 91.7422H119.341Z"/>
</mask>
<path d="M31.1749 91.7422C33.423 91.7422 34.5476 91.7422 35.4063 92.1797C36.1617 92.5646 36.7763 93.1792 37.1612 93.9346C37.5985 94.7932 37.5987 95.9173 37.5987 98.165V108.402C37.5987 110.651 37.5987 111.775 37.1612 112.634C36.7763 113.389 36.1617 114.004 35.4063 114.389C34.5476 114.826 33.4229 114.826 31.1749 114.826H22.7833C21.1445 114.826 20.3252 114.826 19.8155 114.48C19.37 114.179 19.0643 113.711 18.9668 113.182C18.8555 112.576 19.1841 111.826 19.8418 110.325L22.9278 103.284L19.8418 96.2432C19.1839 94.7421 18.8554 93.9912 18.9668 93.3857C19.0643 92.8567 19.37 92.3885 19.8155 92.0869C20.3252 91.742 21.1448 91.7422 22.7833 91.7422H31.1749ZM119.341 91.7422C120.979 91.7422 121.799 91.7419 122.309 92.0869C122.754 92.3885 123.06 92.8567 123.157 93.3857C123.269 93.9912 122.94 94.7421 122.282 96.2432L119.196 103.284L122.282 110.325C122.94 111.826 123.269 112.576 123.157 113.182C123.06 113.711 122.754 114.179 122.309 114.48C121.799 114.826 120.98 114.826 119.341 114.826H110.948C108.701 114.826 107.576 114.826 106.718 114.389C105.962 114.004 105.348 113.389 104.963 112.634C104.525 111.775 104.525 110.651 104.525 108.402V98.165C104.525 95.9173 104.526 94.7932 104.963 93.9346C105.348 93.1792 105.962 92.5646 106.718 92.1797C107.576 91.7423 108.701 91.7422 110.948 91.7422H119.341Z" fill="#F59F0A"/>
<path d="M35.4063 92.1797L35.5202 91.9561L35.5202 91.9561L35.4063 92.1797ZM37.1612 93.9346L37.3848 93.8207L37.3847 93.8207L37.1612 93.9346ZM37.5987 98.165H37.8496H37.5987ZM37.1612 112.634L37.3847 112.748L37.3847 112.748L37.1612 112.634ZM35.4063 114.389L35.5202 114.612L35.5202 114.612L35.4063 114.389ZM22.7833 114.826V115.077V114.826ZM19.8155 114.48L19.6748 114.688L19.6748 114.688L19.8155 114.48ZM18.9668 113.182L18.7201 113.227L18.7201 113.227L18.9668 113.182ZM19.8418 110.325L20.0717 110.426L20.0717 110.426L19.8418 110.325ZM22.9278 103.284L23.1576 103.385L23.2017 103.284L23.1576 103.183L22.9278 103.284ZM19.8418 96.2432L20.0717 96.1424L20.0717 96.1424L19.8418 96.2432ZM18.9668 93.3857L18.7201 93.3403L18.7201 93.3403L18.9668 93.3857ZM19.8155 92.0869L19.6749 91.8791L19.6748 91.8791L19.8155 92.0869ZM22.7833 91.7422V91.4913V91.7422ZM119.341 91.7422V91.4913V91.7422ZM122.309 92.0869L122.449 91.8791L122.449 91.8791L122.309 92.0869ZM123.157 93.3857L123.404 93.3403L123.404 93.3403L123.157 93.3857ZM122.282 96.2432L122.052 96.1424V96.1424L122.282 96.2432ZM119.196 103.284L118.967 103.183L118.922 103.284L118.967 103.385L119.196 103.284ZM122.282 110.325L122.052 110.426V110.426L122.282 110.325ZM123.157 113.182L123.404 113.227L123.404 113.227L123.157 113.182ZM122.309 114.48L122.449 114.688L122.449 114.688L122.309 114.48ZM119.341 114.826V115.077V114.826ZM110.948 114.826V115.077V114.826ZM106.718 114.389L106.604 114.612L106.604 114.612L106.718 114.389ZM104.963 112.634L104.739 112.748L104.739 112.748L104.963 112.634ZM104.525 98.165H104.275H104.525ZM104.963 93.9346L104.739 93.8207L104.739 93.8207L104.963 93.9346ZM106.718 92.1797L106.604 91.9561L106.604 91.9561L106.718 92.1797ZM110.948 91.7422V91.4913V91.7422ZM31.1749 91.7422V91.9931C32.3031 91.9931 33.1343 91.9933 33.7912 92.047C34.4452 92.1004 34.9043 92.2056 35.2924 92.4033L35.4063 92.1797L35.5202 91.9561C35.0496 91.7164 34.517 91.6028 33.832 91.5468C33.15 91.4911 32.2948 91.4913 31.1749 91.4913V91.7422ZM35.4063 92.1797L35.2924 92.4032C36.0006 92.7641 36.5768 93.3403 36.9376 94.0485L37.1612 93.9346L37.3847 93.8207C36.9758 93.0181 36.3228 92.3651 35.5202 91.9561L35.4063 92.1797ZM37.1612 93.9346L36.9376 94.0484C37.1353 94.4365 37.2404 94.8955 37.2938 95.5493C37.3475 96.2061 37.3478 97.0371 37.3478 98.165H37.5987H37.8496C37.8496 97.0453 37.8497 96.1904 37.794 95.5085C37.738 94.8236 37.6244 94.2913 37.3848 93.8207L37.1612 93.9346ZM37.5987 98.165H37.3478V108.402H37.5987H37.8496V98.165H37.5987ZM37.5987 108.402H37.3478C37.3478 109.531 37.3476 110.362 37.2939 111.019C37.2405 111.673 37.1353 112.132 36.9376 112.52L37.1612 112.634L37.3847 112.748C37.6245 112.277 37.7381 111.745 37.7941 111.06C37.8498 110.377 37.8496 109.522 37.8496 108.402H37.5987ZM37.1612 112.634L36.9376 112.52C36.5768 113.228 36.0006 113.804 35.2924 114.165L35.4063 114.389L35.5202 114.612C36.3228 114.203 36.9758 113.55 37.3847 112.748L37.1612 112.634ZM35.4063 114.389L35.2924 114.165C34.9043 114.363 34.4452 114.468 33.7911 114.521C33.1342 114.575 32.303 114.575 31.1749 114.575V114.826V115.077C32.2947 115.077 33.1499 115.077 33.832 115.022C34.517 114.966 35.0496 114.852 35.5202 114.612L35.4063 114.389ZM31.1749 114.826V114.575H22.7833V114.826V115.077H31.1749V114.826ZM22.7833 114.826V114.575C21.9591 114.575 21.3581 114.575 20.8988 114.533C20.4399 114.491 20.1584 114.41 19.9561 114.273L19.8155 114.48L19.6748 114.688C19.9823 114.896 20.3653 114.988 20.8531 115.033C21.3406 115.077 21.9687 115.077 22.7833 115.077V114.826ZM19.8155 114.48L19.9561 114.273C19.5664 114.009 19.2989 113.599 19.2136 113.136L18.9668 113.182L18.7201 113.227C18.8297 113.822 19.1735 114.349 19.6748 114.688L19.8155 114.48ZM18.9668 113.182L19.2136 113.136C19.1695 112.896 19.2081 112.606 19.354 112.169C19.4999 111.731 19.7408 111.181 20.0717 110.426L19.8418 110.325L19.612 110.224C19.2851 110.97 19.0329 111.545 18.8779 112.01C18.7229 112.474 18.6529 112.862 18.7201 113.227L18.9668 113.182ZM19.8418 110.325L20.0717 110.426L23.1576 103.385L22.9278 103.284L22.698 103.183L19.612 110.224L19.8418 110.325ZM22.9278 103.284L23.1576 103.183L20.0717 96.1424L19.8418 96.2432L19.612 96.3439L22.698 103.385L22.9278 103.284ZM19.8418 96.2432L20.0717 96.1424C19.7408 95.3875 19.4998 94.8368 19.3538 94.3992C19.208 93.9619 19.1694 93.6714 19.2136 93.4312L18.9668 93.3857L18.7201 93.3403C18.6528 93.7055 18.7228 94.0932 18.8778 94.558C19.0327 95.0224 19.285 95.5977 19.612 96.3439L19.8418 96.2432ZM18.9668 93.3857L19.2136 93.4312C19.2989 92.9682 19.5665 92.5585 19.9561 92.2947L19.8155 92.0869L19.6748 91.8791C19.1736 92.2185 18.8297 92.7452 18.7201 93.3403L18.9668 93.3857ZM19.8155 92.0869L19.9561 92.2947C20.1583 92.1579 20.4398 92.0768 20.8988 92.0351C21.3582 91.9933 21.9592 91.9931 22.7833 91.9931V91.7422V91.4913C21.9689 91.4913 21.3408 91.491 20.8534 91.5353C20.3656 91.5797 19.9824 91.671 19.6749 91.8791L19.8155 92.0869ZM22.7833 91.7422V91.9931H31.1749V91.7422V91.4913H22.7833V91.7422ZM119.341 91.7422V91.9931C120.165 91.9931 120.766 91.9933 121.225 92.0351C121.684 92.0768 121.966 92.1579 122.168 92.2947L122.309 92.0869L122.449 91.8791C122.142 91.671 121.759 91.5797 121.271 91.5353C120.783 91.491 120.155 91.4913 119.341 91.4913V91.7422ZM122.309 92.0869L122.168 92.2947C122.558 92.5585 122.825 92.9682 122.911 93.4312L123.157 93.3857L123.404 93.3403C123.294 92.7452 122.951 92.2185 122.449 91.8791L122.309 92.0869ZM123.157 93.3857L122.911 93.4312C122.955 93.6714 122.916 93.9619 122.77 94.3992C122.624 94.8368 122.383 95.3875 122.052 96.1424L122.282 96.2432L122.512 96.3439C122.839 95.5977 123.091 95.0224 123.246 94.558C123.401 94.0932 123.471 93.7055 123.404 93.3403L123.157 93.3857ZM122.282 96.2432L122.052 96.1424L118.967 103.183L119.196 103.284L119.426 103.385L122.512 96.3439L122.282 96.2432ZM119.196 103.284L118.967 103.385L122.052 110.426L122.282 110.325L122.512 110.224L119.426 103.183L119.196 103.284ZM122.282 110.325L122.052 110.426C122.383 111.181 122.624 111.731 122.77 112.169C122.916 112.606 122.955 112.896 122.91 113.136L123.157 113.182L123.404 113.227C123.471 112.862 123.401 112.474 123.246 112.01C123.091 111.545 122.839 110.97 122.512 110.224L122.282 110.325ZM123.157 113.182L122.911 113.136C122.825 113.599 122.558 114.009 122.168 114.273L122.309 114.48L122.449 114.688C122.951 114.349 123.294 113.822 123.404 113.227L123.157 113.182ZM122.309 114.48L122.168 114.273C121.966 114.41 121.684 114.491 121.225 114.533C120.766 114.575 120.165 114.575 119.341 114.575V114.826V115.077C120.155 115.077 120.783 115.077 121.271 115.033C121.759 114.988 122.142 114.896 122.449 114.688L122.309 114.48ZM119.341 114.826V114.575H110.948V114.826V115.077H119.341V114.826ZM110.948 114.826V114.575C109.82 114.575 108.989 114.575 108.333 114.521C107.679 114.468 107.22 114.363 106.832 114.165L106.718 114.389L106.604 114.612C107.075 114.852 107.607 114.965 108.292 115.021C108.974 115.077 109.829 115.077 110.948 115.077V114.826ZM106.718 114.389L106.832 114.165C106.124 113.804 105.547 113.228 105.187 112.52L104.963 112.634L104.739 112.748C105.148 113.55 105.801 114.203 106.604 114.612L106.718 114.389ZM104.963 112.634L105.187 112.52C104.989 112.132 104.884 111.673 104.83 111.019C104.777 110.362 104.776 109.531 104.776 108.402H104.525H104.275C104.275 109.522 104.274 110.378 104.33 111.06C104.386 111.745 104.5 112.277 104.739 112.748L104.963 112.634ZM104.525 108.402H104.776V98.165H104.525H104.275V108.402H104.525ZM104.525 98.165H104.776C104.776 97.037 104.777 96.2061 104.83 95.5493C104.884 94.8955 104.989 94.4365 105.187 94.0484L104.963 93.9346L104.739 93.8207C104.5 94.2913 104.386 94.8236 104.33 95.5085C104.274 96.1904 104.275 97.0453 104.275 98.165H104.525ZM104.963 93.9346L105.187 94.0485C105.547 93.3403 106.124 92.7641 106.832 92.4032L106.718 92.1797L106.604 91.9561C105.801 92.3651 105.148 93.0181 104.739 93.8207L104.963 93.9346ZM106.718 92.1797L106.832 92.4033C107.22 92.2056 107.679 92.1004 108.333 92.047C108.989 91.9933 109.82 91.9931 110.948 91.9931V91.7422V91.4913C109.829 91.4913 108.974 91.4911 108.292 91.5468C107.607 91.6028 107.075 91.7164 106.604 91.9561L106.718 92.1797ZM110.948 91.7422V91.9931H119.341V91.7422V91.4913H110.948V91.7422Z" fill="url(#paint8_linear_90_2543)" style="mix-blend-mode:darken" mask="url(#path-15-inside-2_90_2543)"/>
</g>
<path d="M31.1749 91.7422C33.423 91.7422 34.5476 91.7422 35.4063 92.1797C36.1617 92.5646 36.7763 93.1792 37.1612 93.9346C37.5985 94.7932 37.5987 95.9173 37.5987 98.165V108.402C37.5987 110.651 37.5987 111.775 37.1612 112.634C36.7763 113.389 36.1617 114.004 35.4063 114.389C34.5476 114.826 33.4229 114.826 31.1749 114.826H22.7833C21.1445 114.826 20.3252 114.826 19.8155 114.48C19.37 114.179 19.0643 113.711 18.9668 113.182C18.8555 112.576 19.1841 111.826 19.8418 110.325L22.9278 103.284L19.8418 96.2432C19.1839 94.7421 18.8554 93.9912 18.9668 93.3857C19.0643 92.8567 19.37 92.3885 19.8155 92.0869C20.3252 91.742 21.1448 91.7422 22.7833 91.7422H31.1749ZM119.341 91.7422C120.979 91.7422 121.799 91.7419 122.309 92.0869C122.754 92.3885 123.06 92.8567 123.157 93.3857C123.269 93.9912 122.94 94.7421 122.282 96.2432L119.196 103.284L122.282 110.325C122.94 111.826 123.269 112.576 123.157 113.182C123.06 113.711 122.754 114.179 122.309 114.48C121.799 114.826 120.98 114.826 119.341 114.826H110.948C108.701 114.826 107.576 114.826 106.718 114.389C105.962 114.004 105.348 113.389 104.963 112.634C104.525 111.775 104.525 110.651 104.525 108.402V98.165C104.525 95.9173 104.526 94.7932 104.963 93.9346C105.348 93.1792 105.962 92.5646 106.718 92.1797C107.576 91.7423 108.701 91.7422 110.948 91.7422H119.341Z" fill="url(#paint9_linear_90_2543)" fill-opacity="0.3" style="mix-blend-mode:overlay"/>
<path d="M31.1749 91.7422C33.423 91.7422 34.5476 91.7422 35.4063 92.1797C36.1617 92.5646 36.7763 93.1792 37.1612 93.9346C37.5985 94.7932 37.5987 95.9173 37.5987 98.165V108.402C37.5987 110.651 37.5987 111.775 37.1612 112.634C36.7763 113.389 36.1617 114.004 35.4063 114.389C34.5476 114.826 33.4229 114.826 31.1749 114.826H22.7833C21.1445 114.826 20.3252 114.826 19.8155 114.48C19.37 114.179 19.0643 113.711 18.9668 113.182C18.8555 112.576 19.1841 111.826 19.8418 110.325L22.9278 103.284L19.8418 96.2432C19.1839 94.7421 18.8554 93.9912 18.9668 93.3857C19.0643 92.8567 19.37 92.3885 19.8155 92.0869C20.3252 91.742 21.1448 91.7422 22.7833 91.7422H31.1749ZM119.341 91.7422C120.979 91.7422 121.799 91.7419 122.309 92.0869C122.754 92.3885 123.06 92.8567 123.157 93.3857C123.269 93.9912 122.94 94.7421 122.282 96.2432L119.196 103.284L122.282 110.325C122.94 111.826 123.269 112.576 123.157 113.182C123.06 113.711 122.754 114.179 122.309 114.48C121.799 114.826 120.98 114.826 119.341 114.826H110.948C108.701 114.826 107.576 114.826 106.718 114.389C105.962 114.004 105.348 113.389 104.963 112.634C104.525 111.775 104.525 110.651 104.525 108.402V98.165C104.525 95.9173 104.526 94.7932 104.963 93.9346C105.348 93.1792 105.962 92.5646 106.718 92.1797C107.576 91.7423 108.701 91.7422 110.948 91.7422H119.341Z" fill="url(#paint10_radial_90_2543)" fill-opacity="0.6" style="mix-blend-mode:overlay"/>
<path d="M31.1749 91.7422C33.423 91.7422 34.5476 91.7422 35.4063 92.1797C36.1617 92.5646 36.7763 93.1792 37.1612 93.9346C37.5985 94.7932 37.5987 95.9173 37.5987 98.165V108.402C37.5987 110.651 37.5987 111.775 37.1612 112.634C36.7763 113.389 36.1617 114.004 35.4063 114.389C34.5476 114.826 33.4229 114.826 31.1749 114.826H22.7833C21.1445 114.826 20.3252 114.826 19.8155 114.48C19.37 114.179 19.0643 113.711 18.9668 113.182C18.8555 112.576 19.1841 111.826 19.8418 110.325L22.9278 103.284L19.8418 96.2432C19.1839 94.7421 18.8554 93.9912 18.9668 93.3857C19.0643 92.8567 19.37 92.3885 19.8155 92.0869C20.3252 91.742 21.1448 91.7422 22.7833 91.7422H31.1749ZM119.341 91.7422C120.979 91.7422 121.799 91.7419 122.309 92.0869C122.754 92.3885 123.06 92.8567 123.157 93.3857C123.269 93.9912 122.94 94.7421 122.282 96.2432L119.196 103.284L122.282 110.325C122.94 111.826 123.269 112.576 123.157 113.182C123.06 113.711 122.754 114.179 122.309 114.48C121.799 114.826 120.98 114.826 119.341 114.826H110.948C108.701 114.826 107.576 114.826 106.718 114.389C105.962 114.004 105.348 113.389 104.963 112.634C104.525 111.775 104.525 110.651 104.525 108.402V98.165C104.525 95.9173 104.526 94.7932 104.963 93.9346C105.348 93.1792 105.962 92.5646 106.718 92.1797C107.576 91.7423 108.701 91.7422 110.948 91.7422H119.341Z" fill="black" fill-opacity="0.24" style="mix-blend-mode:overlay"/>
<path d="M31.1749 91.7422C33.423 91.7422 34.5476 91.7422 35.4063 92.1797C36.1617 92.5646 36.7763 93.1792 37.1612 93.9346C37.5985 94.7932 37.5987 95.9173 37.5987 98.165V108.402C37.5987 110.651 37.5987 111.775 37.1612 112.634C36.7763 113.389 36.1617 114.004 35.4063 114.389C34.5476 114.826 33.4229 114.826 31.1749 114.826H22.7833C21.1445 114.826 20.3252 114.826 19.8155 114.48C19.37 114.179 19.0643 113.711 18.9668 113.182C18.8555 112.576 19.1841 111.826 19.8418 110.325L22.9278 103.284L19.8418 96.2432C19.1839 94.7421 18.8554 93.9912 18.9668 93.3857C19.0643 92.8567 19.37 92.3885 19.8155 92.0869C20.3252 91.742 21.1448 91.7422 22.7833 91.7422H31.1749ZM119.341 91.7422C120.979 91.7422 121.799 91.7419 122.309 92.0869C122.754 92.3885 123.06 92.8567 123.157 93.3857C123.269 93.9912 122.94 94.7421 122.282 96.2432L119.196 103.284L122.282 110.325C122.94 111.826 123.269 112.576 123.157 113.182C123.06 113.711 122.754 114.179 122.309 114.48C121.799 114.826 120.98 114.826 119.341 114.826H110.948C108.701 114.826 107.576 114.826 106.718 114.389C105.962 114.004 105.348 113.389 104.963 112.634C104.525 111.775 104.525 110.651 104.525 108.402V98.165C104.525 95.9173 104.526 94.7932 104.963 93.9346C105.348 93.1792 105.962 92.5646 106.718 92.1797C107.576 91.7423 108.701 91.7422 110.948 91.7422H119.341Z" fill="black" fill-opacity="0.12" style="mix-blend-mode:darken"/>
<g filter="url(#filter4_dd_90_2543)">
<rect x="26.902" y="85.7207" width="88.32" height="23.0836" rx="4.01455" fill="#F59F0A"/>
<rect x="27.0274" y="85.8462" width="88.0691" height="22.8327" rx="3.88909" stroke="url(#paint11_linear_90_2543)" stroke-width="0.250909" stroke-linecap="round" style="mix-blend-mode:darken"/>
</g>
<rect x="26.902" y="85.7207" width="88.32" height="23.0836" rx="4.01455" fill="url(#paint12_linear_90_2543)" fill-opacity="0.3" style="mix-blend-mode:overlay"/>
<rect x="26.902" y="85.7207" width="88.32" height="23.0836" rx="4.01455" fill="url(#paint13_radial_90_2543)" fill-opacity="0.6" style="mix-blend-mode:overlay"/>
<g filter="url(#filter5_i_90_2543)">
<circle cx="32.4216" cy="97.2633" r="1.50545" fill="black" fill-opacity="0.24" style="mix-blend-mode:color-burn"/>
<circle cx="32.4216" cy="97.2633" r="1.50545" fill="black" fill-opacity="0.32" style="mix-blend-mode:darken"/>
</g>
<g filter="url(#filter6_i_90_2543)">
<circle cx="109.702" cy="97.2633" r="1.50545" fill="black" fill-opacity="0.24" style="mix-blend-mode:color-burn"/>
<circle cx="109.702" cy="97.2633" r="1.50545" fill="black" fill-opacity="0.32" style="mix-blend-mode:darken"/>
</g>
<g filter="url(#filter7_i_90_2543)">
<path d="M36.9292 101.24V93.9411H41.7621V95.2134H38.4725V96.9527H41.4413V98.225H38.4725V101.24H36.9292ZM42.7453 101.24H41.0915L43.6113 93.9411H45.6001L48.1163 101.24H46.4626L44.6342 95.609H44.5772L42.7453 101.24ZM42.6419 98.3712H46.5481V99.5758H42.6419V98.3712ZM52.3864 96.0403C52.3579 95.7528 52.2355 95.5294 52.0193 95.3702C51.8031 95.2111 51.5096 95.1315 51.139 95.1315C50.8871 95.1315 50.6745 95.1671 50.501 95.2384C50.3276 95.3073 50.1945 95.4035 50.1018 95.5271C50.0116 95.6506 49.9664 95.7908 49.9664 95.9476C49.9617 96.0783 49.989 96.1924 50.0484 96.2898C50.1102 96.3872 50.1945 96.4715 50.3014 96.5428C50.4084 96.6117 50.5319 96.6723 50.6721 96.7246C50.8123 96.7745 50.962 96.8172 51.1212 96.8529L51.7769 97.0097C52.0953 97.081 52.3876 97.176 52.6537 97.2948C52.9198 97.4136 53.1503 97.5598 53.3451 97.7332C53.54 97.9067 53.6908 98.111 53.7978 98.3462C53.9071 98.5815 53.9629 98.8511 53.9653 99.1553C53.9629 99.602 53.8488 99.9893 53.6231 100.317C53.3998 100.643 53.0766 100.896 52.6537 101.076C52.2331 101.254 51.7259 101.344 51.1319 101.344C50.5426 101.344 50.0294 101.253 49.5922 101.073C49.1574 100.892 48.8176 100.625 48.5729 100.271C48.3305 99.9144 48.2034 99.4737 48.1915 98.9486H49.6848C49.7015 99.1933 49.7716 99.3976 49.8951 99.5616C50.0211 99.7231 50.1886 99.8455 50.3977 99.9287C50.6091 100.009 50.8479 100.05 51.114 100.05C51.3754 100.05 51.6023 100.012 51.7948 99.9358C51.9896 99.8598 52.1405 99.754 52.2474 99.6186C52.3543 99.4832 52.4078 99.3275 52.4078 99.1517C52.4078 98.9878 52.3591 98.8499 52.2617 98.7383C52.1666 98.6266 52.0264 98.5316 51.8411 98.4531C51.6581 98.3747 51.4336 98.3035 51.1675 98.2393L50.3727 98.0397C49.7573 97.89 49.2714 97.656 48.915 97.3376C48.5586 97.0192 48.3816 96.5903 48.384 96.051C48.3816 95.609 48.4992 95.2229 48.7368 94.8927C48.9768 94.5624 49.3059 94.3046 49.7241 94.1193C50.1422 93.9339 50.6174 93.8413 51.1497 93.8413C51.6914 93.8413 52.1642 93.9339 52.5682 94.1193C52.9745 94.3046 53.2905 94.5624 53.5162 94.8927C53.7419 95.2229 53.8584 95.6055 53.8655 96.0403H52.3864ZM54.3239 95.2134V93.9411H60.3186V95.2134H58.0839V101.24H56.5585V95.2134H54.3239ZM62.8258 101.24V93.9411H64.369V99.9679H67.4983V101.24H62.8258ZM68.1188 101.24V93.9411H73.0372V95.2134H69.662V96.9527H72.7841V98.225H69.662V99.9679H73.0514V101.24H68.1188ZM75.1208 101.24H73.467L75.9868 93.9411H77.9756L80.4918 101.24H78.8381L77.0097 95.609H76.9527L75.1208 101.24ZM75.0174 98.3712H78.9236V99.5758H75.0174V98.3712ZM80.9689 101.24V93.9411H83.8486C84.3999 93.9411 84.8703 94.0397 85.26 94.2369C85.652 94.4317 85.9502 94.7085 86.1546 95.0673C86.3613 95.4237 86.4646 95.8431 86.4646 96.3254C86.4646 96.8101 86.3601 97.2271 86.151 97.5764C85.9419 97.9233 85.639 98.1894 85.2422 98.3747C84.8477 98.5601 84.3702 98.6527 83.8094 98.6527H81.8813V97.4124H83.5599C83.8546 97.4124 84.0993 97.3721 84.2941 97.2913C84.489 97.2105 84.6339 97.0893 84.7289 96.9277C84.8264 96.7662 84.8751 96.5654 84.8751 96.3254C84.8751 96.0831 84.8264 95.8787 84.7289 95.7124C84.6339 95.5461 84.4878 95.4201 84.2906 95.3346C84.0957 95.2467 83.8498 95.2027 83.5528 95.2027H82.5121V101.24H80.9689ZM84.9107 97.9185L86.7248 101.24H85.0212L83.2463 97.9185H84.9107ZM93.259 93.9411V101.24H91.926L88.7505 96.6462H88.697V101.24H87.1538V93.9411H88.5081L91.6587 98.5316H91.7229V93.9411H93.259ZM94.1326 101.24V93.9411H99.051V95.2134H95.6758V96.9527H98.7979V98.225H95.6758V99.9679H99.0652V101.24H94.1326ZM99.8764 101.24V93.9411H102.756C103.307 93.9411 103.778 94.0397 104.168 94.2369C104.56 94.4317 104.858 94.7085 105.062 95.0673C105.269 95.4237 105.372 95.8431 105.372 96.3254C105.372 96.8101 105.268 97.2271 105.059 97.5764C104.849 97.9233 104.547 98.1894 104.15 98.3747C103.755 98.5601 103.278 98.6527 102.717 98.6527H100.789V97.4124H102.467C102.762 97.4124 103.007 97.3721 103.202 97.2913C103.397 97.2105 103.541 97.0893 103.637 96.9277C103.734 96.7662 103.783 96.5654 103.783 96.3254C103.783 96.0831 103.734 95.8787 103.637 95.7124C103.541 95.5461 103.395 95.4201 103.198 95.3346C103.003 95.2467 102.757 95.2027 102.46 95.2027H101.42V101.24H99.8764ZM103.818 97.9185L105.632 101.24H103.929L102.154 97.9185H103.818Z" fill="black" fill-opacity="0.24" style="mix-blend-mode:color-burn"/>
<path d="M36.9292 101.24V93.9411H41.7621V95.2134H38.4725V96.9527H41.4413V98.225H38.4725V101.24H36.9292ZM42.7453 101.24H41.0915L43.6113 93.9411H45.6001L48.1163 101.24H46.4626L44.6342 95.609H44.5772L42.7453 101.24ZM42.6419 98.3712H46.5481V99.5758H42.6419V98.3712ZM52.3864 96.0403C52.3579 95.7528 52.2355 95.5294 52.0193 95.3702C51.8031 95.2111 51.5096 95.1315 51.139 95.1315C50.8871 95.1315 50.6745 95.1671 50.501 95.2384C50.3276 95.3073 50.1945 95.4035 50.1018 95.5271C50.0116 95.6506 49.9664 95.7908 49.9664 95.9476C49.9617 96.0783 49.989 96.1924 50.0484 96.2898C50.1102 96.3872 50.1945 96.4715 50.3014 96.5428C50.4084 96.6117 50.5319 96.6723 50.6721 96.7246C50.8123 96.7745 50.962 96.8172 51.1212 96.8529L51.7769 97.0097C52.0953 97.081 52.3876 97.176 52.6537 97.2948C52.9198 97.4136 53.1503 97.5598 53.3451 97.7332C53.54 97.9067 53.6908 98.111 53.7978 98.3462C53.9071 98.5815 53.9629 98.8511 53.9653 99.1553C53.9629 99.602 53.8488 99.9893 53.6231 100.317C53.3998 100.643 53.0766 100.896 52.6537 101.076C52.2331 101.254 51.7259 101.344 51.1319 101.344C50.5426 101.344 50.0294 101.253 49.5922 101.073C49.1574 100.892 48.8176 100.625 48.5729 100.271C48.3305 99.9144 48.2034 99.4737 48.1915 98.9486H49.6848C49.7015 99.1933 49.7716 99.3976 49.8951 99.5616C50.0211 99.7231 50.1886 99.8455 50.3977 99.9287C50.6091 100.009 50.8479 100.05 51.114 100.05C51.3754 100.05 51.6023 100.012 51.7948 99.9358C51.9896 99.8598 52.1405 99.754 52.2474 99.6186C52.3543 99.4832 52.4078 99.3275 52.4078 99.1517C52.4078 98.9878 52.3591 98.8499 52.2617 98.7383C52.1666 98.6266 52.0264 98.5316 51.8411 98.4531C51.6581 98.3747 51.4336 98.3035 51.1675 98.2393L50.3727 98.0397C49.7573 97.89 49.2714 97.656 48.915 97.3376C48.5586 97.0192 48.3816 96.5903 48.384 96.051C48.3816 95.609 48.4992 95.2229 48.7368 94.8927C48.9768 94.5624 49.3059 94.3046 49.7241 94.1193C50.1422 93.9339 50.6174 93.8413 51.1497 93.8413C51.6914 93.8413 52.1642 93.9339 52.5682 94.1193C52.9745 94.3046 53.2905 94.5624 53.5162 94.8927C53.7419 95.2229 53.8584 95.6055 53.8655 96.0403H52.3864ZM54.3239 95.2134V93.9411H60.3186V95.2134H58.0839V101.24H56.5585V95.2134H54.3239ZM62.8258 101.24V93.9411H64.369V99.9679H67.4983V101.24H62.8258ZM68.1188 101.24V93.9411H73.0372V95.2134H69.662V96.9527H72.7841V98.225H69.662V99.9679H73.0514V101.24H68.1188ZM75.1208 101.24H73.467L75.9868 93.9411H77.9756L80.4918 101.24H78.8381L77.0097 95.609H76.9527L75.1208 101.24ZM75.0174 98.3712H78.9236V99.5758H75.0174V98.3712ZM80.9689 101.24V93.9411H83.8486C84.3999 93.9411 84.8703 94.0397 85.26 94.2369C85.652 94.4317 85.9502 94.7085 86.1546 95.0673C86.3613 95.4237 86.4646 95.8431 86.4646 96.3254C86.4646 96.8101 86.3601 97.2271 86.151 97.5764C85.9419 97.9233 85.639 98.1894 85.2422 98.3747C84.8477 98.5601 84.3702 98.6527 83.8094 98.6527H81.8813V97.4124H83.5599C83.8546 97.4124 84.0993 97.3721 84.2941 97.2913C84.489 97.2105 84.6339 97.0893 84.7289 96.9277C84.8264 96.7662 84.8751 96.5654 84.8751 96.3254C84.8751 96.0831 84.8264 95.8787 84.7289 95.7124C84.6339 95.5461 84.4878 95.4201 84.2906 95.3346C84.0957 95.2467 83.8498 95.2027 83.5528 95.2027H82.5121V101.24H80.9689ZM84.9107 97.9185L86.7248 101.24H85.0212L83.2463 97.9185H84.9107ZM93.259 93.9411V101.24H91.926L88.7505 96.6462H88.697V101.24H87.1538V93.9411H88.5081L91.6587 98.5316H91.7229V93.9411H93.259ZM94.1326 101.24V93.9411H99.051V95.2134H95.6758V96.9527H98.7979V98.225H95.6758V99.9679H99.0652V101.24H94.1326ZM99.8764 101.24V93.9411H102.756C103.307 93.9411 103.778 94.0397 104.168 94.2369C104.56 94.4317 104.858 94.7085 105.062 95.0673C105.269 95.4237 105.372 95.8431 105.372 96.3254C105.372 96.8101 105.268 97.2271 105.059 97.5764C104.849 97.9233 104.547 98.1894 104.15 98.3747C103.755 98.5601 103.278 98.6527 102.717 98.6527H100.789V97.4124H102.467C102.762 97.4124 103.007 97.3721 103.202 97.2913C103.397 97.2105 103.541 97.0893 103.637 96.9277C103.734 96.7662 103.783 96.5654 103.783 96.3254C103.783 96.0831 103.734 95.8787 103.637 95.7124C103.541 95.5461 103.395 95.4201 103.198 95.3346C103.003 95.2467 102.757 95.2027 102.46 95.2027H101.42V101.24H99.8764ZM103.818 97.9185L105.632 101.24H103.929L102.154 97.9185H103.818Z" fill="black" fill-opacity="0.32" style="mix-blend-mode:darken"/>
</g>
<defs>
<filter id="filter0_dddd_90_2543" x="8.19122" y="15.8641" width="126.009" height="165.429" filterUnits="userSpaceOnUse" color-interpolation-filters="sRGB">
<feFlood flood-opacity="0" result="BackgroundImageFix"/>
<feColorMatrix in="SourceAlpha" type="matrix" values="0 0 0 0 0 0 0 0 0 0 0 0 0 0 0 0 0 0 127 0" result="hardAlpha"/>
<feOffset dy="2.50909"/>
<feGaussianBlur stdDeviation="2.76"/>
<feColorMatrix type="matrix" values="0 0 0 0 0 0 0 0 0 0 0 0 0 0 0 0 0 0 0.24 0"/>
<feBlend mode="normal" in2="BackgroundImageFix" result="effect1_dropShadow_90_2543"/>
<feColorMatrix in="SourceAlpha" type="matrix" values="0 0 0 0 0 0 0 0 0 0 0 0 0 0 0 0 0 0 127 0" result="hardAlpha"/>
<feOffset dy="10.5382"/>
<feGaussianBlur stdDeviation="5.26909"/>
<feColorMatrix type="matrix" values="0 0 0 0 0 0 0 0 0 0 0 0 0 0 0 0 0 0 0.21 0"/>
<feBlend mode="normal" in2="effect1_dropShadow_90_2543" result="effect2_dropShadow_90_2543"/>
<feColorMatrix in="SourceAlpha" type="matrix" values="0 0 0 0 0 0 0 0 0 0 0 0 0 0 0 0 0 0 127 0" result="hardAlpha"/>
<feOffset dy="23.0836"/>
<feGaussianBlur stdDeviation="7.02545"/>
<feColorMatrix type="matrix" values="0 0 0 0 0 0 0 0 0 0 0 0 0 0 0 0 0 0 0.12 0"/>
<feBlend mode="normal" in2="effect2_dropShadow_90_2543" result="effect3_dropShadow_90_2543"/>
<feColorMatrix in="SourceAlpha" type="matrix" values="0 0 0 0 0 0 0 0 0 0 0 0 0 0 0 0 0 0 127 0" result="hardAlpha"/>
<feOffset dy="41.1491"/>
<feGaussianBlur stdDeviation="8.28"/>
<feColorMatrix type="matrix" values="0 0 0 0 0 0 0 0 0 0 0 0 0 0 0 0 0 0 0.04 0"/>
<feBlend mode="normal" in2="effect3_dropShadow_90_2543" result="effect4_dropShadow_90_2543"/>
<feBlend mode="normal" in="SourceGraphic" in2="effect4_dropShadow_90_2543" result="shape"/>
</filter>
<filter id="filter1_d_90_2543" x="20.7381" y="15.8641" width="100.918" height="112.738" filterUnits="userSpaceOnUse" color-interpolation-filters="sRGB">
<feFlood flood-opacity="0" result="BackgroundImageFix"/>
<feColorMatrix in="SourceAlpha" type="matrix" values="0 0 0 0 0 0 0 0 0 0 0 0 0 0 0 0 0 0 127 0" result="hardAlpha"/>
<feOffset dy="1.00364"/>
<feGaussianBlur stdDeviation="2.00727"/>
<feColorMatrix type="matrix" values="0 0 0 0 0 0 0 0 0 0 0 0 0 0 0 0 0 0 0.16 0"/>
<feBlend mode="color-burn" in2="BackgroundImageFix" result="effect1_dropShadow_90_2543"/>
<feBlend mode="normal" in="SourceGraphic" in2="effect1_dropShadow_90_2543" result="shape"/>
</filter>
<filter id="filter2_d_90_2543" x="45.2246" y="40.8529" width="51.6869" height="49.6784" filterUnits="userSpaceOnUse" color-interpolation-filters="sRGB">
<feFlood flood-opacity="0" result="BackgroundImageFix"/>
<feColorMatrix in="SourceAlpha" type="matrix" values="0 0 0 0 0 0 0 0 0 0 0 0 0 0 0 0 0 0 127 0" result="hardAlpha"/>
<feOffset dy="1.00364"/>
<feGaussianBlur stdDeviation="3.01091"/>
<feColorMatrix type="matrix" values="0 0 0 0 0 0 0 0 0 0 0 0 0 0 0 0 0 0 0.12 0"/>
<feBlend mode="plus-darker" in2="BackgroundImageFix" result="effect1_dropShadow_90_2543"/>
<feBlend mode="normal" in="SourceGraphic" in2="effect1_dropShadow_90_2543" result="shape"/>
</filter>
<filter id="filter3_dd_90_2543" x="12.9236" y="87.7276" width="116.277" height="35.1276" filterUnits="userSpaceOnUse" color-interpolation-filters="sRGB">
<feFlood flood-opacity="0" result="BackgroundImageFix"/>
<feColorMatrix in="SourceAlpha" type="matrix" values="0 0 0 0 0 0 0 0 0 0 0 0 0 0 0 0 0 0 127 0" result="hardAlpha"/>
<feOffset dy="2.00727"/>
<feGaussianBlur stdDeviation="3.01091"/>
<feColorMatrix type="matrix" values="0 0 0 0 0 0 0 0 0 0 0 0 0 0 0 0 0 0 0.16 0"/>
<feBlend mode="normal" in2="BackgroundImageFix" result="effect1_dropShadow_90_2543"/>
<feColorMatrix in="SourceAlpha" type="matrix" values="0 0 0 0 0 0 0 0 0 0 0 0 0 0 0 0 0 0 127 0" result="hardAlpha"/>
<feOffset dy="1.00364"/>
<feGaussianBlur stdDeviation="1.00364"/>
<feColorMatrix type="matrix" values="0 0 0 0 0 0 0 0 0 0 0 0 0 0 0 0 0 0 0.24 0"/>
<feBlend mode="normal" in2="effect1_dropShadow_90_2543" result="effect2_dropShadow_90_2543"/>
<feBlend mode="normal" in="SourceGraphic" in2="effect2_dropShadow_90_2543" result="shape"/>
</filter>
<filter id="filter4_dd_90_2543" x="20.8802" y="81.7062" width="100.364" height="35.1276" filterUnits="userSpaceOnUse" color-interpolation-filters="sRGB">
<feFlood flood-opacity="0" result="BackgroundImageFix"/>
<feColorMatrix in="SourceAlpha" type="matrix" values="0 0 0 0 0 0 0 0 0 0 0 0 0 0 0 0 0 0 127 0" result="hardAlpha"/>
<feOffset dy="2.00727"/>
<feGaussianBlur stdDeviation="3.01091"/>
<feColorMatrix type="matrix" values="0 0 0 0 0 0 0 0 0 0 0 0 0 0 0 0 0 0 0.16 0"/>
<feBlend mode="normal" in2="BackgroundImageFix" result="effect1_dropShadow_90_2543"/>
<feColorMatrix in="SourceAlpha" type="matrix" values="0 0 0 0 0 0 0 0 0 0 0 0 0 0 0 0 0 0 127 0" result="hardAlpha"/>
<feOffset dy="1.00364"/>
<feGaussianBlur stdDeviation="1.00364"/>
<feColorMatrix type="matrix" values="0 0 0 0 0 0 0 0 0 0 0 0 0 0 0 0 0 0 0.24 0"/>
<feBlend mode="normal" in2="effect1_dropShadow_90_2543" result="effect2_dropShadow_90_2543"/>
<feBlend mode="normal" in="SourceGraphic" in2="effect2_dropShadow_90_2543" result="shape"/>
</filter>
<filter id="filter5_i_90_2543" x="30.9161" y="95.7578" width="3.01086" height="3.51354" filterUnits="userSpaceOnUse" color-interpolation-filters="sRGB">
<feFlood flood-opacity="0" result="BackgroundImageFix"/>
<feBlend mode="normal" in="SourceGraphic" in2="BackgroundImageFix" result="shape"/>
<feColorMatrix in="SourceAlpha" type="matrix" values="0 0 0 0 0 0 0 0 0 0 0 0 0 0 0 0 0 0 127 0" result="hardAlpha"/>
<feOffset dy="0.501818"/>
<feGaussianBlur stdDeviation="0.501818"/>
<feComposite in2="hardAlpha" operator="arithmetic" k2="-1" k3="1"/>
<feColorMatrix type="matrix" values="0 0 0 0 0 0 0 0 0 0 0 0 0 0 0 0 0 0 0.24 0"/>
<feBlend mode="darken" in2="shape" result="effect1_innerShadow_90_2543"/>
</filter>
<filter id="filter6_i_90_2543" x="108.196" y="95.7578" width="3.01086" height="3.51354" filterUnits="userSpaceOnUse" color-interpolation-filters="sRGB">
<feFlood flood-opacity="0" result="BackgroundImageFix"/>
<feBlend mode="normal" in="SourceGraphic" in2="BackgroundImageFix" result="shape"/>
<feColorMatrix in="SourceAlpha" type="matrix" values="0 0 0 0 0 0 0 0 0 0 0 0 0 0 0 0 0 0 127 0" result="hardAlpha"/>
<feOffset dy="0.501818"/>
<feGaussianBlur stdDeviation="0.501818"/>
<feComposite in2="hardAlpha" operator="arithmetic" k2="-1" k3="1"/>
<feColorMatrix type="matrix" values="0 0 0 0 0 0 0 0 0 0 0 0 0 0 0 0 0 0 0.24 0"/>
<feBlend mode="darken" in2="shape" result="effect1_innerShadow_90_2543"/>
</filter>
<filter id="filter7_i_90_2543" x="36.9292" y="93.8418" width="68.7031" height="8.00377" filterUnits="userSpaceOnUse" color-interpolation-filters="sRGB">
<feFlood flood-opacity="0" result="BackgroundImageFix"/>
<feBlend mode="normal" in="SourceGraphic" in2="BackgroundImageFix" result="shape"/>
<feColorMatrix in="SourceAlpha" type="matrix" values="0 0 0 0 0 0 0 0 0 0 0 0 0 0 0 0 0 0 127 0" result="hardAlpha"/>
<feOffset dy="0.501818"/>
<feGaussianBlur stdDeviation="0.501818"/>
<feComposite in2="hardAlpha" operator="arithmetic" k2="-1" k3="1"/>
<feColorMatrix type="matrix" values="0 0 0 0 0 0 0 0 0 0 0 0 0 0 0 0 0 0 0.24 0"/>
<feBlend mode="darken" in2="shape" result="effect1_innerShadow_90_2543"/>
</filter>
<linearGradient id="paint0_linear_90_2543" x1="71.1366" y1="16.3321" x2="71.1366" y2="124.269" gradientUnits="userSpaceOnUse">
<stop stop-color="white"/>
<stop offset="1" stop-color="white" stop-opacity="0"/>
</linearGradient>
<radialGradient id="paint1_radial_90_2543" cx="0" cy="0" r="1" gradientUnits="userSpaceOnUse" gradientTransform="translate(71.1366 47.3352) rotate(90) scale(71.1924 54.0151)">
<stop stop-color="white"/>
<stop offset="1" stop-color="white" stop-opacity="0"/>
</radialGradient>
<linearGradient id="paint2_linear_90_2543" x1="117.365" y1="20.7966" x2="117.365" y2="123.651" gradientUnits="userSpaceOnUse">
<stop stop-color="#49F0BC"/>
<stop offset="1" stop-color="#29DCCC"/>
</linearGradient>
<linearGradient id="paint3_linear_90_2543" x1="70.6348" y1="16.3321" x2="70.6348" y2="124.269" gradientUnits="userSpaceOnUse">
<stop stop-color="white"/>
<stop offset="1" stop-color="white" stop-opacity="0"/>
</linearGradient>
<radialGradient id="paint4_radial_90_2543" cx="0" cy="0" r="1" gradientUnits="userSpaceOnUse" gradientTransform="translate(70.6348 47.3352) rotate(90) scale(71.1924 54.0151)">
<stop stop-color="white"/>
<stop offset="1" stop-color="white" stop-opacity="0"/>
</radialGradient>
<linearGradient id="paint5_linear_90_2543" x1="0.88208" y1="0.410156" x2="0.88208" y2="140.919" gradientUnits="userSpaceOnUse">
<stop stop-color="white"/>
<stop offset="1" stop-color="white" stop-opacity="0.01"/>
</linearGradient>
<linearGradient id="paint6_linear_90_2543" x1="71.1973" y1="18.875" x2="71.1973" y2="123.585" gradientUnits="userSpaceOnUse">
<stop stop-color="white"/>
<stop offset="1" stop-color="#999999"/>
</linearGradient>
<linearGradient id="paint7_linear_90_2543" x1="71.068" y1="46.1211" x2="71.068" y2="83.2556" gradientUnits="userSpaceOnUse">
<stop stop-color="#DFDFDF"/>
<stop offset="1" stop-color="#A9A9A9"/>
</linearGradient>
<linearGradient id="paint8_linear_90_2543" x1="71.0621" y1="91.7422" x2="71.0621" y2="114.826" gradientUnits="userSpaceOnUse">
<stop stop-opacity="0"/>
<stop offset="1" stop-opacity="0.16"/>
</linearGradient>
<linearGradient id="paint9_linear_90_2543" x1="71.0621" y1="80.2002" x2="71.0621" y2="114.826" gradientUnits="userSpaceOnUse">
<stop stop-color="white"/>
<stop offset="1" stop-color="white" stop-opacity="0"/>
</linearGradient>
<radialGradient id="paint10_radial_90_2543" cx="0" cy="0" r="1" gradientUnits="userSpaceOnUse" gradientTransform="translate(71.0621 91.7422) rotate(90) scale(23.084 96.9612)">
<stop stop-color="white"/>
<stop offset="1" stop-color="white" stop-opacity="0"/>
</radialGradient>
<linearGradient id="paint11_linear_90_2543" x1="71.062" y1="85.7207" x2="71.062" y2="108.804" gradientUnits="userSpaceOnUse">
<stop stop-opacity="0"/>
<stop offset="1" stop-opacity="0.16"/>
</linearGradient>
<linearGradient id="paint12_linear_90_2543" x1="71.062" y1="85.7207" x2="71.062" y2="108.804" gradientUnits="userSpaceOnUse">
<stop stop-color="white"/>
<stop offset="1" stop-color="white" stop-opacity="0"/>
</linearGradient>
<radialGradient id="paint13_radial_90_2543" cx="0" cy="0" r="1" gradientUnits="userSpaceOnUse" gradientTransform="translate(71.062 89.7489) rotate(90) scale(19.0555 44.16)">
<stop stop-color="white"/>
<stop offset="1" stop-color="white" stop-opacity="0"/>
</radialGradient>
</defs>
</svg>
