<svg width="17" height="17" viewBox="0 0 17 17" fill="none" xmlns="http://www.w3.org/2000/svg">
<path d="M8.83008 2.33984H3.77452C3.39143 2.33984 3.02403 2.49203 2.75315 2.76291C2.48226 3.0338 2.33008 3.4012 2.33008 3.78429V13.8954C2.33008 14.2785 2.48226 14.6459 2.75315 14.9168C3.02403 15.1877 3.39143 15.3398 3.77452 15.3398H13.8856C14.2687 15.3398 14.6361 15.1877 14.907 14.9168C15.1779 14.6459 15.3301 14.2785 15.3301 13.8954V8.83984" stroke="url(#paint0_linear_90_3217)" stroke-width="1.33333" stroke-linecap="round" stroke-linejoin="round"/>
<path d="M13.0853 2.42007C13.3506 2.15486 13.7103 2.00586 14.0853 2.00586C14.4604 2.00586 14.8201 2.15486 15.0853 2.42007C15.3506 2.68529 15.4996 3.045 15.4996 3.42007C15.4996 3.79515 15.3506 4.15486 15.0853 4.42007L9.07668 10.4294C8.91838 10.5876 8.72282 10.7033 8.50802 10.7661L6.59268 11.3261C6.53532 11.3428 6.47451 11.3438 6.41662 11.329C6.35874 11.3141 6.3059 11.284 6.26365 11.2418C6.22139 11.1995 6.19127 11.1467 6.17644 11.0888C6.16161 11.0309 6.16262 10.9701 6.17935 10.9127L6.73935 8.99741C6.80237 8.78277 6.91837 8.58745 7.07668 8.42941L13.0853 2.42007Z" stroke="url(#paint1_linear_90_3217)" stroke-width="1.33333" stroke-linecap="round" stroke-linejoin="round"/>
<defs>
<linearGradient id="paint0_linear_90_3217" x1="-1.82118" y1="8.95803" x2="15.3301" y2="8.95803" gradientUnits="userSpaceOnUse">
<stop stop-color="#4A38D9"/>
<stop offset="0.54" stop-color="#D71D89"/>
<stop offset="1" stop-color="#FFA209"/>
</linearGradient>
<linearGradient id="paint1_linear_90_3217" x1="3.18556" y1="6.75748" x2="15.4996" y2="6.75748" gradientUnits="userSpaceOnUse">
<stop stop-color="#4A38D9"/>
<stop offset="0.54" stop-color="#D71D89"/>
<stop offset="1" stop-color="#FFA209"/>
</linearGradient>
</defs>
</svg>
