<svg width="281" height="280" viewBox="0 0 281 280" fill="none" xmlns="http://www.w3.org/2000/svg">
<g filter="url(#filter0_dddd_2_2455)">
<path d="M48.5336 98.4161C48.2851 91.5978 48.1608 88.1887 49.4644 84.5576C50.5825 81.4433 52.639 78.4294 55.1311 76.2526C58.0368 73.7146 62.2563 72.2371 70.6953 69.2819C88.6515 62.9939 105.974 54.561 122.307 44.7626C129.731 40.309 133.443 38.0822 136.638 37.3807C139.809 36.6843 142.044 36.6843 145.216 37.3807C148.411 38.0822 152.123 40.309 159.546 44.7626C175.879 54.561 193.202 62.9939 211.158 69.2819C219.597 72.2371 223.817 73.7146 226.723 76.2526C229.215 78.4294 231.271 81.4433 232.389 84.5576C233.693 88.1887 233.569 91.5978 233.32 98.4161C232.613 117.82 229.111 146.657 216.31 172.685C199.43 207.009 171.236 229.523 154.53 240.613C150.862 243.048 149.028 244.265 145.572 245.091C143.177 245.663 138.677 245.663 136.281 245.091C132.826 244.265 130.992 243.048 127.324 240.613C110.617 229.523 82.4241 207.009 65.5438 172.685C52.7431 146.657 49.2408 117.82 48.5336 98.4161Z" fill="black"/>
</g>
<mask id="mask0_2_2455" style="mask-type:alpha" maskUnits="userSpaceOnUse" x="48" y="36" width="186" height="210">
<path d="M48.5336 98.4161C48.2851 91.5978 48.1608 88.1887 49.4644 84.5576C50.5825 81.4433 52.639 78.4294 55.1311 76.2526C58.0368 73.7146 62.2563 72.2371 70.6953 69.2819C88.6515 62.9939 105.974 54.561 122.307 44.7626C129.731 40.309 133.443 38.0822 136.638 37.3807C139.809 36.6843 142.044 36.6843 145.216 37.3807C148.411 38.0822 152.123 40.309 159.546 44.7626C175.879 54.561 193.202 62.9939 211.158 69.2819C219.597 72.2371 223.817 73.7146 226.723 76.2526C229.215 78.4294 231.271 81.4433 232.389 84.5576C233.693 88.1887 233.569 91.5978 233.32 98.4161C232.613 117.82 229.111 146.657 216.31 172.685C199.43 207.009 171.236 229.523 154.53 240.613C150.862 243.048 149.028 244.265 145.572 245.091C143.177 245.663 138.677 245.663 136.281 245.091C132.826 244.265 130.992 243.048 127.324 240.613C110.617 229.523 82.4241 207.009 65.5438 172.685C52.7431 146.657 49.2408 117.82 48.5336 98.4161Z" fill="black"/>
</mask>
<g mask="url(#mask0_2_2455)">
<mask id="mask1_2_2455" style="mask-type:alpha" maskUnits="userSpaceOnUse" x="48" y="36" width="186" height="210">
<path d="M48.5336 98.4161C48.2851 91.5978 48.1608 88.1887 49.4644 84.5576C50.5825 81.4433 52.639 78.4294 55.1311 76.2526C58.0368 73.7146 62.2563 72.2371 70.6953 69.2819C88.6515 62.9939 105.974 54.561 122.307 44.7626C129.731 40.309 133.443 38.0822 136.638 37.3807C139.809 36.6843 142.044 36.6843 145.216 37.3807C148.411 38.0822 152.123 40.309 159.546 44.7626C175.879 54.561 193.202 62.9939 211.158 69.2819C219.597 72.2371 223.817 73.7146 226.723 76.2526C229.215 78.4294 231.271 81.4433 232.389 84.5576C233.693 88.1887 233.569 91.5978 233.32 98.4161C232.613 117.82 229.111 146.657 216.31 172.685C199.43 207.009 171.236 229.523 154.53 240.613C150.862 243.048 149.028 244.265 145.572 245.091C143.177 245.663 138.677 245.663 136.281 245.091C132.826 244.265 130.992 243.048 127.324 240.613C110.617 229.523 82.4241 207.009 65.5438 172.685C52.7431 146.657 49.2408 117.82 48.5336 98.4161Z" fill="black"/>
</mask>
<g mask="url(#mask1_2_2455)">
<rect x="0.807495" y="0.0639648" width="280" height="280" fill="#4A38D9"/>
<rect x="0.807495" y="0.0639648" width="280" height="280" fill="url(#paint0_linear_2_2455)" fill-opacity="0.6" style="mix-blend-mode:overlay"/>
<rect x="0.807495" y="0.0639648" width="280" height="280" fill="url(#paint1_radial_2_2455)" fill-opacity="0.6" style="mix-blend-mode:overlay"/>
<rect x="0.807495" y="0.0639648" width="280" height="280" fill="black" fill-opacity="0.12" style="mix-blend-mode:overlay"/>
<rect x="0.807495" y="0.0639648" width="280" height="280" fill="black" fill-opacity="0.12" style="mix-blend-mode:darken"/>
</g>
<g filter="url(#filter1_d_2_2455)">
<mask id="mask2_2_2455" style="mask-type:alpha" maskUnits="userSpaceOnUse" x="48" y="36" width="186" height="210">
<path d="M136.638 37.3807C139.81 36.6843 142.044 36.6843 145.216 37.3807C148.411 38.0822 152.123 40.3091 159.546 44.7625C175.879 54.5609 193.202 62.9941 211.159 69.2821C219.598 72.2372 223.817 73.7148 226.723 76.2528C229.215 78.4295 231.272 81.4433 232.39 84.5575C233.694 88.1884 233.569 91.5977 233.321 98.4159L233.245 100.263C232.385 119.619 228.711 147.471 216.31 172.685L215.511 174.285C198.552 207.709 170.975 229.696 154.53 240.613C150.862 243.048 149.028 244.265 145.573 245.091L145.1 245.191C142.788 245.629 139.066 245.629 136.754 245.191L136.282 245.091C133.258 244.369 131.476 243.346 128.62 241.471L127.325 240.613C110.879 229.696 83.3022 207.709 66.3431 174.285L65.5443 172.685C52.7437 146.657 49.2408 117.82 48.5336 98.4159C48.2851 91.5977 48.1607 88.1884 49.4642 84.5575C50.5125 81.6377 52.3857 78.8059 54.6693 76.6698L55.1312 76.2528C57.6736 74.0321 61.2223 72.6232 67.723 70.326L70.6957 69.2821C88.0909 63.1905 104.892 55.0854 120.774 45.6766L122.308 44.7625C129.499 40.4484 133.207 38.2237 136.336 37.451L136.638 37.3807ZM143.5 45.1942C141.459 44.746 140.395 44.746 138.354 45.1942C137.819 45.3116 136.85 45.6437 134.819 46.7254C132.786 47.808 130.207 49.3529 126.423 51.6229C109.694 61.6589 91.8794 70.3394 73.3392 76.8319C69.0191 78.3447 66.1498 79.3544 63.9799 80.2811C61.879 81.1783 60.9531 81.7888 60.3939 82.2772C58.9279 83.5576 57.6523 85.4286 56.9945 87.2606C56.3193 89.1414 56.263 90.8365 56.5287 98.1248C57.2173 117.017 60.6331 144.571 72.723 169.154C88.7116 201.664 115.586 223.219 131.748 233.948C135.457 236.41 136.224 236.852 138.14 237.309C138.475 237.389 139.498 237.519 140.927 237.519C142.356 237.519 143.38 237.389 143.714 237.309C145.631 236.852 146.398 236.41 150.106 233.948C166.268 223.219 193.143 201.664 209.131 169.154C221.221 144.571 224.637 117.017 225.326 98.1248C225.591 90.8365 225.535 89.1414 224.86 87.2606C224.202 85.4286 222.926 83.5576 221.46 82.2772C220.901 81.7888 219.975 81.1783 217.874 80.2811C215.704 79.3544 212.835 78.3447 208.515 76.8319C189.975 70.3394 172.16 61.6589 155.431 51.6229C151.647 49.3529 149.068 47.808 147.036 46.7254C145.004 45.6437 144.035 45.3116 143.5 45.1942ZM140.1 62.3202C140.642 62.2056 141.212 62.2056 141.754 62.3202C142.37 62.4504 142.943 62.7794 144.089 63.4364C154.576 69.4491 164.952 75.5478 175.92 80.7166C185.454 85.2095 195.307 88.885 205.17 92.5565C206.708 93.1288 207.477 93.4153 208.044 93.9276C208.538 94.3728 208.928 94.9616 209.145 95.5897C209.395 96.3124 209.359 97.114 209.287 98.7166C208.313 120.448 204.42 142.479 194.774 162.094C183.533 184.949 165.243 203.956 144.439 218.448C143.218 219.299 142.607 219.724 141.891 219.902C141.282 220.053 140.573 220.053 139.963 219.902C139.247 219.724 138.636 219.299 137.414 218.448C116.61 203.956 98.3209 184.949 87.0804 162.094C77.4338 142.479 73.5415 120.448 72.5668 98.7166C72.4949 97.1141 72.4585 96.3123 72.7084 95.5897C72.9255 94.9618 73.3157 94.3727 73.809 93.9276C74.3767 93.4153 75.1464 93.1287 76.684 92.5565C86.5523 88.8838 96.3753 85.2211 105.934 80.7166C116.902 75.5479 127.277 69.449 137.764 63.4364C138.91 62.7792 139.484 62.4504 140.1 62.3202Z" fill="url(#paint2_linear_2_2455)"/>
</mask>
<g mask="url(#mask2_2_2455)">
<rect x="0.807434" y="0.0639648" width="280" height="280" fill="#4A38D9"/>
<rect x="-0.192505" y="0.0639648" width="280" height="280" fill="url(#paint3_linear_2_2455)" fill-opacity="0.6" style="mix-blend-mode:overlay"/>
<rect x="-0.192505" y="0.0639648" width="280" height="280" fill="url(#paint4_radial_2_2455)" fill-opacity="0.6" style="mix-blend-mode:overlay"/>
<g style="mix-blend-mode:soft-light">
<path fill-rule="evenodd" clip-rule="evenodd" d="M0.807495 0.0639648H140.807V280.064H0.807495V0.0639648Z" fill="url(#paint5_linear_2_2455)" style="mix-blend-mode:lighten"/>
</g>
<g style="mix-blend-mode:soft-light">
<mask id="path-11-inside-1_2_2455" fill="white">
<path d="M136.638 37.3807C139.81 36.6843 142.044 36.6843 145.216 37.3807C148.411 38.0822 152.123 40.3091 159.546 44.7625C175.879 54.5609 193.202 62.9941 211.159 69.2821C219.598 72.2372 223.817 73.7148 226.723 76.2528C229.215 78.4295 231.272 81.4433 232.39 84.5575C233.694 88.1884 233.569 91.5977 233.321 98.4159L233.245 100.263C232.385 119.619 228.711 147.471 216.31 172.685L215.511 174.285C198.552 207.709 170.975 229.696 154.53 240.613C150.862 243.048 149.028 244.265 145.573 245.091L145.1 245.191C142.788 245.629 139.066 245.629 136.754 245.191L136.282 245.091C133.258 244.369 131.476 243.346 128.62 241.471L127.325 240.613C110.879 229.696 83.3022 207.709 66.3431 174.285L65.5443 172.685C52.7437 146.657 49.2408 117.82 48.5336 98.4159C48.2851 91.5977 48.1607 88.1884 49.4642 84.5575C50.5125 81.6377 52.3857 78.8059 54.6693 76.6698L55.1312 76.2528C57.6736 74.0321 61.2223 72.6232 67.723 70.326L70.6957 69.2821C88.0909 63.1905 104.892 55.0854 120.774 45.6766L122.308 44.7625C129.499 40.4484 133.207 38.2237 136.336 37.451L136.638 37.3807ZM143.5 45.1942C141.459 44.746 140.395 44.746 138.354 45.1942C137.819 45.3116 136.85 45.6437 134.819 46.7254C132.786 47.808 130.207 49.3529 126.423 51.6229C109.694 61.6589 91.8794 70.3394 73.3392 76.8319C69.0191 78.3447 66.1498 79.3544 63.9799 80.2811C61.879 81.1783 60.9531 81.7888 60.3939 82.2772C58.9279 83.5576 57.6523 85.4286 56.9945 87.2606C56.3193 89.1414 56.263 90.8365 56.5287 98.1248C57.2173 117.017 60.6331 144.571 72.723 169.154C88.7116 201.664 115.586 223.219 131.748 233.948C135.457 236.41 136.224 236.852 138.14 237.309C138.475 237.389 139.498 237.519 140.927 237.519C142.356 237.519 143.38 237.389 143.714 237.309C145.631 236.852 146.398 236.41 150.106 233.948C166.268 223.219 193.143 201.664 209.131 169.154C221.221 144.571 224.637 117.017 225.326 98.1248C225.591 90.8365 225.535 89.1414 224.86 87.2606C224.202 85.4286 222.926 83.5576 221.46 82.2772C220.901 81.7888 219.975 81.1783 217.874 80.2811C215.704 79.3544 212.835 78.3447 208.515 76.8319C189.975 70.3394 172.16 61.6589 155.431 51.6229C151.647 49.3529 149.068 47.808 147.036 46.7254C145.004 45.6437 144.035 45.3116 143.5 45.1942ZM140.1 62.3202C140.642 62.2056 141.212 62.2056 141.754 62.3202C142.37 62.4504 142.943 62.7794 144.089 63.4364C154.576 69.4491 164.952 75.5478 175.92 80.7166C185.454 85.2095 195.307 88.885 205.17 92.5565C206.708 93.1288 207.477 93.4153 208.044 93.9276C208.538 94.3728 208.928 94.9616 209.145 95.5897C209.395 96.3124 209.359 97.114 209.287 98.7166C208.313 120.448 204.42 142.479 194.774 162.094C183.533 184.949 165.243 203.956 144.439 218.448C143.218 219.299 142.607 219.724 141.891 219.902C141.282 220.053 140.573 220.053 139.963 219.902C139.247 219.724 138.636 219.299 137.414 218.448C116.61 203.956 98.3209 184.949 87.0804 162.094C77.4338 142.479 73.5415 120.448 72.5668 98.7166C72.4949 97.1141 72.4585 96.3123 72.7084 95.5897C72.9255 94.9618 73.3157 94.3727 73.809 93.9276C74.3767 93.4153 75.1464 93.1287 76.684 92.5565C86.5523 88.8838 96.3753 85.2211 105.934 80.7166C116.902 75.5479 127.277 69.449 137.764 63.4364C138.91 62.7792 139.484 62.4504 140.1 62.3202Z"/>
</mask>
<path d="M136.638 37.3807L136.531 36.8923L136.525 36.8937L136.638 37.3807ZM145.216 37.3807L145.323 36.8923L145.323 36.8923L145.216 37.3807ZM159.546 44.7625L159.289 45.1913L159.546 44.7625ZM211.159 69.2821L210.993 69.754L211.159 69.2821ZM226.723 76.2528L227.052 75.8762V75.8762L226.723 76.2528ZM232.39 84.5575L232.861 84.3885V84.3885L232.39 84.5575ZM233.321 98.4159L233.82 98.4362L233.82 98.4341L233.321 98.4159ZM233.245 100.263L233.745 100.285L233.745 100.283L233.245 100.263ZM216.31 172.685L216.757 172.909L216.759 172.906L216.31 172.685ZM215.511 174.285L215.957 174.511L215.958 174.508L215.511 174.285ZM154.53 240.613L154.806 241.03L154.53 240.613ZM145.573 245.091L145.677 245.58L145.689 245.577L145.573 245.091ZM145.1 245.191L145.193 245.683L145.204 245.68L145.1 245.191ZM136.754 245.191L136.65 245.68L136.661 245.683L136.754 245.191ZM136.282 245.091L136.165 245.577L136.178 245.58L136.282 245.091ZM128.62 241.471L128.345 241.888L128.346 241.888L128.62 241.471ZM127.325 240.613L127.048 241.03L127.049 241.03L127.325 240.613ZM66.3431 174.285L65.8958 174.508L65.8972 174.511L66.3431 174.285ZM65.5443 172.685L65.0956 172.906L65.097 172.909L65.5443 172.685ZM48.5336 98.4159L49.0332 98.3976L48.5336 98.4159ZM49.4642 84.5575L48.9936 84.3885L48.9936 84.3885L49.4642 84.5575ZM54.6693 76.6698L54.3342 76.2986L54.3277 76.3046L54.6693 76.6698ZM55.1312 76.2528L54.8023 75.8761L54.7962 75.8816L55.1312 76.2528ZM67.723 70.326L67.5573 69.8543L67.5564 69.8546L67.723 70.326ZM70.6957 69.2821L70.5304 68.8102L70.53 68.8103L70.6957 69.2821ZM120.774 45.6766L121.029 46.1068L121.03 46.1061L120.774 45.6766ZM122.308 44.7625L122.564 45.1921L122.565 45.1913L122.308 44.7625ZM136.336 37.451L136.223 36.964L136.216 36.9656L136.336 37.451ZM143.5 45.1942L143.608 44.7058L143.608 44.7058L143.5 45.1942ZM138.354 45.1942L138.247 44.7058L138.247 44.7058L138.354 45.1942ZM134.819 46.7254L134.584 46.2841V46.2841L134.819 46.7254ZM126.423 51.6229L126.166 51.1941L126.423 51.6229ZM73.3392 76.8319L73.5045 77.3038L73.3392 76.8319ZM63.9799 80.2811L63.7835 79.8213H63.7835L63.9799 80.2811ZM60.3939 82.2772L60.065 81.9006L60.065 81.9006L60.3939 82.2772ZM56.9945 87.2606L56.5239 87.0916L56.5239 87.0916L56.9945 87.2606ZM56.5287 98.1248L56.029 98.1431L56.5287 98.1248ZM72.723 169.154L72.2743 169.375L72.723 169.154ZM131.748 233.948L131.472 234.365L131.748 233.948ZM138.14 237.309L138.024 237.796L138.024 237.796L138.14 237.309ZM140.927 237.519V238.019V237.519ZM143.714 237.309L143.83 237.796L143.83 237.796L143.714 237.309ZM150.106 233.948L150.382 234.365L150.106 233.948ZM209.131 169.154L209.58 169.375L209.131 169.154ZM225.326 98.1248L225.825 98.1431L225.326 98.1248ZM224.86 87.2606L225.33 87.0916V87.0916L224.86 87.2606ZM221.46 82.2772L221.789 81.9006L221.789 81.9006L221.46 82.2772ZM217.874 80.2811L218.071 79.8213H218.071L217.874 80.2811ZM208.515 76.8319L208.68 76.36L208.515 76.8319ZM155.431 51.6229L155.174 52.0516L155.431 51.6229ZM147.036 46.7254L147.271 46.2841L147.271 46.2841L147.036 46.7254ZM140.1 62.3202L139.997 61.831H139.997L140.1 62.3202ZM141.754 62.3202L141.858 61.831L141.858 61.831L141.754 62.3202ZM144.089 63.4364L144.338 63.0026L144.089 63.4364ZM175.92 80.7166L175.707 81.1689L175.92 80.7166ZM205.17 92.5565L204.996 93.0251L205.17 92.5565ZM208.044 93.9276L208.379 93.5564L208.379 93.5564L208.044 93.9276ZM209.145 95.5897L209.617 95.4263V95.4263L209.145 95.5897ZM209.287 98.7166L209.787 98.739L209.287 98.7166ZM194.774 162.094L195.222 162.314L194.774 162.094ZM144.439 218.448L144.725 218.858L144.439 218.448ZM141.891 219.902L142.011 220.387H142.011L141.891 219.902ZM139.963 219.902L139.843 220.387H139.843L139.963 219.902ZM137.414 218.448L137.129 218.858L137.414 218.448ZM87.0804 162.094L86.6318 162.314L87.0804 162.094ZM72.5668 98.7166L72.0673 98.739L72.5668 98.7166ZM72.7084 95.5897L72.2358 95.4263L72.2358 95.4263L72.7084 95.5897ZM73.809 93.9276L73.474 93.5564L73.4739 93.5564L73.809 93.9276ZM76.684 92.5565L76.8584 93.0251L76.684 92.5565ZM105.934 80.7166L106.147 81.1689L105.934 80.7166ZM137.764 63.4364L137.515 63.0026L137.764 63.4364ZM136.638 37.3807L136.745 37.8691C139.846 37.1882 142.008 37.1882 145.109 37.8691L145.216 37.3807L145.323 36.8923C142.081 36.1804 139.773 36.1804 136.531 36.8923L136.638 37.3807ZM145.216 37.3807L145.109 37.8691C146.64 38.2052 148.319 38.9123 150.56 40.1059C152.802 41.2996 155.573 42.9619 159.289 45.1913L159.546 44.7625L159.803 44.3338C156.096 42.1097 153.3 40.4318 151.03 39.2233C148.761 38.0148 146.987 37.2577 145.323 36.8923L145.216 37.3807ZM159.546 44.7625L159.289 45.1913C175.647 55.0045 193.001 63.4532 210.993 69.754L211.159 69.2821L211.324 68.8102C193.404 62.535 176.112 54.1173 159.803 44.3338L159.546 44.7625ZM211.159 69.2821L210.993 69.754C215.219 71.2338 218.365 72.3358 220.819 73.3837C223.269 74.4298 224.997 75.4092 226.394 76.6293L226.723 76.2528L227.052 75.8762C225.543 74.5584 223.708 73.53 221.212 72.464C218.72 71.3999 215.537 70.2855 211.324 68.8102L211.159 69.2821ZM226.723 76.2528L226.394 76.6293C228.822 78.7501 230.83 81.6924 231.919 84.7264L232.39 84.5575L232.861 84.3885C231.714 81.1941 229.608 78.1089 227.052 75.8762L226.723 76.2528ZM232.39 84.5575L231.919 84.7264C233.184 88.248 233.071 91.5501 232.821 98.3976L233.321 98.4159L233.82 98.4341C234.068 91.6453 234.203 88.1289 232.861 84.3885L232.39 84.5575ZM233.321 98.4159L232.821 98.3955L232.746 100.242L233.245 100.263L233.745 100.283L233.82 98.4362L233.321 98.4159ZM233.245 100.263L232.746 100.24C231.887 119.565 228.219 147.338 215.861 172.465L216.31 172.685L216.759 172.906C229.202 147.604 232.883 119.674 233.745 100.285L233.245 100.263ZM216.31 172.685L215.863 172.462L215.064 174.062L215.511 174.285L215.958 174.508L216.757 172.909L216.31 172.685ZM215.511 174.285L215.065 174.059C198.162 207.373 170.665 229.302 154.253 240.197L154.53 240.613L154.806 241.03C171.286 230.09 198.942 208.045 215.957 174.511L215.511 174.285ZM154.53 240.613L154.253 240.197C150.583 242.633 148.816 243.802 145.456 244.604L145.573 245.091L145.689 245.577C149.241 244.729 151.141 243.463 154.806 241.03L154.53 240.613ZM145.573 245.091L145.469 244.602L144.996 244.702L145.1 245.191L145.204 245.68L145.677 245.58L145.573 245.091ZM145.1 245.191L145.007 244.7C142.756 245.126 139.098 245.126 136.847 244.7L136.754 245.191L136.661 245.683C139.035 246.132 142.82 246.132 145.193 245.683L145.1 245.191ZM136.754 245.191L136.858 244.702L136.386 244.602L136.282 245.091L136.178 245.58L136.65 245.68L136.754 245.191ZM136.282 245.091L136.398 244.604C133.458 243.902 131.734 242.917 128.895 241.053L128.62 241.471L128.346 241.888C131.218 243.775 133.058 244.835 136.165 245.577L136.282 245.091ZM128.62 241.471L128.896 241.054L127.6 240.196L127.325 240.613L127.049 241.03L128.345 241.888L128.62 241.471ZM127.325 240.613L127.601 240.197C111.189 229.302 83.6926 207.373 66.789 174.059L66.3431 174.285L65.8972 174.511C82.9119 208.045 110.568 230.09 127.048 241.03L127.325 240.613ZM66.3431 174.285L66.7905 174.062L65.9916 172.462L65.5443 172.685L65.097 172.909L65.8958 174.508L66.3431 174.285ZM65.5443 172.685L65.993 172.465C53.2367 146.527 49.7393 117.769 49.0332 98.3976L48.5336 98.4159L48.0339 98.4341C48.7423 117.87 52.2506 146.788 65.0956 172.906L65.5443 172.685ZM48.5336 98.4159L49.0332 98.3976C48.7837 91.5501 48.6705 88.248 49.9348 84.7264L49.4642 84.5575L48.9936 84.3885C47.6508 88.1289 47.7865 91.6453 48.0339 98.4341L48.5336 98.4159ZM49.4642 84.5575L49.9348 84.7264C50.9558 81.8826 52.7843 79.1177 55.0109 77.0349L54.6693 76.6698L54.3277 76.3046C51.9871 78.4941 50.0691 81.3928 48.9936 84.3885L49.4642 84.5575ZM54.6693 76.6698L55.0044 77.0409L55.4663 76.6239L55.1312 76.2528L54.7962 75.8816L54.3343 76.2986L54.6693 76.6698ZM55.1312 76.2528L55.4601 76.6293C57.9167 74.4837 61.3657 73.1029 67.8896 70.7974L67.723 70.326L67.5564 69.8546C61.0789 72.1436 57.4306 73.5805 54.8023 75.8762L55.1312 76.2528ZM67.723 70.326L67.8887 70.7978L70.8613 69.7538L70.6957 69.2821L70.53 68.8103L67.5573 69.8543L67.723 70.326ZM70.6957 69.2821L70.8609 69.754C88.2915 63.6501 105.122 55.53 121.029 46.1068L120.774 45.6766L120.519 45.2464C104.661 54.6409 87.8902 62.731 70.5304 68.8102L70.6957 69.2821ZM120.774 45.6766L121.03 46.1061L122.564 45.1921L122.308 44.7625L122.052 44.333L120.518 45.2471L120.774 45.6766ZM122.308 44.7625L122.565 45.1913C126.165 43.0318 128.878 41.4043 131.082 40.2191C133.287 39.0338 134.953 38.3077 136.456 37.9364L136.336 37.451L136.216 36.9656C134.591 37.367 132.838 38.1396 130.609 39.3384C128.379 40.5373 125.642 42.1792 122.051 44.3338L122.308 44.7625ZM136.336 37.451L136.45 37.938L136.752 37.8677L136.638 37.3807L136.525 36.8937L136.223 36.9641L136.336 37.451ZM143.5 45.1942L143.608 44.7058C142.57 44.478 141.754 44.3581 140.927 44.3581C140.1 44.3581 139.284 44.478 138.247 44.7058L138.354 45.1942L138.461 45.6825C139.465 45.4622 140.202 45.3581 140.927 45.3581C141.653 45.3581 142.39 45.4622 143.393 45.6825L143.5 45.1942ZM138.354 45.1942L138.247 44.7058C137.645 44.8379 136.628 45.1952 134.584 46.2841L134.819 46.7254L135.054 47.1667C137.072 46.0921 137.993 45.7853 138.461 45.6825L138.354 45.1942ZM134.819 46.7254L134.584 46.2841C132.537 47.3741 129.945 48.927 126.166 51.1941L126.423 51.6229L126.68 52.0516C130.469 49.7788 133.035 48.2418 135.054 47.1667L134.819 46.7254ZM126.423 51.6229L126.166 51.1941C109.462 61.2153 91.6777 69.8803 73.174 76.36L73.3392 76.8319L73.5045 77.3038C92.0811 70.7985 109.927 62.1025 126.68 52.0516L126.423 51.6229ZM73.3392 76.8319L73.174 76.36C68.8602 77.8706 65.9724 78.8865 63.7835 79.8213L63.9799 80.2811L64.1762 80.7409C66.3272 79.8223 69.1779 78.8189 73.5045 77.3038L73.3392 76.8319ZM63.9799 80.2811L63.7835 79.8213C61.6599 80.7282 60.6803 81.3632 60.065 81.9006L60.3939 82.2772L60.7228 82.6538C61.2259 82.2144 62.0981 81.6284 64.1762 80.7409L63.9799 80.2811ZM60.3939 82.2772L60.065 81.9006C58.5348 83.2372 57.2104 85.1796 56.5239 87.0916L56.9945 87.2606L57.4651 87.4295C58.0941 85.6776 59.3211 83.8781 60.7228 82.6538L60.3939 82.2772ZM56.9945 87.2606L56.5239 87.0916C55.8089 89.0832 55.7646 90.8895 56.029 98.1431L56.5287 98.1248L57.0283 98.1066C56.7614 90.7834 56.8296 89.1996 57.4651 87.4295L56.9945 87.2606ZM56.5287 98.1248L56.029 98.1431C56.7187 117.067 60.14 144.701 72.2743 169.375L72.723 169.154L73.1717 168.933C61.1262 144.441 57.7158 116.967 57.0283 98.1066L56.5287 98.1248ZM72.723 169.154L72.2743 169.375C88.3187 201.998 115.276 223.613 131.472 234.365L131.748 233.948L132.025 233.532C115.897 222.825 89.1046 201.33 73.1717 168.933L72.723 169.154ZM131.748 233.948L131.472 234.365C135.175 236.823 136.01 237.315 138.024 237.796L138.14 237.309L138.256 236.823C136.437 236.389 135.738 235.996 132.025 233.532L131.748 233.948ZM138.14 237.309L138.024 237.796C138.413 237.889 139.48 238.019 140.927 238.019V237.519V237.019C139.516 237.019 138.537 236.89 138.256 236.823L138.14 237.309ZM140.927 237.519V238.019C142.374 238.019 143.441 237.889 143.83 237.796L143.714 237.309L143.598 236.823C143.318 236.89 142.338 237.019 140.927 237.019V237.519ZM143.714 237.309L143.83 237.796C145.844 237.315 146.679 236.823 150.382 234.365L150.106 233.948L149.829 233.532C146.116 235.996 145.417 236.389 143.598 236.823L143.714 237.309ZM150.106 233.948L150.382 234.365C166.579 223.613 193.536 201.998 209.58 169.375L209.131 169.154L208.683 168.933C192.75 201.33 165.957 222.825 149.829 233.532L150.106 233.948ZM209.131 169.154L209.58 169.375C221.714 144.701 225.135 117.067 225.825 98.1431L225.326 98.1248L224.826 98.1066C224.138 116.967 220.728 144.441 208.683 168.933L209.131 169.154ZM225.326 98.1248L225.825 98.1431C226.09 90.8895 226.045 89.0832 225.33 87.0916L224.86 87.2606L224.389 87.4295C225.025 89.1996 225.093 90.7834 224.826 98.1066L225.326 98.1248ZM224.86 87.2606L225.33 87.0916C224.644 85.1796 223.319 83.2372 221.789 81.9006L221.46 82.2772L221.131 82.6538C222.533 83.8781 223.76 85.6776 224.389 87.4295L224.86 87.2606ZM221.46 82.2772L221.789 81.9006C221.174 81.3632 220.194 80.7282 218.071 79.8213L217.874 80.2811L217.678 80.7409C219.756 81.6284 220.628 82.2144 221.131 82.6538L221.46 82.2772ZM217.874 80.2811L218.071 79.8213C215.882 78.8865 212.994 77.8706 208.68 76.36L208.515 76.8319L208.35 77.3038C212.676 78.8189 215.527 79.8223 217.678 80.7409L217.874 80.2811ZM208.515 76.8319L208.68 76.36C190.177 69.8803 172.392 61.2153 155.688 51.1941L155.431 51.6229L155.174 52.0516C171.928 62.1025 189.773 70.7985 208.35 77.3038L208.515 76.8319ZM155.431 51.6229L155.688 51.1941C151.909 48.927 149.317 47.3741 147.271 46.2841L147.036 46.7254L146.8 47.1667C148.819 48.2418 151.385 49.7788 155.174 52.0516L155.431 51.6229ZM147.036 46.7254L147.271 46.2841C145.226 45.1952 144.209 44.8379 143.608 44.7058L143.5 45.1942L143.393 45.6825C143.861 45.7853 144.783 46.0922 146.8 47.1667L147.036 46.7254ZM140.1 62.3202L140.203 62.8093C140.677 62.7092 141.177 62.7092 141.651 62.8093L141.754 62.3202L141.858 61.831C141.248 61.702 140.607 61.702 139.997 61.831L140.1 62.3202ZM141.754 62.3202L141.651 62.8093C142.172 62.9195 142.666 63.1967 143.841 63.8701L144.089 63.4364L144.338 63.0026C143.221 62.3621 142.569 61.9813 141.858 61.831L141.754 62.3202ZM144.089 63.4364L143.841 63.8701C154.32 69.8784 164.716 75.9895 175.707 81.1689L175.92 80.7166L176.133 80.2643C165.188 75.1062 154.832 69.0197 144.338 63.0026L144.089 63.4364ZM175.92 80.7166L175.707 81.1689C185.263 85.6722 195.135 89.3547 204.996 93.0251L205.17 92.5565L205.345 92.0879C195.478 88.4154 185.645 84.7468 176.133 80.2643L175.92 80.7166ZM205.17 92.5565L204.996 93.0251C206.572 93.6119 207.23 93.8659 207.709 94.2988L208.044 93.9276L208.379 93.5564C207.724 92.9648 206.843 92.6457 205.345 92.0879L205.17 92.5565ZM208.044 93.9276L207.709 94.2988C208.14 94.6875 208.483 95.2049 208.672 95.7531L209.145 95.5897L209.617 95.4263C209.373 94.7184 208.935 94.0581 208.379 93.5564L208.044 93.9276ZM209.145 95.5897L208.672 95.7531C208.884 96.3642 208.862 97.0515 208.788 98.6942L209.287 98.7166L209.787 98.739C209.857 97.1765 209.906 96.2605 209.617 95.4263L209.145 95.5897ZM209.287 98.7166L208.788 98.6942C207.815 120.386 203.931 142.341 194.325 161.873L194.774 162.094L195.222 162.314C204.91 142.616 208.81 120.511 209.787 98.739L209.287 98.7166ZM194.774 162.094L194.325 161.873C183.13 184.636 164.905 203.582 144.153 218.038L144.439 218.448L144.725 218.858C165.581 204.33 183.936 185.263 195.222 162.314L194.774 162.094ZM144.439 218.448L144.153 218.038C142.902 218.909 142.377 219.266 141.77 219.417L141.891 219.902L142.011 220.387C142.838 220.182 143.534 219.688 144.725 218.858L144.439 218.448ZM141.891 219.902L141.77 219.417C141.24 219.549 140.614 219.549 140.084 219.417L139.963 219.902L139.843 220.387C140.531 220.558 141.323 220.558 142.011 220.387L141.891 219.902ZM139.963 219.902L140.084 219.417C139.477 219.266 138.951 218.909 137.7 218.038L137.414 218.448L137.129 218.858C138.32 219.688 139.016 220.182 139.843 220.387L139.963 219.902ZM137.414 218.448L137.7 218.038C116.948 203.582 98.7239 184.636 87.5291 161.873L87.0804 162.094L86.6318 162.314C97.9179 185.263 116.272 204.33 137.129 218.858L137.414 218.448ZM87.0804 162.094L87.5291 161.873C77.9235 142.341 74.0392 120.386 73.0663 98.6942L72.5668 98.7166L72.0673 98.739C73.0438 120.511 76.9442 142.616 86.6318 162.314L87.0804 162.094ZM72.5668 98.7166L73.0663 98.6942C72.9926 97.0511 72.9697 96.3641 73.1809 95.7531L72.7084 95.5897L72.2358 95.4263C71.9473 96.2606 71.9972 97.1772 72.0673 98.739L72.5668 98.7166ZM72.7084 95.5897L73.1809 95.7531C73.3705 95.205 73.7133 94.6874 74.144 94.2987L73.809 93.9276L73.4739 93.5564C72.9182 94.058 72.4806 94.7185 72.2358 95.4263L72.7084 95.5897ZM73.809 93.9276L74.1439 94.2988C74.6237 93.8659 75.2816 93.6119 76.8584 93.0251L76.684 92.5565L76.5096 92.0879C75.0111 92.6455 74.1297 92.9647 73.474 93.5564L73.809 93.9276ZM76.684 92.5565L76.8584 93.0251C86.7237 89.3535 96.5664 85.6838 106.147 81.1689L105.934 80.7166L105.721 80.2643C96.1842 84.7584 86.3808 88.4141 76.5096 92.0879L76.684 92.5565ZM105.934 80.7166L106.147 81.1689C117.138 75.9895 127.534 69.8784 138.013 63.8701L137.764 63.4364L137.515 63.0026C127.021 69.0197 116.667 75.1062 105.721 80.2643L105.934 80.7166ZM137.764 63.4364L138.013 63.8701C139.187 63.1966 139.682 62.9195 140.203 62.8093L140.1 62.3202L139.997 61.831C139.285 61.9813 138.633 62.3617 137.515 63.0026L137.764 63.4364Z" fill="url(#paint6_linear_2_2455)" mask="url(#path-11-inside-1_2_2455)"/>
</g>
</g>
</g>
<g filter="url(#filter2_d_2_2455)">
<path d="M177.794 117.243L142.398 136.562C141.322 137.149 140.022 137.149 138.946 136.562L109.187 120.319V135.715C109.187 137.706 107.62 139.321 105.687 139.321C103.754 139.321 102.187 137.706 102.187 135.715V115.946C101.188 114.288 101.642 111.952 103.55 110.911L138.946 91.5912C140.022 91.0041 141.322 91.0041 142.398 91.5912L177.794 110.911C180.298 112.278 180.298 115.876 177.794 117.243Z" fill="white"/>
<path d="M166.8 149.606C166.8 151.468 165.678 153.299 164.007 154.135L143.085 164.603C141.627 165.332 139.72 165.335 138.258 164.603L117.337 154.135C115.671 153.302 114.543 151.471 114.543 149.606V133.379C114.543 131.862 116.165 130.898 117.498 131.622L136.852 142.135C138.841 143.215 142.502 143.216 144.491 142.135L163.846 131.622C165.178 130.898 166.8 131.862 166.8 133.379V149.606Z" fill="white"/>
<path d="M163.726 131.402C165.226 130.587 167.051 131.673 167.051 133.379V149.606C167.051 151.562 165.875 153.48 164.118 154.359L143.197 164.827C141.669 165.591 139.679 165.593 138.146 164.827L117.225 154.359C115.474 153.483 114.293 151.565 114.293 149.606V133.379C114.293 131.673 116.118 130.587 117.617 131.402L136.972 141.916C137.917 142.429 139.284 142.696 140.672 142.696C142.059 142.696 143.426 142.429 144.372 141.916L163.726 131.402ZM138.826 91.3716C139.976 90.7437 141.367 90.7437 142.517 91.3716L177.913 110.691C180.591 112.153 180.591 116.001 177.913 117.462L142.517 136.782C141.367 137.41 139.976 137.41 138.826 136.782L109.436 120.74V135.714C109.436 137.837 107.764 139.571 105.686 139.571C103.608 139.571 101.936 137.837 101.936 135.714V116.012C100.918 114.246 101.412 111.792 103.431 110.691L138.826 91.3716Z" stroke="url(#paint7_linear_2_2455)" stroke-width="0.5" stroke-linecap="round" style="mix-blend-mode:color-burn"/>
</g>
</g>
<g filter="url(#filter3_dd_2_2455)">
<mask id="path-15-inside-2_2_2455" fill="white">
<path d="M61.1786 182.064C65.659 182.064 67.8999 182.064 69.6112 182.936C71.1164 183.703 72.3404 184.927 73.1073 186.432C73.9792 188.143 73.9794 190.384 73.9794 194.864V215.264C73.9794 219.744 73.9792 221.985 73.1073 223.696C72.3404 225.201 71.1164 226.425 69.6112 227.192C67.8999 228.064 65.659 228.064 61.1786 228.064H44.456C41.1901 228.064 39.5567 228.064 38.5409 227.376C37.6533 226.775 37.0447 225.843 36.8505 224.789C36.6284 223.582 37.2836 222.086 38.5946 219.095L44.7441 205.064L38.5946 191.033C37.2836 188.042 36.6284 186.546 36.8505 185.339C37.0447 184.285 37.6533 183.353 38.5409 182.751C39.5567 182.064 41.1901 182.064 44.456 182.064H61.1786ZM236.871 182.064C240.136 182.064 241.769 182.064 242.785 182.751C243.673 183.353 244.282 184.285 244.476 185.339C244.699 186.546 244.043 188.042 242.732 191.033L236.583 205.064L242.732 219.095C244.043 222.086 244.699 223.582 244.476 224.789C244.282 225.843 243.673 226.775 242.785 227.376C241.769 228.064 240.136 228.064 236.871 228.064H220.148C215.668 228.064 213.427 228.064 211.716 227.192C210.211 226.425 208.987 225.201 208.22 223.696C207.348 221.985 207.348 219.744 207.348 215.264V194.864C207.348 190.384 207.348 188.143 208.22 186.432C208.987 184.927 210.211 183.703 211.716 182.936C213.427 182.064 215.668 182.064 220.148 182.064H236.871Z"/>
</mask>
<path d="M61.1786 182.064C65.659 182.064 67.8999 182.064 69.6112 182.936C71.1164 183.703 72.3404 184.927 73.1073 186.432C73.9792 188.143 73.9794 190.384 73.9794 194.864V215.264C73.9794 219.744 73.9792 221.985 73.1073 223.696C72.3404 225.201 71.1164 226.425 69.6112 227.192C67.8999 228.064 65.659 228.064 61.1786 228.064H44.456C41.1901 228.064 39.5567 228.064 38.5409 227.376C37.6533 226.775 37.0447 225.843 36.8505 224.789C36.6284 223.582 37.2836 222.086 38.5946 219.095L44.7441 205.064L38.5946 191.033C37.2836 188.042 36.6284 186.546 36.8505 185.339C37.0447 184.285 37.6533 183.353 38.5409 182.751C39.5567 182.064 41.1901 182.064 44.456 182.064H61.1786ZM236.871 182.064C240.136 182.064 241.769 182.064 242.785 182.751C243.673 183.353 244.282 184.285 244.476 185.339C244.699 186.546 244.043 188.042 242.732 191.033L236.583 205.064L242.732 219.095C244.043 222.086 244.699 223.582 244.476 224.789C244.282 225.843 243.673 226.775 242.785 227.376C241.769 228.064 240.136 228.064 236.871 228.064H220.148C215.668 228.064 213.427 228.064 211.716 227.192C210.211 226.425 208.987 225.201 208.22 223.696C207.348 221.985 207.348 219.744 207.348 215.264V194.864C207.348 190.384 207.348 188.143 208.22 186.432C208.987 184.927 210.211 183.703 211.716 182.936C213.427 182.064 215.668 182.064 220.148 182.064H236.871Z" fill="#F59F0A"/>
<path d="M69.6112 182.936L69.8383 182.491L69.8382 182.491L69.6112 182.936ZM73.1073 186.432L73.5528 186.205L73.5528 186.205L73.1073 186.432ZM73.9794 194.864H74.4794H73.9794ZM73.9794 215.264H74.4794H73.9794ZM73.1073 223.696L73.5528 223.923L73.5528 223.923L73.1073 223.696ZM69.6112 227.192L69.8382 227.637L69.8383 227.637L69.6112 227.192ZM44.456 228.064V228.564V228.064ZM38.5409 227.376L38.2606 227.79L38.2606 227.79L38.5409 227.376ZM36.8505 224.789L36.3588 224.879L36.3588 224.879L36.8505 224.789ZM38.5946 219.095L39.0526 219.296L39.0526 219.296L38.5946 219.095ZM44.7441 205.064L45.202 205.265L45.29 205.064L45.202 204.863L44.7441 205.064ZM38.5946 191.033L39.0526 190.832L39.0526 190.832L38.5946 191.033ZM36.8505 185.339L36.3588 185.249L36.3588 185.249L36.8505 185.339ZM38.5409 182.751L38.2606 182.337L38.2606 182.337L38.5409 182.751ZM44.456 182.064V181.564V182.064ZM236.871 182.064V181.564V182.064ZM242.785 182.751L243.065 182.337L243.065 182.337L242.785 182.751ZM244.476 185.339L244.968 185.249L244.968 185.249L244.476 185.339ZM242.732 191.033L242.274 190.832V190.832L242.732 191.033ZM236.583 205.064L236.125 204.863L236.037 205.064L236.125 205.265L236.583 205.064ZM242.732 219.095L242.274 219.296V219.296L242.732 219.095ZM244.476 224.789L244.968 224.879L244.968 224.879L244.476 224.789ZM242.785 227.376L243.065 227.791L243.065 227.79L242.785 227.376ZM236.871 228.064V228.564V228.064ZM211.716 227.192L211.489 227.637L211.489 227.637L211.716 227.192ZM208.22 223.696L207.774 223.923L207.774 223.923L208.22 223.696ZM207.348 215.264H206.848H207.348ZM207.348 194.864H206.848H207.348ZM208.22 186.432L207.774 186.205L207.774 186.205L208.22 186.432ZM211.716 182.936L211.489 182.491L211.489 182.491L211.716 182.936ZM61.1786 182.064V182.564C63.4271 182.564 65.0835 182.564 66.3926 182.671C67.6959 182.778 68.6108 182.987 69.3842 183.382L69.6112 182.936L69.8382 182.491C68.9004 182.013 67.8392 181.786 66.4741 181.675C65.1148 181.564 63.4106 181.564 61.1786 181.564V182.064ZM69.6112 182.936L69.3842 183.382C70.7953 184.101 71.9428 185.248 72.6618 186.659L73.1073 186.432L73.5528 186.205C72.738 184.606 71.4374 183.305 69.8383 182.491L69.6112 182.936ZM73.1073 186.432L72.6618 186.659C73.0559 187.433 73.2655 188.347 73.372 189.65C73.479 190.959 73.4794 192.615 73.4794 194.864H73.9794H74.4794C74.4794 192.632 74.4797 190.928 74.3686 189.569C74.2571 188.204 74.0307 187.143 73.5528 186.205L73.1073 186.432ZM73.9794 194.864H73.4794V215.264H73.9794H74.4794V194.864H73.9794ZM73.9794 215.264H73.4794C73.4794 217.512 73.479 219.169 73.372 220.478C73.2655 221.781 73.0559 222.695 72.6618 223.469L73.1073 223.696L73.5528 223.923C74.0307 222.985 74.2571 221.924 74.3686 220.559C74.4797 219.2 74.4794 217.496 74.4794 215.264H73.9794ZM73.1073 223.696L72.6618 223.469C71.9428 224.88 70.7953 226.027 69.3842 226.746L69.6112 227.192L69.8383 227.637C71.4374 226.822 72.738 225.522 73.5528 223.923L73.1073 223.696ZM69.6112 227.192L69.3842 226.746C68.6108 227.14 67.6959 227.35 66.3926 227.457C65.0835 227.564 63.4271 227.564 61.1786 227.564V228.064V228.564C63.4106 228.564 65.1148 228.564 66.4741 228.453C67.8392 228.342 68.9004 228.115 69.8382 227.637L69.6112 227.192ZM61.1786 228.064V227.564H44.456V228.064V228.564H61.1786V228.064ZM44.456 228.064V227.564C42.8134 227.564 41.6155 227.564 40.7 227.48C39.7851 227.397 39.2242 227.235 38.8213 226.962L38.5409 227.376L38.2606 227.79C38.8734 228.205 39.6372 228.388 40.6093 228.476C41.5809 228.565 42.8327 228.564 44.456 228.564V228.064ZM38.5409 227.376L38.8213 226.962C38.0448 226.437 37.5122 225.621 37.3422 224.698L36.8505 224.789L36.3588 224.879C36.5772 226.065 37.2618 227.114 38.2606 227.79L38.5409 227.376ZM36.8505 224.789L37.3422 224.698C37.2541 224.219 37.3311 223.641 37.6219 222.769C37.9129 221.898 38.3932 220.8 39.0526 219.296L38.5946 219.095L38.1367 218.894C37.4851 220.381 36.9822 221.527 36.6734 222.453C36.3643 223.379 36.2248 224.151 36.3588 224.879L36.8505 224.789ZM38.5946 219.095L39.0526 219.296L45.202 205.265L44.7441 205.064L44.2861 204.863L38.1367 218.895L38.5946 219.095ZM44.7441 205.064L45.202 204.863L39.0526 190.832L38.5946 191.033L38.1367 191.233L44.2861 205.265L44.7441 205.064ZM38.5946 191.033L39.0526 190.832C38.3932 189.328 37.9129 188.23 37.6219 187.358C37.3311 186.487 37.2541 185.909 37.3422 185.43L36.8505 185.339L36.3588 185.249C36.2248 185.977 36.3643 186.749 36.6734 187.675C36.9822 188.6 37.4851 189.747 38.1367 191.233L38.5946 191.033ZM36.8505 185.339L37.3422 185.43C37.5122 184.507 38.0448 183.691 38.8213 183.165L38.5409 182.751L38.2606 182.337C37.2618 183.014 36.5772 184.063 36.3588 185.249L36.8505 185.339ZM38.5409 182.751L38.8213 183.165C39.2242 182.893 39.7851 182.731 40.7 182.648C41.6155 182.564 42.8134 182.564 44.456 182.564V182.064V181.564C42.8327 181.564 41.5809 181.563 40.6093 181.652C39.6372 181.74 38.8734 181.923 38.2606 182.337L38.5409 182.751ZM44.456 182.064V182.564H61.1786V182.064V181.564H44.456V182.064ZM236.871 182.064V182.564C238.513 182.564 239.711 182.564 240.626 182.648C241.541 182.731 242.102 182.893 242.505 183.166L242.785 182.751L243.065 182.337C242.453 181.923 241.689 181.741 240.717 181.652C239.746 181.563 238.494 181.564 236.871 181.564V182.064ZM242.785 182.751L242.505 183.165C243.281 183.691 243.815 184.507 243.985 185.43L244.476 185.339L244.968 185.249C244.75 184.063 244.064 183.014 243.065 182.337L242.785 182.751ZM244.476 185.339L243.985 185.43C244.073 185.909 243.996 186.487 243.705 187.358C243.414 188.23 242.934 189.328 242.274 190.832L242.732 191.033L243.19 191.233C243.842 189.747 244.345 188.6 244.654 187.675C244.963 186.749 245.102 185.977 244.968 185.249L244.476 185.339ZM242.732 191.033L242.274 190.832L236.125 204.863L236.583 205.064L237.041 205.265L243.19 191.233L242.732 191.033ZM236.583 205.064L236.125 205.265L242.274 219.296L242.732 219.095L243.19 218.895L237.041 204.863L236.583 205.064ZM242.732 219.095L242.274 219.296C242.934 220.8 243.414 221.898 243.705 222.769C243.996 223.641 244.073 224.219 243.985 224.698L244.476 224.789L244.968 224.879C245.102 224.151 244.963 223.379 244.654 222.453C244.345 221.527 243.842 220.381 243.19 218.894L242.732 219.095ZM244.476 224.789L243.985 224.698C243.815 225.621 243.281 226.437 242.505 226.962L242.785 227.376L243.065 227.79C244.064 227.114 244.75 226.065 244.968 224.879L244.476 224.789ZM242.785 227.376L242.505 226.962C242.102 227.235 241.541 227.397 240.626 227.48C239.711 227.563 238.513 227.564 236.871 227.564V228.064V228.564C238.494 228.564 239.746 228.564 240.717 228.476C241.689 228.387 242.453 228.205 243.065 227.791L242.785 227.376ZM236.871 228.064V227.564H220.148V228.064V228.564H236.871V228.064ZM220.148 228.064V227.564C217.9 227.564 216.243 227.564 214.934 227.457C213.631 227.35 212.716 227.14 211.943 226.746L211.716 227.192L211.489 227.637C212.427 228.115 213.488 228.342 214.853 228.453C216.212 228.564 217.916 228.564 220.148 228.564V228.064ZM211.716 227.192L211.943 226.746C210.532 226.027 209.384 224.88 208.665 223.469L208.22 223.696L207.774 223.923C208.589 225.522 209.889 226.822 211.489 227.637L211.716 227.192ZM208.22 223.696L208.665 223.469C208.271 222.695 208.062 221.781 207.955 220.478C207.848 219.169 207.848 217.512 207.848 215.264H207.348H206.848C206.848 217.496 206.847 219.2 206.958 220.559C207.07 221.924 207.296 222.985 207.774 223.923L208.22 223.696ZM207.348 215.264H207.848V194.864H207.348H206.848V215.264H207.348ZM207.348 194.864H207.848C207.848 192.615 207.848 190.959 207.955 189.65C208.062 188.347 208.271 187.433 208.665 186.659L208.22 186.432L207.774 186.205C207.296 187.143 207.07 188.204 206.958 189.569C206.847 190.928 206.848 192.632 206.848 194.864H207.348ZM208.22 186.432L208.665 186.659C209.384 185.248 210.532 184.101 211.943 183.382L211.716 182.936L211.489 182.491C209.889 183.305 208.589 184.606 207.774 186.205L208.22 186.432ZM211.716 182.936L211.943 183.382C212.716 182.987 213.631 182.778 214.934 182.671C216.243 182.564 217.9 182.564 220.148 182.564V182.064V181.564C217.916 181.564 216.212 181.564 214.853 181.675C213.488 181.786 212.427 182.013 211.489 182.491L211.716 182.936ZM220.148 182.064V182.564H236.871V182.064V181.564H220.148V182.064Z" fill="url(#paint8_linear_2_2455)" style="mix-blend-mode:darken" mask="url(#path-15-inside-2_2_2455)"/>
</g>
<path d="M61.1786 182.064C65.659 182.064 67.8999 182.064 69.6112 182.936C71.1164 183.703 72.3404 184.927 73.1073 186.432C73.9792 188.143 73.9794 190.384 73.9794 194.864V215.264C73.9794 219.744 73.9792 221.985 73.1073 223.696C72.3404 225.201 71.1164 226.425 69.6112 227.192C67.8999 228.064 65.659 228.064 61.1786 228.064H44.456C41.1901 228.064 39.5567 228.064 38.5409 227.376C37.6533 226.775 37.0447 225.843 36.8505 224.789C36.6284 223.582 37.2836 222.086 38.5946 219.095L44.7441 205.064L38.5946 191.033C37.2836 188.042 36.6284 186.546 36.8505 185.339C37.0447 184.285 37.6533 183.353 38.5409 182.751C39.5567 182.064 41.1901 182.064 44.456 182.064H61.1786ZM236.871 182.064C240.136 182.064 241.769 182.064 242.785 182.751C243.673 183.353 244.282 184.285 244.476 185.339C244.699 186.546 244.043 188.042 242.732 191.033L236.583 205.064L242.732 219.095C244.043 222.086 244.699 223.582 244.476 224.789C244.282 225.843 243.673 226.775 242.785 227.376C241.769 228.064 240.136 228.064 236.871 228.064H220.148C215.668 228.064 213.427 228.064 211.716 227.192C210.211 226.425 208.987 225.201 208.22 223.696C207.348 221.985 207.348 219.744 207.348 215.264V194.864C207.348 190.384 207.348 188.143 208.22 186.432C208.987 184.927 210.211 183.703 211.716 182.936C213.427 182.064 215.668 182.064 220.148 182.064H236.871Z" fill="url(#paint9_linear_2_2455)" fill-opacity="0.3" style="mix-blend-mode:overlay"/>
<path d="M61.1786 182.064C65.659 182.064 67.8999 182.064 69.6112 182.936C71.1164 183.703 72.3404 184.927 73.1073 186.432C73.9792 188.143 73.9794 190.384 73.9794 194.864V215.264C73.9794 219.744 73.9792 221.985 73.1073 223.696C72.3404 225.201 71.1164 226.425 69.6112 227.192C67.8999 228.064 65.659 228.064 61.1786 228.064H44.456C41.1901 228.064 39.5567 228.064 38.5409 227.376C37.6533 226.775 37.0447 225.843 36.8505 224.789C36.6284 223.582 37.2836 222.086 38.5946 219.095L44.7441 205.064L38.5946 191.033C37.2836 188.042 36.6284 186.546 36.8505 185.339C37.0447 184.285 37.6533 183.353 38.5409 182.751C39.5567 182.064 41.1901 182.064 44.456 182.064H61.1786ZM236.871 182.064C240.136 182.064 241.769 182.064 242.785 182.751C243.673 183.353 244.282 184.285 244.476 185.339C244.699 186.546 244.043 188.042 242.732 191.033L236.583 205.064L242.732 219.095C244.043 222.086 244.699 223.582 244.476 224.789C244.282 225.843 243.673 226.775 242.785 227.376C241.769 228.064 240.136 228.064 236.871 228.064H220.148C215.668 228.064 213.427 228.064 211.716 227.192C210.211 226.425 208.987 225.201 208.22 223.696C207.348 221.985 207.348 219.744 207.348 215.264V194.864C207.348 190.384 207.348 188.143 208.22 186.432C208.987 184.927 210.211 183.703 211.716 182.936C213.427 182.064 215.668 182.064 220.148 182.064H236.871Z" fill="url(#paint10_radial_2_2455)" fill-opacity="0.6" style="mix-blend-mode:overlay"/>
<path d="M61.1786 182.064C65.659 182.064 67.8999 182.064 69.6112 182.936C71.1164 183.703 72.3404 184.927 73.1073 186.432C73.9792 188.143 73.9794 190.384 73.9794 194.864V215.264C73.9794 219.744 73.9792 221.985 73.1073 223.696C72.3404 225.201 71.1164 226.425 69.6112 227.192C67.8999 228.064 65.659 228.064 61.1786 228.064H44.456C41.1901 228.064 39.5567 228.064 38.5409 227.376C37.6533 226.775 37.0447 225.843 36.8505 224.789C36.6284 223.582 37.2836 222.086 38.5946 219.095L44.7441 205.064L38.5946 191.033C37.2836 188.042 36.6284 186.546 36.8505 185.339C37.0447 184.285 37.6533 183.353 38.5409 182.751C39.5567 182.064 41.1901 182.064 44.456 182.064H61.1786ZM236.871 182.064C240.136 182.064 241.769 182.064 242.785 182.751C243.673 183.353 244.282 184.285 244.476 185.339C244.699 186.546 244.043 188.042 242.732 191.033L236.583 205.064L242.732 219.095C244.043 222.086 244.699 223.582 244.476 224.789C244.282 225.843 243.673 226.775 242.785 227.376C241.769 228.064 240.136 228.064 236.871 228.064H220.148C215.668 228.064 213.427 228.064 211.716 227.192C210.211 226.425 208.987 225.201 208.22 223.696C207.348 221.985 207.348 219.744 207.348 215.264V194.864C207.348 190.384 207.348 188.143 208.22 186.432C208.987 184.927 210.211 183.703 211.716 182.936C213.427 182.064 215.668 182.064 220.148 182.064H236.871Z" fill="black" fill-opacity="0.24" style="mix-blend-mode:overlay"/>
<path d="M61.1786 182.064C65.659 182.064 67.8999 182.064 69.6112 182.936C71.1164 183.703 72.3404 184.927 73.1073 186.432C73.9792 188.143 73.9794 190.384 73.9794 194.864V215.264C73.9794 219.744 73.9792 221.985 73.1073 223.696C72.3404 225.201 71.1164 226.425 69.6112 227.192C67.8999 228.064 65.659 228.064 61.1786 228.064H44.456C41.1901 228.064 39.5567 228.064 38.5409 227.376C37.6533 226.775 37.0447 225.843 36.8505 224.789C36.6284 223.582 37.2836 222.086 38.5946 219.095L44.7441 205.064L38.5946 191.033C37.2836 188.042 36.6284 186.546 36.8505 185.339C37.0447 184.285 37.6533 183.353 38.5409 182.751C39.5567 182.064 41.1901 182.064 44.456 182.064H61.1786ZM236.871 182.064C240.136 182.064 241.769 182.064 242.785 182.751C243.673 183.353 244.282 184.285 244.476 185.339C244.699 186.546 244.043 188.042 242.732 191.033L236.583 205.064L242.732 219.095C244.043 222.086 244.699 223.582 244.476 224.789C244.282 225.843 243.673 226.775 242.785 227.376C241.769 228.064 240.136 228.064 236.871 228.064H220.148C215.668 228.064 213.427 228.064 211.716 227.192C210.211 226.425 208.987 225.201 208.22 223.696C207.348 221.985 207.348 219.744 207.348 215.264V194.864C207.348 190.384 207.348 188.143 208.22 186.432C208.987 184.927 210.211 183.703 211.716 182.936C213.427 182.064 215.668 182.064 220.148 182.064H236.871Z" fill="black" fill-opacity="0.12" style="mix-blend-mode:darken"/>
<g filter="url(#filter4_dd_2_2455)">
<rect x="52.6635" y="170.064" width="176" height="46" rx="8" fill="#F59F0A"/>
<rect x="52.9135" y="170.314" width="175.5" height="45.5" rx="7.75" stroke="url(#paint11_linear_2_2455)" stroke-width="0.5" stroke-linecap="round" style="mix-blend-mode:darken"/>
</g>
<rect x="52.6635" y="170.064" width="176" height="46" rx="8" fill="url(#paint12_linear_2_2455)" fill-opacity="0.3" style="mix-blend-mode:overlay"/>
<rect x="52.6635" y="170.064" width="176" height="46" rx="8" fill="url(#paint13_radial_2_2455)" fill-opacity="0.6" style="mix-blend-mode:overlay"/>
<g filter="url(#filter5_i_2_2455)">
<circle cx="63.6635" cy="193.064" r="3" fill="black" fill-opacity="0.24" style="mix-blend-mode:color-burn"/>
<circle cx="63.6635" cy="193.064" r="3" fill="black" fill-opacity="0.32" style="mix-blend-mode:darken"/>
</g>
<g filter="url(#filter6_i_2_2455)">
<circle cx="217.663" cy="193.064" r="3" fill="black" fill-opacity="0.24" style="mix-blend-mode:color-burn"/>
<circle cx="217.663" cy="193.064" r="3" fill="black" fill-opacity="0.32" style="mix-blend-mode:darken"/>
</g>
<g filter="url(#filter7_i_2_2455)">
<path d="M72.646 200.064V185.519H82.2767V188.054H75.7213V191.52H81.6375V194.055H75.7213V200.064H72.646ZM84.2359 200.064H80.9405L85.9618 185.519H89.9249L94.9391 200.064H91.6436L88.0001 188.842H87.8865L84.2359 200.064ZM84.03 194.347H91.8141V196.747H84.03V194.347ZM103.448 189.702C103.392 189.129 103.148 188.684 102.717 188.367C102.286 188.049 101.701 187.891 100.963 187.891C100.461 187.891 100.037 187.962 99.6913 188.104C99.3456 188.241 99.0805 188.433 98.8958 188.679C98.7159 188.925 98.6259 189.205 98.6259 189.517C98.6165 189.778 98.6709 190.005 98.7893 190.199C98.9124 190.393 99.0805 190.561 99.2935 190.703C99.5066 190.84 99.7528 190.961 100.032 191.065C100.312 191.165 100.61 191.25 100.927 191.321L102.234 191.634C102.868 191.776 103.451 191.965 103.981 192.202C104.511 192.438 104.971 192.73 105.359 193.075C105.747 193.421 106.048 193.828 106.261 194.297C106.479 194.766 106.59 195.303 106.595 195.909C106.59 196.799 106.363 197.571 105.913 198.224C105.468 198.873 104.824 199.377 103.981 199.737C103.143 200.092 102.132 200.27 100.948 200.27C99.7741 200.27 98.7514 200.09 97.8802 199.73C97.0137 199.37 96.3366 198.838 95.8489 198.132C95.366 197.422 95.1127 196.544 95.089 195.497H98.0648C98.098 195.985 98.2377 196.392 98.4839 196.719C98.7348 197.041 99.0686 197.285 99.4853 197.45C99.9067 197.611 100.383 197.692 100.913 197.692C101.434 197.692 101.886 197.616 102.269 197.465C102.658 197.313 102.958 197.102 103.171 196.832C103.384 196.563 103.491 196.252 103.491 195.902C103.491 195.575 103.394 195.301 103.2 195.078C103.01 194.856 102.731 194.666 102.362 194.51C101.997 194.354 101.55 194.212 101.019 194.084L99.4356 193.686C98.2093 193.388 97.241 192.921 96.5307 192.287C95.8205 191.653 95.4678 190.798 95.4725 189.723C95.4678 188.842 95.7022 188.073 96.1756 187.415C96.6539 186.757 97.3096 186.243 98.143 185.874C98.9763 185.504 99.9233 185.32 100.984 185.32C102.063 185.32 103.006 185.504 103.811 185.874C104.62 186.243 105.25 186.757 105.7 187.415C106.15 188.073 106.382 188.835 106.396 189.702H103.448ZM107.309 188.054V185.519H119.255V188.054H114.802V200.064H111.762V188.054H107.309ZM124.251 200.064V185.519H127.327V197.528H133.563V200.064H124.251ZM134.799 200.064V185.519H144.6V188.054H137.874V191.52H144.096V194.055H137.874V197.528H144.629V200.064H134.799ZM148.752 200.064H145.457L150.478 185.519H154.441L159.455 200.064H156.16L152.517 188.842H152.403L148.752 200.064ZM148.546 194.347H156.33V196.747H148.546V194.347ZM160.406 200.064V185.519H166.145C167.243 185.519 168.181 185.715 168.957 186.108C169.739 186.496 170.333 187.048 170.74 187.763C171.152 188.473 171.358 189.309 171.358 190.27C171.358 191.236 171.15 192.067 170.733 192.763C170.316 193.454 169.713 193.984 168.922 194.354C168.136 194.723 167.184 194.908 166.067 194.908H162.224V192.436H165.57C166.157 192.436 166.644 192.356 167.033 192.195C167.421 192.034 167.71 191.792 167.899 191.47C168.093 191.148 168.19 190.748 168.19 190.27C168.19 189.787 168.093 189.38 167.899 189.048C167.71 188.717 167.418 188.466 167.025 188.295C166.637 188.12 166.147 188.033 165.555 188.033H163.481V200.064H160.406ZM168.261 193.445L171.876 200.064H168.481L164.945 193.445H168.261ZM184.897 185.519V200.064H182.241L175.913 190.909H175.806V200.064H172.731V185.519H175.43L181.708 194.666H181.836V185.519H184.897ZM186.638 200.064V185.519H196.439V188.054H189.713V191.52H195.935V194.055H189.713V197.528H196.468V200.064H186.638ZM198.084 200.064V185.519H203.823C204.921 185.519 205.859 185.715 206.635 186.108C207.417 186.496 208.011 187.048 208.418 187.763C208.83 188.473 209.036 189.309 209.036 190.27C209.036 191.236 208.828 192.067 208.411 192.763C207.994 193.454 207.391 193.984 206.6 194.354C205.814 194.723 204.862 194.908 203.745 194.908H199.902V192.436H203.248C203.835 192.436 204.322 192.356 204.711 192.195C205.099 192.034 205.388 191.792 205.577 191.47C205.771 191.148 205.868 190.748 205.868 190.27C205.868 189.787 205.771 189.38 205.577 189.048C205.388 188.717 205.097 188.466 204.704 188.295C204.315 188.12 203.825 188.033 203.233 188.033H201.16V200.064H198.084ZM205.939 193.445L209.554 200.064H206.16L202.623 193.445H205.939Z" fill="black" fill-opacity="0.24" style="mix-blend-mode:color-burn"/>
<path d="M72.646 200.064V185.519H82.2767V188.054H75.7213V191.52H81.6375V194.055H75.7213V200.064H72.646ZM84.2359 200.064H80.9405L85.9618 185.519H89.9249L94.9391 200.064H91.6436L88.0001 188.842H87.8865L84.2359 200.064ZM84.03 194.347H91.8141V196.747H84.03V194.347ZM103.448 189.702C103.392 189.129 103.148 188.684 102.717 188.367C102.286 188.049 101.701 187.891 100.963 187.891C100.461 187.891 100.037 187.962 99.6913 188.104C99.3456 188.241 99.0805 188.433 98.8958 188.679C98.7159 188.925 98.6259 189.205 98.6259 189.517C98.6165 189.778 98.6709 190.005 98.7893 190.199C98.9124 190.393 99.0805 190.561 99.2935 190.703C99.5066 190.84 99.7528 190.961 100.032 191.065C100.312 191.165 100.61 191.25 100.927 191.321L102.234 191.634C102.868 191.776 103.451 191.965 103.981 192.202C104.511 192.438 104.971 192.73 105.359 193.075C105.747 193.421 106.048 193.828 106.261 194.297C106.479 194.766 106.59 195.303 106.595 195.909C106.59 196.799 106.363 197.571 105.913 198.224C105.468 198.873 104.824 199.377 103.981 199.737C103.143 200.092 102.132 200.27 100.948 200.27C99.7741 200.27 98.7514 200.09 97.8802 199.73C97.0137 199.37 96.3366 198.838 95.8489 198.132C95.366 197.422 95.1127 196.544 95.089 195.497H98.0648C98.098 195.985 98.2377 196.392 98.4839 196.719C98.7348 197.041 99.0686 197.285 99.4853 197.45C99.9067 197.611 100.383 197.692 100.913 197.692C101.434 197.692 101.886 197.616 102.269 197.465C102.658 197.313 102.958 197.102 103.171 196.832C103.384 196.563 103.491 196.252 103.491 195.902C103.491 195.575 103.394 195.301 103.2 195.078C103.01 194.856 102.731 194.666 102.362 194.51C101.997 194.354 101.55 194.212 101.019 194.084L99.4356 193.686C98.2093 193.388 97.241 192.921 96.5307 192.287C95.8205 191.653 95.4678 190.798 95.4725 189.723C95.4678 188.842 95.7022 188.073 96.1756 187.415C96.6539 186.757 97.3096 186.243 98.143 185.874C98.9763 185.504 99.9233 185.32 100.984 185.32C102.063 185.32 103.006 185.504 103.811 185.874C104.62 186.243 105.25 186.757 105.7 187.415C106.15 188.073 106.382 188.835 106.396 189.702H103.448ZM107.309 188.054V185.519H119.255V188.054H114.802V200.064H111.762V188.054H107.309ZM124.251 200.064V185.519H127.327V197.528H133.563V200.064H124.251ZM134.799 200.064V185.519H144.6V188.054H137.874V191.52H144.096V194.055H137.874V197.528H144.629V200.064H134.799ZM148.752 200.064H145.457L150.478 185.519H154.441L159.455 200.064H156.16L152.517 188.842H152.403L148.752 200.064ZM148.546 194.347H156.33V196.747H148.546V194.347ZM160.406 200.064V185.519H166.145C167.243 185.519 168.181 185.715 168.957 186.108C169.739 186.496 170.333 187.048 170.74 187.763C171.152 188.473 171.358 189.309 171.358 190.27C171.358 191.236 171.15 192.067 170.733 192.763C170.316 193.454 169.713 193.984 168.922 194.354C168.136 194.723 167.184 194.908 166.067 194.908H162.224V192.436H165.57C166.157 192.436 166.644 192.356 167.033 192.195C167.421 192.034 167.71 191.792 167.899 191.47C168.093 191.148 168.19 190.748 168.19 190.27C168.19 189.787 168.093 189.38 167.899 189.048C167.71 188.717 167.418 188.466 167.025 188.295C166.637 188.12 166.147 188.033 165.555 188.033H163.481V200.064H160.406ZM168.261 193.445L171.876 200.064H168.481L164.945 193.445H168.261ZM184.897 185.519V200.064H182.241L175.913 190.909H175.806V200.064H172.731V185.519H175.43L181.708 194.666H181.836V185.519H184.897ZM186.638 200.064V185.519H196.439V188.054H189.713V191.52H195.935V194.055H189.713V197.528H196.468V200.064H186.638ZM198.084 200.064V185.519H203.823C204.921 185.519 205.859 185.715 206.635 186.108C207.417 186.496 208.011 187.048 208.418 187.763C208.83 188.473 209.036 189.309 209.036 190.27C209.036 191.236 208.828 192.067 208.411 192.763C207.994 193.454 207.391 193.984 206.6 194.354C205.814 194.723 204.862 194.908 203.745 194.908H199.902V192.436H203.248C203.835 192.436 204.322 192.356 204.711 192.195C205.099 192.034 205.388 191.792 205.577 191.47C205.771 191.148 205.868 190.748 205.868 190.27C205.868 189.787 205.771 189.38 205.577 189.048C205.388 188.717 205.097 188.466 204.704 188.295C204.315 188.12 203.825 188.033 203.233 188.033H201.16V200.064H198.084ZM205.939 193.445L209.554 200.064H206.16L202.623 193.445H205.939Z" fill="black" fill-opacity="0.32" style="mix-blend-mode:darken"/>
</g>
<defs>
<filter id="filter0_dddd_2_2455" x="15.3742" y="30.8584" width="251.105" height="329.661" filterUnits="userSpaceOnUse" color-interpolation-filters="sRGB">
<feFlood flood-opacity="0" result="BackgroundImageFix"/>
<feColorMatrix in="SourceAlpha" type="matrix" values="0 0 0 0 0 0 0 0 0 0 0 0 0 0 0 0 0 0 127 0" result="hardAlpha"/>
<feOffset dy="5"/>
<feGaussianBlur stdDeviation="5.5"/>
<feColorMatrix type="matrix" values="0 0 0 0 0 0 0 0 0 0 0 0 0 0 0 0 0 0 0.24 0"/>
<feBlend mode="normal" in2="BackgroundImageFix" result="effect1_dropShadow_2_2455"/>
<feColorMatrix in="SourceAlpha" type="matrix" values="0 0 0 0 0 0 0 0 0 0 0 0 0 0 0 0 0 0 127 0" result="hardAlpha"/>
<feOffset dy="21"/>
<feGaussianBlur stdDeviation="10.5"/>
<feColorMatrix type="matrix" values="0 0 0 0 0 0 0 0 0 0 0 0 0 0 0 0 0 0 0.21 0"/>
<feBlend mode="normal" in2="effect1_dropShadow_2_2455" result="effect2_dropShadow_2_2455"/>
<feColorMatrix in="SourceAlpha" type="matrix" values="0 0 0 0 0 0 0 0 0 0 0 0 0 0 0 0 0 0 127 0" result="hardAlpha"/>
<feOffset dy="46"/>
<feGaussianBlur stdDeviation="14"/>
<feColorMatrix type="matrix" values="0 0 0 0 0 0 0 0 0 0 0 0 0 0 0 0 0 0 0.12 0"/>
<feBlend mode="normal" in2="effect2_dropShadow_2_2455" result="effect3_dropShadow_2_2455"/>
<feColorMatrix in="SourceAlpha" type="matrix" values="0 0 0 0 0 0 0 0 0 0 0 0 0 0 0 0 0 0 127 0" result="hardAlpha"/>
<feOffset dy="82"/>
<feGaussianBlur stdDeviation="16.5"/>
<feColorMatrix type="matrix" values="0 0 0 0 0 0 0 0 0 0 0 0 0 0 0 0 0 0 0.04 0"/>
<feBlend mode="normal" in2="effect3_dropShadow_2_2455" result="effect4_dropShadow_2_2455"/>
<feBlend mode="normal" in="SourceGraphic" in2="effect4_dropShadow_2_2455" result="shape"/>
</filter>
<filter id="filter1_d_2_2455" x="40.3741" y="30.8584" width="201.106" height="224.661" filterUnits="userSpaceOnUse" color-interpolation-filters="sRGB">
<feFlood flood-opacity="0" result="BackgroundImageFix"/>
<feColorMatrix in="SourceAlpha" type="matrix" values="0 0 0 0 0 0 0 0 0 0 0 0 0 0 0 0 0 0 127 0" result="hardAlpha"/>
<feOffset dy="2"/>
<feGaussianBlur stdDeviation="4"/>
<feColorMatrix type="matrix" values="0 0 0 0 0 0 0 0 0 0 0 0 0 0 0 0 0 0 0.16 0"/>
<feBlend mode="color-burn" in2="BackgroundImageFix" result="effect1_dropShadow_2_2455"/>
<feBlend mode="normal" in="SourceGraphic" in2="effect1_dropShadow_2_2455" result="shape"/>
</filter>
<filter id="filter2_d_2_2455" x="89.1724" y="80.6509" width="102.999" height="99" filterUnits="userSpaceOnUse" color-interpolation-filters="sRGB">
<feFlood flood-opacity="0" result="BackgroundImageFix"/>
<feColorMatrix in="SourceAlpha" type="matrix" values="0 0 0 0 0 0 0 0 0 0 0 0 0 0 0 0 0 0 127 0" result="hardAlpha"/>
<feOffset dy="2"/>
<feGaussianBlur stdDeviation="6"/>
<feColorMatrix type="matrix" values="0 0 0 0 0 0 0 0 0 0 0 0 0 0 0 0 0 0 0.12 0"/>
<feBlend mode="plus-darker" in2="BackgroundImageFix" result="effect1_dropShadow_2_2455"/>
<feBlend mode="normal" in="SourceGraphic" in2="effect1_dropShadow_2_2455" result="shape"/>
</filter>
<filter id="filter3_dd_2_2455" x="24.8079" y="174.064" width="231.711" height="70" filterUnits="userSpaceOnUse" color-interpolation-filters="sRGB">
<feFlood flood-opacity="0" result="BackgroundImageFix"/>
<feColorMatrix in="SourceAlpha" type="matrix" values="0 0 0 0 0 0 0 0 0 0 0 0 0 0 0 0 0 0 127 0" result="hardAlpha"/>
<feOffset dy="4"/>
<feGaussianBlur stdDeviation="6"/>
<feColorMatrix type="matrix" values="0 0 0 0 0 0 0 0 0 0 0 0 0 0 0 0 0 0 0.16 0"/>
<feBlend mode="normal" in2="BackgroundImageFix" result="effect1_dropShadow_2_2455"/>
<feColorMatrix in="SourceAlpha" type="matrix" values="0 0 0 0 0 0 0 0 0 0 0 0 0 0 0 0 0 0 127 0" result="hardAlpha"/>
<feOffset dy="2"/>
<feGaussianBlur stdDeviation="2"/>
<feColorMatrix type="matrix" values="0 0 0 0 0 0 0 0 0 0 0 0 0 0 0 0 0 0 0.24 0"/>
<feBlend mode="normal" in2="effect1_dropShadow_2_2455" result="effect2_dropShadow_2_2455"/>
<feBlend mode="normal" in="SourceGraphic" in2="effect2_dropShadow_2_2455" result="shape"/>
</filter>
<filter id="filter4_dd_2_2455" x="40.6635" y="162.064" width="200" height="70" filterUnits="userSpaceOnUse" color-interpolation-filters="sRGB">
<feFlood flood-opacity="0" result="BackgroundImageFix"/>
<feColorMatrix in="SourceAlpha" type="matrix" values="0 0 0 0 0 0 0 0 0 0 0 0 0 0 0 0 0 0 127 0" result="hardAlpha"/>
<feOffset dy="4"/>
<feGaussianBlur stdDeviation="6"/>
<feColorMatrix type="matrix" values="0 0 0 0 0 0 0 0 0 0 0 0 0 0 0 0 0 0 0.16 0"/>
<feBlend mode="normal" in2="BackgroundImageFix" result="effect1_dropShadow_2_2455"/>
<feColorMatrix in="SourceAlpha" type="matrix" values="0 0 0 0 0 0 0 0 0 0 0 0 0 0 0 0 0 0 127 0" result="hardAlpha"/>
<feOffset dy="2"/>
<feGaussianBlur stdDeviation="2"/>
<feColorMatrix type="matrix" values="0 0 0 0 0 0 0 0 0 0 0 0 0 0 0 0 0 0 0.24 0"/>
<feBlend mode="normal" in2="effect1_dropShadow_2_2455" result="effect2_dropShadow_2_2455"/>
<feBlend mode="normal" in="SourceGraphic" in2="effect2_dropShadow_2_2455" result="shape"/>
</filter>
<filter id="filter5_i_2_2455" x="60.6635" y="190.064" width="6" height="7" filterUnits="userSpaceOnUse" color-interpolation-filters="sRGB">
<feFlood flood-opacity="0" result="BackgroundImageFix"/>
<feBlend mode="normal" in="SourceGraphic" in2="BackgroundImageFix" result="shape"/>
<feColorMatrix in="SourceAlpha" type="matrix" values="0 0 0 0 0 0 0 0 0 0 0 0 0 0 0 0 0 0 127 0" result="hardAlpha"/>
<feOffset dy="1"/>
<feGaussianBlur stdDeviation="1"/>
<feComposite in2="hardAlpha" operator="arithmetic" k2="-1" k3="1"/>
<feColorMatrix type="matrix" values="0 0 0 0 0 0 0 0 0 0 0 0 0 0 0 0 0 0 0.24 0"/>
<feBlend mode="darken" in2="shape" result="effect1_innerShadow_2_2455"/>
</filter>
<filter id="filter6_i_2_2455" x="214.663" y="190.064" width="6" height="7" filterUnits="userSpaceOnUse" color-interpolation-filters="sRGB">
<feFlood flood-opacity="0" result="BackgroundImageFix"/>
<feBlend mode="normal" in="SourceGraphic" in2="BackgroundImageFix" result="shape"/>
<feColorMatrix in="SourceAlpha" type="matrix" values="0 0 0 0 0 0 0 0 0 0 0 0 0 0 0 0 0 0 127 0" result="hardAlpha"/>
<feOffset dy="1"/>
<feGaussianBlur stdDeviation="1"/>
<feComposite in2="hardAlpha" operator="arithmetic" k2="-1" k3="1"/>
<feColorMatrix type="matrix" values="0 0 0 0 0 0 0 0 0 0 0 0 0 0 0 0 0 0 0.24 0"/>
<feBlend mode="darken" in2="shape" result="effect1_innerShadow_2_2455"/>
</filter>
<filter id="filter7_i_2_2455" x="72.646" y="185.32" width="136.908" height="15.9504" filterUnits="userSpaceOnUse" color-interpolation-filters="sRGB">
<feFlood flood-opacity="0" result="BackgroundImageFix"/>
<feBlend mode="normal" in="SourceGraphic" in2="BackgroundImageFix" result="shape"/>
<feColorMatrix in="SourceAlpha" type="matrix" values="0 0 0 0 0 0 0 0 0 0 0 0 0 0 0 0 0 0 127 0" result="hardAlpha"/>
<feOffset dy="1"/>
<feGaussianBlur stdDeviation="1"/>
<feComposite in2="hardAlpha" operator="arithmetic" k2="-1" k3="1"/>
<feColorMatrix type="matrix" values="0 0 0 0 0 0 0 0 0 0 0 0 0 0 0 0 0 0 0.24 0"/>
<feBlend mode="darken" in2="shape" result="effect1_innerShadow_2_2455"/>
</filter>
<linearGradient id="paint0_linear_2_2455" x1="140.808" y1="31.7924" x2="140.807" y2="246.884" gradientUnits="userSpaceOnUse">
<stop stop-color="white"/>
<stop offset="1" stop-color="white" stop-opacity="0"/>
</linearGradient>
<radialGradient id="paint1_radial_2_2455" cx="0" cy="0" r="1" gradientUnits="userSpaceOnUse" gradientTransform="translate(140.807 93.574) rotate(90) scale(141.869 107.639)">
<stop stop-color="white"/>
<stop offset="1" stop-color="white" stop-opacity="0"/>
</radialGradient>
<linearGradient id="paint2_linear_2_2455" x1="232.927" y1="40.6876" x2="232.927" y2="245.652" gradientUnits="userSpaceOnUse">
<stop stop-color="#49F0BC"/>
<stop offset="1" stop-color="#29DCCC"/>
</linearGradient>
<linearGradient id="paint3_linear_2_2455" x1="139.808" y1="31.7924" x2="139.807" y2="246.884" gradientUnits="userSpaceOnUse">
<stop stop-color="white"/>
<stop offset="1" stop-color="white" stop-opacity="0"/>
</linearGradient>
<radialGradient id="paint4_radial_2_2455" cx="0" cy="0" r="1" gradientUnits="userSpaceOnUse" gradientTransform="translate(139.807 93.574) rotate(90) scale(141.869 107.639)">
<stop stop-color="white"/>
<stop offset="1" stop-color="white" stop-opacity="0"/>
</radialGradient>
<linearGradient id="paint5_linear_2_2455" x1="0.807495" y1="0.0639648" x2="0.807495" y2="280.064" gradientUnits="userSpaceOnUse">
<stop stop-color="white"/>
<stop offset="1" stop-color="white" stop-opacity="0.01"/>
</linearGradient>
<linearGradient id="paint6_linear_2_2455" x1="140.927" y1="36.8584" x2="140.927" y2="245.52" gradientUnits="userSpaceOnUse">
<stop stop-color="white"/>
<stop offset="1" stop-color="#999999"/>
</linearGradient>
<linearGradient id="paint7_linear_2_2455" x1="140.672" y1="91.1509" x2="140.672" y2="165.151" gradientUnits="userSpaceOnUse">
<stop stop-color="#DFDFDF"/>
<stop offset="1" stop-color="#A9A9A9"/>
</linearGradient>
<linearGradient id="paint8_linear_2_2455" x1="140.663" y1="182.064" x2="140.663" y2="228.064" gradientUnits="userSpaceOnUse">
<stop stop-opacity="0"/>
<stop offset="1" stop-opacity="0.16"/>
</linearGradient>
<linearGradient id="paint9_linear_2_2455" x1="140.664" y1="159.064" x2="140.664" y2="228.064" gradientUnits="userSpaceOnUse">
<stop stop-color="white"/>
<stop offset="1" stop-color="white" stop-opacity="0"/>
</linearGradient>
<radialGradient id="paint10_radial_2_2455" cx="0" cy="0" r="1" gradientUnits="userSpaceOnUse" gradientTransform="translate(140.664 182.064) rotate(90) scale(46 193.22)">
<stop stop-color="white"/>
<stop offset="1" stop-color="white" stop-opacity="0"/>
</radialGradient>
<linearGradient id="paint11_linear_2_2455" x1="140.663" y1="170.064" x2="140.663" y2="216.064" gradientUnits="userSpaceOnUse">
<stop stop-opacity="0"/>
<stop offset="1" stop-opacity="0.16"/>
</linearGradient>
<linearGradient id="paint12_linear_2_2455" x1="140.663" y1="170.064" x2="140.663" y2="216.064" gradientUnits="userSpaceOnUse">
<stop stop-color="white"/>
<stop offset="1" stop-color="white" stop-opacity="0"/>
</linearGradient>
<radialGradient id="paint13_radial_2_2455" cx="0" cy="0" r="1" gradientUnits="userSpaceOnUse" gradientTransform="translate(140.663 178.091) rotate(90) scale(37.9729 88)">
<stop stop-color="white"/>
<stop offset="1" stop-color="white" stop-opacity="0"/>
</radialGradient>
</defs>
</svg>
