<svg width="305" height="281" viewBox="0 0 305 281" fill="none" xmlns="http://www.w3.org/2000/svg">
<g filter="url(#filter0_dd_2_2471)">
<mask id="path-1-inside-1_2_2471" fill="white">
<path d="M53.0029 160.336C59.318 158.037 62.4755 156.889 64.8876 157.319C67.0093 157.697 68.7344 158.905 69.8155 160.769C71.0444 162.889 71.0442 166.249 71.0442 172.969V203.569C71.0442 210.29 71.0445 213.65 69.8155 216.665C68.7344 219.316 67.0093 221.78 64.8876 223.702C62.4755 225.888 59.3179 227.037 53.0029 229.336L29.4316 237.915C24.828 239.59 22.5255 240.429 21.0937 239.918C19.8424 239.472 18.9842 238.386 18.7105 236.904C18.3974 235.208 19.321 232.628 21.1689 227.469L29.8372 203.267L21.1689 185.376C19.3209 181.562 18.3975 179.655 18.7105 177.731C18.9841 176.05 19.8425 174.339 21.0937 172.982C22.5255 171.429 24.828 170.59 29.4316 168.915L53.0029 160.336ZM275.648 79.2009C280.251 77.5254 282.553 76.6874 283.985 77.1977C285.236 77.6439 286.095 78.7298 286.369 80.2118C286.682 81.9075 285.758 84.4873 283.91 89.6467L275.242 113.849L283.91 131.739C285.758 135.554 286.682 137.461 286.369 139.385C286.095 141.066 285.236 142.777 283.985 144.134C282.553 145.687 280.251 146.525 275.648 148.201L252.076 156.78C245.761 159.079 242.604 160.227 240.192 159.797C238.07 159.419 236.345 158.211 235.264 156.347C234.035 154.227 234.034 150.867 234.034 144.147V113.546C234.034 106.826 234.035 103.465 235.264 100.451C236.345 97.7998 238.07 95.3361 240.192 93.4134C242.604 91.2277 245.761 90.0786 252.076 87.7801L275.648 79.2009Z"/>
</mask>
<path d="M53.0029 160.336C59.318 158.037 62.4755 156.889 64.8876 157.319C67.0093 157.697 68.7344 158.905 69.8155 160.769C71.0444 162.889 71.0442 166.249 71.0442 172.969V203.569C71.0442 210.29 71.0445 213.65 69.8155 216.665C68.7344 219.316 67.0093 221.78 64.8876 223.702C62.4755 225.888 59.3179 227.037 53.0029 229.336L29.4316 237.915C24.828 239.59 22.5255 240.429 21.0937 239.918C19.8424 239.472 18.9842 238.386 18.7105 236.904C18.3974 235.208 19.321 232.628 21.1689 227.469L29.8372 203.267L21.1689 185.376C19.3209 181.562 18.3975 179.655 18.7105 177.731C18.9841 176.05 19.8425 174.339 21.0937 172.982C22.5255 171.429 24.828 170.59 29.4316 168.915L53.0029 160.336ZM275.648 79.2009C280.251 77.5254 282.553 76.6874 283.985 77.1977C285.236 77.6439 286.095 78.7298 286.369 80.2118C286.682 81.9075 285.758 84.4873 283.91 89.6467L275.242 113.849L283.91 131.739C285.758 135.554 286.682 137.461 286.369 139.385C286.095 141.066 285.236 142.777 283.985 144.134C282.553 145.687 280.251 146.525 275.648 148.201L252.076 156.78C245.761 159.079 242.604 160.227 240.192 159.797C238.07 159.419 236.345 158.211 235.264 156.347C234.035 154.227 234.034 150.867 234.034 144.147V113.546C234.034 106.826 234.035 103.465 235.264 100.451C236.345 97.7998 238.07 95.3361 240.192 93.4134C242.604 91.2277 245.761 90.0786 252.076 87.7801L275.648 79.2009Z" fill="#F4F4F5"/>
<path d="M53.0029 160.336V159.836V160.336ZM64.8876 157.319L65.1009 156.795L65.1009 156.795L64.8876 157.319ZM69.8155 160.769L70.2341 160.39L70.2341 160.39L69.8155 160.769ZM71.0442 172.969L71.5141 172.798L71.0442 172.969ZM69.8155 216.665L70.2341 216.739L70.2341 216.739L69.8155 216.665ZM64.8876 223.702L65.1009 224.07L65.1009 224.07L64.8876 223.702ZM53.0029 229.336V229.836V229.336ZM21.0937 239.918L20.8302 240.428L20.8303 240.428L21.0937 239.918ZM18.7105 236.904L18.2484 237.163L18.2484 237.163L18.7105 236.904ZM21.1689 227.469L21.5993 227.513L21.5993 227.513L21.1689 227.469ZM29.8372 203.267L30.2676 203.311L30.3502 203.08L30.2675 202.91L29.8372 203.267ZM21.1689 185.376L20.7386 185.734L20.7386 185.734L21.1689 185.376ZM18.7105 177.731L18.2484 177.809L18.2484 177.809L18.7105 177.731ZM21.0937 172.982L20.8303 172.664L20.8302 172.664L21.0937 172.982ZM283.985 77.1977L284.248 76.6878L284.248 76.6878L283.985 77.1977ZM286.369 80.2118L286.831 79.9531V79.9531L286.369 80.2118ZM283.91 89.6467L283.48 89.6026V89.6026L283.91 89.6467ZM275.242 113.849L274.812 113.804L274.729 114.035L274.812 114.206L275.242 113.849ZM283.91 131.739L284.341 131.382V131.382L283.91 131.739ZM286.369 139.385L286.831 139.307V139.307L286.369 139.385ZM283.985 144.134L284.248 144.452V144.452L283.985 144.134ZM252.076 156.78V157.28V156.78ZM240.192 159.797L239.978 160.32L239.978 160.32L240.192 159.797ZM235.264 156.347L234.845 156.726V156.726L235.264 156.347ZM234.034 144.147L233.564 144.318L234.034 144.147ZM234.034 113.546L233.564 113.717L234.034 113.546ZM235.264 100.451L234.845 100.377V100.377L235.264 100.451ZM240.192 93.4134L239.978 93.0456L239.978 93.0456L240.192 93.4134ZM252.076 87.7801V87.2801V87.7801ZM53.0029 160.336V160.836C56.1681 159.684 58.5139 158.83 60.3705 158.316C62.2218 157.803 63.5455 157.64 64.6743 157.842L64.8876 157.319L65.1009 156.795C63.8176 156.567 62.3565 156.763 60.4472 157.292C58.5433 157.819 56.1527 158.689 53.0029 159.836V160.336ZM64.8876 157.319L64.6743 157.842C66.7076 158.204 68.3608 159.362 69.3968 161.148L69.8155 160.769L70.2341 160.39C69.108 158.448 67.311 157.189 65.1009 156.795L64.8876 157.319ZM69.8155 160.769L69.3968 161.148C69.9719 162.14 70.2712 163.44 70.4224 165.355C70.574 167.276 70.5744 169.772 70.5744 173.14L71.0442 172.969L71.5141 172.798C71.5141 169.446 71.5145 166.902 71.359 164.933C71.203 162.958 70.8879 161.517 70.2341 160.39L69.8155 160.769ZM71.0442 172.969L70.5744 173.14V203.74L71.0442 203.569L71.5141 203.398V172.798L71.0442 172.969ZM71.0442 203.569L70.5744 203.74C70.5744 207.108 70.5741 209.605 70.4224 211.636C70.2713 213.662 69.972 215.179 69.3968 216.59L69.8155 216.665L70.2341 216.739C70.888 215.135 71.2031 213.466 71.359 211.377C71.5145 209.294 71.5141 206.75 71.5141 203.398L71.0442 203.569ZM69.8155 216.665L69.3968 216.59C68.3608 219.131 66.7076 221.492 64.6743 223.334L64.8876 223.702L65.1009 224.07C67.311 222.067 69.1079 219.501 70.2341 216.739L69.8155 216.665ZM64.8876 223.702L64.6743 223.334C63.5455 224.357 62.2218 225.158 60.3706 225.992C58.5138 226.829 56.1681 227.684 53.0029 228.836V229.336V229.836C56.1526 228.689 58.5432 227.82 60.4471 226.961C62.3564 226.1 63.8176 225.233 65.1009 224.07L64.8876 223.702ZM53.0029 229.336V228.836L29.4316 237.415V237.915V238.415L53.0029 229.836V229.336ZM29.4316 237.915V237.415C27.1207 238.256 25.4195 238.875 24.1158 239.223C22.8127 239.571 21.9744 239.629 21.3571 239.408L21.0937 239.918L20.8303 240.428C21.6448 240.719 22.6737 240.612 24.0306 240.25C25.387 239.888 27.1389 239.249 29.4316 238.415V237.915ZM21.0937 239.918L21.3571 239.408C20.2103 238.999 19.4235 238.004 19.1726 236.645L18.7105 236.904L18.2484 237.163C18.5449 238.768 19.4746 239.945 20.8302 240.428L21.0937 239.918ZM18.7105 236.904L19.1726 236.645C19.0376 235.914 19.1608 234.953 19.575 233.481C19.9894 232.009 20.6716 230.103 21.5993 227.513L21.1689 227.469L20.7386 227.425C19.8183 229.995 19.1148 231.958 18.6836 233.489C18.2523 235.022 18.0703 236.198 18.2484 237.163L18.7105 236.904ZM21.1689 227.469L21.5993 227.513L30.2676 203.311L29.8372 203.267L29.4069 203.223L20.7386 227.425L21.1689 227.469ZM29.8372 203.267L30.2675 202.91L21.5993 185.019L21.1689 185.376L20.7386 185.734L29.4069 203.625L29.8372 203.267ZM21.1689 185.376L21.5993 185.019C20.6716 183.104 19.9894 181.695 19.575 180.524C19.1608 179.354 19.0376 178.483 19.1726 177.653L18.7105 177.731L18.2484 177.809C18.0704 178.903 18.2523 179.947 18.6837 181.165C19.1148 182.383 19.8182 183.834 20.7386 185.734L21.1689 185.376ZM18.7105 177.731L19.1726 177.653C19.4234 176.112 20.2103 174.544 21.3571 173.3L21.0937 172.982L20.8302 172.664C19.4747 174.134 18.5448 175.988 18.2484 177.809L18.7105 177.731ZM21.0937 172.982L21.3571 173.3C21.9745 172.63 22.8128 172.078 24.1159 171.477C25.4196 170.876 27.1208 170.256 29.4316 169.415V168.915V168.415C27.1388 169.249 25.387 169.887 24.0305 170.512C22.6736 171.138 21.6447 171.78 20.8303 172.664L21.0937 172.982ZM29.4316 168.915V169.415L53.0029 160.836V160.336V159.836L29.4316 168.415V168.915ZM275.648 79.2009V79.7009C277.958 78.8599 279.659 78.2412 280.963 77.8931C282.266 77.5451 283.104 77.4876 283.721 77.7076L283.985 77.1977L284.248 76.6878C283.433 76.3975 282.405 76.5039 281.048 76.8662C279.692 77.2284 277.94 77.8665 275.648 78.7009V79.2009ZM283.985 77.1977L283.721 77.7076C284.868 78.1166 285.656 79.1121 285.907 80.4706L286.369 80.2118L286.831 79.9531C286.534 78.3476 285.604 77.1712 284.248 76.6878L283.985 77.1977ZM286.369 80.2118L285.907 80.4705C286.042 81.2017 285.918 82.1629 285.504 83.6343C285.09 85.1063 284.408 87.0128 283.48 89.6026L283.91 89.6467L284.341 89.6907C285.261 87.1212 285.964 85.1581 286.396 83.6265C286.827 82.0942 287.009 80.9177 286.831 79.9531L286.369 80.2118ZM283.91 89.6467L283.48 89.6026L274.812 113.804L275.242 113.849L275.672 113.893L284.341 89.6907L283.91 89.6467ZM275.242 113.849L274.812 114.206L283.48 132.097L283.91 131.739L284.341 131.382L275.672 113.491L275.242 113.849ZM283.91 131.739L283.48 132.097C284.408 134.011 285.09 135.421 285.504 136.592C285.918 137.761 286.042 138.633 285.907 139.462L286.369 139.385L286.831 139.307C287.009 138.213 286.827 137.169 286.396 135.951C285.964 134.733 285.261 133.282 284.341 131.382L283.91 131.739ZM286.369 139.385L285.907 139.462C285.656 141.003 284.868 142.572 283.721 143.816L283.985 144.134L284.248 144.452C285.604 142.982 286.534 141.128 286.831 139.307L286.369 139.385ZM283.985 144.134L283.721 143.816C283.104 144.486 282.266 145.038 280.963 145.639C279.659 146.24 277.958 146.86 275.648 147.701V148.201V148.701C277.94 147.866 279.692 147.229 281.048 146.604C282.405 145.978 283.434 145.336 284.248 144.452L283.985 144.134ZM275.648 148.201V147.701L252.076 156.28V156.78V157.28L275.648 148.701V148.201ZM252.076 156.78V156.28C248.911 157.432 246.565 158.285 244.709 158.8C242.857 159.312 241.534 159.475 240.405 159.274L240.192 159.797L239.978 160.32C241.262 160.549 242.723 160.353 244.632 159.824C246.536 159.297 248.926 158.427 252.076 157.28V156.78ZM240.192 159.797L240.405 159.274C238.372 158.912 236.718 157.754 235.682 155.967L235.264 156.347L234.845 156.726C235.971 158.668 237.768 159.926 239.978 160.32L240.192 159.797ZM235.264 156.347L235.682 155.967C235.107 154.975 234.808 153.676 234.656 151.761C234.504 149.84 234.504 147.344 234.504 143.976L234.034 144.147L233.564 144.318C233.564 147.67 233.564 150.214 233.72 152.183C233.876 154.158 234.191 155.598 234.845 156.726L235.264 156.347ZM234.034 144.147L234.504 143.976V113.375L234.034 113.546L233.564 113.717V144.318L234.034 144.147ZM234.034 113.546L234.504 113.375C234.504 110.007 234.504 107.51 234.656 105.479C234.808 103.454 235.107 101.936 235.682 100.526L235.264 100.451L234.845 100.377C234.191 101.98 233.876 103.65 233.72 105.739C233.564 107.821 233.564 110.365 233.564 113.717L234.034 113.546ZM235.264 100.451L235.682 100.526C236.718 97.9849 238.372 95.6239 240.405 93.7813L240.192 93.4134L239.978 93.0456C237.768 95.0484 235.971 97.6147 234.845 100.377L235.264 100.451ZM240.192 93.4134L240.405 93.7813C241.534 92.7585 242.857 91.9582 244.709 91.1235C246.565 90.2863 248.911 89.4322 252.076 88.2801V87.7801V87.2801C248.927 88.4266 246.536 89.2962 244.632 90.1547C242.723 91.0156 241.262 91.8827 239.978 93.0456L240.192 93.4134ZM252.076 87.7801V88.2801L275.648 79.7009V79.2009V78.7009L252.076 87.2801V87.7801Z" fill="url(#paint0_linear_2_2471)" style="mix-blend-mode:darken" mask="url(#path-1-inside-1_2_2471)"/>
</g>
<g style="mix-blend-mode:overlay" opacity="0.4">
<path d="M53.0029 160.336C59.318 158.037 62.4755 156.889 64.8876 157.319C67.0093 157.697 68.7344 158.905 69.8155 160.769C71.0444 162.889 71.0442 166.249 71.0442 172.969V203.569C71.0442 210.29 71.0445 213.65 69.8155 216.665C68.7344 219.316 67.0093 221.78 64.8876 223.702C62.4755 225.888 59.3179 227.037 53.0029 229.336L29.4316 237.915C24.828 239.59 22.5255 240.429 21.0937 239.918C19.8424 239.472 18.9842 238.386 18.7105 236.904C18.3974 235.208 19.321 232.628 21.1689 227.469L29.8372 203.267L21.1689 185.376C19.3209 181.562 18.3975 179.655 18.7105 177.731C18.9841 176.05 19.8425 174.339 21.0937 172.982C22.5255 171.429 24.828 170.59 29.4316 168.915L53.0029 160.336ZM275.648 79.2009C280.251 77.5254 282.553 76.6874 283.985 77.1977C285.236 77.6439 286.095 78.7298 286.369 80.2118C286.682 81.9075 285.758 84.4873 283.91 89.6467L275.242 113.849L283.91 131.739C285.758 135.554 286.682 137.461 286.369 139.385C286.095 141.066 285.236 142.777 283.985 144.134C282.553 145.687 280.251 146.525 275.648 148.201L252.076 156.78C245.761 159.079 242.604 160.227 240.192 159.797C238.07 159.419 236.345 158.211 235.264 156.347C234.035 154.227 234.034 150.867 234.034 144.147V113.546C234.034 106.826 234.035 103.465 235.264 100.451C236.345 97.7998 238.07 95.3361 240.192 93.4134C242.604 91.2277 245.761 90.0786 252.076 87.7801L275.648 79.2009Z" fill="url(#paint1_linear_2_2471)"/>
</g>
<path d="M53.0029 160.336C59.318 158.037 62.4755 156.889 64.8876 157.319C67.0093 157.697 68.7344 158.905 69.8155 160.769C71.0444 162.889 71.0442 166.249 71.0442 172.969V203.569C71.0442 210.29 71.0445 213.65 69.8155 216.665C68.7344 219.316 67.0093 221.78 64.8876 223.702C62.4755 225.888 59.3179 227.037 53.0029 229.336L29.4316 237.915C24.828 239.59 22.5255 240.429 21.0937 239.918C19.8424 239.472 18.9842 238.386 18.7105 236.904C18.3974 235.208 19.321 232.628 21.1689 227.469L29.8372 203.267L21.1689 185.376C19.3209 181.562 18.3975 179.655 18.7105 177.731C18.9841 176.05 19.8425 174.339 21.0937 172.982C22.5255 171.429 24.828 170.59 29.4316 168.915L53.0029 160.336ZM275.648 79.2009C280.251 77.5254 282.553 76.6874 283.985 77.1977C285.236 77.6439 286.095 78.7298 286.369 80.2118C286.682 81.9075 285.758 84.4873 283.91 89.6467L275.242 113.849L283.91 131.739C285.758 135.554 286.682 137.461 286.369 139.385C286.095 141.066 285.236 142.777 283.985 144.134C282.553 145.687 280.251 146.525 275.648 148.201L252.076 156.78C245.761 159.079 242.604 160.227 240.192 159.797C238.07 159.419 236.345 158.211 235.264 156.347C234.035 154.227 234.034 150.867 234.034 144.147V113.546C234.034 106.826 234.035 103.465 235.264 100.451C236.345 97.7998 238.07 95.3361 240.192 93.4134C242.604 91.2277 245.761 90.0786 252.076 87.7801L275.648 79.2009Z" fill="black" fill-opacity="0.24" style="mix-blend-mode:overlay"/>
<path d="M53.0029 160.336C59.318 158.037 62.4755 156.889 64.8876 157.319C67.0093 157.697 68.7344 158.905 69.8155 160.769C71.0444 162.889 71.0442 166.249 71.0442 172.969V203.569C71.0442 210.29 71.0445 213.65 69.8155 216.665C68.7344 219.316 67.0093 221.78 64.8876 223.702C62.4755 225.888 59.3179 227.037 53.0029 229.336L29.4316 237.915C24.828 239.59 22.5255 240.429 21.0937 239.918C19.8424 239.472 18.9842 238.386 18.7105 236.904C18.3974 235.208 19.321 232.628 21.1689 227.469L29.8372 203.267L21.1689 185.376C19.3209 181.562 18.3975 179.655 18.7105 177.731C18.9841 176.05 19.8425 174.339 21.0937 172.982C22.5255 171.429 24.828 170.59 29.4316 168.915L53.0029 160.336ZM275.648 79.2009C280.251 77.5254 282.553 76.6874 283.985 77.1977C285.236 77.6439 286.095 78.7298 286.369 80.2118C286.682 81.9075 285.758 84.4873 283.91 89.6467L275.242 113.849L283.91 131.739C285.758 135.554 286.682 137.461 286.369 139.385C286.095 141.066 285.236 142.777 283.985 144.134C282.553 145.687 280.251 146.525 275.648 148.201L252.076 156.78C245.761 159.079 242.604 160.227 240.192 159.797C238.07 159.419 236.345 158.211 235.264 156.347C234.035 154.227 234.034 150.867 234.034 144.147V113.546C234.034 106.826 234.035 103.465 235.264 100.451C236.345 97.7998 238.07 95.3361 240.192 93.4134C242.604 91.2277 245.761 90.0786 252.076 87.7801L275.648 79.2009Z" fill="black" fill-opacity="0.12" style="mix-blend-mode:darken"/>
<g filter="url(#filter1_dddd_2_2471)">
<circle cx="152.944" cy="140.564" r="96" fill="white"/>
</g>
<mask id="mask0_2_2471" style="mask-type:alpha" maskUnits="userSpaceOnUse" x="56" y="44" width="193" height="193">
<circle cx="152.944" cy="140.564" r="96" fill="white"/>
</mask>
<g mask="url(#mask0_2_2471)">
<mask id="mask1_2_2471" style="mask-type:alpha" maskUnits="userSpaceOnUse" x="56" y="44" width="193" height="193">
<circle cx="152.944" cy="140.564" r="96" fill="white"/>
</mask>
<g mask="url(#mask1_2_2471)">
<rect x="12.9443" y="0.563965" width="280" height="280" fill="url(#paint2_linear_2_2471)"/>
<rect x="12.9443" y="0.563965" width="280" height="280" fill="url(#paint3_linear_2_2471)" fill-opacity="0.6" style="mix-blend-mode:overlay"/>
<rect x="12.9443" y="0.563965" width="280" height="280" fill="url(#paint4_radial_2_2471)" fill-opacity="0.6" style="mix-blend-mode:overlay"/>
<rect x="12.9443" y="0.563965" width="280" height="280" fill="black" fill-opacity="0.12" style="mix-blend-mode:overlay"/>
<rect x="12.9443" y="0.563965" width="280" height="280" fill="black" fill-opacity="0.12" style="mix-blend-mode:darken"/>
</g>
<g filter="url(#filter2_d_2_2471)">
<mask id="mask2_2_2471" style="mask-type:alpha" maskUnits="userSpaceOnUse" x="56" y="44" width="193" height="193">
<path d="M152.944 44.564C205.964 44.564 248.944 87.5446 248.944 140.564C248.944 193.583 205.964 236.564 152.944 236.564C99.925 236.564 56.9443 193.583 56.9443 140.564C56.9443 87.5446 99.925 44.564 152.944 44.564ZM152.944 52.564C104.343 52.564 64.9443 91.9629 64.9443 140.564C64.9443 189.165 104.343 228.564 152.944 228.564C201.545 228.564 240.944 189.165 240.944 140.564C240.944 91.9629 201.545 52.564 152.944 52.564ZM143.521 69.894C149.137 65.803 156.75 65.8029 162.365 69.894C163.266 70.5507 164.205 71.4586 166.081 73.2739C167.075 74.2355 167.573 74.7167 168.082 75.1343C171.19 77.6812 175.143 78.9656 179.154 78.7319C179.812 78.6936 180.497 78.5965 181.866 78.4028C184.452 78.0372 185.744 77.8545 186.859 77.853C193.807 77.8437 199.967 82.3188 202.104 88.9292C202.448 89.9901 202.673 91.2765 203.124 93.8481C203.363 95.2098 203.483 95.8907 203.649 96.5278C204.667 100.415 207.11 103.778 210.493 105.947C211.048 106.302 211.658 106.627 212.88 107.275C215.186 108.499 216.339 109.111 217.242 109.765C222.868 113.841 225.221 121.082 223.065 127.687C222.719 128.747 222.146 129.92 221 132.265C220.393 133.508 220.088 134.129 219.849 134.743C218.387 138.486 218.387 142.642 219.849 146.385C220.088 146.999 220.393 147.62 221 148.863C222.146 151.208 222.719 152.381 223.065 153.441C225.221 160.046 222.868 167.287 217.242 171.363C216.339 172.017 215.186 172.629 212.88 173.853C211.658 174.501 211.048 174.826 210.493 175.181C207.11 177.35 204.667 180.712 203.649 184.6C203.483 185.237 203.363 185.918 203.124 187.28C202.673 189.851 202.448 191.138 202.104 192.199C199.967 198.809 193.807 203.284 186.859 203.275C185.744 203.273 184.452 203.091 181.866 202.725C180.497 202.531 179.812 202.434 179.154 202.396C175.143 202.162 171.19 203.447 168.082 205.994C167.573 206.411 167.075 206.892 166.081 207.854C164.205 209.669 163.266 210.577 162.365 211.234C156.75 215.325 149.137 215.325 143.521 211.234C142.62 210.577 141.681 209.669 139.805 207.854C138.811 206.893 138.314 206.411 137.805 205.994C134.697 203.447 130.743 202.162 126.731 202.396C126.074 202.434 125.389 202.531 124.021 202.725C121.435 203.091 120.142 203.273 119.027 203.275C112.08 203.284 105.92 198.809 103.782 192.199C103.439 191.138 103.213 189.852 102.762 187.28C102.523 185.918 102.404 185.237 102.237 184.6C101.22 180.713 98.7764 177.35 95.3936 175.181C94.839 174.826 94.2283 174.501 93.0068 173.853C90.7003 172.629 89.5465 172.017 88.6436 171.363C83.0175 167.287 80.6645 160.045 82.8203 153.441C83.1663 152.381 83.7402 151.208 84.8867 148.863C85.494 147.62 85.7974 146.999 86.0371 146.385C87.4992 142.642 87.4992 138.486 86.0371 134.743C85.7974 134.129 85.494 133.507 84.8867 132.265C83.7402 129.92 83.1663 128.747 82.8203 127.687C80.6645 121.082 83.0175 113.841 88.6436 109.765C89.5465 109.111 90.7003 108.499 93.0068 107.275C94.2283 106.627 94.839 106.302 95.3936 105.947C98.7765 103.778 101.22 100.415 102.237 96.5278C102.404 95.8908 102.523 95.2096 102.762 93.8481C103.213 91.2764 103.439 89.9901 103.782 88.9292C105.92 82.3188 112.08 77.8436 119.027 77.853C120.142 77.8546 121.435 78.0372 124.021 78.4028C125.389 78.5965 126.074 78.6936 126.731 78.7319C130.743 78.9657 134.697 77.6814 137.805 75.1343C138.314 74.7167 138.811 74.2354 139.805 73.2739C141.681 71.4584 142.62 70.5507 143.521 69.894ZM152.944 86.564C123.121 86.564 98.9443 110.741 98.9443 140.564C98.9443 170.387 123.121 194.564 152.944 194.564C182.768 194.564 206.944 170.387 206.944 140.564C206.944 110.741 182.768 86.5641 152.944 86.564Z" fill="white"/>
</mask>
<g mask="url(#mask2_2_2471)">
<rect x="12.9443" y="0.563965" width="280" height="280" fill="url(#paint5_linear_2_2471)"/>
<rect x="12.9443" y="0.563965" width="280" height="280" fill="url(#paint6_linear_2_2471)" fill-opacity="0.6" style="mix-blend-mode:overlay"/>
<rect x="12.9443" y="0.563965" width="280" height="280" fill="url(#paint7_radial_2_2471)" fill-opacity="0.6" style="mix-blend-mode:overlay"/>
<g style="mix-blend-mode:soft-light">
<path fill-rule="evenodd" clip-rule="evenodd" d="M12.9443 0.563965H180.944L127.327 280.564H12.9443V0.563965Z" fill="url(#paint8_linear_2_2471)" style="mix-blend-mode:lighten"/>
</g>
<g style="mix-blend-mode:soft-light">
<mask id="path-15-inside-2_2_2471" fill="white">
<path d="M152.944 44.564C205.964 44.564 248.944 87.5446 248.944 140.564C248.944 193.583 205.964 236.564 152.944 236.564C99.925 236.564 56.9443 193.583 56.9443 140.564C56.9443 87.5446 99.925 44.564 152.944 44.564ZM152.944 52.564C104.343 52.564 64.9443 91.9629 64.9443 140.564C64.9443 189.165 104.343 228.564 152.944 228.564C201.545 228.564 240.944 189.165 240.944 140.564C240.944 91.9629 201.545 52.564 152.944 52.564ZM143.521 69.894C149.137 65.803 156.75 65.8029 162.365 69.894C163.266 70.5507 164.205 71.4586 166.081 73.2739C167.075 74.2355 167.573 74.7167 168.082 75.1343C171.19 77.6812 175.143 78.9656 179.154 78.7319C179.812 78.6936 180.497 78.5965 181.866 78.4028C184.452 78.0372 185.744 77.8545 186.859 77.853C193.807 77.8437 199.967 82.3188 202.104 88.9292C202.448 89.9901 202.673 91.2765 203.124 93.8481C203.363 95.2098 203.483 95.8907 203.649 96.5278C204.667 100.415 207.11 103.778 210.493 105.947C211.048 106.302 211.658 106.627 212.88 107.275C215.186 108.499 216.339 109.111 217.242 109.765C222.868 113.841 225.221 121.082 223.065 127.687C222.719 128.747 222.146 129.92 221 132.265C220.393 133.508 220.088 134.129 219.849 134.743C218.387 138.486 218.387 142.642 219.849 146.385C220.088 146.999 220.393 147.62 221 148.863C222.146 151.208 222.719 152.381 223.065 153.441C225.221 160.046 222.868 167.287 217.242 171.363C216.339 172.017 215.186 172.629 212.88 173.853C211.658 174.501 211.048 174.826 210.493 175.181C207.11 177.35 204.667 180.712 203.649 184.6C203.483 185.237 203.363 185.918 203.124 187.28C202.673 189.851 202.448 191.138 202.104 192.199C199.967 198.809 193.807 203.284 186.859 203.275C185.744 203.273 184.452 203.091 181.866 202.725C180.497 202.531 179.812 202.434 179.154 202.396C175.143 202.162 171.19 203.447 168.082 205.994C167.573 206.411 167.075 206.892 166.081 207.854C164.205 209.669 163.266 210.577 162.365 211.234C156.75 215.325 149.137 215.325 143.521 211.234C142.62 210.577 141.681 209.669 139.805 207.854C138.811 206.893 138.314 206.411 137.805 205.994C134.697 203.447 130.743 202.162 126.731 202.396C126.074 202.434 125.389 202.531 124.021 202.725C121.435 203.091 120.142 203.273 119.027 203.275C112.08 203.284 105.92 198.809 103.782 192.199C103.439 191.138 103.213 189.852 102.762 187.28C102.523 185.918 102.404 185.237 102.237 184.6C101.22 180.713 98.7764 177.35 95.3936 175.181C94.839 174.826 94.2283 174.501 93.0068 173.853C90.7003 172.629 89.5465 172.017 88.6436 171.363C83.0175 167.287 80.6645 160.045 82.8203 153.441C83.1663 152.381 83.7402 151.208 84.8867 148.863C85.494 147.62 85.7974 146.999 86.0371 146.385C87.4992 142.642 87.4992 138.486 86.0371 134.743C85.7974 134.129 85.494 133.507 84.8867 132.265C83.7402 129.92 83.1663 128.747 82.8203 127.687C80.6645 121.082 83.0175 113.841 88.6436 109.765C89.5465 109.111 90.7003 108.499 93.0068 107.275C94.2283 106.627 94.839 106.302 95.3936 105.947C98.7765 103.778 101.22 100.415 102.237 96.5278C102.404 95.8908 102.523 95.2096 102.762 93.8481C103.213 91.2764 103.439 89.9901 103.782 88.9292C105.92 82.3188 112.08 77.8436 119.027 77.853C120.142 77.8546 121.435 78.0372 124.021 78.4028C125.389 78.5965 126.074 78.6936 126.731 78.7319C130.743 78.9657 134.697 77.6814 137.805 75.1343C138.314 74.7167 138.811 74.2354 139.805 73.2739C141.681 71.4584 142.62 70.5507 143.521 69.894ZM152.944 86.564C123.121 86.564 98.9443 110.741 98.9443 140.564C98.9443 170.387 123.121 194.564 152.944 194.564C182.768 194.564 206.944 170.387 206.944 140.564C206.944 110.741 182.768 86.5641 152.944 86.564Z"/>
</mask>
<path d="M143.521 69.894L143.227 69.4899L143.227 69.4899L143.521 69.894ZM162.365 69.894L162.66 69.4899V69.4899L162.365 69.894ZM166.081 73.2739L165.733 73.6333L166.081 73.2739ZM168.082 75.1343L167.765 75.521L167.765 75.521L168.082 75.1343ZM179.154 78.7319L179.183 79.2311H179.183L179.154 78.7319ZM181.866 78.4028L181.796 77.9078L181.866 78.4028ZM186.859 77.853L186.859 77.353L186.859 77.853ZM202.104 88.9292L202.58 88.7753V88.7753L202.104 88.9292ZM203.124 93.8481L202.632 93.9345L203.124 93.8481ZM203.649 96.5278L203.166 96.6544V96.6544L203.649 96.5278ZM210.493 105.947L210.223 106.368L210.223 106.368L210.493 105.947ZM212.88 107.275L212.646 107.717L212.88 107.275ZM217.242 109.765L217.536 109.36L217.536 109.36L217.242 109.765ZM223.065 127.687L223.541 127.842V127.842L223.065 127.687ZM221 132.265L221.449 132.485L221 132.265ZM219.849 134.743L219.383 134.561V134.561L219.849 134.743ZM219.849 146.385L219.383 146.567V146.567L219.849 146.385ZM221 148.863L221.449 148.643L221 148.863ZM223.065 153.441L223.541 153.286V153.286L223.065 153.441ZM217.242 171.363L217.536 171.768L217.536 171.768L217.242 171.363ZM212.88 173.853L212.646 173.411L212.88 173.853ZM210.493 175.181L210.223 174.76L210.493 175.181ZM203.649 184.6L203.166 184.474V184.474L203.649 184.6ZM203.124 187.28L202.632 187.193L203.124 187.28ZM202.104 192.199L202.58 192.353V192.353L202.104 192.199ZM186.859 203.275L186.859 203.775L186.859 203.275ZM181.866 202.725L181.796 203.22L181.866 202.725ZM179.154 202.396L179.183 201.897L179.183 201.897L179.154 202.396ZM168.082 205.994L167.765 205.607L167.765 205.607L168.082 205.994ZM166.081 207.854L165.733 207.495L166.081 207.854ZM162.365 211.234L162.66 211.638L162.365 211.234ZM143.521 211.234L143.227 211.638H143.227L143.521 211.234ZM139.805 207.854L139.457 208.213L139.805 207.854ZM137.805 205.994L138.122 205.607H138.122L137.805 205.994ZM126.731 202.396L126.702 201.897H126.702L126.731 202.396ZM124.021 202.725L124.091 203.22L124.021 202.725ZM119.027 203.275L119.028 203.775H119.028L119.027 203.275ZM103.782 192.199L103.306 192.353V192.353L103.782 192.199ZM102.762 187.28L102.269 187.366L102.762 187.28ZM102.237 184.6L102.721 184.474L102.721 184.474L102.237 184.6ZM95.3936 175.181L95.6634 174.76L95.6634 174.76L95.3936 175.181ZM93.0068 173.853L93.2412 173.411L93.0068 173.853ZM88.6436 171.363L88.3502 171.768L88.3502 171.768L88.6436 171.363ZM82.8203 153.441L82.345 153.286L82.345 153.286L82.8203 153.441ZM84.8867 148.863L85.3359 149.082L84.8867 148.863ZM86.0371 146.385L86.5028 146.567H86.5028L86.0371 146.385ZM86.0371 134.743L86.5028 134.561H86.5028L86.0371 134.743ZM84.8867 132.265L85.3359 132.046L84.8867 132.265ZM82.8203 127.687L82.345 127.842L82.345 127.842L82.8203 127.687ZM88.6436 109.765L88.3502 109.36L88.3502 109.36L88.6436 109.765ZM93.0068 107.275L93.2412 107.717L93.0068 107.275ZM95.3936 105.947L95.6634 106.368L95.6634 106.368L95.3936 105.947ZM102.237 96.5278L102.721 96.6544L102.721 96.6544L102.237 96.5278ZM102.762 93.8481L103.254 93.9345L102.762 93.8481ZM103.782 88.9292L103.306 88.7753V88.7753L103.782 88.9292ZM119.027 77.853L119.028 77.353H119.028L119.027 77.853ZM124.021 78.4028L124.091 77.9078L124.021 78.4028ZM126.731 78.7319L126.702 79.2311H126.702L126.731 78.7319ZM137.805 75.1343L138.122 75.521L138.122 75.521L137.805 75.1343ZM139.805 73.2739L139.457 72.9146L139.805 73.2739ZM152.944 86.564V86.064V86.564ZM98.9443 140.564H98.4443H98.9443ZM152.944 194.564V195.064V194.564ZM206.944 140.564H207.444H206.944ZM152.944 44.564V45.064C205.688 45.064 248.444 87.8208 248.444 140.564H248.944H249.444C249.444 87.2685 206.24 44.064 152.944 44.064V44.564ZM248.944 140.564H248.444C248.444 193.307 205.688 236.064 152.944 236.064V236.564V237.064C206.24 237.064 249.444 193.859 249.444 140.564H248.944ZM152.944 236.564V236.064C100.201 236.064 57.4443 193.307 57.4443 140.564H56.9443H56.4443C56.4443 193.859 99.6489 237.064 152.944 237.064V236.564ZM56.9443 140.564H57.4443C57.4443 87.8208 100.201 45.064 152.944 45.064V44.564V44.064C99.6489 44.064 56.4443 87.2685 56.4443 140.564H56.9443ZM152.944 52.564V52.064C104.067 52.064 64.4443 91.6868 64.4443 140.564H64.9443H65.4443C65.4443 92.239 104.619 53.064 152.944 53.064V52.564ZM64.9443 140.564H64.4443C64.4443 189.441 104.067 229.064 152.944 229.064V228.564V228.064C104.619 228.064 65.4443 188.889 65.4443 140.564H64.9443ZM152.944 228.564V229.064C201.822 229.064 241.444 189.441 241.444 140.564H240.944H240.444C240.444 188.889 201.269 228.064 152.944 228.064V228.564ZM240.944 140.564H241.444C241.444 91.6868 201.822 52.064 152.944 52.064V52.564V53.064C201.269 53.064 240.444 92.239 240.444 140.564H240.944ZM143.521 69.894L143.816 70.2982C149.256 66.3349 156.631 66.3348 162.071 70.2982L162.365 69.894L162.66 69.4899C156.869 65.2709 149.018 65.271 143.227 69.4899L143.521 69.894ZM162.365 69.894L162.071 70.2982C162.937 70.9291 163.845 71.8063 165.733 73.6333L166.081 73.2739L166.429 72.9146C164.564 71.1109 163.596 70.1722 162.66 69.4899L162.365 69.894ZM166.081 73.2739L165.733 73.6333C166.721 74.589 167.236 75.0873 167.765 75.521L168.082 75.1343L168.399 74.7476C167.909 74.3461 167.429 73.8819 166.429 72.9146L166.081 73.2739ZM168.082 75.1343L167.765 75.521C170.97 78.1476 175.047 79.4721 179.183 79.2311L179.154 78.7319L179.125 78.2328C175.239 78.4592 171.41 77.2149 168.399 74.7475L168.082 75.1343ZM179.154 78.7319L179.183 79.2311C179.866 79.1913 180.575 79.0904 181.936 78.8979L181.866 78.4028L181.796 77.9078C180.418 78.1026 179.757 78.1959 179.125 78.2328L179.154 78.7319ZM181.866 78.4028L181.936 78.8979C184.538 78.5299 185.789 78.3545 186.86 78.353L186.859 77.853L186.859 77.353C185.7 77.3546 184.365 77.5444 181.796 77.9078L181.866 78.4028ZM186.859 77.853L186.86 78.353C193.59 78.344 199.558 82.6792 201.629 89.0831L202.104 88.9292L202.58 88.7753C200.375 81.9583 194.023 77.3434 186.859 77.353L186.859 77.853ZM202.104 88.9292L201.629 89.0831C201.958 90.1025 202.178 91.3463 202.632 93.9345L203.124 93.8481L203.617 93.7618C203.168 91.2066 202.937 89.8778 202.58 88.7753L202.104 88.9292ZM203.124 93.8481L202.632 93.9345C202.869 95.2882 202.993 95.9928 203.166 96.6544L203.649 96.5278L204.133 96.4013C203.973 95.7887 203.857 95.1314 203.617 93.7618L203.124 93.8481ZM203.649 96.5278L203.166 96.6544C204.215 100.664 206.735 104.131 210.223 106.368L210.493 105.947L210.763 105.526C207.486 103.425 205.119 100.167 204.133 96.4013L203.649 96.5278ZM210.493 105.947L210.223 106.368C210.799 106.737 211.431 107.072 212.646 107.717L212.88 107.275L213.114 106.833C211.885 106.181 211.296 105.868 210.763 105.526L210.493 105.947ZM212.88 107.275L212.646 107.717C214.967 108.948 216.081 109.541 216.949 110.17L217.242 109.765L217.536 109.36C216.597 108.681 215.406 108.049 213.114 106.833L212.88 107.275ZM217.242 109.765L216.949 110.17C222.399 114.119 224.679 121.134 222.59 127.532L223.065 127.687L223.541 127.842C225.764 121.031 223.338 113.564 217.536 109.36L217.242 109.765ZM223.065 127.687L222.59 127.532C222.258 128.55 221.705 129.685 220.551 132.046L221 132.265L221.449 132.485C222.588 130.154 223.181 128.943 223.541 127.842L223.065 127.687ZM221 132.265L220.551 132.046C219.947 133.28 219.632 133.923 219.383 134.561L219.849 134.743L220.314 134.925C220.545 134.335 220.838 133.735 221.449 132.485L221 132.265ZM219.849 134.743L219.383 134.561C217.875 138.421 217.875 142.707 219.383 146.567L219.849 146.385L220.314 146.203C218.898 142.577 218.898 138.551 220.314 134.925L219.849 134.743ZM219.849 146.385L219.383 146.567C219.632 147.204 219.947 147.848 220.551 149.082L221 148.863L221.449 148.643C220.838 147.393 220.545 146.793 220.314 146.203L219.849 146.385ZM221 148.863L220.551 149.082C221.705 151.443 222.258 152.578 222.59 153.596L223.065 153.441L223.541 153.286C223.181 152.184 222.588 150.974 221.449 148.643L221 148.863ZM223.065 153.441L222.59 153.596C224.679 159.994 222.399 167.009 216.949 170.958L217.242 171.363L217.536 171.768C223.338 167.564 225.764 160.097 223.541 153.286L223.065 153.441ZM217.242 171.363L216.949 170.958C216.081 171.586 214.967 172.18 212.646 173.411L212.88 173.853L213.114 174.295C215.406 173.079 216.597 172.447 217.536 171.768L217.242 171.363ZM212.88 173.853L212.646 173.411C211.431 174.056 210.799 174.391 210.223 174.76L210.493 175.181L210.763 175.602C211.296 175.26 211.885 174.947 213.114 174.295L212.88 173.853ZM210.493 175.181L210.223 174.76C206.735 176.997 204.215 180.464 203.166 184.474L203.649 184.6L204.133 184.727C205.119 180.961 207.486 177.703 210.763 175.602L210.493 175.181ZM203.649 184.6L203.166 184.474C202.993 185.135 202.869 185.84 202.632 187.193L203.124 187.28L203.617 187.366C203.857 185.997 203.973 185.339 204.133 184.727L203.649 184.6ZM203.124 187.28L202.632 187.193C202.178 189.782 201.958 191.025 201.629 192.045L202.104 192.199L202.58 192.353C202.937 191.25 203.168 189.921 203.617 187.366L203.124 187.28ZM202.104 192.199L201.629 192.045C199.558 198.449 193.59 202.784 186.86 202.775L186.859 203.275L186.859 203.775C194.023 203.785 200.375 199.17 202.58 192.353L202.104 192.199ZM186.859 203.275L186.86 202.775C185.789 202.773 184.538 202.598 181.936 202.23L181.866 202.725L181.796 203.22C184.365 203.584 185.7 203.773 186.859 203.775L186.859 203.275ZM181.866 202.725L181.936 202.23C180.575 202.038 179.866 201.937 179.183 201.897L179.154 202.396L179.125 202.895C179.757 202.932 180.418 203.025 181.796 203.22L181.866 202.725ZM179.154 202.396L179.183 201.897C175.047 201.656 170.97 202.98 167.765 205.607L168.082 205.994L168.399 206.38C171.41 203.913 175.239 202.669 179.125 202.895L179.154 202.396ZM168.082 205.994L167.765 205.607C167.236 206.041 166.721 206.539 165.733 207.495L166.081 207.854L166.429 208.213C167.429 207.246 167.909 206.782 168.399 206.38L168.082 205.994ZM166.081 207.854L165.733 207.495C163.845 209.322 162.937 210.199 162.071 210.83L162.365 211.234L162.66 211.638C163.596 210.956 164.564 210.017 166.429 208.213L166.081 207.854ZM162.365 211.234L162.071 210.83C156.631 214.793 149.256 214.793 143.816 210.83L143.521 211.234L143.227 211.638C149.018 215.857 156.869 215.857 162.66 211.638L162.365 211.234ZM143.521 211.234L143.816 210.83C142.95 210.199 142.041 209.322 140.152 207.495L139.805 207.854L139.457 208.213C141.322 210.017 142.291 210.956 143.227 211.638L143.521 211.234ZM139.805 207.854L140.152 207.495C139.165 206.539 138.651 206.041 138.122 205.607L137.805 205.994L137.488 206.38C137.978 206.782 138.457 207.246 139.457 208.213L139.805 207.854ZM137.805 205.994L138.122 205.607C134.916 202.98 130.839 201.656 126.702 201.897L126.731 202.396L126.761 202.895C130.647 202.669 134.477 203.913 137.488 206.38L137.805 205.994ZM126.731 202.396L126.702 201.897C126.019 201.937 125.311 202.038 123.95 202.23L124.021 202.725L124.091 203.22C125.468 203.025 126.128 202.932 126.761 202.895L126.731 202.396ZM124.021 202.725L123.95 202.23C121.349 202.598 120.098 202.773 119.027 202.775L119.027 203.275L119.028 203.775C120.187 203.773 121.522 203.583 124.091 203.22L124.021 202.725ZM119.027 203.275L119.027 202.775C112.296 202.784 106.329 198.449 104.258 192.045L103.782 192.199L103.306 192.353C105.511 199.17 111.863 203.785 119.028 203.775L119.027 203.275ZM103.782 192.199L104.258 192.045C103.928 191.025 103.708 189.781 103.254 187.193L102.762 187.28L102.269 187.366C102.718 189.922 102.95 191.25 103.306 192.353L103.782 192.199ZM102.762 187.28L103.254 187.193C103.017 185.84 102.894 185.135 102.721 184.474L102.237 184.6L101.754 184.727C101.914 185.339 102.029 185.996 102.269 187.366L102.762 187.28ZM102.237 184.6L102.721 184.474C101.672 180.464 99.152 176.997 95.6634 174.76L95.3936 175.181L95.1237 175.602C98.4009 177.703 100.768 180.961 101.754 184.727L102.237 184.6ZM95.3936 175.181L95.6634 174.76C95.0876 174.391 94.4555 174.056 93.2412 173.411L93.0068 173.853L92.7725 174.295C94.0011 174.947 94.5905 175.26 95.1237 175.602L95.3936 175.181ZM93.0068 173.853L93.2412 173.411C90.9199 172.18 89.8046 171.587 88.9369 170.958L88.6436 171.363L88.3502 171.768C89.2885 172.447 90.4807 173.079 92.7725 174.295L93.0068 173.853ZM88.6436 171.363L88.9369 170.958C83.4867 167.009 81.2072 159.994 83.2956 153.596L82.8203 153.441L82.345 153.286C80.1218 160.097 82.5484 167.564 88.3502 171.768L88.6436 171.363ZM82.8203 153.441L83.2956 153.596C83.6281 152.578 84.1819 151.443 85.3359 149.082L84.8867 148.863L84.4375 148.643C83.2984 150.974 82.7045 152.184 82.345 153.286L82.8203 153.441ZM84.8867 148.863L85.3359 149.082C85.9397 147.847 86.254 147.204 86.5028 146.567L86.0371 146.385L85.5714 146.203C85.3409 146.793 85.0484 147.394 84.4375 148.643L84.8867 148.863ZM86.0371 146.385L86.5028 146.567C88.0106 142.707 88.0106 138.421 86.5028 134.561L86.0371 134.743L85.5714 134.925C86.9878 138.551 86.9878 142.577 85.5714 146.203L86.0371 146.385ZM86.0371 134.743L86.5028 134.561C86.254 133.924 85.9397 133.281 85.3359 132.046L84.8867 132.265L84.4375 132.485C85.0484 133.734 85.3409 134.335 85.5714 134.925L86.0371 134.743ZM84.8867 132.265L85.3359 132.046C84.1819 129.685 83.6281 128.55 83.2956 127.532L82.8203 127.687L82.345 127.842C82.7045 128.944 83.2984 130.154 84.4375 132.485L84.8867 132.265ZM82.8203 127.687L83.2956 127.532C81.2072 121.134 83.4867 114.119 88.9369 110.17L88.6436 109.765L88.3502 109.36C82.5484 113.564 80.1218 121.031 82.345 127.842L82.8203 127.687ZM88.6436 109.765L88.9369 110.17C89.8046 109.541 90.9199 108.948 93.2412 107.717L93.0068 107.275L92.7725 106.833C90.4807 108.049 89.2885 108.68 88.3502 109.36L88.6436 109.765ZM93.0068 107.275L93.2412 107.717C94.4555 107.072 95.0876 106.737 95.6634 106.368L95.3936 105.947L95.1237 105.526C94.5905 105.868 94.0011 106.181 92.7725 106.833L93.0068 107.275ZM95.3936 105.947L95.6634 106.368C99.152 104.131 101.672 100.664 102.721 96.6544L102.237 96.5278L101.754 96.4013C100.768 100.167 98.4009 103.425 95.1237 105.526L95.3936 105.947ZM102.237 96.5278L102.721 96.6544C102.894 95.9927 103.017 95.2874 103.254 93.9345L102.762 93.8481L102.269 93.7618C102.029 95.1319 101.914 95.7889 101.754 96.4013L102.237 96.5278ZM102.762 93.8481L103.254 93.9345C103.708 91.3465 103.928 90.1026 104.258 89.0831L103.782 88.9292L103.306 88.7753C102.95 89.8777 102.718 91.2062 102.269 93.7618L102.762 93.8481ZM103.782 88.9292L104.258 89.0831C106.329 82.6792 112.296 78.3439 119.027 78.353L119.027 77.853L119.028 77.353C111.863 77.3433 105.511 81.9583 103.306 88.7753L103.782 88.9292ZM119.027 77.853L119.027 78.353C120.098 78.3545 121.349 78.5299 123.95 78.8979L124.021 78.4028L124.091 77.9078C121.522 77.5444 120.187 77.3546 119.028 77.353L119.027 77.853ZM124.021 78.4028L123.95 78.8979C125.311 79.0903 126.019 79.1913 126.702 79.2311L126.731 78.7319L126.761 78.2328C126.128 78.1959 125.468 78.1026 124.091 77.9078L124.021 78.4028ZM126.731 78.7319L126.702 79.2311C130.839 79.4722 134.916 78.1478 138.122 75.521L137.805 75.1343L137.488 74.7476C134.477 77.2151 130.647 78.4593 126.761 78.2328L126.731 78.7319ZM137.805 75.1343L138.122 75.521C138.651 75.0873 139.165 74.5887 140.152 73.6333L139.805 73.2739L139.457 72.9146C138.457 73.8821 137.978 74.3462 137.488 74.7476L137.805 75.1343ZM139.805 73.2739L140.152 73.6333C142.041 71.8063 142.95 70.9291 143.816 70.2982L143.521 69.894L143.227 69.4899C142.291 70.1722 141.322 71.1106 139.457 72.9146L139.805 73.2739ZM152.944 86.564V86.064C122.845 86.064 98.4443 110.464 98.4443 140.564H98.9443H99.4443C99.4443 111.017 123.397 87.064 152.944 87.064V86.564ZM98.9443 140.564H98.4443C98.4443 170.663 122.845 195.064 152.944 195.064V194.564V194.064C123.397 194.064 99.4443 170.111 99.4443 140.564H98.9443ZM152.944 194.564V195.064C183.044 195.064 207.444 170.663 207.444 140.564H206.944H206.444C206.444 170.111 182.491 194.064 152.944 194.064V194.564ZM206.944 140.564H207.444C207.444 110.465 183.044 86.0641 152.944 86.064V86.564V87.064C182.491 87.0641 206.444 111.017 206.444 140.564H206.944Z" fill="url(#paint9_linear_2_2471)" mask="url(#path-15-inside-2_2_2471)"/>
</g>
</g>
</g>
</g>
<g filter="url(#filter3_dd_2_2471)">
<rect width="244" height="69" rx="12" transform="matrix(0.939693 -0.34202 0 1 35.999 148.704)" fill="#F4F4F5"/>
<rect x="0.234923" y="0.164495" width="243.5" height="68.5" rx="11.75" transform="matrix(0.939693 -0.34202 0 1 36.0132 148.785)" stroke="url(#paint10_linear_2_2471)" stroke-width="0.5" stroke-linecap="round" style="mix-blend-mode:darken"/>
</g>
<rect width="244" height="69" rx="12" transform="matrix(0.939693 -0.34202 0 1 35.999 148.705)" fill="url(#paint11_linear_2_2471)" fill-opacity="0.3" style="mix-blend-mode:overlay"/>
<rect width="244" height="69" rx="12" transform="matrix(0.939693 -0.34202 0 1 35.999 148.705)" fill="url(#paint12_radial_2_2471)" fill-opacity="0.6" style="mix-blend-mode:overlay"/>
<g filter="url(#filter4_i_2_2471)">
<circle cx="51.5977" cy="177.561" r="4.5" fill="black" fill-opacity="0.24" style="mix-blend-mode:color-burn"/>
<circle cx="51.5977" cy="177.561" r="4.5" fill="black" fill-opacity="0.32" style="mix-blend-mode:darken"/>
</g>
<g filter="url(#filter5_i_2_2471)">
<circle cx="249.547" cy="104.134" r="4.5" fill="black" fill-opacity="0.24" style="mix-blend-mode:color-burn"/>
<circle cx="249.547" cy="104.134" r="4.5" fill="black" fill-opacity="0.32" style="mix-blend-mode:darken"/>
</g>
<g filter="url(#filter6_i_2_2471)">
<path d="M68.1372 174.922L71.8212 173.581L73.6732 175.443L75.4952 177.038L78.929 180.369L74.8846 181.841L72.522 179.612L71.3107 178.22L68.1372 174.922ZM79.2393 167.557C79.2393 169.937 78.8155 172.115 77.9679 174.093C77.127 176.068 75.9791 177.76 74.5242 179.171C73.0759 180.571 71.4475 181.601 69.6388 182.259C67.8168 182.922 66.1817 183.077 64.7335 182.723C63.2852 182.37 62.1406 181.512 61.2997 180.149C60.4588 178.786 60.0384 176.918 60.0384 174.546C60.0384 172.167 60.4588 169.989 61.2997 168.014C62.1406 166.039 63.2852 164.351 64.7335 162.951C66.1817 161.543 67.8168 160.507 69.6388 159.844C71.4475 159.186 73.0759 159.034 74.5242 159.387C75.9791 159.731 77.127 160.585 77.9679 161.948C78.8155 163.308 79.2393 165.178 79.2393 167.557ZM74.8445 169.157C74.8445 167.616 74.6276 166.395 74.1938 165.495C73.7667 164.592 73.1627 164.009 72.3818 163.746C71.601 163.484 70.6866 163.543 69.6388 163.924C68.591 164.306 67.6767 164.912 66.8958 165.743C66.115 166.574 65.5077 167.598 65.0739 168.814C64.6467 170.028 64.4332 171.405 64.4332 172.946C64.4332 174.488 64.6467 175.71 65.0739 176.612C65.5077 177.513 66.115 178.094 66.8958 178.357C67.6767 178.619 68.591 178.56 69.6388 178.179C70.6866 177.797 71.601 177.191 72.3818 176.36C73.1627 175.529 73.7667 174.507 74.1938 173.293C74.6276 172.077 74.8445 170.698 74.8445 169.157ZM93.9865 151.281L98.3212 149.703V163.872C98.3212 165.463 97.9642 166.985 97.2501 168.438C96.5426 169.889 95.5516 171.18 94.2768 172.311C93.0021 173.436 91.5172 174.307 89.822 174.924C88.1201 175.543 86.6318 175.754 85.3571 175.558C84.0824 175.354 83.0913 174.785 82.3838 173.849C81.6764 172.913 81.3227 171.65 81.3227 170.059V155.89L85.6574 154.312V168.087C85.6574 168.918 85.8276 169.595 86.168 170.117C86.515 170.637 87.0022 170.968 87.6296 171.109C88.2569 171.25 88.9877 171.168 89.822 170.865C90.6629 170.559 91.3937 170.108 92.0144 169.513C92.6417 168.915 93.1256 168.231 93.4659 167.461C93.813 166.688 93.9865 165.887 93.9865 165.056V151.281ZM105.095 147.238V169.056L100.76 170.634V148.815L105.095 147.238ZM107.313 168.248V165.51L117.544 146.51L107.293 150.241V146.437L122.99 140.724V143.462L112.749 162.467L123.01 158.732V162.535L107.313 168.248ZM130.606 137.952L135.952 136.007L141.598 148.611L141.838 148.523L147.484 131.809L152.83 129.863V151.682L148.626 153.212V139.011L148.455 139.073L143.15 155.098L140.286 156.141L134.981 143.924L134.81 143.986V158.24L130.606 159.771V137.952ZM158.808 149.506L154.163 151.197L161.24 126.802L166.827 124.769L173.894 144.015L169.249 145.705L164.114 130.742L163.953 130.801L158.808 149.506ZM158.517 141.036L169.489 137.042V140.643L158.517 144.636V141.036ZM185.888 124.106C185.808 123.276 185.465 122.733 184.857 122.478C184.25 122.224 183.426 122.286 182.385 122.665C181.677 122.922 181.08 123.246 180.593 123.636C180.105 124.02 179.732 124.443 179.471 124.907C179.218 125.369 179.091 125.834 179.091 126.303C179.078 126.699 179.154 127.012 179.321 127.242C179.495 127.47 179.732 127.636 180.032 127.74C180.332 127.836 180.679 127.891 181.073 127.904C181.467 127.91 181.887 127.885 182.335 127.828L184.177 127.627C185.071 127.514 185.892 127.5 186.639 127.583C187.387 127.666 188.034 127.867 188.581 128.186C189.129 128.505 189.552 128.962 189.853 129.556C190.16 130.147 190.317 130.896 190.323 131.803C190.317 133.141 189.996 134.415 189.362 135.626C188.735 136.827 187.827 137.914 186.639 138.886C185.458 139.849 184.033 140.634 182.365 141.241C180.709 141.843 179.268 142.098 178.04 142.005C176.819 141.91 175.864 141.458 175.177 140.65C174.496 139.833 174.139 138.645 174.106 137.088L178.3 135.561C178.347 136.276 178.544 136.815 178.891 137.178C179.245 137.533 179.715 137.727 180.302 137.762C180.896 137.787 181.567 137.664 182.315 137.392C183.049 137.125 183.686 136.779 184.227 136.355C184.774 135.929 185.198 135.458 185.498 134.944C185.798 134.43 185.949 133.91 185.949 133.385C185.949 132.894 185.812 132.532 185.538 132.298C185.271 132.061 184.877 131.921 184.357 131.876C183.843 131.828 183.212 131.845 182.465 131.925L180.232 132.141C178.504 132.323 177.139 132.12 176.138 131.533C175.137 130.945 174.64 129.844 174.646 128.23C174.64 126.911 174.97 125.637 175.637 124.407C176.311 123.174 177.236 122.067 178.41 121.086C179.585 120.104 180.92 119.341 182.415 118.797C183.936 118.243 185.264 118.037 186.399 118.178C187.54 118.317 188.428 118.764 189.062 119.521C189.696 120.277 190.023 121.301 190.043 122.594L185.888 124.106ZM191.33 119.654V115.85L208.169 109.722V113.525L201.892 115.81V133.824L197.607 135.384V117.369L191.33 119.654ZM209.814 130.941V109.123L223.629 104.095V107.898L214.149 111.348V116.547L222.919 113.355V117.159L214.149 120.351V125.56L223.669 122.095V125.898L209.814 130.941ZM225.948 125.069V103.251L234.037 100.307C235.585 99.743 236.907 99.5568 238.001 99.7479C239.102 99.9295 239.94 100.452 240.514 101.316C241.095 102.17 241.385 103.317 241.385 104.759C241.385 106.208 241.091 107.561 240.504 108.819C239.917 110.07 239.066 111.175 237.951 112.135C236.843 113.092 235.502 113.857 233.927 114.43L228.511 116.402V112.694L233.226 110.978C234.054 110.677 234.741 110.306 235.288 109.865C235.835 109.425 236.243 108.914 236.51 108.334C236.783 107.752 236.92 107.102 236.92 106.384C236.92 105.66 236.783 105.099 236.51 104.701C236.243 104.301 235.832 104.074 235.278 104.02C234.731 103.957 234.04 104.077 233.206 104.38L230.283 105.444V123.491L225.948 125.069ZM237.02 111.11L242.116 119.184L237.33 120.926L232.345 112.812L237.02 111.11Z" fill="black" fill-opacity="0.24" style="mix-blend-mode:color-burn"/>
<path d="M68.1372 174.922L71.8212 173.581L73.6732 175.443L75.4952 177.038L78.929 180.369L74.8846 181.841L72.522 179.612L71.3107 178.22L68.1372 174.922ZM79.2393 167.557C79.2393 169.937 78.8155 172.115 77.9679 174.093C77.127 176.068 75.9791 177.76 74.5242 179.171C73.0759 180.571 71.4475 181.601 69.6388 182.259C67.8168 182.922 66.1817 183.077 64.7335 182.723C63.2852 182.37 62.1406 181.512 61.2997 180.149C60.4588 178.786 60.0384 176.918 60.0384 174.546C60.0384 172.167 60.4588 169.989 61.2997 168.014C62.1406 166.039 63.2852 164.351 64.7335 162.951C66.1817 161.543 67.8168 160.507 69.6388 159.844C71.4475 159.186 73.0759 159.034 74.5242 159.387C75.9791 159.731 77.127 160.585 77.9679 161.948C78.8155 163.308 79.2393 165.178 79.2393 167.557ZM74.8445 169.157C74.8445 167.616 74.6276 166.395 74.1938 165.495C73.7667 164.592 73.1627 164.009 72.3818 163.746C71.601 163.484 70.6866 163.543 69.6388 163.924C68.591 164.306 67.6767 164.912 66.8958 165.743C66.115 166.574 65.5077 167.598 65.0739 168.814C64.6467 170.028 64.4332 171.405 64.4332 172.946C64.4332 174.488 64.6467 175.71 65.0739 176.612C65.5077 177.513 66.115 178.094 66.8958 178.357C67.6767 178.619 68.591 178.56 69.6388 178.179C70.6866 177.797 71.601 177.191 72.3818 176.36C73.1627 175.529 73.7667 174.507 74.1938 173.293C74.6276 172.077 74.8445 170.698 74.8445 169.157ZM93.9865 151.281L98.3212 149.703V163.872C98.3212 165.463 97.9642 166.985 97.2501 168.438C96.5426 169.889 95.5516 171.18 94.2768 172.311C93.0021 173.436 91.5172 174.307 89.822 174.924C88.1201 175.543 86.6318 175.754 85.3571 175.558C84.0824 175.354 83.0913 174.785 82.3838 173.849C81.6764 172.913 81.3227 171.65 81.3227 170.059V155.89L85.6574 154.312V168.087C85.6574 168.918 85.8276 169.595 86.168 170.117C86.515 170.637 87.0022 170.968 87.6296 171.109C88.2569 171.25 88.9877 171.168 89.822 170.865C90.6629 170.559 91.3937 170.108 92.0144 169.513C92.6417 168.915 93.1256 168.231 93.4659 167.461C93.813 166.688 93.9865 165.887 93.9865 165.056V151.281ZM105.095 147.238V169.056L100.76 170.634V148.815L105.095 147.238ZM107.313 168.248V165.51L117.544 146.51L107.293 150.241V146.437L122.99 140.724V143.462L112.749 162.467L123.01 158.732V162.535L107.313 168.248ZM130.606 137.952L135.952 136.007L141.598 148.611L141.838 148.523L147.484 131.809L152.83 129.863V151.682L148.626 153.212V139.011L148.455 139.073L143.15 155.098L140.286 156.141L134.981 143.924L134.81 143.986V158.24L130.606 159.771V137.952ZM158.808 149.506L154.163 151.197L161.24 126.802L166.827 124.769L173.894 144.015L169.249 145.705L164.114 130.742L163.953 130.801L158.808 149.506ZM158.517 141.036L169.489 137.042V140.643L158.517 144.636V141.036ZM185.888 124.106C185.808 123.276 185.465 122.733 184.857 122.478C184.25 122.224 183.426 122.286 182.385 122.665C181.677 122.922 181.08 123.246 180.593 123.636C180.105 124.02 179.732 124.443 179.471 124.907C179.218 125.369 179.091 125.834 179.091 126.303C179.078 126.699 179.154 127.012 179.321 127.242C179.495 127.47 179.732 127.636 180.032 127.74C180.332 127.836 180.679 127.891 181.073 127.904C181.467 127.91 181.887 127.885 182.335 127.828L184.177 127.627C185.071 127.514 185.892 127.5 186.639 127.583C187.387 127.666 188.034 127.867 188.581 128.186C189.129 128.505 189.552 128.962 189.853 129.556C190.16 130.147 190.317 130.896 190.323 131.803C190.317 133.141 189.996 134.415 189.362 135.626C188.735 136.827 187.827 137.914 186.639 138.886C185.458 139.849 184.033 140.634 182.365 141.241C180.709 141.843 179.268 142.098 178.04 142.005C176.819 141.91 175.864 141.458 175.177 140.65C174.496 139.833 174.139 138.645 174.106 137.088L178.3 135.561C178.347 136.276 178.544 136.815 178.891 137.178C179.245 137.533 179.715 137.727 180.302 137.762C180.896 137.787 181.567 137.664 182.315 137.392C183.049 137.125 183.686 136.779 184.227 136.355C184.774 135.929 185.198 135.458 185.498 134.944C185.798 134.43 185.949 133.91 185.949 133.385C185.949 132.894 185.812 132.532 185.538 132.298C185.271 132.061 184.877 131.921 184.357 131.876C183.843 131.828 183.212 131.845 182.465 131.925L180.232 132.141C178.504 132.323 177.139 132.12 176.138 131.533C175.137 130.945 174.64 129.844 174.646 128.23C174.64 126.911 174.97 125.637 175.637 124.407C176.311 123.174 177.236 122.067 178.41 121.086C179.585 120.104 180.92 119.341 182.415 118.797C183.936 118.243 185.264 118.037 186.399 118.178C187.54 118.317 188.428 118.764 189.062 119.521C189.696 120.277 190.023 121.301 190.043 122.594L185.888 124.106ZM191.33 119.654V115.85L208.169 109.722V113.525L201.892 115.81V133.824L197.607 135.384V117.369L191.33 119.654ZM209.814 130.941V109.123L223.629 104.095V107.898L214.149 111.348V116.547L222.919 113.355V117.159L214.149 120.351V125.56L223.669 122.095V125.898L209.814 130.941ZM225.948 125.069V103.251L234.037 100.307C235.585 99.743 236.907 99.5568 238.001 99.7479C239.102 99.9295 239.94 100.452 240.514 101.316C241.095 102.17 241.385 103.317 241.385 104.759C241.385 106.208 241.091 107.561 240.504 108.819C239.917 110.07 239.066 111.175 237.951 112.135C236.843 113.092 235.502 113.857 233.927 114.43L228.511 116.402V112.694L233.226 110.978C234.054 110.677 234.741 110.306 235.288 109.865C235.835 109.425 236.243 108.914 236.51 108.334C236.783 107.752 236.92 107.102 236.92 106.384C236.92 105.66 236.783 105.099 236.51 104.701C236.243 104.301 235.832 104.074 235.278 104.02C234.731 103.957 234.04 104.077 233.206 104.38L230.283 105.444V123.491L225.948 125.069ZM237.02 111.11L242.116 119.184L237.33 120.926L232.345 112.812L237.02 111.11Z" fill="black" fill-opacity="0.32" style="mix-blend-mode:darken"/>
</g>
<defs>
<filter id="filter0_dd_2_2471" x="0.650391" y="65.0493" width="303.778" height="199.018" filterUnits="userSpaceOnUse" color-interpolation-filters="sRGB">
<feFlood flood-opacity="0" result="BackgroundImageFix"/>
<feColorMatrix in="SourceAlpha" type="matrix" values="0 0 0 0 0 0 0 0 0 0 0 0 0 0 0 0 0 0 127 0" result="hardAlpha"/>
<feOffset dy="6"/>
<feGaussianBlur stdDeviation="9"/>
<feColorMatrix type="matrix" values="0 0 0 0 0 0 0 0 0 0 0 0 0 0 0 0 0 0 0.16 0"/>
<feBlend mode="normal" in2="BackgroundImageFix" result="effect1_dropShadow_2_2471"/>
<feColorMatrix in="SourceAlpha" type="matrix" values="0 0 0 0 0 0 0 0 0 0 0 0 0 0 0 0 0 0 127 0" result="hardAlpha"/>
<feOffset dy="3"/>
<feGaussianBlur stdDeviation="3"/>
<feColorMatrix type="matrix" values="0 0 0 0 0 0 0 0 0 0 0 0 0 0 0 0 0 0 0.24 0"/>
<feBlend mode="normal" in2="effect1_dropShadow_2_2471" result="effect2_dropShadow_2_2471"/>
<feBlend mode="normal" in="SourceGraphic" in2="effect2_dropShadow_2_2471" result="shape"/>
</filter>
<filter id="filter1_dddd_2_2471" x="23.9443" y="38.564" width="258" height="313" filterUnits="userSpaceOnUse" color-interpolation-filters="sRGB">
<feFlood flood-opacity="0" result="BackgroundImageFix"/>
<feColorMatrix in="SourceAlpha" type="matrix" values="0 0 0 0 0 0 0 0 0 0 0 0 0 0 0 0 0 0 127 0" result="hardAlpha"/>
<feOffset dy="5"/>
<feGaussianBlur stdDeviation="5.5"/>
<feColorMatrix type="matrix" values="0 0 0 0 0 0 0 0 0 0 0 0 0 0 0 0 0 0 0.24 0"/>
<feBlend mode="normal" in2="BackgroundImageFix" result="effect1_dropShadow_2_2471"/>
<feColorMatrix in="SourceAlpha" type="matrix" values="0 0 0 0 0 0 0 0 0 0 0 0 0 0 0 0 0 0 127 0" result="hardAlpha"/>
<feOffset dy="21"/>
<feGaussianBlur stdDeviation="10.5"/>
<feColorMatrix type="matrix" values="0 0 0 0 0 0 0 0 0 0 0 0 0 0 0 0 0 0 0.21 0"/>
<feBlend mode="normal" in2="effect1_dropShadow_2_2471" result="effect2_dropShadow_2_2471"/>
<feColorMatrix in="SourceAlpha" type="matrix" values="0 0 0 0 0 0 0 0 0 0 0 0 0 0 0 0 0 0 127 0" result="hardAlpha"/>
<feOffset dy="46"/>
<feGaussianBlur stdDeviation="14"/>
<feColorMatrix type="matrix" values="0 0 0 0 0 0 0 0 0 0 0 0 0 0 0 0 0 0 0.12 0"/>
<feBlend mode="normal" in2="effect2_dropShadow_2_2471" result="effect3_dropShadow_2_2471"/>
<feColorMatrix in="SourceAlpha" type="matrix" values="0 0 0 0 0 0 0 0 0 0 0 0 0 0 0 0 0 0 127 0" result="hardAlpha"/>
<feOffset dy="82"/>
<feGaussianBlur stdDeviation="16.5"/>
<feColorMatrix type="matrix" values="0 0 0 0 0 0 0 0 0 0 0 0 0 0 0 0 0 0 0.04 0"/>
<feBlend mode="normal" in2="effect3_dropShadow_2_2471" result="effect4_dropShadow_2_2471"/>
<feBlend mode="normal" in="SourceGraphic" in2="effect4_dropShadow_2_2471" result="shape"/>
</filter>
<filter id="filter2_d_2_2471" x="48.9443" y="38.564" width="208" height="208" filterUnits="userSpaceOnUse" color-interpolation-filters="sRGB">
<feFlood flood-opacity="0" result="BackgroundImageFix"/>
<feColorMatrix in="SourceAlpha" type="matrix" values="0 0 0 0 0 0 0 0 0 0 0 0 0 0 0 0 0 0 127 0" result="hardAlpha"/>
<feOffset dy="2"/>
<feGaussianBlur stdDeviation="4"/>
<feColorMatrix type="matrix" values="0 0 0 0 0 0 0 0 0 0 0 0 0 0 0 0 0 0 0.16 0"/>
<feBlend mode="color-burn" in2="BackgroundImageFix" result="effect1_dropShadow_2_2471"/>
<feBlend mode="normal" in="SourceGraphic" in2="effect1_dropShadow_2_2471" result="shape"/>
</filter>
<filter id="filter3_dd_2_2471" x="17.999" y="56.7114" width="265.285" height="181.533" filterUnits="userSpaceOnUse" color-interpolation-filters="sRGB">
<feFlood flood-opacity="0" result="BackgroundImageFix"/>
<feColorMatrix in="SourceAlpha" type="matrix" values="0 0 0 0 0 0 0 0 0 0 0 0 0 0 0 0 0 0 127 0" result="hardAlpha"/>
<feOffset dy="6"/>
<feGaussianBlur stdDeviation="9"/>
<feColorMatrix type="matrix" values="0 0 0 0 0 0 0 0 0 0 0 0 0 0 0 0 0 0 0.16 0"/>
<feBlend mode="normal" in2="BackgroundImageFix" result="effect1_dropShadow_2_2471"/>
<feColorMatrix in="SourceAlpha" type="matrix" values="0 0 0 0 0 0 0 0 0 0 0 0 0 0 0 0 0 0 127 0" result="hardAlpha"/>
<feOffset dy="3"/>
<feGaussianBlur stdDeviation="3"/>
<feColorMatrix type="matrix" values="0 0 0 0 0 0 0 0 0 0 0 0 0 0 0 0 0 0 0.24 0"/>
<feBlend mode="normal" in2="effect1_dropShadow_2_2471" result="effect2_dropShadow_2_2471"/>
<feBlend mode="normal" in="SourceGraphic" in2="effect2_dropShadow_2_2471" result="shape"/>
</filter>
<filter id="filter4_i_2_2471" x="47.0977" y="173.061" width="9" height="10" filterUnits="userSpaceOnUse" color-interpolation-filters="sRGB">
<feFlood flood-opacity="0" result="BackgroundImageFix"/>
<feBlend mode="normal" in="SourceGraphic" in2="BackgroundImageFix" result="shape"/>
<feColorMatrix in="SourceAlpha" type="matrix" values="0 0 0 0 0 0 0 0 0 0 0 0 0 0 0 0 0 0 127 0" result="hardAlpha"/>
<feOffset dy="1"/>
<feGaussianBlur stdDeviation="1"/>
<feComposite in2="hardAlpha" operator="arithmetic" k2="-1" k3="1"/>
<feColorMatrix type="matrix" values="0 0 0 0 0 0 0 0 0 0 0 0 0 0 0 0 0 0 0.24 0"/>
<feBlend mode="darken" in2="shape" result="effect1_innerShadow_2_2471"/>
</filter>
<filter id="filter5_i_2_2471" x="245.047" y="99.6343" width="9" height="10" filterUnits="userSpaceOnUse" color-interpolation-filters="sRGB">
<feFlood flood-opacity="0" result="BackgroundImageFix"/>
<feBlend mode="normal" in="SourceGraphic" in2="BackgroundImageFix" result="shape"/>
<feColorMatrix in="SourceAlpha" type="matrix" values="0 0 0 0 0 0 0 0 0 0 0 0 0 0 0 0 0 0 127 0" result="hardAlpha"/>
<feOffset dy="1"/>
<feGaussianBlur stdDeviation="1"/>
<feComposite in2="hardAlpha" operator="arithmetic" k2="-1" k3="1"/>
<feColorMatrix type="matrix" values="0 0 0 0 0 0 0 0 0 0 0 0 0 0 0 0 0 0 0.24 0"/>
<feBlend mode="darken" in2="shape" result="effect1_innerShadow_2_2471"/>
</filter>
<filter id="filter6_i_2_2471" x="60.0383" y="97.0679" width="182.077" height="91.177" filterUnits="userSpaceOnUse" color-interpolation-filters="sRGB">
<feFlood flood-opacity="0" result="BackgroundImageFix"/>
<feBlend mode="normal" in="SourceGraphic" in2="BackgroundImageFix" result="shape"/>
<feColorMatrix in="SourceAlpha" type="matrix" values="0 0 0 0 0 0 0 0 0 0 0 0 0 0 0 0 0 0 127 0" result="hardAlpha"/>
<feOffset dy="1"/>
<feGaussianBlur stdDeviation="1"/>
<feComposite in2="hardAlpha" operator="arithmetic" k2="-1" k3="1"/>
<feColorMatrix type="matrix" values="0 0 0 0 0 0 0 0 0 0 0 0 0 0 0 0 0 0 0.24 0"/>
<feBlend mode="darken" in2="shape" result="effect1_innerShadow_2_2471"/>
</filter>
<linearGradient id="paint0_linear_2_2471" x1="160.04" y1="121.558" x2="182.216" y2="182.486" gradientUnits="userSpaceOnUse">
<stop stop-opacity="0"/>
<stop offset="1" stop-opacity="0.16"/>
</linearGradient>
<linearGradient id="paint1_linear_2_2471" x1="13.6509" y1="174.839" x2="35.8269" y2="235.767" gradientUnits="userSpaceOnUse">
<stop stop-color="white"/>
<stop offset="1" stop-color="white" stop-opacity="0"/>
</linearGradient>
<linearGradient id="paint2_linear_2_2471" x1="152.944" y1="0.563965" x2="152.944" y2="280.564" gradientUnits="userSpaceOnUse">
<stop stop-color="#EA2E95"/>
<stop offset="1" stop-color="#1539B9"/>
</linearGradient>
<linearGradient id="paint3_linear_2_2471" x1="152.944" y1="32.2924" x2="152.944" y2="247.384" gradientUnits="userSpaceOnUse">
<stop stop-color="white"/>
<stop offset="1" stop-color="white" stop-opacity="0"/>
</linearGradient>
<radialGradient id="paint4_radial_2_2471" cx="0" cy="0" r="1" gradientUnits="userSpaceOnUse" gradientTransform="translate(152.944 94.074) rotate(90) scale(141.869 107.639)">
<stop stop-color="white"/>
<stop offset="1" stop-color="white" stop-opacity="0"/>
</radialGradient>
<linearGradient id="paint5_linear_2_2471" x1="152.944" y1="0.563965" x2="152.944" y2="280.564" gradientUnits="userSpaceOnUse">
<stop stop-color="#EA2E95"/>
<stop offset="1" stop-color="#1539B9"/>
</linearGradient>
<linearGradient id="paint6_linear_2_2471" x1="152.944" y1="32.2924" x2="152.944" y2="247.384" gradientUnits="userSpaceOnUse">
<stop stop-color="white"/>
<stop offset="1" stop-color="white" stop-opacity="0"/>
</linearGradient>
<radialGradient id="paint7_radial_2_2471" cx="0" cy="0" r="1" gradientUnits="userSpaceOnUse" gradientTransform="translate(152.944 94.074) rotate(90) scale(141.869 107.639)">
<stop stop-color="white"/>
<stop offset="1" stop-color="white" stop-opacity="0"/>
</radialGradient>
<linearGradient id="paint8_linear_2_2471" x1="12.9443" y1="0.563965" x2="12.9443" y2="280.564" gradientUnits="userSpaceOnUse">
<stop offset="0.135095" stop-color="white"/>
<stop offset="0.877908" stop-color="white" stop-opacity="0.01"/>
</linearGradient>
<linearGradient id="paint9_linear_2_2471" x1="152.944" y1="44.564" x2="152.944" y2="236.564" gradientUnits="userSpaceOnUse">
<stop stop-color="white"/>
<stop offset="1" stop-color="#999999"/>
</linearGradient>
<linearGradient id="paint10_linear_2_2471" x1="122" y1="0" x2="122" y2="69" gradientUnits="userSpaceOnUse">
<stop stop-opacity="0"/>
<stop offset="1" stop-opacity="0.16"/>
</linearGradient>
<linearGradient id="paint11_linear_2_2471" x1="122" y1="7.52573e-06" x2="122" y2="69" gradientUnits="userSpaceOnUse">
<stop stop-color="white"/>
<stop offset="1" stop-color="white" stop-opacity="0"/>
</linearGradient>
<radialGradient id="paint12_radial_2_2471" cx="0" cy="0" r="1" gradientUnits="userSpaceOnUse" gradientTransform="translate(122 12.0407) rotate(90) scale(56.9593 122)">
<stop stop-color="white"/>
<stop offset="1" stop-color="white" stop-opacity="0"/>
</radialGradient>
</defs>
</svg>
