<svg width="534" height="112" viewBox="0 0 534 112" fill="none" xmlns="http://www.w3.org/2000/svg">
<g filter="url(#filter0_d_6_3153)">
<g clip-path="url(#clip0_6_3153)">
<rect x="2" y="0.994995" width="530" height="107.995" rx="8" fill="#4A38D9"/>
<path d="M584.166 158.475C582.655 159.62 576.184 163.685 573.48 165.541C576.026 162.573 589.615 154.342 584.166 158.475ZM296.526 338.871C296.824 344.441 297.571 350.762 300.356 358.399C295.373 342.232 297.6 329.739 299.556 320.389C299.807 319.286 300.085 318.168 300.366 317.119C300.985 314.804 301.66 312.667 302.317 310.808C302.895 309.187 302.208 313.653 303.519 309.807C304.86 306.109 303.629 306.39 305.543 301.387C307.692 295.13 318.972 275.357 322.66 269.158C332.551 251.826 342.308 235.496 352.541 219.19C352.882 218.647 353.226 218.102 353.573 217.553C357.338 211.592 361.084 205.778 364.93 199.956C350.815 223.561 366.337 200.578 370.198 193.949C371.051 192.486 369.294 191.626 384.553 168.787C394.255 154.287 387.831 169.297 402.443 144.118C388.708 161.877 400.744 143.46 410.197 128.711C411.824 126.169 425.293 105.849 431.051 96.7647C433.018 93.6614 435.221 88.3953 437.834 84.2916C439.649 81.4414 441.46 79.6422 444.149 75.4117C456.615 55.8007 468.87 36.6134 481.333 17.1505C477.296 27.4171 483.932 15.9118 487.025 10.5064C487.308 10.0139 487.562 9.57235 487.778 9.199C488.18 8.50453 488.453 8.04536 488.541 7.93397C489.578 6.66335 489.166 7.638 488.195 9.45912C487.979 9.86378 487.735 10.311 487.473 10.7859C485.058 15.1747 481.086 21.8247 484.618 16.7272C485.784 14.8453 486.944 12.9686 488.062 11.1542C488.328 10.7234 488.592 10.2953 488.854 9.8697C494.631 0.479597 500.285 -8.85977 505.746 -18.2004C499.855 -8.87938 511.309 -31.8291 514.021 -35.2404C513.233 -35.0712 515.02 -38.508 517.708 -43.484C520.33 -48.0865 523.949 -55.9891 523.833 -55.32C523.858 -55.3561 523.876 -55.3589 523.89 -55.3203C524.09 -55.0649 523.41 -53.7127 525.141 -47.6855C526.292 -41.4964 535.967 -31.7242 540.665 -30.6464C541.553 -30.2807 542.528 -29.9435 543.493 -29.6763C549.289 -28.1873 551.775 -29.0213 552.105 -29.0477C552.528 -29.1823 551.713 -29.0704 550.864 -28.8382C549.07 -28.3658 546.931 -27.5644 545.905 -27.0489C544.951 -26.5727 549.035 -27.5696 545.462 -25.9894C545.202 -25.8725 544.906 -25.7427 544.57 -25.5968C542.475 -24.6651 539.468 -23.5165 532.536 -19.9117C530.03 -18.5929 530.578 -19.6877 529.313 -18.8995C528.487 -18.3942 524.756 -13.6917 518.67 -11.327C516.413 -10.3193 528.579 -20.1782 500.619 -1.21291C513.207 -7.14459 461.867 26.8003 452.137 33.2742C454.205 32.1863 456.287 31.0892 458.301 30.0421C449.894 35.1226 447.916 37.1203 446.081 38.5758C445.803 38.7987 445.532 39.0048 445.243 39.2038C445.237 39.2082 445.23 39.2127 445.224 39.2171C436.708 45.0637 424.647 52.7648 416.891 58.4676C407.78 65.1668 408.596 66.3561 397.556 73.6966C400.253 72.1264 403.034 70.4964 405.731 68.9301C398.277 74.2526 390.88 79.5528 383.451 84.8882C399.401 70.8695 379.688 87.5199 378.372 88.5411C376.232 90.1936 378.908 87.2636 375.311 90.0173C374.95 90.3021 375.899 90.52 370.344 94.6939C358.661 103.472 360.021 101.326 355.069 104.975C354.619 105.312 356.592 104.687 348.172 111.072C321.385 131.406 347.984 110.572 348.991 109.722C350.285 108.623 339.348 113.192 362.938 97.1011C355.046 102.502 353.523 102.095 352.634 102.709C351.856 103.247 338.564 113.232 337.857 113.807C331.517 118.991 337.812 115.406 336.617 116.472C335.63 117.348 318.867 128.328 316.585 133.166C307.484 136.968 319.764 128.175 332.491 118.361C334.099 116.58 319.608 126.671 318.865 127.221C300.535 140.735 311.825 134.808 308.547 138.755C306.829 140.823 298.574 145.28 306.497 141.582C289.971 154.003 299.467 145.751 298.303 146.425C296.559 147.442 291.018 152.147 290.255 152.628C289.129 153.338 292.487 150.115 288.151 153.053C287.441 153.539 281.245 159.394 290.299 153.323C278.494 161.855 280.009 161.83 274.967 163.348C268.887 172.007 267.955 166.059 264.652 168.263C255.905 174.101 259.935 174.403 259.56 174.839C256.944 177.796 233.039 194.302 227.432 198.899C228.639 195.65 245.967 185.215 249.424 182.205C260.805 172.287 231.769 194.043 239.167 185.621C235.812 188.907 232.577 192.106 229.229 195.387C221.512 199.158 230.805 191.493 212.854 205.389C210.661 208.651 225.65 195.721 223.067 198.917C221.525 200.815 211.044 208.684 211 209.117C211.038 209.573 220.319 202.177 219.168 203.766C216.655 207.237 180.956 231.883 207.17 211.784C199.723 217.278 194.381 217.998 188.425 223.345C184.553 226.809 210.24 212.492 174.45 237.77C173.052 237.288 188.373 227.19 188.707 226.824C189.171 226.318 184.862 226.065 184.327 226.287C183.571 226.602 176.67 231.839 168.439 237.969C168.306 238.067 168.174 238.166 168.042 238.264C156.864 246.597 143.266 256.434 138.325 258.928C142.483 258.043 110.39 278.725 105.414 281.865C104.372 282.657 109.026 280.966 107.893 281.779C106.059 283.082 103.488 284.692 99.3277 286.825C97.07 287.928 95.0563 289.06 89.7316 290.923C89.012 291.165 88.2474 291.405 87.4201 291.641C86.464 291.914 85.3474 292.201 84.1337 292.455C81.5127 292.929 77.988 293.813 70.9252 293.137C66.787 292.625 62.0797 291.702 55.9195 288.264C50.1819 285.148 44.4299 279.098 41.7109 274.106C36.1924 263.706 36.9236 258.991 36.5436 256.413C36.3864 253.545 36.559 250.424 36.9317 247.887C38.2866 239.704 39.9629 236.831 41.1232 233.984C42.334 231.314 43.3317 229.44 44.2779 227.675C46.1117 224.292 47.6116 221.725 48.746 219.646C54.2016 209.806 52.7126 210.844 53.0233 210.262C55.4082 206.134 54.0472 209.73 55.4416 207.262C57.5873 203.333 72.233 178.54 72.8972 177.329C73.0792 176.949 69.8027 180.44 72.8769 174.942C73.4248 174.031 73.9347 175.219 83.3008 159.265C94.6608 140.261 73.8045 171.468 77.6764 163.002C82.742 156.765 84.437 153.966 85.3837 151.984C85.6002 151.524 85.7694 151.12 85.9296 150.74C86.2772 149.917 86.5802 149.207 87.2484 148.259C88.0568 147.11 94.7037 139.712 100.526 130.646C96.4852 137.271 92.526 143.786 88.481 150.457C92.8591 144.215 100.643 131.705 104.321 126.651C106.138 124.149 105.776 126.995 109.379 121.44C110.155 120.236 110.62 113.926 102.276 129.166C100.6 129.727 105.723 123.208 107.56 119.846C107.84 119.331 107.572 116.405 111.186 112.972C112.051 112.172 109.554 125.665 124.365 96.1251C124.846 95.1686 122.255 97.8879 122.711 96.9439C123.032 96.2854 127.86 89.4449 128.294 88.6136C128.731 87.7659 125.893 90.7483 126.394 89.7267C128.968 84.4734 135.571 79.7132 128.805 89.5805C131.316 86.4199 133.784 83.3244 136.288 80.1766C132.117 82.5399 139.215 74.6202 142.207 69.963C161.306 40.2371 147.093 59.2019 149.825 53.727C154.241 44.896 153.222 53.2185 160.287 40.4795C160.944 39.2947 149.955 53.0615 169.562 24.9865C166.829 29.2381 164.1 33.4847 161.366 37.7379C164.734 36.4674 171.297 22.4322 171.921 21.4333C179.081 10.0612 174.715 18.0587 184.797 0.80889C185.698 -0.73414 188.263 -3.6741 190.15 -7.00618C197.951 -20.7757 178.129 10.0318 176.865 10.3927C176.252 10.5644 198.044 -22.272 198.937 -23.2724C202.832 -27.5763 189.435 -8.15627 192.826 -11.3108C194.075 -12.4842 224.237 -59.7147 230.766 -68.9247C238.296 -79.4992 243.882 -82.8158 241.231 -84.6414C245.839 -85.9148 245.853 -89.8792 246.762 -91.2319C252.41 -99.6141 255.241 -103.825 257.747 -107.675C257.896 -107.904 258.044 -108.132 258.191 -108.36C260.563 -112.024 262.803 -115.602 266.994 -122.369C268.967 -125.555 271.506 -127.74 272.083 -128.941C272.416 -129.642 270.776 -128.981 272.537 -132.321C275.116 -137.053 292.672 -163.051 294.173 -164.603C295.903 -166.319 287.554 -153.357 289.787 -155.218C295.726 -164.632 301.228 -174.084 305.984 -182.613C307.872 -186.057 307.494 -183.968 308.25 -185.394C308.345 -185.576 308.92 -186.811 309.432 -188.11C309.977 -189.481 310.208 -190.357 310.408 -191.303C310.428 -191.394 310.445 -191.477 310.458 -191.551C310.548 -192.032 310.51 -192.141 310.427 -192.019C310.344 -191.902 310.241 -191.641 310.213 -191.722C310.18 -191.795 310.188 -192.034 310.17 -192.121C310.152 -192.213 310.096 -192.124 309.937 -191.72C309.911 -191.653 309.881 -191.577 309.848 -191.491C309.605 -190.429 305.296 -182.033 301.143 -175.272C297.134 -168.647 294.162 -164.231 296.52 -169.039C297.632 -171.283 303.202 -177.869 300.919 -177.592C304.582 -183.761 307.964 -190.199 308.493 -191.948C308.522 -192.028 308.548 -192.1 308.571 -192.166C308.717 -192.563 308.769 -192.755 308.671 -192.226C308.61 -191.619 308.207 -190.58 308.256 -186.37C308.342 -184.231 308.516 -181.098 310.061 -176.399C311.533 -171.774 315.173 -165.33 320.376 -160.789C331.493 -151.531 339.001 -152.196 341.69 -151.794C342.011 -151.78 342.37 -151.77 342.751 -151.766C345.737 -151.73 348.307 -152.207 349.473 -152.5C350.718 -152.809 351.082 -152.978 351.162 -153.012C351.268 -153.081 350.283 -152.702 349.185 -152.192C346.867 -151.127 343.833 -149.551 340.731 -147.861C334.495 -144.458 327.829 -140.558 321.176 -136.585C307.881 -128.631 294.422 -120.248 280.9 -111.721C280.808 -111.663 280.716 -111.605 280.624 -111.547C280.616 -111.542 280.608 -111.537 280.6 -111.532C280.607 -111.537 280.615 -111.543 280.623 -111.548C280.711 -111.612 280.799 -111.676 280.888 -111.739C301.668 -126.594 328.716 -142.7 348.091 -152.812C348.87 -153.206 350.416 -153.892 350.755 -154.024C350.894 -154.092 350.678 -153.975 349.362 -153.674C348.143 -153.378 345.224 -152.973 342.768 -153.1C342.387 -153.115 342.048 -153.138 341.757 -153.163C338.903 -153.351 334.955 -154.56 337.129 -154.309C339.22 -153.877 340.682 -153.766 341.784 -153.713C342.083 -153.7 342.418 -153.69 342.775 -153.687C346.991 -153.666 349.545 -154.493 350.131 -154.667C350.826 -154.899 350.47 -154.81 349.92 -154.571C348.712 -154.064 346.593 -153.025 344.361 -151.839C339.825 -149.433 334.642 -146.421 329.502 -143.366C319.133 -137.19 308.673 -130.692 299.395 -125.177C298.776 -124.81 300.566 -126.918 298.218 -125.588C294.528 -123.511 284.493 -115.981 280.05 -113.041C279.956 -112.979 279.865 -112.92 279.776 -112.862C279.191 -112.482 278.724 -112.201 278.417 -112.055C278.288 -112 278.835 -112.488 279.58 -113.167C279.66 -113.239 279.742 -113.313 279.825 -113.39C281.695 -115.066 284.28 -117.485 282.454 -116.863C280.932 -116.342 279.745 -115.718 278.77 -115.029C278.68 -114.965 278.593 -114.9 278.506 -114.835C275.416 -112.491 274.638 -109.279 270.725 -106.789C266.656 -104.224 238.376 -88.0511 232.246 -82.5799C225.729 -76.7843 252.745 -95.1098 251.275 -92.8873C233.36 -79.94 214.09 -68.6134 196.703 -57.0058C196.396 -56.7996 199.527 -57.8798 195.682 -55.2093C189.041 -50.5958 186.579 -50.3652 183.202 -48.3621C179.541 -46.1867 167.042 -37.7432 165.13 -36.9893C164.886 -36.895 166.793 -39.5355 167.166 -39.8204C172.394 -43.8391 175.154 -43.8645 175.663 -44.1772C177.569 -45.3664 179.101 -47.0637 180.827 -48.1606C183.668 -49.9652 185.506 -50.5417 189.254 -52.9552C191.834 -54.6141 188.803 -53.8378 191.293 -55.4228C192.189 -55.9879 203.278 -60.5047 202.866 -63.0765C202.766 -63.9353 122.238 -11.95 114.538 -6.16527C121.574 -10.4605 128.592 -14.747 135.606 -19.0315C121.292 -10.4197 105.559 2.21787 102.846 0.640689C73.9408 19.5096 45.0753 38.3505 15.8037 57.0213C15.7429 57.06 15.6821 57.0987 15.6214 57.1374C3.84298 64.6335 -7.78994 71.9578 -19.9247 79.2991C-25.9585 82.9399 -32.1897 86.6403 -38.7681 90.2895C-42.154 92.1575 -45.5408 93.9911 -49.7635 96.0177C-51.8929 97.025 -54.1768 98.0905 -57.497 99.3242C-59.195 99.9333 -61.0413 100.61 -64.3681 101.377C-67.9609 101.708 -71.4835 104.356 -85.7176 100.431C-93.5225 98.1973 -102.622 90.0425 -105.625 83.9402C-108.962 77.8017 -109.323 74.5627 -109.78 72.6442C-109.97 71.6688 -110.136 70.6022 -110.247 69.6481C-111.133 59.0061 -109.399 56.11 -108.808 53.5142C-108.033 51.1159 -107.349 49.6383 -106.558 47.8527C-104.991 44.4103 -102.982 39.9666 -99.1233 31.7554C-102.011 36.3679 -104.827 40.3904 -108.182 48.3727C-102.311 31.5487 -81.953 -0.265065 -78.2161 -7.71162C-78.1703 -7.79925 -78.1274 -7.88209 -78.0877 -7.95997C-78.0578 -8.01857 -78.0348 -8.08329 -78.0156 -8.15689C-77.7884 -9.02972 -78.0786 -11.2631 -73.3171 -19.6121C-68.7348 -27.6301 -66.9607 -28.3151 -64.2549 -32.4544C-61.993 -35.9151 -59.8975 -40.0404 -59.2079 -41.0756C-58.6762 -41.8704 -57.876 -41.8298 -56.619 -43.7046C-52.6312 -49.6719 -57.3232 -45.6605 -51.7227 -50.6206C-52.5332 -49.0879 -53.3276 -47.5822 -54.133 -46.0553C-49.4477 -53.2931 -42.5578 -62.8765 -48.5827 -51.7366C-49.6144 -49.8255 -49.2524 -51.7681 -50.0843 -50.364C-82.3685 4.56532 -55.3703 -38.6653 -44.9068 -58.315C-41.1201 -62.7421 -25.2559 -90.5749 -24.5436 -91.3835C-23.5455 -92.5173 -25.6665 -87.4222 -21.4137 -93.2607C-20.5094 -94.4985 0.841582 -131.518 -5.90656 -117.662C-7.29889 -114.794 -17.9946 -97.2995 -20.4901 -93.0229C-12.7703 -102.016 -1.42028 -126.92 0.211843 -129.509C6.7612 -139.978 -10.3475 -108.22 4.00388 -132.064C15.0206 -150.418 3.66999 -133.763 7.35578 -141.128C9.44829 -145.26 22.9226 -165.406 20.9615 -165.743C24.9392 -172.947 23.3714 -168.327 23.9421 -169.164C24.2395 -169.613 26.4569 -173.686 28.8889 -178.057C28.911 -178.097 28.9331 -178.137 28.9552 -178.177C31.2483 -182.296 33.6781 -186.556 35.1141 -188.69C35.4727 -189.219 35.3002 -187.03 35.6961 -187.563C36.4592 -188.599 43.9754 -202.183 44.1982 -202.787C44.3514 -203.169 41.8146 -200.316 42.3914 -201.742C43.1023 -203.394 50.3918 -216.242 50.5024 -217.037C50.8142 -218.226 42.2329 -202.167 42.8732 -205.235C47.2617 -212.507 53.1027 -224.762 54.5409 -229.6C54.2447 -228.427 50.7653 -221.454 49.3635 -219.024C48.9942 -220.858 56.1438 -235.466 54.6547 -230.053C55.5925 -233.364 54.3628 -231.41 54.6565 -233.305C54.7822 -233.847 56.4357 -237.861 56.4265 -238.588C56.4673 -238.735 54.3989 -234.93 54.4688 -235.816C54.5784 -236.587 55.3797 -238.687 56.2239 -241.451C56.2256 -241.457 56.2274 -241.462 56.2291 -241.468C56.902 -243.614 57.5027 -245.685 57.7843 -246.817C57.9315 -247.398 58.0183 -247.776 58.0944 -248.114C58.1689 -248.444 58.2352 -248.763 58.2736 -248.895C58.3653 -249.208 58.4377 -249.397 58.4823 -249.381C58.5277 -249.371 58.5471 -249.169 58.5571 -248.905C58.5707 -248.341 58.5905 -247.806 58.5383 -247.064C58.4621 -245.614 57.7771 -242.559 57.8919 -242.038C57.9055 -241.945 58.9381 -244.224 59.6444 -245.871C60.0027 -246.704 60.2697 -247.295 60.4781 -247.832C60.6847 -248.356 60.8607 -249.005 60.8899 -249.038C61.1619 -249.159 61.2135 -248.481 61.2032 -247.878C61.191 -247.266 61.0989 -246.623 60.9051 -245.717C60.5309 -243.939 59.803 -241.514 60.43 -241.989C61.4137 -244.533 62.0667 -246.282 62.5116 -247.922C62.5147 -246.211 62.0124 -243.669 60.9107 -239.949C60.909 -239.943 60.9073 -239.937 60.9056 -239.931C58.6608 -231.751 52.1631 -219.955 50.9878 -216.021C55.8285 -225.468 60.0979 -234.559 62.0715 -239.553C62.0738 -239.559 62.0761 -239.564 62.0785 -239.57C63.7506 -243.659 64.6779 -245.355 65.6181 -245.142C66.1051 -245.037 66.1927 -243.664 66.0321 -242.039C65.8847 -240.439 65.5478 -238.73 65.7136 -238.83C66.2982 -239.171 67.1318 -241.825 67.5243 -243.935C67.7257 -244.997 67.8096 -245.868 67.8605 -246.594C67.9103 -247.309 67.9533 -248.005 67.9793 -248.096C68.0774 -248.391 68.1532 -248.543 68.2047 -248.534C68.2047 -248.534 68.2047 -248.534 68.2047 -248.534C68.2047 -248.534 68.2048 -248.534 68.2048 -248.534C68.2048 -248.534 68.2048 -248.534 68.2048 -248.534C68.3031 -248.526 68.3157 -247.93 68.3008 -247.244C68.2836 -246.548 68.2431 -245.811 68.1151 -244.877C67.8758 -243.035 67.1632 -240.179 66.6068 -238.101C66.6052 -238.094 66.6035 -238.088 66.6019 -238.082C66.241 -236.714 66.0075 -235.863 66.0071 -235.679C66.0307 -235.036 67.1658 -236.201 68.2351 -237.552C68.2393 -237.557 68.2435 -237.563 68.2477 -237.568C69.0888 -238.635 69.8416 -239.625 70.0036 -239.571C70.0077 -239.499 69.7642 -238.489 69.4354 -237.183C69.4339 -237.176 69.4323 -237.17 69.4307 -237.164C68.7876 -234.457 67.7291 -230.933 68.9638 -232.806C69.5467 -233.719 70.195 -235.067 70.836 -236.708C70.8384 -236.714 70.8407 -236.72 70.8431 -236.726C72.2996 -240.373 73.178 -243.968 73.2303 -244.09C73.6555 -244.879 73.0275 -240.821 71.7606 -236.428C71.7589 -236.422 71.7571 -236.416 71.7554 -236.409C70.9508 -233.425 70.0482 -230.894 70.0673 -230.664C70.0986 -230.501 71.77 -233.696 72.8222 -236.063C72.825 -236.069 72.8277 -236.075 72.8304 -236.081C73.3554 -237.233 73.7483 -238.088 73.8393 -238.144C73.9463 -238.199 73.791 -237.24 73.5168 -235.858C73.5155 -235.852 73.5142 -235.845 73.5129 -235.839C73.1226 -233.779 72.4729 -231.066 72.2612 -229.466C72.038 -227.513 74.4299 -232.514 74.1383 -231.577C74.2177 -230.96 67.7581 -216.822 67.3509 -216.06C66.9594 -214.96 69.1569 -218.031 69.0514 -217.471C68.9255 -216.683 66.4351 -212.193 66.9341 -212.687C67.4633 -212.992 77.7004 -230.074 77.8623 -229.83C78.9157 -229.276 68.3183 -210.778 79.632 -227.348C79.7369 -227.467 81.12 -232.054 81.1563 -232.183C82.6179 -234.489 79.5758 -223.012 83.0268 -232.75C83.029 -232.757 83.0312 -232.764 83.0335 -232.77C83.4634 -234.07 83.9892 -235.727 84.5611 -237.872C84.0988 -235.947 83.631 -234.243 83.2015 -232.716C83.1995 -232.709 83.1976 -232.702 83.1957 -232.695C74.475 -207.255 84.8949 -232.72 84.4701 -227.608C84.4743 -225.319 78.9065 -212.45 78.9138 -212.413C80.2207 -213.286 81.5393 -217.575 82.5051 -218.814C83.0921 -219.448 78.5183 -207.773 80.2017 -210.077C81.1511 -211.218 86.5704 -223.499 86.7404 -224.137C89.195 -229.09 87.2895 -222.577 88.0579 -223.574C88.4107 -223.983 89.9274 -227.799 90.7316 -230.249C90.734 -230.256 90.7364 -230.263 90.7388 -230.27C91.1424 -231.455 91.4287 -232.347 91.4649 -232.415C91.5201 -232.503 91.3504 -231.574 91.049 -230.169C91.0474 -230.162 91.0459 -230.155 91.0443 -230.147C90.3897 -226.815 88.5662 -220.757 88.1363 -219.205C87.6862 -217.423 90.6833 -223.547 90.3052 -222.353C88.0964 -214.806 79.7039 -201.639 88.382 -214.252C88.9176 -215.014 91.1984 -220.485 91.2783 -220.666C93.3689 -223.847 89.1408 -213.563 88.8498 -211.725C88.4006 -208.271 94.2429 -222.649 89.5933 -210.597C92.9134 -216.718 95.116 -221.47 97.2321 -228.139C97.2344 -228.146 97.2367 -228.153 97.239 -228.161C97.975 -230.504 98.759 -233.085 99.561 -236.565C98.8111 -233.296 98.0338 -230.604 97.3183 -228.135C97.3162 -228.127 97.314 -228.12 97.3119 -228.113C93.3044 -215.029 90.3133 -208.306 90.6238 -207.212C90.7609 -206.474 94.256 -210.696 100.006 -227.238C100.008 -227.246 100.011 -227.253 100.013 -227.26C100.059 -227.402 100.104 -227.543 100.149 -227.683C100.103 -227.542 100.057 -227.401 100.012 -227.261C100.009 -227.253 100.007 -227.246 100.004 -227.239C96.1855 -216.127 97.6597 -216.992 96.4025 -213.769C95.5863 -211.616 87.4844 -197.921 93.5455 -203.079C94.3126 -203.675 97.9412 -212.946 97.4148 -209.761C87.3277 -188.52 97.6992 -208.944 97.7949 -209.043C99.2721 -207.4 79.1279 -168.698 71.3241 -154.698C71.302 -154.657 71.28 -154.616 71.258 -154.575C70.3443 -152.88 69.6075 -151.492 69.1424 -150.566C64.2903 -140.903 61.1571 -131.676 60.0477 -129.602C56.4028 -122.824 58.7072 -128.851 57.6281 -127.486C56.5165 -126.057 47.5233 -106.067 46.9152 -105.129C44.5941 -101.59 45.7693 -105.854 45.5163 -105.491C42.487 -101.183 29.133 -75.0057 25.0016 -67.9228C25.705 -67.8138 33.6254 -82.2686 29.636 -72.7012C25.0003 -61.5492 22.1117 -62.4088 21.8471 -62.1981C6.56324 -34.1045 -8.84876 -5.94875 -23.7466 21.9723C-23.821 22.1123 -23.8952 22.2518 -23.9692 22.391C-28.8703 31.6108 -33.6655 40.7893 -38.1714 49.7717C-40.4215 54.2676 -42.5985 58.7145 -44.4096 62.7454C-45.293 64.7105 -46.1107 66.6732 -46.511 67.8177C-46.7118 68.3692 -46.7917 68.7516 -46.651 68.2222C-46.5767 67.7334 -45.9034 65.7902 -46.4061 61.3624C-46.4748 60.8268 -46.5718 60.2494 -46.674 59.7505C-46.9378 58.7049 -47.2293 56.42 -49.529 52.1789C-51.6157 48.015 -57.4087 42.3616 -62.5231 40.3153C-73.1964 36.2805 -75.748 38.3076 -77.5483 38.2363C-77.2055 38.0867 -77.134 37.5007 -72.0394 37.5106C-69.6738 37.7213 -63.6386 37.6878 -55.8135 43.7618C-52.1132 46.6973 -49.2731 50.8698 -47.9554 53.7789C-46.5653 56.7786 -46.1889 58.6537 -45.96 59.6046C-45.8479 60.1063 -45.7383 60.6999 -45.6573 61.2652C-45.0656 65.6547 -45.7698 68.1435 -45.8265 68.5444C-45.9509 69.0634 -45.7703 68.4022 -45.4268 67.5166C-44.7294 65.6623 -43.4582 62.7001 -42.2514 60.0103C-39.7789 54.5087 -37.425 49.581 -37.2203 49.3553C-36.3029 48.3677 -37.7612 51.7899 -40.0966 57.0177C-41.257 59.6258 -42.6751 62.7762 -43.8289 65.608C-44.3922 66.9852 -44.8943 68.3525 -45.0302 68.8532C-45.0954 69.0674 -45.0458 69.0779 -44.8471 68.175C-44.6883 67.319 -44.1892 65.04 -44.6629 61.1361C-44.7367 60.5588 -44.841 59.9366 -44.9511 59.3985C-45.2955 58.1559 -45.6149 54.8516 -49.3342 49.1551C-52.898 43.2986 -61.5186 38.0313 -66.3668 37.0979C-76.5054 35.0494 -77.621 36.7393 -79.1387 36.766C-79.7659 36.9159 -80.0676 37.0125 -80.2677 37.0756C-80.4723 37.1419 -80.5165 37.1611 -80.5181 37.1621C-80.5099 37.162 -80.2246 37.0514 -79.9102 36.9158C-78.4757 36.3037 -76.1187 35.1239 -74.1162 34.0773C-69.9145 31.8768 -66.525 29.9963 -65.1185 29.3311C-69.8099 31.6478 -74.6588 33.9618 -78.4425 35.4143C-73.3021 30.8253 -53.8038 22.0463 -42.7758 14.0505C-39.2292 11.491 -46.8041 15.3382 -46.679 15.1932C-42.8517 11.9036 -35.761 8.12147 -40.3221 12.2207C-30.5754 4.89462 -31.4434 6.72589 -23.5458 1.77558C-23.1412 1.51969 -26.6921 2.92677 -21.5658 -0.781475C-21.5096 -0.822323 -21.4525 -0.863754 -21.3941 -0.905976C-21.2261 -1.02737 -21.0485 -1.15444 -20.8607 -1.28755C-18.0367 -3.27226 -2.40709 -13.3887 -0.66026 -15.3675C0.0861177 -16.2022 -9.64049 -13.587 -9.09405 -10.7629C-26.839 -0.849029 -13.9252 -6.19149 -20.5327 -2.00756C-20.9496 -1.74657 -20.9386 -2.06412 -21.9242 -1.73147C-21.9881 -1.70993 -22.0562 -1.68565 -22.1288 -1.65838C-23.7286 -1.03404 -27.2303 0.890092 -36.2722 7.09047C-35.2392 4.72952 -29.1678 0.765438 -22.9872 -2.99531C-22.9268 -3.0319 -22.8665 -3.06845 -22.8062 -3.10501C-17.7044 -6.19625 -12.6556 -9.0562 -11.2222 -10.1609C-7.55693 -12.9867 -15.2157 -8.74248 -23.1947 -3.71003C-23.2544 -3.67242 -23.314 -3.6348 -23.3736 -3.59715C-29.537 0.300811 -35.6406 4.48572 -37.4337 6.68359C-36.1675 3.39576 -39.5648 7.71317 -45.7699 11.4986C-52.5512 15.6226 -50.0105 13.2997 -53.6161 15.5293C-63.5178 21.5789 -58.7389 20.4144 -67.4526 24.047C-62.4556 23.4811 -65.8815 25.7163 -71.2544 28.1978C-76.1919 30.5798 -84.7506 33.2051 -81.8955 31.4293C-82.2449 31.5301 -82.4233 31.5871 -82.5245 31.6159C-82.6287 31.6464 -82.6442 31.6461 -82.6157 31.6269C-82.5474 31.5844 -82.3157 31.4719 -81.9773 31.3021C-81.3384 30.9811 -80.3751 30.4797 -79.3534 29.922C-77.2981 28.8025 -74.8607 27.3962 -72.4736 25.9744C-67.5331 23.0337 -62.4742 19.8692 -57.3109 16.5858C-58.0188 16.7651 -58.7001 16.9273 -59.4013 17.1008C-56.7081 15.4951 -53.9436 13.827 -51.1083 12.1007C-51.4557 12.5613 -51.798 13.0185 -52.1355 13.4722C-38.6366 3.47547 -34.2322 2.3923 -33.1077 1.71295C-30.0147 -0.21549 -27.0288 -2.0928 -23.7448 -4.17532C-23.6853 -4.21301 -23.6258 -4.25073 -23.5662 -4.28854C-11.0048 -12.253 2.62985 -21.1346 14.7435 -29.0451C17.0326 -30.5435 14.7233 -30.6343 31.9984 -40.6929C37.5194 -43.9121 33.0997 -39.7533 39.0125 -43.8234C45.0067 -51.1798 46.1051 -49.1755 48.3493 -50.6462C54.8273 -54.906 58.3285 -58.0595 58.9353 -58.4677C66.828 -63.795 78.5729 -71.3944 87.2532 -77.2458C87.4114 -77.363 82.3684 -75.0891 88.2037 -78.6263C90.2378 -79.8557 110.212 -88.5438 125.191 -99.8893C120.986 -97.4191 116.765 -94.9375 112.559 -92.4656C117.539 -95.3302 150.583 -118.252 141.821 -113.676C136.462 -110.879 125.497 -100.752 122.876 -101.806C134.404 -108.601 195.62 -150.134 200.793 -152.82C201.502 -153.192 197.82 -149.882 198.792 -150.403C199.519 -150.795 213.652 -160.239 215.72 -161.235C216.949 -161.83 210.883 -157.326 211.533 -157.424C212.149 -157.604 230.052 -168.859 230.608 -170.333C226.377 -167.148 213.897 -159.423 219.959 -164.316C220.764 -164.959 225.334 -167.199 226.293 -167.97C235.058 -175.042 207.205 -156.622 202.917 -153.807C212.305 -160.747 225.287 -169.036 238.307 -177.274C238.401 -177.333 238.495 -177.392 238.589 -177.452C248.891 -183.969 259.171 -190.431 268.139 -196.449C277.018 -201.085 256.271 -187.573 266.174 -193.026C286.73 -204.265 270.856 -197.239 271.412 -197.707C275.825 -201.454 295.313 -208.268 293.762 -211.048C301.791 -215.118 298.963 -213.223 310.875 -220.077C309.084 -219.402 307.371 -218.739 305.752 -218.111C308.313 -219.95 311.734 -221.918 316.309 -223.972C321.606 -225.724 324.92 -229.547 343.729 -230.107C344.357 -230.086 344.954 -230.053 345.51 -230.012C349.023 -229.708 353.523 -229.276 360.048 -226.663C366.378 -224.264 375.037 -217.926 379.59 -210.224C388.416 -194.22 385.507 -186.653 385.392 -182.092C383.919 -173.267 382.236 -170.777 381.274 -168.472C381.114 -168.142 380.964 -167.845 380.828 -167.581C380.149 -166.289 379.764 -165.726 379.883 -166.224C379.996 -166.706 380.132 -167.244 380.267 -167.77C380.346 -168.075 380.43 -168.391 380.518 -168.718C381.259 -172.393 383.331 -175.421 383.679 -187.913C383.601 -191.23 383.327 -195.578 381.248 -201.429C379.301 -207.156 374.551 -214.298 368.842 -218.657C356.888 -227.397 349.508 -226.791 345.382 -227.399C344.844 -227.435 344.277 -227.463 343.696 -227.48C335.244 -227.563 331.878 -226.254 330.924 -226.111C325.301 -224.634 317.706 -218.271 298.371 -210.364C295.18 -207.213 302.428 -211.1 309.192 -214.429C316 -217.772 322.55 -220.655 312.857 -214.98C314.587 -215.912 317.042 -217.197 320.694 -218.822C324.926 -220.173 327.555 -223.482 343.655 -224.207C344.204 -224.198 344.731 -224.179 345.224 -224.153C349.475 -223.692 356.991 -223.85 367.45 -215.86C378.284 -207.229 380.694 -194.162 380.744 -188.818C380.767 -177.226 378.77 -173.899 377.599 -169.669C377.498 -169.369 377.395 -169.07 377.291 -168.772C368.135 -145.637 359.461 -135.147 357.783 -130.562C357.425 -129.745 361.49 -132.116 353.889 -121.838C350.286 -116.993 357.848 -129.374 355.971 -127.283C353.043 -123.848 336.077 -96.8493 318.273 -69.3813C318.124 -69.1503 317.975 -68.9186 317.824 -68.6863C301.058 -42.7227 283.816 -16.1032 278.164 -7.43829C277.405 -6.28112 277.114 -7.08502 276.375 -5.95004C274.103 -2.46253 266.555 10.8462 262.18 16.9029C271.78 4.65266 255.271 29.856 250.943 36.1507C244.369 45.718 243.751 44.467 240.776 48.5054C229.288 64.1004 215.167 90.6437 204.652 101.712C207.316 102.492 189.275 122.633 182.544 132.805C177.28 140.755 171.126 153.298 179.106 143.121C169.935 156.823 160.847 171.554 152.57 184.525C151.214 186.653 152.485 183.27 150.148 186.982C149.944 187.317 150.264 188.23 148.327 191.351C148.326 191.352 148.326 191.353 148.325 191.355C148.087 191.739 147.855 192.112 147.629 192.474C132.156 216.919 138.723 204.068 135.237 208.467C133.166 211.071 131.814 212.831 130.767 214.308C135.899 206.572 141.315 198.286 145.774 191.268C146.012 190.893 146.249 190.521 146.484 190.151C150.285 184.158 153.313 179.405 154.691 177.281C153.183 178.421 149.772 183.429 145.789 189.699C145.554 190.069 145.318 190.442 145.081 190.817C138.557 201.14 130.678 213.849 127.008 218.813C126.793 219.103 126.719 217.568 126.509 217.868C126.505 217.875 126.501 217.881 126.497 217.887C124.218 221.08 111.246 241.23 114.888 237.702C115.823 236.774 121.926 227.578 129.302 216.516C127.503 219.543 129.843 217.922 129.532 218.459C125.589 225.157 114.337 240.095 110.875 245.414C110.085 246.602 110.668 246.883 110.546 247.078C107.404 251.837 106.981 249.026 105.8 254.69C102.572 258.1 104.39 254.548 107.488 249.54C110.559 244.556 114.641 238.566 113.389 239.116C113.003 239.229 110.6 242.572 107.581 247.257C106.048 249.646 104.363 252.372 102.824 255.109C102.085 256.419 101.361 257.793 100.93 258.711C100.709 259.174 100.577 259.507 100.611 259.42C100.632 259.299 100.934 258.784 101.278 256.5C101.43 255.434 101.51 253.907 101.428 252.575C101.356 251.763 101.35 250.33 100.495 247.27C99.6848 244.378 97.3142 238.688 91.8447 234.24C89.1929 232.069 86.4225 230.633 83.7868 229.705C81.5264 228.906 79.3285 228.507 77.6897 228.35C76.2216 228.206 74.9641 228.206 73.9008 228.262C72.9266 228.316 72.2716 228.396 71.6238 228.491C69.2364 228.883 68.6427 229.174 68.1676 229.313C67.7648 229.452 67.711 229.478 67.7645 229.445C68.1025 229.274 69.716 228.387 71.1748 227.482C74.2225 225.611 77.5374 223.36 80.2585 221.425C85.8577 217.439 89.5099 214.464 89.2345 214.097C89.5479 214.113 90.4646 213.776 92.1967 212.918C96.0935 211.025 111.922 199.723 114.509 197.463C114.931 197.087 113.757 195.826 114.319 195.408C115.159 194.786 122.491 190.135 129.756 185.13C129.889 185.038 130.023 184.946 130.156 184.854C135.058 181.474 140 177.876 142.731 175.401C138.617 178.08 134.544 180.721 130.509 183.325C154.308 166.163 150.214 168.45 142.08 173.716C141.673 174.004 141.244 174.234 140.857 174.505C136.516 177.323 131.293 180.772 128.501 182.557C128.359 182.649 128.222 182.737 128.092 182.82C126.967 183.541 126.28 183.965 126.223 183.959C126.124 183.946 126.737 183.429 127.886 182.535C128.008 182.44 128.137 182.341 128.271 182.238C136.111 176.213 164.666 155.469 158.793 161.396C157.829 162.372 138.746 175.326 148.67 169.531C150.418 168.512 162.172 159.579 162.881 159.214C167.581 156.827 142.046 176.714 145.969 175.31C151.683 169.798 160.107 164.409 167.279 158.83C170.471 156.345 170.798 155.051 171.195 154.742C177.215 150.079 174.295 153.313 176.311 151.816C177.364 151.031 188.301 140.692 187.566 144.472C226.06 113.932 197.433 134.902 173.173 152.774C180.275 146.419 195.618 135.78 202.256 130.648C204.629 128.813 202.669 129.166 206.678 126.016C214.91 119.553 255.761 90.8704 266.416 83.3683C260.145 88.3379 262.594 87.7195 267.533 84.0231C272.473 80.3268 267.543 82.3686 268.434 81.5485C269.388 80.6727 293.116 64.0632 296.919 61.0904C279.579 74.3199 284.108 72.1786 299.114 61.3421C297.115 63.1374 295.102 64.9435 293.11 66.7344C301.643 60.0248 320.934 47.7407 325.752 43.7126C326.511 43.0757 323.172 44.5268 323.598 44.1692C327.885 40.6304 343.459 30.325 344.045 29.572C344.504 28.9615 337.648 33.113 339.853 31.1124C340.295 30.7075 347.186 27.0295 353.19 22.3675C355.423 20.6351 353.606 21.0274 354.157 20.5762C358.734 16.8305 356.629 19.8937 365.3 13.3984C371.637 8.65516 375.752 4.18642 384.885 -1.83519C354.731 17.8399 379.657 0.744387 391.677 -8.36921C393.645 -9.85433 391.1 -9.7278 403.339 -17.5627C387.826 -4.63919 395.929 -10.3102 405.375 -17.1466C405.664 -17.3555 405.953 -17.5648 406.242 -17.7739C411.015 -21.2255 415.78 -24.676 417.956 -26.1711C418.346 -26.4305 418.88 -25.7242 422.243 -28.0273C422.518 -28.2165 421.797 -28.4516 424.803 -30.5713C453.623 -50.6658 435.462 -37.507 441.324 -40.768C443.745 -42.1192 457.737 -52.3518 461.679 -54.8611C462.603 -55.4547 462.427 -54.6182 465.999 -56.921C472.201 -60.9152 477.544 -64.9654 481.802 -67.5732C482.318 -67.8661 482.73 -67.0802 490.892 -72.148C493.186 -73.5589 495.762 -75.3798 492.2 -73.7007C480.4 -68.1851 461.642 -54.4469 449.759 -47.6674C438.8 -41.5242 471.803 -63.1235 473.865 -64.1683C474.533 -64.5876 468.044 -60.0043 474.922 -64.1478C480.756 -67.6475 490.656 -75.5716 500.744 -80.3867C501.395 -80.7496 510.362 -83.5721 510.025 -83.2728C509.482 -83.0818 497.428 -76.5854 499.445 -77.1262C499.588 -77.1883 507.361 -81.1788 508.614 -81.3876C510.077 -81.6894 515.154 -80.0505 516.976 -80.7116C521.668 -82.4125 518.378 -81.9515 521.391 -83.0793C521.686 -83.1869 522.005 -83.3009 522.352 -83.4224C522.787 -83.5755 523.255 -83.7356 523.739 -83.8978C530.149 -85.2734 541.026 -92.1822 560.701 -87.9448C562.288 -87.5062 563.671 -87.0146 564.788 -86.5812C567.082 -85.6946 568.724 -84.8427 569.104 -84.8245C567.668 -85.6927 566.272 -86.3956 564.958 -86.9736C563.654 -87.547 562.266 -88.0628 560.861 -88.4872C552.741 -90.8656 546.526 -90.1041 542.28 -89.5318C547.728 -90.506 554.984 -90.5415 560.934 -88.7341C562.483 -88.2883 563.879 -87.7757 565.085 -87.2685C570.351 -85.0844 574.121 -81.9375 575.941 -80.2066C577.828 -78.3968 578.295 -77.811 578.391 -77.8309C578.55 -77.8221 577.051 -79.9991 579.931 -76.446C583.567 -71.3985 583.895 -69.2974 584.747 -66.0817C585.448 -62.9804 586.218 -58.1747 585.86 -51.7361C585.835 -51.2963 585.749 -49.4194 585.445 -47.0976C585.35 -46.3653 585.239 -45.6034 585.103 -44.7847C582.83 -30.5914 574.333 -15.7519 574.993 -15.8499C581.546 -30.8427 580.061 -25.2237 580.433 -25.7542C581.758 -28.6029 582.698 -32.7429 584.188 -37.9063C584.897 -40.3757 585.417 -42.7437 585.763 -44.671C585.911 -45.4865 586.035 -46.2491 586.144 -47.0042C586.789 -51.3767 586.78 -54.8833 586.763 -56.6159C586.732 -58.3861 586.828 -58.306 587.03 -57.1641C587.499 -54.7286 587.51 -49.3365 587.317 -46.8476C587.194 -44.8393 587.191 -44.0093 587.642 -46.4781C587.659 -46.5813 587.676 -46.6878 587.693 -46.7974C588.387 -50.0292 587.722 -58.9187 586.999 -61.7381C585.138 -70.2316 585.321 -71.6519 580.733 -78.2166C567.264 -91.8924 582.237 -75.2719 580.58 -76.0324C578.073 -79.6886 571.294 -85.7051 565.394 -87.986C564.058 -88.568 562.62 -89.1024 561.173 -89.5434C552.999 -91.9463 547.375 -91.29 545.424 -91.4856C544.403 -91.5344 544.096 -91.667 544.839 -91.9428C545.613 -92.188 547.261 -92.699 551.52 -92.8134C543.95 -93.1282 541.744 -92.0421 539.353 -91.3948C537.139 -90.6751 535.34 -89.989 532.449 -89.4785C521.788 -87.2929 536.005 -92.271 544.881 -93.2242C549.446 -93.8462 555.626 -93.9076 561.925 -92.0874C563.513 -91.6349 565.051 -91.0852 566.472 -90.4845C574.839 -87.5767 585.073 -76.9163 587.502 -67.7933C590.368 -58.7047 589.767 -52.3246 589.088 -46.611C588.974 -45.7801 588.849 -44.9836 588.707 -44.1649C587.897 -39.3281 586.236 -33.7196 584.301 -28.7627C581.171 -20.6943 578.02 -13.2222 576.549 -10.3087C575.625 -8.29356 564.267 6.35911 567.587 8.83771C563.662 14.7853 555.703 22.6693 552.082 28.8103C548.848 34.3029 551.161 33.3475 550.898 33.8861C550.467 34.7626 546.326 41.2317 545.143 43.5182C544.902 43.9862 544.738 44.3468 544.621 44.643C544.356 45.3144 544.335 45.654 544.179 46.195C544.017 46.7841 543.696 47.6111 542.654 49.4649C536.752 59.9446 535.638 58.8563 534.902 59.8459C526.315 71.3013 531.444 67.1948 529.9 69.953C528.477 72.5451 505.577 106.797 501.332 114.355C502.993 111.216 504.629 108.115 506.291 104.97C502.084 109.781 499.755 116.228 498.279 115.409C499.882 117.946 491.299 127.91 489.244 131.224C488.434 132.532 488.89 132.681 487.861 134.312C483.851 140.68 474.34 154.727 472.327 158.276C463.606 173.643 489.491 136.668 491.504 133.727C487.621 139.697 466.315 173.805 477.442 158.987C479.161 156.697 480.886 151.784 481.717 150.409C487.345 141.114 483.628 148.881 484.177 148.222C485.101 147.1 488.099 140.511 489.224 138.999C489.6 138.491 488.23 142.437 493.87 133.733C491.908 138.546 475.457 162.582 473.575 165.911C472.906 167.095 479.242 161.052 464.071 180.884C464.387 180.745 464.703 180.606 465.019 180.467C457.58 192.134 450.116 203.851 442.718 215.507C443.155 214.017 446.616 207.009 441.493 215.323C438.534 220.129 441.611 217.143 441.357 217.59C440.182 219.665 428.728 237.425 416.24 257.13C415.901 257.665 415.563 258.199 415.227 258.73C401.404 280.443 387.174 303.768 383.331 310.916C380.439 315.87 374.938 328.512 374.923 328.981C374.19 330.695 372.931 333.7 372.368 335.712C372.293 335.972 372.222 336.234 372.157 336.493C371.623 338.403 371.873 339.552 371.637 337.449C371.626 335.587 368.931 329.298 366.227 326.564C363.845 323.922 363.424 323.583 363.582 323.408C363.666 323.253 364.126 323.262 362.009 321.672C361.677 321.433 361.277 321.161 360.794 320.862C354.388 317.394 360.645 321.643 358.735 320.657C358.201 320.382 357.547 320.064 356.772 319.734C354.515 318.734 351.19 317.88 348.801 317.736C346.371 317.557 345.068 317.829 344.979 317.814C344.803 317.874 348.591 316.583 353.121 314.363C353.613 314.128 354.11 313.887 354.626 313.635C365.764 308.294 378.828 299.654 384.133 296.697C379.331 299.719 362.353 311.251 355.285 315.017C354.729 315.337 354.244 315.618 353.819 315.867C352.467 316.658 351.786 317.099 351.916 317.152C351.967 317.159 352.84 316.88 354.073 316.415C354.559 316.231 355.092 316.023 355.655 315.794C357.612 315 359.613 314.072 360.222 313.594C362.784 313.106 369.577 306.925 374.284 304.464C374.825 304.168 373.396 306.496 381.589 301.572C384.427 299.861 391.311 294.305 399.405 290.051C401.927 288.207 407.241 284.594 413.809 280.101C414.391 279.704 414.988 279.295 415.602 278.875C436.638 264.46 469.653 241.756 472.071 238.966C472.156 238.825 463.681 244.263 468.949 239.926C475.928 234.184 470.628 240.72 479.354 234.835C480.647 233.942 504.588 216.961 505.325 216.307C511.909 210.17 490.499 224.379 490.72 224.062C491.228 223.232 508.638 210.871 509.42 210.457C510.154 210.063 496.773 221.378 513.654 208.946C511.559 210.138 509.466 211.332 507.376 212.527C515.261 206.601 516.718 207.053 518.728 205.761C524.988 201.756 530.632 195.72 541.814 190.911C544.768 189.646 540.771 193.109 541.149 192.963C544.744 191.512 547.591 187.053 553.255 185.217C553.69 185.085 543.055 193.187 562.546 180.407C561.114 181.158 559.686 181.909 558.264 182.659C558.909 182.134 560.642 180.907 562.928 179.341C563.589 178.888 564.294 178.407 565.03 177.906C571.856 173.268 581.348 166.844 583.155 165.703C591.022 160.736 584.838 166.197 592.55 160.895C586.745 162.929 610.277 146.974 609.619 149.067C612.04 145.398 632.938 133.374 642.763 127.665C646.551 125.408 652.59 121.553 657.391 118.681C657.753 118.466 657.989 118.322 658.315 118.129C658.485 118.029 658.629 117.943 658.75 117.87C658.818 117.829 658.938 117.76 659.005 117.72C659.042 117.699 659.074 117.679 659.102 117.663C659.122 117.651 659.107 117.658 659.176 117.62C659.197 117.608 659.216 117.597 659.213 117.598C659.21 117.6 659.213 117.598 659.183 117.615C659.174 117.62 659.164 117.625 659.13 117.643C659.111 117.654 659.092 117.664 659.027 117.7C658.991 117.72 658.953 117.741 658.836 117.807C658.772 117.843 658.699 117.883 658.504 117.995C658.4 118.055 658.275 118.127 657.992 118.295C657.845 118.383 657.664 118.491 657.33 118.7C656.955 118.944 656.616 119.122 655.183 120.153C654.34 120.837 653.589 121.107 650.224 124.511C648.641 126.913 645.124 127.573 641.028 141.909C639.008 148.807 640.348 164.756 649.87 174.372C659.03 183.867 667.44 185.049 671.843 185.799C680.856 186.679 682.798 185.481 684.918 185.184C686.787 184.743 687.718 184.42 688.471 184.17C689.904 183.675 690.473 183.42 690.962 183.218C691.867 182.83 692.175 182.675 692.456 182.543C692.719 182.417 692.873 182.34 692.997 182.279C693.455 182.049 693.534 182.004 693.642 181.948C693.821 181.854 693.863 181.832 693.909 181.807C693.989 181.764 694.009 181.753 694.031 181.742C694.068 181.721 694.078 181.716 694.088 181.711C694.138 181.684 694.117 181.695 694.118 181.695C692.025 182.933 690.417 183.865 689.766 184.185C687.294 185.397 687.495 183.919 682.986 186.047C681.679 186.653 669.361 194.357 656.794 199.463C654.467 200.413 647.753 201.442 652.505 198.512C659.928 193.783 673.722 188.22 673.043 187.22C672.037 186.275 655.383 196.158 648.436 199.248C648.174 199.365 647.91 199.482 647.633 199.602C647.336 199.731 647.14 199.815 646.616 200.035C646.178 200.217 645.689 200.416 644.993 200.674C644.463 200.867 643.651 201.173 642.246 201.569C641.519 201.768 640.623 202.006 639.201 202.258C639.022 202.29 638.834 202.321 638.636 202.352C638.536 202.367 638.434 202.383 638.33 202.398C638.277 202.406 638.224 202.413 638.17 202.421C638.142 202.425 638.121 202.428 638.085 202.433C637.973 202.448 637.857 202.463 637.739 202.478C635.785 202.65 633.258 203.16 627.5 202.057C624.632 201.424 620.672 200.28 616.039 197.013C611.444 193.868 606.597 187.818 604.669 181.402C600.936 167.947 605.358 160.982 606.866 157.616C609.827 152.428 611.298 151.453 612.377 150.255C613.427 149.224 614.114 148.661 614.583 148.273C615.106 147.848 615.495 147.555 615.833 147.304C616.17 147.056 616.452 146.856 616.711 146.676C616.892 146.552 617.05 146.446 617.206 146.342C617.516 146.136 617.8 145.953 618.074 145.779C618.312 145.629 618.496 145.516 618.702 145.391C619.573 144.859 620.106 144.562 620.771 144.183C621.905 143.551 622.893 143.03 623.785 142.572C625.482 141.711 626.738 141.137 627.691 140.737C629.494 140.003 630.055 139.981 629.919 140.327C629.656 141.01 626.918 143.049 627.308 143.064C629.372 142.965 641.61 136.342 642.168 136.195C644.49 135.408 636.172 140.692 636.383 141.296C636.612 142.046 649.114 136.99 646.565 138.643C642.93 140.952 631.543 145.859 630.862 146.358C622.253 152.253 635.54 146.642 639.322 145.641C640.481 145.312 636.657 147.96 637.547 147.558C651.005 141.529 638.942 143.834 647.658 139.437C655.445 135.561 646.152 141.817 646.499 141.722C646.902 141.574 656.092 136.767 657.733 136.371C658.511 136.091 635.979 150.924 637.54 151.415C644.946 146.923 652.348 142.672 659.807 138.431C661.055 139.242 649.718 144.254 648.664 144.998C646.56 146.466 653.175 143.626 653.119 144.139C653.109 144.439 646.235 149.332 653.08 146.011C655.433 144.864 659.773 141.448 668.58 137.743C640.201 154.58 660.663 144.29 661.732 144.201C662.786 144.14 649.585 152.733 666.19 143.298C668.178 145.099 666.228 144.19 661.714 147.222C656.213 150.963 669.983 144.118 648.544 155.558C650.357 155.914 667.284 146.218 668.241 145.814C669.06 145.452 665.576 148.083 667.021 147.498C684.071 140.514 672.619 145.767 677.943 144.422C678.415 144.293 693.711 136.31 682.363 142.924C661.756 155.051 652.281 158.647 650.719 163.933C666.706 156.265 684.092 143.596 688.807 140.973C695.963 136.911 688.855 141.692 689.849 141.366C690.179 141.248 696.318 137.767 696.458 137.762C702.098 137.532 669.021 153.28 659.367 159.625C662.233 158.427 665.113 157.219 667.979 156.017C664.378 158.152 660.782 160.298 657.191 162.453C674.775 153.026 657.934 162.341 654.873 166.914C654.174 167.946 664.899 160.422 652.9 169.367C662.455 163.974 659.688 166.179 667.909 160.491C668.171 161.364 649.326 173.97 642.485 178.891C669.12 163.66 652.533 169.88 676.462 157.495C680.215 153.975 669.255 160.769 670.069 160.074C672.986 157.572 681.042 153.893 689.207 146.643C690.54 145.47 683.593 148.109 693.086 142.801C694.12 142.219 700.632 139.707 700.596 139.816C700.131 140.904 694.033 143.979 693.947 144.395C693.852 144.776 700.427 140.912 700.495 140.983C701.125 141.691 695.121 144.365 696.083 144.17C696.728 144.025 699.346 142.913 701.932 141.879C702.2 141.773 702.464 141.668 702.722 141.568C707.006 139.882 710.396 138.718 703.303 142.639C703.072 142.767 702.828 142.904 702.568 143.047C700.098 144.415 696.539 146.356 691.613 149.085C697.443 145.448 700.724 143.452 702.25 142.463C702.563 142.259 702.793 142.104 702.951 141.99C703.388 141.681 703.324 141.659 702.879 141.858C702.695 141.94 702.44 142.062 702.119 142.223C698.921 143.806 689.87 149.057 684.577 152.446C682.079 154.035 681.713 154.912 678.193 157.249C673.667 160.26 668.098 163.317 665.758 164.868C663.263 166.543 678.545 158.814 657.237 171.392C668.643 166.014 686.966 153.042 698.182 147.863C700.833 146.619 702.676 145.836 703.85 145.403C704.172 145.285 704.438 145.196 704.656 145.132C705.723 144.806 705.702 145.036 704.932 145.643C704.752 145.788 704.526 145.956 704.255 146.147C699.507 149.362 683.025 159.423 680.625 161.091C679.646 161.748 683.398 160.368 682.752 160.818C681.674 161.512 661.059 173.915 659.429 175.745C657.782 177.575 666.845 171.066 667.836 171.265C668.457 171.417 644.542 187.465 657.867 179.469C667.047 173.9 683.053 161.688 686.896 161.669C673.533 170.081 659.787 179.118 647.251 187.23C654.34 183.651 662.387 179.533 670.002 175.548C665.699 178.389 661.534 181.031 657.452 183.574C655.429 184.835 653.432 186.069 651.497 187.272C650.516 187.883 649.573 188.473 648.727 189.012C648.503 189.155 648.3 189.285 648.123 189.4C647.935 189.522 647.733 189.655 647.606 189.739C647.491 189.816 647.341 189.919 647.396 189.882C647.405 189.876 647.507 189.807 647.784 189.596C647.855 189.542 647.938 189.477 648.039 189.397C648.089 189.357 648.144 189.313 648.204 189.264C648.242 189.233 648.381 189.12 648.544 188.98C648.873 188.695 649.302 188.328 650.02 187.588C650.744 186.77 651.77 185.924 653.592 182.682C654.692 180.214 658.079 174.879 655.018 164.776C653.444 159.977 649.694 155.651 646.315 153.486C642.898 151.229 640.076 150.498 638.039 150.09C633.958 149.393 632.208 149.767 630.856 149.899C630.47 149.952 630.237 149.991 629.974 150.038C628.97 150.219 628.363 150.384 627.886 150.517C626.968 150.779 626.521 150.955 626.288 151.04C625.958 151.165 625.816 151.227 625.743 151.257C629.104 149.663 636.266 145.73 641.759 142.288C605.26 158.532 652.25 134.519 652.823 133.699C652.896 133.457 637.805 139.198 635.395 140.025C641.601 136.288 654.773 128.86 662.707 123.921C662.723 123.912 662.675 123.937 662.776 123.882C662.79 123.874 662.804 123.866 662.852 123.841C662.879 123.827 662.907 123.811 662.995 123.764C663.044 123.739 663.098 123.71 663.25 123.631C663.331 123.589 663.427 123.539 663.658 123.424C663.778 123.364 663.927 123.29 664.218 123.153C664.566 122.998 664.784 122.858 666.326 122.259C666.748 122.101 667.274 121.903 668.215 121.616C669.233 121.343 670.331 120.895 673.858 120.499C675.722 120.377 678.187 120.018 683.32 121.121C687.893 122.012 698.869 126.552 703.736 138.43C708.281 150.148 704.818 158.243 703.301 161.828C701.477 165.677 700.076 167.247 699.069 168.5C697.06 170.825 696.162 171.475 695.439 172.111C694.742 172.689 694.315 173.004 693.973 173.256C693.304 173.742 692.978 173.952 692.713 174.128C692.207 174.457 692.006 174.575 691.833 174.681C691.669 174.78 691.568 174.839 691.487 174.887C691.185 175.063 691.126 175.095 691.052 175.137C690.927 175.207 690.897 175.223 690.864 175.241C690.808 175.273 690.793 175.281 690.778 175.289C690.729 175.316 690.731 175.315 690.723 175.319C690.712 175.325 690.711 175.326 690.708 175.328C690.699 175.334 690.692 175.338 690.675 175.349C690.632 175.373 690.646 175.367 690.63 175.377C690.609 175.391 690.583 175.408 690.552 175.428C690.499 175.463 690.377 175.535 690.345 175.559C690.239 175.628 690.111 175.71 689.961 175.804C689.706 175.968 689.487 176.111 689.2 176.294C683.473 180.008 681.77 181.704 690.259 178.212C690.507 178.107 690.736 178.011 690.942 177.93C691.023 177.901 691.201 177.819 691.309 177.776C691.439 177.72 691.491 177.708 691.654 177.635C691.433 177.722 691.268 177.786 690.997 177.912C690.8 177.999 690.564 178.112 690.283 178.255C685.862 180.493 678.702 185.742 678.86 185.761C679.807 185.927 686.109 182.562 691.172 179.865C691.497 179.691 691.717 179.576 692 179.426C692.151 179.346 692.278 179.28 692.381 179.226C692.432 179.2 692.536 179.144 692.587 179.118C692.616 179.103 692.64 179.091 692.66 179.08C692.675 179.073 692.662 179.08 692.708 179.056C692.722 179.048 692.726 179.046 692.737 179.04C692.741 179.038 692.741 179.038 692.765 179.025C692.772 179.022 692.779 179.017 692.801 179.005C692.813 178.999 692.827 178.991 692.859 178.974C692.909 178.946 692.883 178.961 693.183 178.793C693.287 178.733 693.355 178.698 693.811 178.429C693.936 178.354 694.091 178.262 694.368 178.09C694.673 177.896 694.973 177.729 696.07 176.96C696.691 176.492 697.326 176.146 699.534 174.139C700.705 172.895 702.288 171.988 705.779 166.256C707.33 163.204 710.374 158.482 710.158 148.057C710.514 137.53 700.667 123.539 692.622 120.158C684.656 116.093 680.093 116.302 677.087 116.132C674.085 116.115 672.392 116.394 671.062 116.606C668.498 117.064 667.421 117.439 666.524 117.71C664.852 118.254 664.281 118.517 663.762 118.726C662.822 119.124 662.532 119.271 662.255 119.401C662 119.523 661.854 119.596 661.735 119.654C661.507 119.769 661.401 119.824 661.314 119.869C661.149 119.954 661.085 119.988 661.03 120.017C660.842 120.116 660.837 120.12 660.802 120.139C660.75 120.166 660.742 120.171 660.73 120.178C660.675 120.207 660.694 120.197 660.685 120.202C656.948 122.143 654.076 123.552 655.337 122.397C656.609 121.209 658.331 120.213 660.199 119.309C660.209 119.304 660.188 119.316 660.248 119.283C660.263 119.276 660.27 119.272 660.336 119.236C660.355 119.226 660.377 119.214 660.421 119.19C660.473 119.163 660.508 119.143 660.731 119.027C660.792 118.995 660.867 118.956 660.999 118.889C661.142 118.816 661.29 118.738 661.784 118.5C662.06 118.371 662.352 118.223 663.272 117.83C663.777 117.624 664.343 117.366 665.926 116.837C666.769 116.571 667.79 116.214 670.103 115.749C671.295 115.527 672.804 115.248 675.397 115.138C678.03 115.137 681.715 114.813 688.789 117.302C695.464 119.194 707.936 129.091 710.333 141.894C712.855 154.296 709.279 161.218 707.615 164.97C703.663 172.282 701.807 173.146 700.508 174.616C698.041 176.903 697.379 177.24 696.709 177.752C695.536 178.576 695.228 178.746 694.908 178.951C694.349 179.296 694.197 179.379 694.042 179.471C693.902 179.552 693.823 179.597 693.76 179.633C693.637 179.703 693.582 179.734 693.536 179.76C693.265 179.91 693.323 179.877 693.283 179.899C693.263 179.91 693.256 179.914 693.249 179.918C693.227 179.93 693.227 179.93 693.223 179.932C693.212 179.937 693.207 179.939 693.193 179.947C693.146 179.971 693.161 179.962 693.145 179.969C693.125 179.978 693.1 179.99 693.07 180.004C693.018 180.028 692.91 180.082 692.86 180.105C692.754 180.153 692.624 180.214 692.47 180.287C692.181 180.423 691.953 180.522 691.62 180.678C688.873 181.927 685.694 183.219 682.55 185.018C651.662 202.683 662.982 202.697 631.235 219.181C631.962 218.998 632.687 218.818 633.409 218.642C623.036 224.317 612.833 230.158 602.846 236.425C602.162 236.854 601.477 237.286 600.792 237.722C578.711 251.762 556.721 266.499 534.77 281.468C523.041 291.556 490.02 316.043 473.178 327.654C470.909 329.218 462.537 334.607 456.785 338.226C456.102 338.657 455.463 339.058 454.879 339.423C452.997 340.599 451.588 341.468 451.251 341.653C450.012 342.335 452.492 340.509 454.541 338.935C455.2 338.431 455.834 337.939 456.315 337.548C457.283 336.754 457.582 336.398 456.095 337.231C455.908 337.337 455.694 337.46 455.451 337.603C455.313 337.684 454.866 337.977 454.189 338.426C448.563 342.258 425.369 357.577 427.596 357.007C431.035 354.906 440.966 347.671 442.724 346.721C449.917 342.452 420.678 364.846 386.896 381.388C386.165 381.735 385.439 382.075 384.696 382.418C372.196 387.074 355.955 398.61 327.042 388.297C323.848 386.919 321.03 385.281 318.68 383.646C312.12 379.008 309.23 374.986 308.059 373.645C310.722 377.352 314.222 381.033 318.362 384.1C320.963 386.034 323.794 387.718 326.703 389.079C328.673 390.005 330.656 390.776 332.591 391.403C330.642 390.826 328.638 390.103 326.641 389.223C323.692 387.926 320.809 386.3 318.144 384.413C296.852 367.959 296.882 349.226 296.526 338.871ZM562.746 175.899C562.926 175.712 563.13 175.517 563.355 175.315C566.755 172.281 574.811 167.652 579.354 164.306C586.052 159.392 595.826 148.356 592.714 154.883C582.976 161.784 573.275 168.667 563.429 175.43C563.202 175.586 562.974 175.743 562.746 175.899ZM417.69 274.358C424.282 270.348 420.713 275.188 415.138 278.207C415.021 278.271 414.903 278.333 414.785 278.395C414.516 278.535 413.406 278.815 412.842 278.704C412.583 278.654 412.436 278.523 412.535 278.261C412.65 277.955 413.095 277.474 414.105 276.718C414.892 276.127 416.037 275.365 417.69 274.358ZM486.701 226.992C486.436 227.208 480.717 231.148 480.5 231.263C474.937 234.182 492.199 222.298 486.701 226.992ZM455.978 191.678C451.302 199.088 456.246 194.754 458.596 189.739C458.743 189.424 456.287 191.191 455.978 191.678ZM452.552 196.903C447.499 201.754 442.827 215.076 448.449 205.731C449.003 204.807 452.783 196.691 452.552 196.903ZM441.283 258.763C440.884 259.804 434.037 264.262 431.065 266.168C430.818 265.651 438.5 260.811 441.283 258.763ZM383.364 309.273C383.239 309.015 379.804 314.736 376.932 320.36C373.972 326.072 372.19 330.926 372.343 331.486C372.206 329.694 383.311 309.904 383.364 309.273ZM420.26 247.963C419.847 248.473 415.899 254.867 415.237 256.496C415.14 256.735 415.114 256.871 415.18 256.87C415.252 256.781 415.325 256.691 415.398 256.598C418.417 252.738 422.274 245.488 420.26 247.963ZM499.156 125.418C499.359 124.902 493.035 129.67 504.077 115.849C505.696 113.821 501.306 121.962 501.885 121.243C503.088 119.73 503.977 118.514 504.655 117.491C500.418 124.493 495.893 131.706 495.304 132.313C492.55 135.136 499.071 125.634 499.156 125.418ZM538.901 59.4657C539.375 57.9665 544.299 50.4224 546.304 47.5217C546.539 47.1811 546.736 46.9009 546.887 46.6948C547.062 46.4585 547.117 47.4005 547.93 46.7065C548.317 46.3769 548.878 45.673 549.684 44.3232C551.681 40.9714 547.559 45.337 551.795 38.8683C556.04 32.3631 551.322 41.6326 551.722 41.0964C552.264 40.3906 558.139 29.8101 558.537 30.4824C558.821 31.0312 551.764 41.8246 550.16 44.592C548.571 47.354 550.284 45.6527 549.275 47.545C549.102 47.8692 548.849 48.2996 548.481 48.8812C548.266 49.222 548.01 49.6169 547.704 50.0767C545.35 53.6211 545.313 50.8203 544.77 51.5429C544.289 52.2099 537.132 65.2028 538.917 59.4491C538.912 59.4546 538.906 59.4602 538.901 59.4657ZM505.802 115.583C505.511 116.131 505.141 116.756 504.655 117.491C505.042 116.851 505.424 116.213 505.802 115.583ZM543.446 189.415C539.671 191.37 549.775 183.899 554.098 181.806C554.432 182.168 544.042 189.094 543.446 189.415ZM508.875 108.522C515.765 98.4972 511.38 106.299 505.802 115.583C507.427 112.53 506.542 111.916 508.875 108.522ZM360.222 313.594C359.796 313.685 359.484 313.645 359.32 313.403C360.439 313.189 360.613 313.288 360.222 313.594ZM345.772 319.469C346.222 319.528 346.812 319.601 347.115 319.681C347.429 319.761 347.459 319.831 347.258 319.886C346.843 319.986 345.749 320.123 345.543 320.178C344.96 320.37 347.684 319.359 347.497 319.053C347.456 318.945 346.168 319.336 345.626 319.451C345.345 319.516 345.271 319.522 345.383 319.505C345.485 319.488 345.74 319.463 345.772 319.469ZM462.168 182.244C461.617 182.938 466.848 169.916 457.677 187.817C463.726 179.022 457.863 188.643 458.154 188.623C458.939 188.642 468.15 173.182 470.546 170.009C471.227 166.741 463.99 179.944 462.18 182.225C462.176 182.231 462.172 182.238 462.168 182.244ZM526.438 -94.476C529.804 -95.571 536.864 -101.066 558.571 -98.5917C553.546 -99.2961 545.054 -99.0161 539.646 -97.8745C533.991 -96.8089 529.705 -95.509 526.438 -94.476ZM93.5768 -82.4758C122.983 -102.759 128.629 -102.597 100.648 -85.6722C100.102 -85.3442 91.9474 -81.0068 93.5768 -82.4758ZM371.587 -141.77C368.534 -139.386 374.272 -149.296 379.209 -159.123C380.331 -161.224 385.25 -170.202 381.388 -159.503C379.84 -159.811 373.033 -147.284 371.587 -141.77ZM511.919 102.302C513.153 98.841 519.51 90.0215 522.74 85.1929C521.418 88.5408 514.897 98.15 511.919 102.302ZM192.63 -145.687C195.801 -147.637 197.319 -150.1 196.703 -149.82C193.946 -148.577 188.675 -143.932 192.63 -145.687ZM492.751 131.845C492.061 131.998 499.488 119.592 501.066 119.412C499.317 121.965 493.207 131.716 492.751 131.845ZM541.973 -97.9353C544.535 -98.1459 538.879 -97.3091 534.289 -95.9567C529.567 -94.6409 525.14 -93.0415 523.095 -92.4554C523.179 -92.76 526.294 -94.0678 530.388 -95.3505C534.326 -96.6443 540.207 -97.8205 541.973 -97.9353ZM243.527 -179.267C246.407 -180.992 253.638 -185.571 254.191 -186.509C254.853 -187.674 244.336 -180.706 243.527 -179.267ZM57.2452 -114.651C57.6259 -114.953 52.6593 -102.689 49.6055 -97.7515C43.7855 -88.3676 56.9114 -114.31 57.2452 -114.651ZM163.123 -125.546C153.597 -120.676 164.07 -126.213 163.02 -126.997C157.012 -123.098 142.111 -113.352 152.986 -119.066C155.131 -120.198 160.277 -123.768 163.123 -125.546ZM171.553 -130.598C172.302 -131.568 178.024 -136.835 172.524 -133.112C169.959 -131.374 166.62 -127.504 171.553 -130.598ZM19.3199 -43.1503C13.9152 -35.2552 35.1326 -73.4305 35.8761 -74.4638C36.2705 -75.0044 36.5513 -75.3453 36.7319 -75.5277C37.222 -77.0936 41.0971 -84.4006 42.224 -84.8515C40.9988 -82.7081 37.8495 -76.7103 37.4032 -76.0651C37.2105 -75.7853 37.0606 -75.5801 36.9473 -75.4444C36.1593 -72.5322 20.3508 -44.6501 19.3199 -43.1503ZM-15.7074 19.8489C-11.9997 9.57435 -8.77836 9.15271 -9.151 10.0209C-13.7463 20.9389 -11.833 13.2157 -12.0793 13.4857C-12.6022 14.1381 -15.729 21.9506 -15.6917 19.8194C-15.697 19.8292 -15.7022 19.8391 -15.7074 19.8489ZM11.9222 -30.3076C12.1083 -30.7228 16.5171 -38.733 16.7259 -39.0364C21.0193 -45.2126 8.55924 -22.5386 11.9222 -30.3076ZM568.246 8.29733C571.896 2.46598 569.3 8.76496 566.724 12.4987C566.522 12.7727 565 13.4336 568.246 8.29733ZM175.796 -133.712C177.18 -134.408 210.087 -155.111 207.385 -155.145C204.687 -153.194 167.21 -129.534 175.796 -133.712ZM326.033 -72.2467C329.841 -78.1161 326.906 -70.9158 324.484 -68.1687C323.571 -67.1271 325.117 -70.8344 326.033 -72.2467ZM481.235 147.571C477.956 153.931 476.795 151.428 480.815 146.676C480.973 146.49 481.363 147.322 481.235 147.571ZM356.528 -118.727C344.468 -97.7989 343.653 -104.683 361.527 -131.099C361.198 -130.152 360.811 -129.112 360.492 -128.189C380.235 -160.639 362.064 -129.819 357.614 -122.341C355.908 -119.372 358.066 -121.429 356.545 -118.744C356.539 -118.739 356.533 -118.733 356.528 -118.727ZM306.211 -41.9614C292.453 -26.2918 312.002 -53.502 320.651 -66.852C320.804 -67.0886 320.954 -67.3204 321.1 -67.5471C321.887 -68.7679 322.562 -69.8419 323.099 -70.7352C322.551 -69.6419 321.961 -68.5135 321.354 -67.3824C321.224 -67.1387 321.092 -66.8949 320.96 -66.6513C315.76 -57.017 310.385 -48.7838 321.68 -63.9368C304.732 -37.4152 310.807 -49.139 310.033 -48.1358C309.112 -46.9466 306.852 -42.6856 306.211 -41.9614ZM339.062 -92.7134C339.662 -93.821 345.673 -102.047 347.472 -105.114C345.7 -100.189 334.828 -84.8874 339.062 -92.7134ZM-81.4403 31.949C-81.2497 32.0629 -80.9682 32.1407 -80.4813 32.1653C-79.9853 32.1953 -79.354 32.1513 -77.7303 32.0285C-75.8911 32.1414 -74.0056 30.9076 -64.3276 33.3786C-59.7109 34.5679 -51.3409 39.2071 -46.7879 45.759C-42.1528 52.2072 -41.4317 56.9795 -41.0372 58.5988C-40.9158 59.2087 -40.7957 59.9304 -40.7086 60.6229C-40.0793 65.6823 -40.9247 69.0592 -41.0386 69.7957C-40.8653 69.2702 -39.5739 67.9305 -40.0918 60.5429C-40.1617 59.8597 -40.2687 59.1155 -40.3841 58.4653C-40.8591 56.874 -41.1138 51.1244 -48.3815 42.6203C-56.0781 33.9094 -66.8141 31.5572 -70.9015 31.3101C-75.7 30.9405 -77.5208 31.3635 -78.9575 31.5213C-80.3374 31.7267 -80.983 31.8705 -81.4403 31.949ZM571.362 175.07C575.974 172.105 585.264 166.27 582.031 167.445C581.673 167.607 571.15 174.679 571.362 175.07ZM271.702 -194.895C272.609 -195.444 298.963 -211.33 289.339 -206.625C286.334 -205.254 262.939 -190.549 271.702 -194.895ZM142.163 -110.862C144.224 -112.21 152.584 -117.914 152.634 -118.191C152.832 -119.168 142.676 -112.01 142.163 -110.862ZM594.882 160.405C595.531 160.061 609.414 150.698 607.706 151.372C604.401 152.665 592.676 161.539 594.882 160.405ZM579.047 -15.0385C579.712 -16.4108 581.391 -17.9554 581.655 -18.4884C581.879 -18.9714 583.8 -22.8971 585.901 -28.1844C588.048 -33.2914 590.125 -41.2072 590.651 -43.8307C590.938 -45.052 591.077 -45.2163 590.986 -43.7729C590.948 -43.158 590.851 -42.1835 590.645 -40.8337C590.605 -31.8685 571.142 2.9689 568.626 6.53494C566.711 7.62825 575.676 -5.88034 577.53 -9.80458C577.84 -10.4496 577.234 -11.2902 579.045 -15.0248C579.046 -15.0294 579.046 -15.0339 579.047 -15.0385ZM-31.6206 50.1934C-31.8843 49.079 -22.7093 30.1724 -19.3645 24.9462C-19.2734 24.8025 -19.1871 24.6697 -19.106 24.5487C-18.7019 23.9453 -18.4311 23.6377 -18.3476 23.7316C-18.5136 24.0547 -18.6784 24.3759 -18.8421 24.6952C-18.9143 24.836 -18.9862 24.9763 -19.0579 25.1164C-23.4058 33.5903 -27.6023 41.935 -31.6206 50.1934ZM-37.7806 62.543C-40.6181 67.2722 -35.3592 55.5384 -33.1182 51.7523C-32.6886 52.0546 -37.4708 61.9754 -37.7806 62.543ZM190.832 -139.217C193.22 -141.022 184.893 -136.989 186.483 -138.31C187.465 -139.127 193.352 -142.453 194.895 -143.91C195.343 -144.346 189.033 -141.553 187.402 -140.424C185.122 -138.85 187.856 -139.588 185.324 -137.919C176.84 -132.327 169.061 -127.966 161.124 -122.723C160.413 -122.252 166.276 -125.364 160.2 -121.375C159.265 -120.76 153.086 -117.804 145.872 -112.884C131.36 -99.8711 118.006 -94.4424 98.1792 -80.1191C99.0987 -80.4006 114.752 -89.8577 115.666 -90.4282C132.976 -101.284 163.594 -121.416 181.496 -133.16C186.125 -136.198 183.542 -135.23 185.513 -136.551C187.071 -137.593 185.811 -135.418 190.832 -139.217ZM569.223 177.139C571.957 176.548 579.271 170.96 584.192 167.746C581.991 168.118 574.146 174.183 569.223 177.139ZM1.55341 -17.1495C3.97568 -18.7751 11.5604 -23.3149 12.03 -24.0278C12.5541 -24.8965 1.66588 -18.133 1.55341 -17.1495ZM445.719 -45.7499C445.46 -45.5491 439.601 -41.7107 439.335 -41.5666C433.591 -38.7297 451.39 -50.3773 445.719 -45.7499ZM309.223 50.7924C305.044 53.9965 300.93 57.4019 299.006 57.7567C301.779 55.8936 309.382 49.9461 309.223 50.7924ZM124.395 185.599C126.004 185.837 112.685 194.443 110.296 195.99C110.825 195.02 123.385 185.338 124.395 185.599ZM-80.9646 35.7317C-80.7425 35.6568 -80.1323 35.4245 -78.453 35.1242C-76.7624 34.9233 -73.7979 34.1436 -67.2582 35.4833C-60.7488 36.3104 -50.1107 44.082 -47.3753 49.9844C-44.1918 55.7364 -44.2264 58.0577 -43.9549 59.1949C-43.868 59.7955 -43.797 60.449 -43.7599 61.0189C-43.5598 64.4303 -44.0327 66.2056 -44.287 67.4273C-44.5622 68.6296 -44.775 69.2766 -44.4753 69.0867C-44.392 69.0414 -43.3636 69.0228 -42.6697 69.408C-42.315 69.576 -42.0743 69.9476 -41.8953 69.9389C-41.7999 69.8951 -41.7099 69.8088 -41.5412 68.897C-41.4525 68.0047 -40.8551 65.9869 -41.6035 60.7391C-41.6299 60.5783 -41.6562 60.4289 -41.6871 60.2584C-42.1911 57.8514 -42.0381 59.4611 -42.0509 60.7971C-42.0797 61.929 -42.1803 62.8154 -42.5735 60.865C-42.6731 60.4254 -42.8167 59.7487 -43.0121 59.0023C-43.3022 58.1306 -43.3732 56.6854 -45.4697 52.1837C-47.0016 48.0378 -55.1246 38.4661 -63.7815 36.0909C-72.0814 33.5426 -75.9019 34.6783 -77.9767 34.9082C-80.0956 35.3144 -80.7137 35.6263 -80.9646 35.7317ZM364.249 -135.616C364.877 -138.253 369.229 -145.255 372.166 -150.78C372.011 -149.067 366.195 -138.95 364.249 -135.616ZM620.651 144.49C625.015 142.851 642.865 130.912 637.994 133.091C637.262 133.382 623.179 142.868 620.651 144.49ZM522.559 79.7641C526.578 72.0174 516.69 87.0749 514.289 92.2204C515.634 90.033 522.267 80.3219 522.559 79.7641ZM169.118 154.004C168.818 154.265 161.371 159.586 161.018 159.791C154.463 163.497 175.481 148.475 169.118 154.004ZM354.308 19.7325C351.958 22.2463 334.108 34.5091 329.742 36.8572C332.969 33.2902 357.132 16.6542 354.308 19.7325ZM-52.7992 19.0952C-58.4804 22.6363 -64.0366 25.7281 -69.2045 28.347C-68.5258 27.3291 -53.7313 19.18 -52.7992 19.0952ZM142.08 173.716C141.673 174.004 141.244 174.234 140.857 174.505C141.271 174.236 141.68 173.975 142.08 173.716ZM76.2622 -64.0553C81.2224 -67.036 79.6103 -67.3125 79.2913 -67.1432C75.4486 -65.0436 70.6621 -60.6907 76.2622 -64.0553ZM575.649 174.677C577.849 174.306 585.736 168.248 590.597 165.277C588.86 165.569 579.443 172.067 575.649 174.677ZM291.056 -22.6347C286.138 -17.1468 301.359 -42.6621 305.355 -47.4976C306.202 -47.5372 291.798 -23.4783 291.056 -22.6347ZM506.926 101.704C506.034 101.805 500.001 112.745 501.711 110.695C502.784 109.416 507.488 101.633 506.926 101.704ZM313.911 -59.7643C315.221 -62.2191 319.45 -67.2886 318.598 -65.0993C317.518 -62.3116 313.562 -59.1009 313.911 -59.7643ZM226.899 -161.924C227.95 -162.47 241.398 -172.131 235.198 -169.083C230.972 -167.018 230.951 -165.642 230.015 -165.031C228.957 -164.36 206.103 -151.161 226.899 -161.924ZM199.144 115.361C202.284 110.052 206.686 104.031 210.23 98.627C209.191 101.09 201.127 113.542 199.144 115.361ZM532.655 61.0351C531.627 62.1944 509.446 96.6449 522.701 77.4851C523.464 76.4 535.818 57.6473 532.655 61.0351ZM-80.9646 35.7317C-81.2267 35.8348 -80.771 35.7132 -79.9067 35.3954C-80.7453 35.7535 -81.2175 35.865 -80.9646 35.7317ZM5.89834 -17.6412C4.37138 -15.9589 13.8023 -21.9205 16.3916 -23.9803C16.8887 -25.1426 6.08861 -17.8581 5.89834 -17.6412ZM209.827 97.7749C211.594 94.4999 215.618 89.0519 218.121 85.1946C218.14 86.1395 211.163 96.7428 209.827 97.7749ZM102.227 204.489C96.0986 208.412 88.8993 213.471 89.1147 214.061C88.9356 214.066 88.585 214.18 88.0522 214.416C87.5605 214.633 81.3558 219.127 78.5915 220.636C61.3077 231.205 141.869 176.22 96.2476 210.012C98.2995 208.14 100.15 206.397 102.227 204.489ZM379.057 3.68129C382.887 1.83571 391.996 -5.78478 389.325 -4.23487C387.46 -3.15656 375.195 5.53513 379.057 3.68129ZM248.597 99.0944C249.677 98.4668 258.636 91.2628 258.636 90.7797C253.069 94.3469 243.635 101.967 248.597 99.0944ZM405.988 -14.4124C406.284 -14.6026 406.576 -14.8184 406.859 -15.0492C407.137 -15.2762 407.407 -15.5175 407.664 -15.763C409.174 -17.1885 410.25 -18.7313 410.04 -18.6306C409.245 -18.2428 408.111 -17.4486 407.065 -16.6098C406.781 -16.3802 406.504 -16.147 406.244 -15.9189C404.591 -14.4691 403.65 -13.2341 405.988 -14.4124ZM-66.9586 32.212C-63.6962 30.798 -53.7987 23.739 -52.0293 21.6321C-51.4849 21.4896 -50.3158 21.0229 -48.0897 19.9455C-48.0961 19.9495 -48.1025 19.9534 -48.1089 19.9574C-46.9059 19.3907 -32.69 10.6801 -19.6045 2.2732C-19.545 2.23507 -19.4856 2.19702 -19.426 2.15885C-0.125926 -10.2466 16.0537 -21.0614 -18.1529 -0.100955C-19.3138 0.604648 -18.521 0.469159 -19.8307 1.52868C-19.8829 1.57098 -19.9383 1.61503 -19.9974 1.66117C-20.7595 2.25019 -22.0927 3.16384 -24.38 4.57656C-24.8617 4.87303 -25.3922 4.47489 -26.8891 5.39506C-30.3006 7.52558 -48.4404 18.5019 -51.7535 21.0806C-51.8449 21.0016 -52.1429 21.0565 -52.6967 21.2787C-57.6116 23.3116 -69.5857 33.4436 -66.9586 32.212ZM230.323 112.612C232.297 111.432 238.092 106.934 238.392 106.082C235.308 108.031 225.72 115.363 230.323 112.612ZM530.285 61.0647C527.455 64.8003 521.626 75.3463 523.911 72.493C525.319 70.7462 533.594 56.6941 530.285 61.0647ZM289.208 69.1687C267.074 84.6057 284.039 73.0077 281.145 76.0481C283.83 73.7556 286.517 71.4633 289.208 69.1687ZM-6.39122 -6.42915C-8.57169 -2.76608 -7.51789 -7.88817 -4.53781 -11.6676C-3.6033 -12.8492 -5.18296 -8.46626 -6.39122 -6.42915ZM85.3825 -178.162C82.692 -175.353 91.478 -191.463 88.9848 -184.675C88.8526 -184.338 85.5607 -178.406 85.3825 -178.162ZM20.6045 -58.2107C19.9677 -55.2097 19.1553 -53.4922 15.0421 -46.3846C20.6368 -57.1913 14.5673 -47.6636 20.6045 -58.2107ZM89.2345 214.097C89.1752 214.093 89.1274 214.093 89.1147 214.061C89.1766 214.059 89.2131 214.073 89.2345 214.097ZM426.857 -29.2098C430.12 -30.557 437.99 -35.9624 435.21 -34.978C434.878 -34.8411 427.707 -30.4656 426.857 -29.2098ZM-52.0293 21.6321C-52.4836 21.7406 -52.3429 21.5441 -51.7535 21.0806C-51.6669 21.1546 -51.7784 21.3435 -52.0293 21.6321ZM385.309 0.732694C385.295 0.0525861 373.369 8.32512 372.971 8.69621C366.789 14.3288 380.524 4.18296 385.309 0.732694ZM478.165 140.947C477.809 141.603 481.57 138.322 482.705 135.565C483.584 133.43 479.499 138.49 478.165 140.947ZM33.6452 -82.9039C35.8298 -86.9162 38.8992 -92.5615 40.035 -93.2725C38.4908 -90.6384 34.0274 -82.5825 33.6452 -82.9039ZM81.4173 -172.197C79.974 -168.11 76.1502 -160.409 72.6843 -153.944C72.6624 -153.903 72.6405 -153.862 72.6185 -153.821C71.708 -152.12 70.7957 -150.446 69.9755 -148.961C69.6537 -149.053 70.6515 -151.243 72.0968 -154.111C72.1177 -154.152 72.1387 -154.193 72.1597 -154.235C75.1179 -160.054 80.0172 -169.107 81.4173 -172.197ZM-76.5704 36.9974C-76.5266 37.1138 -67.4964 32.5203 -69.0582 32.484C-71.5998 32.706 -79.0597 37.829 -76.5704 36.9974ZM490.823 122.678C493.2 118.127 485.613 127.245 483.621 132.379C482.597 135.016 490.422 123.446 490.823 122.678ZM452.275 -45.1512C457.826 -49.2968 443.128 -40.464 441.635 -38.5475C444.29 -40.2636 450.302 -43.6849 452.275 -45.1512ZM265.039 89.4572C283.471 78.6325 271.801 82.3073 268.962 84.8123C268.563 85.1651 264.59 89.7232 265.039 89.4572ZM684.149 178.391C682.246 179.686 687.724 177.519 690.914 175.802C690.916 175.801 690.918 175.8 690.915 175.802C690.913 175.803 690.91 175.804 690.898 175.811C690.891 175.815 690.885 175.818 690.854 175.835C690.835 175.845 690.823 175.851 690.735 175.899C690.71 175.912 690.68 175.928 690.623 175.958C690.558 175.992 690.505 176.021 690.242 176.156C690.171 176.192 690.084 176.237 689.941 176.308C689.792 176.381 689.617 176.47 689.186 176.67C688.96 176.773 688.683 176.902 688.124 177.136C687.442 177.384 687.076 177.678 683.91 178.529C683.038 178.739 681.941 179.009 679.955 179.237C677.89 179.357 675.181 179.967 668.654 178.31C665.433 177.386 660.83 175.612 656.138 171.185C651.424 166.892 647.812 159.571 647.163 153.517C646.084 141.034 650.103 136.521 651.53 133.695C655.042 128.523 656.241 128.088 657.24 127.076C658.179 126.272 658.687 125.903 659.094 125.601C659.879 125.031 660.216 124.819 660.499 124.633C660.77 124.458 660.939 124.353 661.075 124.269C661.343 124.104 661.477 124.026 661.586 123.961C661.795 123.838 661.881 123.79 661.954 123.748C662.206 123.605 662.216 123.601 662.266 123.573C662.303 123.552 662.321 123.542 662.336 123.534C662.364 123.519 662.375 123.513 662.384 123.508C662.401 123.498 662.407 123.495 662.412 123.493C662.421 123.488 662.423 123.487 662.424 123.486C662.427 123.484 662.425 123.485 662.422 123.487C662.411 123.493 662.384 123.507 662.349 123.527C662.324 123.54 662.314 123.546 662.294 123.557C662.257 123.577 662.214 123.601 662.165 123.628C662.115 123.655 662.06 123.686 662 123.72C661.958 123.743 661.928 123.761 661.89 123.782C661.743 123.866 661.567 123.969 661.394 124.073C661.141 124.23 660.876 124.404 660.644 124.573C660.434 124.732 660.292 124.869 660.205 124.991C660.075 125.178 660.364 125.131 660.859 124.962C661.12 124.863 661.415 124.745 661.693 124.634C661.873 124.556 662.066 124.47 662.224 124.403C662.264 124.386 662.301 124.371 662.339 124.354C662.403 124.324 662.461 124.297 662.513 124.274C662.565 124.25 662.611 124.23 662.651 124.213C662.671 124.204 662.685 124.198 662.707 124.189C662.744 124.17 662.771 124.156 662.784 124.15C662.787 124.149 662.789 124.148 662.787 124.15C662.786 124.15 662.784 124.151 662.776 124.156C662.772 124.158 662.767 124.161 662.753 124.169C662.746 124.173 662.737 124.178 662.717 124.189C662.688 124.205 662.693 124.202 662.53 124.292C662.478 124.321 662.428 124.349 662.245 124.454C662.14 124.515 662.038 124.571 661.661 124.798C661.444 124.932 661.238 125.046 660.441 125.579C659.98 125.909 659.548 126.13 657.816 127.58C656.856 128.54 655.722 128.959 652.339 133.837C650.952 136.535 647.094 140.642 647.831 152.719C648.308 158.58 651.665 165.922 656.304 170.292C660.918 174.795 665.513 176.605 668.726 177.544C675.223 179.22 677.881 178.596 679.908 178.48C681.855 178.254 682.925 177.988 683.775 177.782C685.413 177.36 686.106 177.09 686.687 176.885C687.771 176.481 688.152 176.301 688.495 176.152C689.118 175.873 689.314 175.771 689.5 175.681C689.833 175.517 689.933 175.464 690.03 175.414C690.202 175.325 690.252 175.298 690.301 175.272C690.46 175.188 690.456 175.189 690.484 175.174C690.522 175.154 690.527 175.151 690.535 175.146C690.549 175.139 690.551 175.138 690.553 175.136C690.556 175.134 690.554 175.135 690.552 175.136C688.295 176.133 685.096 177.745 684.149 178.391ZM130.767 214.308C130.267 215.062 129.779 215.798 129.302 216.516C129.633 215.96 130.101 215.244 130.767 214.308ZM508.924 -75.8443C492.615 -70.7804 495.636 -69.4594 494.348 -68.8391C491.688 -67.3753 485.345 -64.5831 480.712 -61.5918C485.917 -65.1536 491.265 -68.7036 496.853 -72.1757C491.617 -70.0166 454.688 -48.0324 454.454 -47.073C453.692 -45.769 464.915 -53.3193 465.23 -53.4236C465.733 -53.6431 468.602 -53.2201 469.67 -53.8118C471.215 -54.8825 502.285 -73.6655 508.924 -75.8443ZM300.743 62.928C297.843 64.7587 296.597 64.7121 295.421 65.8001C295.022 66.1696 295.387 66.8149 294.01 68.0575C296.244 66.3546 298.501 64.6352 300.743 62.928ZM539.057 -89.6693C541.859 -89.8792 538.553 -89.1682 534.708 -88.0421C530.811 -86.9208 526.385 -85.4148 523.544 -84.4162C523.05 -84.2434 522.579 -84.0773 522.158 -83.9277C521.201 -83.5895 520.51 -83.3409 520.409 -83.3185C519.181 -83.0335 520.067 -83.5958 521.953 -84.4616C522.373 -84.6534 522.83 -84.8548 523.304 -85.0573C527.362 -86.854 535.287 -89.3973 539.057 -89.6693ZM391.589 -2.94893C392.141 -3.28558 404.304 -11.5708 403.951 -11.9195C400.494 -9.95596 384.526 1.27793 391.589 -2.94893ZM292.198 69.4438C288.005 72.4014 279.745 77.523 281.299 77.7623C281.305 77.7578 281.311 77.7534 281.317 77.7488C284.941 74.9815 288.57 72.2112 292.198 69.4438ZM498.431 106.741C491.868 113.831 496.103 111.182 501.107 104.402C501.858 101.837 499.493 105.596 498.431 106.741ZM480.902 131.631C479.218 133.686 464.725 156.74 467.728 153.731C468.794 152.665 476.614 139.08 477.057 138.506C477.727 137.636 475.846 142.367 480.211 135.244C479.666 135.474 481.477 130.926 480.902 131.631ZM493.266 112.777C487.075 120.027 487.908 123.089 491.763 117.117C493.274 114.78 494.148 111.748 493.266 112.777ZM514.294 80.3789C512.266 83.1397 507.102 90.6019 504.395 96.2712C508.948 89.3001 513.538 82.2548 518.091 75.2389C518.243 74.1743 516.041 78.0096 514.282 80.3982C514.286 80.3918 514.29 80.3853 514.294 80.3789ZM101.366 -229.822C99.8049 -225.892 100.454 -228.461 101.482 -232.436C102.577 -236.341 103.62 -242.856 103.663 -242.928C104.715 -245.92 102.964 -233.041 101.366 -229.822ZM645.762 158.465C647.718 157.664 649.375 157.786 653.112 155.069C648.745 156.78 644.396 158.481 640.022 160.244C637.752 163.468 643.621 159.33 645.762 158.465ZM663.942 154.606C663.402 154.965 667.657 155.248 659.604 158.104C654.108 159.988 680.395 143.638 685.792 141.845C680.647 145.27 668.629 151.527 663.942 154.606ZM715.527 137.202C715.976 137.107 706.029 142.547 704.785 143.126C704.371 143.302 704.037 143.434 703.783 143.524C702.996 143.796 703.04 143.623 703.603 143.193C705.658 141.609 714.088 137.059 715.527 137.202ZM683.13 154.609C688.062 152.203 677.767 158.654 674.547 160.316C674.021 160.11 682.363 154.975 683.13 154.609ZM39.706 -173.039C39.5365 -172.859 39.3734 -172.676 39.2169 -172.49C39.1869 -172.454 39.1571 -172.419 39.1275 -172.383C35.5274 -168.089 35.8271 -162.771 39.6029 -170.687C39.6933 -170.877 39.7614 -171.478 39.784 -172.019C39.7871 -172.071 39.7898 -172.121 39.7921 -172.171C39.8163 -172.698 39.795 -173.128 39.706 -173.039ZM706.793 144.272C701.86 146.433 712.269 140.477 715.359 139.298C715.875 139.462 707.56 143.897 706.793 144.272ZM34.5513 -171.136C29.7024 -164.821 34.2305 -165.47 34.8454 -166.256C35.7523 -167.419 37.1457 -169.988 38.4991 -172.731C38.5194 -172.772 38.5397 -172.813 38.56 -172.854C40.926 -177.645 43.3789 -183.271 44.0486 -184.904C40.5521 -178.306 38.64 -175.092 37.4859 -173.449C37.4588 -173.411 37.4323 -173.374 37.4061 -173.337C35.5109 -170.715 35.9893 -173.014 34.5513 -171.136ZM18.2875 -138.505C14.9537 -131.95 24.9954 -147.822 25.8853 -151.426C24.089 -148.203 19.2505 -140.392 18.2875 -138.505ZM-5.16056 -100.611C-7.27136 -97.266 -13.485 -87.2965 -13.9515 -85.2939C-11.8703 -89.0702 -5.46554 -98.8628 -5.16056 -100.611ZM-11.2426 -93.7893C-15.0797 -88.8719 -13.7415 -86.4061 -10.7677 -92.9017C-10.652 -93.1542 -11.0884 -93.9623 -11.2426 -93.7893ZM-29.5578 -64.2811C-32.459 -61.2647 -32.7277 -56.0905 -29.3532 -61.7351C-28.351 -63.4212 -29.246 -64.5922 -29.5578 -64.2811ZM26.2464 -164.479C23.0048 -159.656 20.6572 -152.465 26.9824 -163.051C25.0137 -159.164 23.0652 -155.322 21.0912 -151.44C29.9769 -165.016 27.4406 -165.003 29.8591 -169.01C33.1904 -174.545 34.4888 -173.257 34.3332 -171.856C34.5478 -172.512 34.9143 -173.398 35.3934 -174.453C35.4123 -174.494 35.4314 -174.535 35.4507 -174.577C38.8859 -182.047 47.9634 -198.026 53.0712 -207.908C47.8885 -199.097 39.3159 -185.403 33.3752 -175.727C33.3514 -175.688 33.3276 -175.649 33.3039 -175.611C32.7193 -174.659 32.153 -173.733 31.6136 -172.847C29.9192 -170.064 28.7851 -167.118 27.3724 -164.781C25.0854 -161.006 26.4314 -164.748 26.2577 -164.498C26.2539 -164.492 26.2501 -164.485 26.2464 -164.479ZM-52.6205 -24.8475C-59.5996 -15.0754 -53.6837 -20.3813 -50.6815 -26.4379C-50.5673 -26.7016 -52.4508 -25.0841 -52.6205 -24.8475ZM722.493 144.02C714.194 147.143 715.129 145.911 707.446 150.275C707.218 150.407 706.98 150.546 706.729 150.693C703.485 152.6 698.694 155.598 691.321 160.683C702.512 152.404 691.492 159.43 693.538 157.572C695.183 156.068 702.379 152.33 697.869 153.937C699.556 153.273 702.657 151.68 706.265 149.84C706.513 149.714 706.76 149.588 707.005 149.463C711.403 147.215 716.495 144.57 720.043 142.949C720.914 142.55 721.672 142.225 722.186 142.024C722.665 141.826 723.029 141.756 722.306 141.95C721.901 142.03 721.295 142.25 719.341 142.294C718.397 142.287 717.016 142.283 714.779 141.656C712.714 141.104 709.494 139.5 707.24 137.039C702.567 131.61 703.043 128.305 702.752 127.313C702.645 126.159 702.676 126.079 702.66 125.991C702.661 126.005 702.661 126.022 702.661 126.044C702.648 125.883 702.606 125.976 702.54 125.977C702.475 125.996 702.386 125.92 702.284 125.969C702.193 126.056 702.022 126.16 702.043 127.607C702.082 128.365 702.132 129.515 702.783 131.552C703.399 133.523 705.048 136.77 707.926 139.237C714.23 144.304 718.68 143.58 720.228 143.761C722.009 143.743 722.603 143.632 722.991 143.624C723.652 143.595 723.224 143.784 722.493 144.02ZM-10.4409 -103.553C-14.9023 -101.523 -11.8088 -97.9768 -17.8087 -92.4133C-20.1285 -81.7832 -3.21794 -117.113 1.62383 -119.802C-20.1322 -83.3772 18.2207 -142.593 -0.416796 -119.137C13.252 -139.402 3.17959 -126.276 4.62368 -129.783C6.18577 -133.548 13.6832 -145.116 12.4519 -145.016C12.4481 -145.009 12.4443 -145.003 12.4405 -144.996C8.23871 -137.695 4.02231 -130.393 -0.20092 -123.09C5.90184 -129.093 -3.39192 -114.584 -7.96384 -110.444C-8.79172 -108.148 -9.618 -105.85 -10.4409 -103.553ZM15.5435 -143.699C15.0766 -142.989 6.09542 -127.026 7.07207 -127.821C8.57429 -129.815 21.3611 -152.414 15.5435 -143.699ZM54.6653 -213.538C51.6871 -207.88 46.4479 -199.291 45.3964 -195.832C48.6033 -201.507 53.7316 -210.089 54.6653 -213.538ZM-37.7156 75.12C-30.4416 70.0591 -54.2853 83.38 -46.9695 80.2836C-46.5179 80.1256 -38.0056 75.3609 -37.7156 75.12ZM-19.7858 -86.8726C-24.8841 -79.9435 -20.4241 -82.0444 -17.8381 -87.8638C-17.6886 -88.2008 -19.5504 -87.193 -19.7858 -86.8726ZM712.63 149.26C712.573 149.506 710.861 150.516 708.343 151.928C708.112 152.058 707.871 152.192 707.621 152.331C701.422 155.74 691.513 161.506 689.187 162.961C690.296 161.771 700.631 155.14 707.265 151.676C707.518 151.542 707.762 151.414 707.997 151.291C710.769 149.845 712.695 148.975 712.63 149.26ZM57.7087 -224.404C50.3533 -214.302 43.8315 -197.856 42.8556 -196.185C41.8677 -194.553 42.4922 -197.625 42.2571 -197.261C41.7597 -196.441 31.6366 -178.623 31.2031 -177.748C30.9059 -177.127 33.7035 -179.461 32.4329 -176.249C32.4164 -176.208 32.3993 -176.165 32.3814 -176.122C32.3354 -176.008 32.2845 -175.888 32.2281 -175.761C32.2792 -175.874 32.3337 -175.992 32.3916 -176.116C32.4108 -176.157 32.4303 -176.198 32.4502 -176.24C36.5369 -184.632 54.4332 -215.585 54.8805 -217.256C55.4194 -218.604 49.2445 -209.528 57.6993 -224.385C57.7025 -224.391 57.7056 -224.398 57.7087 -224.404ZM40.2238 -192.145C43.2377 -196.282 36.2398 -183.841 34.3027 -180.912C30.0669 -174.495 39.847 -191.59 40.2238 -192.145ZM22.511 -162.455C21.5867 -161.117 13.9694 -148.335 13.8897 -146.891C18.2044 -152.544 24.6631 -165.544 22.511 -162.455ZM-61.7124 -19.1973C-63.5987 -15.7743 -69.4344 -6.81782 -69.2075 -5.90052C-67.3424 -9.34173 -61.436 -18.4007 -61.7124 -19.1973ZM650.394 194.033C651.154 193.672 651.565 193.539 651.315 193.809C651.215 193.928 650.975 194.134 650.744 194.332C650.65 194.416 650.524 194.523 650.576 194.508C650.616 194.49 650.635 194.491 650.979 194.246C651.148 194.125 651.38 193.955 651.765 193.646C651.818 193.605 652.072 193.398 652.347 193.16C652.63 192.916 652.972 192.613 653.429 192.172C654.362 191.129 655.657 190.428 658.577 185.357C659.942 182.317 663.834 176.2 660.759 164.155C659.165 158.395 654.956 152.754 650.775 149.719C646.57 146.575 642.865 145.403 640.182 144.76C634.782 143.622 632.402 144.088 630.594 144.228C630.39 144.251 630.112 144.288 630.02 144.301C629.972 144.308 629.925 144.315 629.878 144.321C629.785 144.335 629.694 144.348 629.605 144.362C629.428 144.389 629.261 144.417 629.102 144.444C627.838 144.666 627.059 144.872 626.443 145.04C625.25 145.374 624.672 145.597 624.31 145.727C623.86 145.893 623.641 145.983 623.509 146.035C623.192 146.162 623.466 146.032 623.664 145.927C623.778 145.868 623.939 145.787 624.093 145.708C624.236 145.634 624.398 145.552 624.574 145.462C625.278 145.103 626.069 144.7 626.832 144.314C628.376 143.533 629.875 142.792 630.817 142.372C630.972 142.47 629.623 143.309 627.871 144.302C627.011 144.791 626.015 145.334 625.181 145.777C624.709 146.026 624.37 146.205 624.013 146.385C623.738 146.529 623.408 146.681 623.728 146.546C623.857 146.493 624.079 146.399 624.528 146.232C624.937 146.083 625.495 145.868 626.693 145.535C627.307 145.37 628.084 145.168 629.323 144.956C629.479 144.93 629.643 144.904 629.816 144.878C629.902 144.865 629.991 144.852 630.082 144.839C630.083 144.839 630.179 144.826 630.278 144.813C630.376 144.8 630.476 144.787 630.579 144.775C630.785 144.75 631.004 144.726 631.236 144.703C633.135 144.601 635.691 144.156 641.286 145.601C646.323 146.491 658.171 153.853 660.582 165.577C662.892 176.71 659.423 182.192 658.102 185.101C654.601 191.035 653.448 191.235 652.537 192.276C652.105 192.672 651.797 192.931 651.549 193.136C651.409 193.251 651.317 193.325 651.221 193.401C650.853 193.693 650.66 193.832 650.528 193.928C650.392 194.026 650.353 194.052 650.326 194.071C650.298 194.09 650.287 194.097 650.284 194.099C650.281 194.1 650.383 194.035 650.394 194.033ZM-25.5956 -88.5167C-26.9362 -86.6472 -50.4893 -46.1099 -53.5682 -40.2488C-49.8821 -45.5964 -26.1376 -85.5464 -25.2541 -87.4559C-24.9985 -88.0182 -25.4203 -88.754 -25.5956 -88.5167ZM25.6285 -175.639C26.1023 -177.007 26.6573 -178.112 27.1973 -178.995C27.2212 -179.034 27.245 -179.073 27.2687 -179.111C28.3764 -180.898 29.3955 -181.799 29.5768 -182.096C32.3271 -186.582 37.5845 -196.086 37.0844 -193.635C34.6168 -189.653 31.0129 -183.051 28.3918 -178.489C28.3691 -178.449 28.3465 -178.41 28.3239 -178.371C25.8384 -174.054 24.2241 -171.602 25.6285 -175.639ZM-67.1335 -18.4107C-74.8752 -4.43777 -58.5351 -30.4605 -61.4159 -27.465C-61.6037 -27.265 -66.3327 -19.8594 -67.1335 -18.4107ZM-23.1443 -93.1449C-21.9642 -96.5289 2.51817 -136.429 6.31632 -142.9C4.00313 -136.47 0.40863 -132.311 -4.15518 -124.501C-5.38324 -122.395 -4.58054 -122.685 -4.7134 -122.459C-6.85525 -118.801 -5.78097 -121.839 -7.1181 -119.607C-7.96106 -118.197 -24.7807 -88.3996 -23.1443 -93.1449ZM26.3418 -178.019C26.4196 -178.238 26.6039 -178.637 26.8722 -179.175C26.8922 -179.215 26.9126 -179.256 26.9334 -179.297C29.9 -185.143 41.5325 -205.62 42.0865 -206.49C46.7293 -212.934 31.0313 -185.595 27.0861 -179.212C27.0621 -179.173 27.0385 -179.134 27.0154 -179.096C26.6817 -178.549 26.4474 -178.173 26.3418 -178.019ZM-26.3794 -90.0399C-25.1441 -95.1394 -12.3139 -114.598 -19.808 -100.547C-20.526 -99.2042 -24.4087 -94.0086 -26.3794 -90.0399ZM-67.6316 -20.6561C-67.9996 -20.1085 -73.6566 -10.8676 -75.735 -6.89075C-75.8151 -6.73769 -75.8894 -6.59329 -75.9576 -6.45831C-76.3341 -5.71574 -76.5325 -5.24422 -76.4814 -5.15755C-76.3383 -5.36368 -76.0799 -5.77004 -75.732 -6.33312C-75.6515 -6.46255 -75.5661 -6.60071 -75.4761 -6.74703C-72.24 -12.0401 -63.2787 -27.1673 -67.6316 -20.6561ZM-64.7871 -28.969C-64.9754 -28.6233 -62.1346 -31.4794 -66.1963 -24.8284C-66.5471 -24.2485 -68.1369 -23.7991 -72.7653 -15.0655C-73.7168 -13.2676 -74.5894 -10.2711 -74.4495 -10.4165C-67.7467 -18.476 -55.0264 -46.6319 -64.7871 -28.969ZM25.899 -178.864C25.3583 -178.33 25.2495 -178.907 25.516 -179.927C25.528 -179.971 25.5407 -180.016 25.554 -180.061C25.8987 -181.239 26.6754 -182.896 27.7982 -184.189C28.6904 -185.22 28.1827 -183.036 26.3294 -179.632C26.3078 -179.592 26.286 -179.552 26.264 -179.512C26.148 -179.301 26.0263 -179.084 25.899 -178.864ZM-94.6074 25.9212C-90.642 16.6873 -105.642 43.5746 -106.916 51.8748C-105.384 46.2412 -95.0104 26.6309 -94.6074 25.9212ZM629.869 135.888C629.863 135.891 629.856 135.895 629.85 135.898C636.929 132.386 632.935 135.307 633.278 135.153C648.759 128.119 644.055 128.746 646.299 127.332C651.161 124.24 651.304 126.426 659.421 121.091C645.925 129.779 658.466 122.415 659.23 122.801C662.205 124.476 639.773 131.795 633.122 135.966C632.193 136.556 639.801 133.557 637.43 135.113C635.345 136.482 631.819 138.173 628.423 139.561C626.745 140.244 625.043 140.881 623.68 141.307C623.017 141.511 622.386 141.689 621.95 141.763C621.715 141.809 621.564 141.812 621.458 141.793C621.375 141.765 621.319 141.718 621.584 141.537C621.676 141.476 621.803 141.401 621.978 141.309C622.066 141.263 622.165 141.213 622.279 141.158C622.336 141.13 622.397 141.102 622.462 141.072C622.526 141.042 622.586 141.014 622.744 140.951C623.315 140.725 624.071 140.422 625.609 139.995C626.393 139.784 627.376 139.536 628.868 139.294C628.962 139.279 629.058 139.264 629.156 139.25C629.205 139.242 629.254 139.235 629.305 139.228C629.301 139.228 629.425 139.21 629.53 139.197C629.636 139.182 629.746 139.168 629.859 139.154C630.761 139.044 631.843 138.941 633.256 138.913C636.082 138.983 640.258 138.653 647.933 142.036C655.518 144.707 666.466 157.43 666.863 168.565C667.735 179.428 664.625 184.608 663.118 187.792C659.495 194.076 658.087 194.702 657.031 195.937C656.04 196.914 655.43 197.426 655.159 197.675C654.773 198.035 654.567 198.234 654.421 198.388C654.141 198.684 654.098 198.792 654.117 198.857C654.147 198.911 654.236 198.923 654.556 198.753C654.724 198.661 654.95 198.526 655.373 198.218C655.469 198.154 656.111 197.671 657.106 196.759C658.204 195.503 659.55 195.279 663.768 188.141C665.284 184.982 668.241 179.973 667.702 169.513C667.688 158.926 657.747 145.429 649.725 142.08C641.741 138.083 637.106 138.285 634.056 138.136C632.52 138.128 631.342 138.215 630.36 138.315C630.114 138.34 629.882 138.367 629.661 138.394C629.459 138.419 629.155 138.461 629.178 138.458C629.078 138.471 628.98 138.485 628.884 138.499C627.36 138.724 626.339 138.96 625.522 139.16C623.916 139.567 623.103 139.855 622.486 140.064C622.41 140.09 622.339 140.115 622.271 140.139C622.217 140.158 622.192 140.166 622.154 140.179C622.083 140.203 622.016 140.226 621.953 140.248C621.826 140.291 621.714 140.33 621.614 140.365C621.415 140.434 621.264 140.487 621.151 140.525C620.837 140.631 620.844 140.604 620.883 140.56C620.946 140.505 621.063 140.427 621.281 140.302C621.677 140.07 622.299 139.733 623.108 139.308C624.707 138.467 626.95 137.33 629.869 135.888ZM29.0288 -186.523C30.2992 -190.049 44.7975 -214.009 41.6346 -207.292C41.2196 -206.222 27.2399 -181.279 29.0288 -186.523ZM121.803 266.751C116.291 271.362 130.486 262.713 132.546 260.558C133.592 259.501 124.304 264.694 121.803 266.751ZM215.05 203.423C221.55 198.467 226.723 191 218.828 197.376C217.968 198.07 214.053 203.649 215.05 203.423ZM252.129 -91.7116C246.591 -85.3002 248.606 -84.5341 251.978 -89.7525C253.153 -91.5719 252.307 -91.9187 252.129 -91.7116ZM74.3241 180.468C73.8457 181.107 68.8259 189.804 69.4058 189.763C71.5284 186.701 77.6227 175.951 74.3241 180.468ZM253.367 -94.1588C250.93 -89.726 256.915 -96.1099 259.041 -102.116C257.416 -99.39 253.633 -94.6378 253.367 -94.1588ZM-39.1017 -77.0468C-40.5929 -73.0195 -46.9504 -62.87 -50.3603 -56.8916C-51.6392 -56.7949 -41.4722 -72.7359 -39.1017 -77.0468ZM186.347 222.989C192.206 217.8 178.443 227.101 180.224 227.003C180.484 226.88 186.084 223.221 186.347 222.989ZM249.09 -94.525C253.403 -98.1362 238.043 -89.1714 242.773 -90.8648C242.982 -90.945 248.878 -94.3432 249.09 -94.525ZM184.004 -52.2431C187.699 -54.4114 202.784 -64.4284 196.539 -61.093C195.555 -60.5652 183.954 -52.9401 184.004 -52.2431ZM646.348 126.423C643.834 126.521 655.558 120.5 657.32 119.759C658.017 119.476 649.645 126.293 646.348 126.423ZM221.767 -45.722C219.482 -41.9851 212.973 -32.5972 212.375 -30.5925C215.223 -35.1414 223.557 -46.2523 221.767 -45.722ZM157.656 243.806C160.89 242.221 164.77 239.742 167.566 237.604C167.699 237.502 167.83 237.401 167.957 237.301C170.222 235.52 171.436 234.14 169.95 234.346C168.784 235.206 167.925 235.861 167.286 236.37C167.148 236.479 167.019 236.582 166.899 236.679C162.509 240.232 170.088 235.806 157.656 243.806ZM267.553 -118.504C265.621 -115.684 265.436 -112.507 265.72 -112.81C268.411 -115.673 269.942 -121.084 267.553 -118.504ZM123.277 103.297C122.603 103.101 116.62 112.753 117.823 111.708C118.192 111.41 123.829 103.443 123.277 103.297ZM-62.7584 102.613C-61.4006 102.309 -60.7802 102.158 -60.2877 102.054C-59.8178 101.954 -59.6024 101.927 -59.5955 101.968C-59.6255 102.056 -60.2711 102.371 -62.1217 102.94C-64.3029 103.396 -66.0219 104.694 -75.6038 104.616C-79.9152 104.395 -90.4818 103.409 -100.445 94.2546C-110.188 84.8521 -111.436 75.9251 -112.184 73.1354C-112.39 72.1488 -112.584 71.0245 -112.723 69.9694C-113.976 58.2739 -111.647 52.8213 -110.752 49.3423C-109.62 45.8007 -108.689 43.7969 -107.987 42.4351C-107.306 41.6345 -107.756 43.0416 -108.822 46.2516C-109.508 49.8049 -112.985 53.7931 -111.794 69.8489C-111.663 70.8845 -111.48 71.9862 -111.284 72.9516C-110.851 74.9127 -110.259 78.0947 -107.809 83.0489C-105.513 87.8535 -100.327 94.2864 -94.2849 97.967C-81.8615 105.188 -75.0529 103.723 -71.6152 103.895C-64.5477 103.398 -63.4071 102.662 -62.7584 102.613ZM311.67 -191.71C311.375 -191.754 311.301 -192.081 311.017 -191.368C310.988 -191.298 310.957 -191.218 310.923 -191.129C310.481 -189.856 309.073 -185.94 310.762 -188.246C310.927 -188.474 311.154 -188.937 311.332 -189.395C311.516 -189.864 311.639 -190.289 311.77 -190.843C311.793 -190.939 311.812 -191.026 311.827 -191.105C311.964 -191.817 311.802 -191.701 311.67 -191.71ZM230.355 -79.8482C239.594 -87.3316 197.583 -60.7379 209.311 -66.6807C210.144 -67.1072 229.546 -79.2035 230.355 -79.8482ZM162.058 -35.7687C163.838 -36.7869 164.821 -33.4483 157.04 -29.8522C156.02 -29.3788 159.877 -32.9775 159.008 -32.6452C158.5 -32.4474 142.862 -22.6895 142.196 -22.1575C141.483 -21.5813 142.967 -21.2826 142.261 -20.673C141.464 -19.9871 131.487 -14.5277 126.505 -11.2553C117.16 -5.11406 116.615 -3.69263 115.857 -3.18967C113.645 -1.72437 109.504 0.24935 104.994 3.22017C82.1619 18.2749 47.5661 41.8633 28.1377 52.1603C44.8626 42.2418 59.8322 31.4911 75.7969 20.7223C72.1409 25.3435 98.6301 4.0142 83.24 16.6854C90.6493 11.2952 156.25 -32.4182 162.039 -35.7562C162.046 -35.7603 162.052 -35.7645 162.058 -35.7687ZM241.512 185.023C238.096 188.86 258.663 173.395 259.686 171.117C256.866 172.988 241.924 184.571 241.512 185.023ZM146.713 257.354C144.75 258.959 144.157 261.99 132.976 268.475C132.966 268.482 132.956 268.489 132.946 268.496C129.593 270.439 132.921 267.519 132.239 267.769C131.961 267.885 121.606 273.725 129.637 268.011C141.765 259.285 131.685 268.494 138.23 263.957C139.03 263.418 150.531 253.894 149.666 254.193C149.537 254.25 146.173 256.934 145.427 257.335C142.892 258.654 143.647 257.321 143.303 257.527C142.307 258.183 123.43 272.685 119.786 273.856C118.991 274.221 150.46 251.373 151.606 250.633C152.421 250.177 153.148 251.878 154.041 251.459C154.556 251.211 166.604 241.711 168.343 240.646C168.741 240.405 169.073 240.214 169.34 240.065C169.412 240.025 169.48 239.988 169.543 239.953C169.436 239.998 169.36 240.022 169.312 240.027C169.252 240.034 169.237 240.01 169.263 239.959C169.3 239.887 169.42 239.76 169.607 239.59C171.201 238.113 178.633 232.865 178.6 233.515C178.613 233.814 170.686 239.395 170.446 239.512C170.317 239.584 170.199 239.638 170.092 239.694C170.285 239.636 170.212 239.764 169.929 240.036C169.829 240.131 169.705 240.243 169.559 240.37C165.785 243.698 146.488 257.618 151.953 254.789C144.537 260.749 152.13 252.841 146.713 257.354ZM107.819 284.982C108.713 284.217 109.642 283.419 110.451 282.688C107.464 284.645 104.363 286.616 99.9004 288.986C97.4295 290.226 95.3187 291.492 89.4554 293.495C88.0629 293.944 85.9285 294.591 83.1083 295.106C79.8538 295.565 76.071 296.545 67.3242 295.073C59.3172 294.625 42.4832 283.764 38.4762 273.392C33.8583 263.611 34.3356 259.156 33.9911 256.564C33.8045 253.537 33.9658 250.23 34.3405 247.54C35.4603 240.137 36.9954 236.876 38.054 234.08C39.1698 231.36 40.125 229.393 41.0159 227.597C42.8105 224.014 44.4192 221.115 45.9856 218.31C49.0989 212.762 52.1193 207.581 55.0253 202.459C57.5211 198.084 53.6431 202.461 57.1429 196.993C59.9226 192.656 63.7356 188.341 62.5374 190.898C62.2584 191.49 56.4287 200.134 53.8225 204.907C46.1723 218.95 48.9576 216.185 48.5347 216.966C47.9541 218.36 42.7153 225.185 38.296 236.778C37.4211 239.318 36.328 242.472 35.6076 247.71C35.2501 250.372 35.1158 253.594 35.3081 256.486C35.4806 258.463 35.5425 261.336 37.2342 266.829C38.7017 271.883 43.6237 281.469 52.4121 287.356C70.723 298.214 78.5391 293.707 82.5729 293.75C90.7077 292.051 92.2868 290.804 94.8443 289.764C99.2335 287.693 101.736 286.168 104.481 284.563C109.856 281.359 114.924 278.173 121.997 273.849C113.185 280.472 119.365 278.272 107.819 284.982ZM310.142 -129.161C309.958 -128.266 300.843 -123.244 297.649 -121.093C297.729 -121.943 307.032 -127.115 310.142 -129.161ZM320.708 273.063C319.824 276.419 332.934 254.332 328.842 259.779C327.918 260.964 322.331 270.142 320.708 273.063ZM380.329 177.853C381.881 174.94 374.133 185.718 374.764 186.126C374.988 186.219 380.113 178.252 380.329 177.853ZM141.394 66.5259C141.698 66.0019 146.895 58.5697 147.097 58.3662C151.378 54.0006 134.404 78.503 141.394 66.5259ZM452 64.4799C446.376 74.4258 465.149 45.6548 458.806 54.0503C458.492 54.4717 452.285 63.9825 452 64.4799ZM477.482 24.1946C476.035 26.5572 469.32 36.5462 469.468 36.8592C469.761 37.2938 477.407 25.8525 477.482 24.1946ZM265.343 -122.768C263.606 -122.357 272.982 -135.208 275.784 -139.932C277.525 -140.338 268.201 -127.475 265.343 -122.768ZM209.292 -38.681C245.65 -95.7763 239.662 -81.7983 207.586 -34.9903C206.875 -35.3589 207.005 -35.0952 209.292 -38.681ZM256.799 -110.965C256.699 -110.593 256.516 -110.136 256.266 -109.609C256.156 -109.377 256.033 -109.132 255.898 -108.875C254.376 -105.938 251.136 -101.242 248.899 -97.9019C248.927 -98.7987 253.204 -105.241 255.617 -109.057C255.769 -109.298 255.915 -109.528 256.052 -109.748C256.341 -110.209 256.594 -110.62 256.799 -110.965ZM304.161 302.957C305.493 296.472 316.378 278.047 314.919 281.689C314.582 281.916 303.77 304.217 304.161 302.957ZM143.632 61.2042C141.762 61.8445 153.384 45.1268 154.464 43.9791C158.822 39.335 144.329 59.6612 143.632 61.2042ZM306.161 -192.81C305.966 -192.555 305.75 -192.139 305.508 -190.872C305.327 -189.518 304.818 -187.603 305.494 -182.029C305.877 -177.175 310.126 -163.794 321.165 -156C331.824 -148.575 338.58 -148.905 341.532 -148.563C341.89 -148.547 342.288 -148.536 342.711 -148.532C347.692 -148.515 350.696 -149.489 351.549 -149.751C352.524 -150.08 352.381 -150.088 352.121 -149.976C352.183 -150.207 352.442 -150.42 351.805 -150.287C351.235 -150.269 349.048 -149.201 342.718 -149.17C342.305 -149.176 341.915 -149.19 341.564 -149.207C338.935 -149.507 333.915 -149.251 324.704 -154.44C315.09 -159.477 307.512 -172.84 306.633 -179.088C305.204 -185.793 305.731 -188.432 305.796 -190.158C305.953 -191.826 306.094 -192.434 306.161 -192.81ZM289.337 -164.144C289.538 -164.522 294.12 -171.929 294.312 -172.191C298.783 -177.8 285.821 -156.844 289.337 -164.144ZM617.256 132.527C616.806 132.747 622.404 129.962 622.666 129.851C624.902 129.076 623.428 130.055 621.335 131.185C619.362 132.274 616.217 133.664 617.809 132.715C618.018 132.595 618.223 132.479 618.216 132.447C618.22 132.411 617.997 132.465 617.734 132.539C617.267 132.672 617.071 132.696 617.256 132.527Z" fill="white" fill-opacity="0.1"/>
</g>
</g>
<defs>
<filter id="filter0_d_6_3153" x="0" y="-0.00500488" width="534" height="111.995" filterUnits="userSpaceOnUse" color-interpolation-filters="sRGB">
<feFlood flood-opacity="0" result="BackgroundImageFix"/>
<feColorMatrix in="SourceAlpha" type="matrix" values="0 0 0 0 0 0 0 0 0 0 0 0 0 0 0 0 0 0 127 0" result="hardAlpha"/>
<feOffset dy="1"/>
<feGaussianBlur stdDeviation="1"/>
<feComposite in2="hardAlpha" operator="out"/>
<feColorMatrix type="matrix" values="0 0 0 0 0 0 0 0 0 0 0 0 0 0 0 0 0 0 0.05 0"/>
<feBlend mode="normal" in2="BackgroundImageFix" result="effect1_dropShadow_6_3153"/>
<feBlend mode="normal" in="SourceGraphic" in2="effect1_dropShadow_6_3153" result="shape"/>
</filter>
<clipPath id="clip0_6_3153">
<rect x="2" y="0.994995" width="530" height="107.995" rx="8" fill="white"/>
</clipPath>
</defs>
</svg>
